G04 #@! TF.GenerationSoftware,KiCad,Pcbnew,8.0.7*
G04 #@! TF.CreationDate,2025-01-07T02:15:50-08:00*
G04 #@! TF.ProjectId,standalone_pi_loop,7374616e-6461-46c6-9f6e-655f70695f6c,rev?*
G04 #@! TF.SameCoordinates,Original*
G04 #@! TF.FileFunction,Soldermask,Top*
G04 #@! TF.FilePolarity,Negative*
%FSLAX46Y46*%
G04 Gerber Fmt 4.6, Leading zero omitted, Abs format (unit mm)*
G04 Created by KiCad (PCBNEW 8.0.7) date 2025-01-07 02:15:50*
%MOMM*%
%LPD*%
G01*
G04 APERTURE LIST*
G04 Aperture macros list*
%AMRoundRect*
0 Rectangle with rounded corners*
0 $1 Rounding radius*
0 $2 $3 $4 $5 $6 $7 $8 $9 X,Y pos of 4 corners*
0 Add a 4 corners polygon primitive as box body*
4,1,4,$2,$3,$4,$5,$6,$7,$8,$9,$2,$3,0*
0 Add four circle primitives for the rounded corners*
1,1,$1+$1,$2,$3*
1,1,$1+$1,$4,$5*
1,1,$1+$1,$6,$7*
1,1,$1+$1,$8,$9*
0 Add four rect primitives between the rounded corners*
20,1,$1+$1,$2,$3,$4,$5,0*
20,1,$1+$1,$4,$5,$6,$7,0*
20,1,$1+$1,$6,$7,$8,$9,0*
20,1,$1+$1,$8,$9,$2,$3,0*%
G04 Aperture macros list end*
%ADD10C,1.600000*%
%ADD11R,1.500000X5.080000*%
%ADD12C,1.440000*%
%ADD13RoundRect,0.249999X-1.025001X-1.025001X1.025001X-1.025001X1.025001X1.025001X-1.025001X1.025001X0*%
%ADD14C,2.550000*%
%ADD15RoundRect,0.250000X0.265000X0.615000X-0.265000X0.615000X-0.265000X-0.615000X0.265000X-0.615000X0*%
%ADD16O,1.030000X1.730000*%
%ADD17O,1.600000X1.600000*%
%ADD18R,1.700000X1.700000*%
%ADD19O,1.700000X1.700000*%
%ADD20C,3.200000*%
%ADD21R,2.400000X1.600000*%
%ADD22O,2.400000X1.600000*%
G04 APERTURE END LIST*
D10*
X117000000Y-142980000D03*
X112000000Y-142980000D03*
X133420000Y-135140000D03*
X133420000Y-130140000D03*
D11*
X110000000Y-147450000D03*
X114250000Y-147450000D03*
X105750000Y-147450000D03*
D12*
X124900000Y-118240000D03*
X122360000Y-118240000D03*
X119820000Y-118240000D03*
D13*
X146900000Y-55000000D03*
D14*
X151700000Y-55000000D03*
X156500000Y-55000000D03*
X161300000Y-55000000D03*
X166100000Y-55000000D03*
D15*
X141000000Y-55500000D03*
D16*
X139500000Y-55500000D03*
X138000000Y-55500000D03*
X136500000Y-55500000D03*
X135000000Y-55500000D03*
X133500000Y-55500000D03*
X132000000Y-55500000D03*
X130500000Y-55500000D03*
X129000000Y-55500000D03*
X127500000Y-55500000D03*
D12*
X158540000Y-122500000D03*
X161080000Y-122500000D03*
X163620000Y-122500000D03*
D10*
X159420000Y-112000000D03*
D17*
X169580000Y-112000000D03*
D10*
X182240000Y-114820000D03*
X182240000Y-109820000D03*
D18*
X117320000Y-122940000D03*
D19*
X117320000Y-125480000D03*
D10*
X179240000Y-114820000D03*
X179240000Y-109820000D03*
D20*
X190000000Y-135000000D03*
X110000000Y-65000000D03*
D10*
X168040000Y-130500000D03*
X173040000Y-130500000D03*
D21*
X119700000Y-132700000D03*
D22*
X119700000Y-135240000D03*
X119700000Y-137780000D03*
X119700000Y-140320000D03*
X127320000Y-140320000D03*
X127320000Y-137780000D03*
X127320000Y-135240000D03*
X127320000Y-132700000D03*
D20*
X190000000Y-65000000D03*
D10*
X183500000Y-131580000D03*
D17*
X183500000Y-121420000D03*
D10*
X155540000Y-118000000D03*
D17*
X165700000Y-118000000D03*
D20*
X110000000Y-135000000D03*
D21*
X176040000Y-123120000D03*
D22*
X176040000Y-120580000D03*
X176040000Y-118040000D03*
X176040000Y-115500000D03*
X168420000Y-115500000D03*
X168420000Y-118040000D03*
X168420000Y-120580000D03*
X168420000Y-123120000D03*
D10*
X130620000Y-130140000D03*
X130620000Y-135140000D03*
X163040000Y-137000000D03*
D17*
X152880000Y-137000000D03*
D10*
X168040000Y-127500000D03*
X173040000Y-127500000D03*
X158040000Y-127500000D03*
X163040000Y-127500000D03*
X117260000Y-129440000D03*
D17*
X127420000Y-129440000D03*
D10*
X166080000Y-103000000D03*
D17*
X155920000Y-103000000D03*
D11*
X158000000Y-147450000D03*
X162250000Y-147450000D03*
X153750000Y-147450000D03*
D18*
X127420000Y-122840000D03*
D19*
X127420000Y-125380000D03*
D10*
X158140000Y-130580000D03*
X163140000Y-130580000D03*
X166000000Y-106250000D03*
X161000000Y-106250000D03*
X158040000Y-133500000D03*
X163040000Y-133500000D03*
X117000000Y-140000000D03*
X112000000Y-140000000D03*
D15*
X121000000Y-55500000D03*
D16*
X119500000Y-55500000D03*
X118000000Y-55500000D03*
X116500000Y-55500000D03*
X115000000Y-55500000D03*
X113500000Y-55500000D03*
X112000000Y-55500000D03*
X110500000Y-55500000D03*
X109000000Y-55500000D03*
X107500000Y-55500000D03*
D11*
X126000000Y-147450000D03*
X130250000Y-147450000D03*
X121750000Y-147450000D03*
X142000000Y-147450000D03*
X146250000Y-147450000D03*
X137750000Y-147450000D03*
D18*
X133740000Y-139240000D03*
D19*
X136280000Y-139240000D03*
X138820000Y-139240000D03*
D11*
X174000000Y-147450000D03*
X178250000Y-147450000D03*
X169750000Y-147450000D03*
D10*
X179540000Y-131580000D03*
D17*
X179540000Y-121420000D03*
D10*
X179080000Y-135500000D03*
D17*
X168920000Y-135500000D03*
D12*
X155540000Y-113500000D03*
X153000000Y-113500000D03*
X150460000Y-113500000D03*
M02*
