G04 #@! TF.GenerationSoftware,KiCad,Pcbnew,8.0.7*
G04 #@! TF.CreationDate,2025-01-07T02:15:50-08:00*
G04 #@! TF.ProjectId,standalone_pi_loop,7374616e-6461-46c6-9f6e-655f70695f6c,rev?*
G04 #@! TF.SameCoordinates,Original*
G04 #@! TF.FileFunction,Copper,L1,Top*
G04 #@! TF.FilePolarity,Positive*
%FSLAX46Y46*%
G04 Gerber Fmt 4.6, Leading zero omitted, Abs format (unit mm)*
G04 Created by KiCad (PCBNEW 8.0.7) date 2025-01-07 02:15:50*
%MOMM*%
%LPD*%
G01*
G04 APERTURE LIST*
G04 Aperture macros list*
%AMRoundRect*
0 Rectangle with rounded corners*
0 $1 Rounding radius*
0 $2 $3 $4 $5 $6 $7 $8 $9 X,Y pos of 4 corners*
0 Add a 4 corners polygon primitive as box body*
4,1,4,$2,$3,$4,$5,$6,$7,$8,$9,$2,$3,0*
0 Add four circle primitives for the rounded corners*
1,1,$1+$1,$2,$3*
1,1,$1+$1,$4,$5*
1,1,$1+$1,$6,$7*
1,1,$1+$1,$8,$9*
0 Add four rect primitives between the rounded corners*
20,1,$1+$1,$2,$3,$4,$5,0*
20,1,$1+$1,$4,$5,$6,$7,0*
20,1,$1+$1,$6,$7,$8,$9,0*
20,1,$1+$1,$8,$9,$2,$3,0*%
G04 Aperture macros list end*
G04 #@! TA.AperFunction,ComponentPad*
%ADD10C,1.600000*%
G04 #@! TD*
G04 #@! TA.AperFunction,SMDPad,CuDef*
%ADD11R,1.500000X5.080000*%
G04 #@! TD*
G04 #@! TA.AperFunction,ComponentPad*
%ADD12C,1.440000*%
G04 #@! TD*
G04 #@! TA.AperFunction,ComponentPad*
%ADD13RoundRect,0.249999X-1.025001X-1.025001X1.025001X-1.025001X1.025001X1.025001X-1.025001X1.025001X0*%
G04 #@! TD*
G04 #@! TA.AperFunction,ComponentPad*
%ADD14C,2.550000*%
G04 #@! TD*
G04 #@! TA.AperFunction,ComponentPad*
%ADD15RoundRect,0.250000X0.265000X0.615000X-0.265000X0.615000X-0.265000X-0.615000X0.265000X-0.615000X0*%
G04 #@! TD*
G04 #@! TA.AperFunction,ComponentPad*
%ADD16O,1.030000X1.730000*%
G04 #@! TD*
G04 #@! TA.AperFunction,ComponentPad*
%ADD17O,1.600000X1.600000*%
G04 #@! TD*
G04 #@! TA.AperFunction,ComponentPad*
%ADD18R,1.700000X1.700000*%
G04 #@! TD*
G04 #@! TA.AperFunction,ComponentPad*
%ADD19O,1.700000X1.700000*%
G04 #@! TD*
G04 #@! TA.AperFunction,ComponentPad*
%ADD20R,2.400000X1.600000*%
G04 #@! TD*
G04 #@! TA.AperFunction,ComponentPad*
%ADD21O,2.400000X1.600000*%
G04 #@! TD*
G04 #@! TA.AperFunction,ViaPad*
%ADD22C,0.800000*%
G04 #@! TD*
G04 #@! TA.AperFunction,Conductor*
%ADD23C,0.500000*%
G04 #@! TD*
G04 #@! TA.AperFunction,Conductor*
%ADD24C,0.250000*%
G04 #@! TD*
G04 #@! TA.AperFunction,Conductor*
%ADD25C,0.350000*%
G04 #@! TD*
G04 APERTURE END LIST*
D10*
X117000000Y-142980000D03*
X112000000Y-142980000D03*
X133420000Y-135140000D03*
X133420000Y-130140000D03*
D11*
X110000000Y-147450000D03*
X114250000Y-147450000D03*
X105750000Y-147450000D03*
D12*
X124900000Y-118240000D03*
X122360000Y-118240000D03*
X119820000Y-118240000D03*
D13*
X146900000Y-55000000D03*
D14*
X151700000Y-55000000D03*
X156500000Y-55000000D03*
X161300000Y-55000000D03*
X166100000Y-55000000D03*
D15*
X141000000Y-55500000D03*
D16*
X139500000Y-55500000D03*
X138000000Y-55500000D03*
X136500000Y-55500000D03*
X135000000Y-55500000D03*
X133500000Y-55500000D03*
X132000000Y-55500000D03*
X130500000Y-55500000D03*
X129000000Y-55500000D03*
X127500000Y-55500000D03*
D12*
X158540000Y-122500000D03*
X161080000Y-122500000D03*
X163620000Y-122500000D03*
D10*
X159420000Y-112000000D03*
D17*
X169580000Y-112000000D03*
D10*
X182240000Y-114820000D03*
X182240000Y-109820000D03*
D18*
X117320000Y-122940000D03*
D19*
X117320000Y-125480000D03*
D10*
X179240000Y-114820000D03*
X179240000Y-109820000D03*
X168040000Y-130500000D03*
X173040000Y-130500000D03*
D20*
X119700000Y-132700000D03*
D21*
X119700000Y-135240000D03*
X119700000Y-137780000D03*
X119700000Y-140320000D03*
X127320000Y-140320000D03*
X127320000Y-137780000D03*
X127320000Y-135240000D03*
X127320000Y-132700000D03*
D10*
X183500000Y-131580000D03*
D17*
X183500000Y-121420000D03*
D10*
X155540000Y-118000000D03*
D17*
X165700000Y-118000000D03*
D20*
X176040000Y-123120000D03*
D21*
X176040000Y-120580000D03*
X176040000Y-118040000D03*
X176040000Y-115500000D03*
X168420000Y-115500000D03*
X168420000Y-118040000D03*
X168420000Y-120580000D03*
X168420000Y-123120000D03*
D10*
X130620000Y-130140000D03*
X130620000Y-135140000D03*
X163040000Y-137000000D03*
D17*
X152880000Y-137000000D03*
D10*
X168040000Y-127500000D03*
X173040000Y-127500000D03*
X158040000Y-127500000D03*
X163040000Y-127500000D03*
X117260000Y-129440000D03*
D17*
X127420000Y-129440000D03*
D10*
X166080000Y-103000000D03*
D17*
X155920000Y-103000000D03*
D11*
X158000000Y-147450000D03*
X162250000Y-147450000D03*
X153750000Y-147450000D03*
D18*
X127420000Y-122840000D03*
D19*
X127420000Y-125380000D03*
D10*
X158140000Y-130580000D03*
X163140000Y-130580000D03*
X166000000Y-106250000D03*
X161000000Y-106250000D03*
X158040000Y-133500000D03*
X163040000Y-133500000D03*
X117000000Y-140000000D03*
X112000000Y-140000000D03*
D15*
X121000000Y-55500000D03*
D16*
X119500000Y-55500000D03*
X118000000Y-55500000D03*
X116500000Y-55500000D03*
X115000000Y-55500000D03*
X113500000Y-55500000D03*
X112000000Y-55500000D03*
X110500000Y-55500000D03*
X109000000Y-55500000D03*
X107500000Y-55500000D03*
D11*
X126000000Y-147450000D03*
X130250000Y-147450000D03*
X121750000Y-147450000D03*
X142000000Y-147450000D03*
X146250000Y-147450000D03*
X137750000Y-147450000D03*
D18*
X133740000Y-139240000D03*
D19*
X136280000Y-139240000D03*
X138820000Y-139240000D03*
D11*
X174000000Y-147450000D03*
X178250000Y-147450000D03*
X169750000Y-147450000D03*
D10*
X179540000Y-131580000D03*
D17*
X179540000Y-121420000D03*
D10*
X179080000Y-135500000D03*
D17*
X168920000Y-135500000D03*
D12*
X155540000Y-113500000D03*
X153000000Y-113500000D03*
X150460000Y-113500000D03*
D22*
X169750000Y-147500000D03*
X178250000Y-147450000D03*
X162250000Y-147500000D03*
X122250000Y-122750000D03*
X153750000Y-147500000D03*
X130250000Y-147500000D03*
X121750000Y-147500000D03*
D23*
X168040000Y-130500000D02*
X168040000Y-123500000D01*
D24*
X127580000Y-135500000D02*
X127320000Y-135240000D01*
D23*
X127320000Y-135240000D02*
X133320000Y-135240000D01*
X133320000Y-135240000D02*
X133420000Y-135140000D01*
X168040000Y-123500000D02*
X168420000Y-123120000D01*
D25*
X179240000Y-114820000D02*
X182240000Y-114820000D01*
X178560000Y-115500000D02*
X179240000Y-114820000D01*
D23*
X117320000Y-140320000D02*
X117000000Y-140000000D01*
X119700000Y-140320000D02*
X117320000Y-140320000D01*
D25*
X176040000Y-115500000D02*
X178560000Y-115500000D01*
D23*
X117000000Y-140000000D02*
X117000000Y-142980000D01*
D25*
X179540000Y-126620000D02*
X176040000Y-123120000D01*
X179540000Y-131580000D02*
X179540000Y-126620000D01*
X161080000Y-122500000D02*
X161080000Y-124460000D01*
X161080000Y-124460000D02*
X158040000Y-127500000D01*
X158040000Y-133500000D02*
X158040000Y-127500000D01*
D23*
X152880000Y-142330000D02*
X158000000Y-147450000D01*
X152880000Y-137000000D02*
X152880000Y-142330000D01*
X168920000Y-135500000D02*
X168920000Y-142370000D01*
X168920000Y-142370000D02*
X174000000Y-147450000D01*
D24*
X132280000Y-137780000D02*
X133740000Y-139240000D01*
X127320000Y-137780000D02*
X132280000Y-137780000D01*
D25*
X168380000Y-118000000D02*
X168420000Y-118040000D01*
X165700000Y-120420000D02*
X163620000Y-122500000D01*
X165700000Y-118000000D02*
X165700000Y-120420000D01*
X165700000Y-118000000D02*
X168380000Y-118000000D01*
X179540000Y-121420000D02*
X176880000Y-121420000D01*
X176880000Y-121420000D02*
X176040000Y-120580000D01*
X153000000Y-113500000D02*
X155540000Y-113500000D01*
X155540000Y-113500000D02*
X155540000Y-118000000D01*
D23*
X117260000Y-129440000D02*
X117260000Y-125540000D01*
X119700000Y-131880000D02*
X117260000Y-129440000D01*
X117260000Y-125540000D02*
X117320000Y-125480000D01*
X119700000Y-132700000D02*
X119700000Y-131880000D01*
X117320000Y-120740000D02*
X119820000Y-118240000D01*
X119820000Y-118240000D02*
X122360000Y-118240000D01*
X117320000Y-122940000D02*
X117320000Y-120740000D01*
X127320000Y-120660000D02*
X127320000Y-122740000D01*
X127320000Y-122740000D02*
X127420000Y-122840000D01*
X124900000Y-118240000D02*
X127320000Y-120660000D01*
X127420000Y-129440000D02*
X127420000Y-132600000D01*
X127420000Y-125380000D02*
X127420000Y-129440000D01*
X127420000Y-132600000D02*
X127320000Y-132700000D01*
D25*
X136280000Y-139240000D02*
X136280000Y-127680000D01*
X136280000Y-127680000D02*
X150460000Y-113500000D01*
D24*
X126000000Y-147450000D02*
X126000000Y-144080000D01*
X126000000Y-144080000D02*
X119700000Y-137780000D01*
X130250000Y-145790000D02*
X119700000Y-135240000D01*
X130250000Y-147450000D02*
X130250000Y-145790000D01*
D25*
X180120000Y-118040000D02*
X183500000Y-121420000D01*
X176040000Y-118040000D02*
X180120000Y-118040000D01*
X168633299Y-132755000D02*
X164750000Y-128871701D01*
X163040000Y-133500000D02*
X163040000Y-125960000D01*
X182325000Y-132755000D02*
X168633299Y-132755000D01*
X183500000Y-131580000D02*
X182325000Y-132755000D01*
X164750000Y-128871701D02*
X164750000Y-124250000D01*
X163040000Y-133500000D02*
X163040000Y-137000000D01*
X163040000Y-125960000D02*
X164750000Y-124250000D01*
X164750000Y-124250000D02*
X168420000Y-120580000D01*
D23*
X138820000Y-139240000D02*
X141500000Y-141920000D01*
X141500000Y-142500000D02*
X142000000Y-143000000D01*
X141500000Y-141920000D02*
X141500000Y-142500000D01*
X142000000Y-143000000D02*
X142000000Y-147450000D01*
X110000000Y-147450000D02*
X105000000Y-142450000D01*
X155920000Y-103000000D02*
X116000000Y-103000000D01*
X105000000Y-142450000D02*
X105000000Y-114000000D01*
X116000000Y-103000000D02*
X114250000Y-104750000D01*
X105000000Y-114000000D02*
X114250000Y-104750000D01*
X169580000Y-114340000D02*
X168420000Y-115500000D01*
X169580000Y-112000000D02*
X169580000Y-114340000D01*
X166080000Y-108500000D02*
X169580000Y-112000000D01*
X166080000Y-103000000D02*
X166080000Y-108500000D01*
G04 #@! TA.AperFunction,Conductor*
G36*
X149193039Y-51769685D02*
G01*
X149238794Y-51822489D01*
X149250000Y-51874000D01*
X149250000Y-56620500D01*
X149230315Y-56687539D01*
X149177511Y-56733294D01*
X149126000Y-56744500D01*
X148565523Y-56744500D01*
X148498484Y-56724815D01*
X148452729Y-56672011D01*
X148442785Y-56602853D01*
X148471810Y-56539297D01*
X148477842Y-56532819D01*
X148517316Y-56493344D01*
X148517319Y-56493340D01*
X148609354Y-56344130D01*
X148609359Y-56344119D01*
X148664505Y-56177697D01*
X148674999Y-56074986D01*
X148675000Y-56074973D01*
X148675000Y-55250000D01*
X147635300Y-55250000D01*
X147645217Y-55226059D01*
X147675000Y-55076331D01*
X147675000Y-54923669D01*
X147645217Y-54773941D01*
X147635300Y-54750000D01*
X148674999Y-54750000D01*
X148674999Y-53925028D01*
X148674998Y-53925013D01*
X148664505Y-53822303D01*
X148664505Y-53822301D01*
X148609359Y-53655880D01*
X148609354Y-53655869D01*
X148517319Y-53506659D01*
X148517316Y-53506655D01*
X148393344Y-53382683D01*
X148393340Y-53382680D01*
X148244130Y-53290645D01*
X148244119Y-53290640D01*
X148077697Y-53235494D01*
X147974986Y-53225000D01*
X147150000Y-53225000D01*
X147150000Y-54264699D01*
X147126059Y-54254783D01*
X146976331Y-54225000D01*
X146823669Y-54225000D01*
X146673941Y-54254783D01*
X146650000Y-54264699D01*
X146650000Y-53225000D01*
X145825028Y-53225000D01*
X145825012Y-53225001D01*
X145722303Y-53235494D01*
X145722301Y-53235494D01*
X145555880Y-53290640D01*
X145555869Y-53290645D01*
X145406659Y-53382680D01*
X145406655Y-53382683D01*
X145282683Y-53506655D01*
X145282680Y-53506659D01*
X145190645Y-53655869D01*
X145190640Y-53655880D01*
X145135494Y-53822302D01*
X145125000Y-53925013D01*
X145125000Y-54750000D01*
X146164700Y-54750000D01*
X146154783Y-54773941D01*
X146125000Y-54923669D01*
X146125000Y-55076331D01*
X146154783Y-55226059D01*
X146164700Y-55250000D01*
X145125001Y-55250000D01*
X145125001Y-56074986D01*
X145135494Y-56177696D01*
X145135494Y-56177698D01*
X145190640Y-56344119D01*
X145190645Y-56344130D01*
X145282680Y-56493340D01*
X145282683Y-56493344D01*
X145322158Y-56532819D01*
X145355643Y-56594142D01*
X145350659Y-56663834D01*
X145308787Y-56719767D01*
X145243323Y-56744184D01*
X145234477Y-56744500D01*
X141980090Y-56744500D01*
X141913051Y-56724815D01*
X141867296Y-56672011D01*
X141857352Y-56602853D01*
X141874551Y-56555403D01*
X141949356Y-56434124D01*
X141949358Y-56434119D01*
X142004505Y-56267697D01*
X142004506Y-56267690D01*
X142014999Y-56164986D01*
X142015000Y-56164973D01*
X142015000Y-55750000D01*
X141266189Y-55750000D01*
X141292073Y-55724116D01*
X141340126Y-55640885D01*
X141365000Y-55548053D01*
X141365000Y-55451947D01*
X141340126Y-55359115D01*
X141292073Y-55275884D01*
X141266189Y-55250000D01*
X142014999Y-55250000D01*
X142014999Y-54835028D01*
X142014998Y-54835013D01*
X142004505Y-54732302D01*
X141949358Y-54565880D01*
X141949356Y-54565875D01*
X141857315Y-54416654D01*
X141733345Y-54292684D01*
X141584124Y-54200643D01*
X141584119Y-54200641D01*
X141417697Y-54145494D01*
X141417690Y-54145493D01*
X141314986Y-54135000D01*
X141250000Y-54135000D01*
X141250000Y-55233811D01*
X141224116Y-55207927D01*
X141140885Y-55159874D01*
X141048053Y-55135000D01*
X140951947Y-55135000D01*
X140859115Y-55159874D01*
X140775884Y-55207927D01*
X140750000Y-55233811D01*
X140750000Y-54135000D01*
X140750000Y-53000000D01*
X141000000Y-53000000D01*
X141000000Y-51750000D01*
X149126000Y-51750000D01*
X149193039Y-51769685D01*
G37*
G04 #@! TD.AperFunction*
G04 #@! TA.AperFunction,Conductor*
G36*
X141000000Y-53000000D02*
G01*
X140750000Y-53000000D01*
X140750000Y-54135000D01*
X140749999Y-54134999D01*
X140685028Y-54135000D01*
X140685011Y-54135001D01*
X140582302Y-54145494D01*
X140413004Y-54201594D01*
X140343175Y-54203996D01*
X140283134Y-54168264D01*
X140251941Y-54105743D01*
X140250000Y-54083888D01*
X140250000Y-53500000D01*
X128250000Y-53500000D01*
X128250000Y-54198415D01*
X128230315Y-54265454D01*
X128177511Y-54311209D01*
X128108353Y-54321153D01*
X128057110Y-54301518D01*
X127980787Y-54250521D01*
X127980780Y-54250517D01*
X127796065Y-54174006D01*
X127796057Y-54174004D01*
X127750000Y-54164842D01*
X127750000Y-55233811D01*
X127724116Y-55207927D01*
X127640885Y-55159874D01*
X127548053Y-55135000D01*
X127451947Y-55135000D01*
X127359115Y-55159874D01*
X127275884Y-55207927D01*
X127250000Y-55233811D01*
X127250000Y-54164843D01*
X127249999Y-54164842D01*
X127203942Y-54174004D01*
X127203934Y-54174006D01*
X127019219Y-54250517D01*
X127019210Y-54250522D01*
X126852975Y-54361597D01*
X126852971Y-54361600D01*
X126711600Y-54502971D01*
X126711597Y-54502975D01*
X126600522Y-54669210D01*
X126600517Y-54669219D01*
X126524006Y-54853934D01*
X126524004Y-54853942D01*
X126485000Y-55050026D01*
X126485000Y-55250000D01*
X127233811Y-55250000D01*
X127207927Y-55275884D01*
X127159874Y-55359115D01*
X127135000Y-55451947D01*
X127135000Y-55548053D01*
X127159874Y-55640885D01*
X127207927Y-55724116D01*
X127233811Y-55750000D01*
X126485000Y-55750000D01*
X126485000Y-55949973D01*
X126524004Y-56146057D01*
X126524006Y-56146065D01*
X126600517Y-56330780D01*
X126600522Y-56330789D01*
X126711597Y-56497024D01*
X126711600Y-56497028D01*
X126852971Y-56638399D01*
X126852975Y-56638402D01*
X127019210Y-56749477D01*
X127019223Y-56749484D01*
X127203929Y-56825991D01*
X127203936Y-56825993D01*
X127250000Y-56835155D01*
X127250000Y-55766189D01*
X127275884Y-55792073D01*
X127359115Y-55840126D01*
X127451947Y-55865000D01*
X127548053Y-55865000D01*
X127640885Y-55840126D01*
X127724116Y-55792073D01*
X127750000Y-55766189D01*
X127750000Y-56835154D01*
X127796063Y-56825993D01*
X127796070Y-56825991D01*
X127980776Y-56749484D01*
X127980789Y-56749477D01*
X128057109Y-56698482D01*
X128123786Y-56677604D01*
X128191167Y-56696088D01*
X128237857Y-56748067D01*
X128250000Y-56801584D01*
X128250000Y-57126000D01*
X128230315Y-57193039D01*
X128177511Y-57238794D01*
X128126000Y-57250000D01*
X124000000Y-57250000D01*
X120374000Y-57250000D01*
X120306961Y-57230315D01*
X120261206Y-57177511D01*
X120250000Y-57126000D01*
X120250000Y-56916111D01*
X120269685Y-56849072D01*
X120322489Y-56803317D01*
X120391647Y-56793373D01*
X120413004Y-56798405D01*
X120582302Y-56854505D01*
X120582309Y-56854506D01*
X120685019Y-56864999D01*
X120749999Y-56864998D01*
X120750000Y-56864998D01*
X120750000Y-55766189D01*
X120775884Y-55792073D01*
X120859115Y-55840126D01*
X120951947Y-55865000D01*
X121048053Y-55865000D01*
X121140885Y-55840126D01*
X121224116Y-55792073D01*
X121250000Y-55766189D01*
X121250000Y-56864999D01*
X121314972Y-56864999D01*
X121314986Y-56864998D01*
X121417697Y-56854505D01*
X121584119Y-56799358D01*
X121584124Y-56799356D01*
X121733345Y-56707315D01*
X121857315Y-56583345D01*
X121949356Y-56434124D01*
X121949358Y-56434119D01*
X122004505Y-56267697D01*
X122004506Y-56267690D01*
X122014999Y-56164986D01*
X122015000Y-56164973D01*
X122015000Y-55750000D01*
X121266189Y-55750000D01*
X121292073Y-55724116D01*
X121340126Y-55640885D01*
X121365000Y-55548053D01*
X121365000Y-55451947D01*
X121340126Y-55359115D01*
X121292073Y-55275884D01*
X121266189Y-55250000D01*
X122014999Y-55250000D01*
X122014999Y-54835028D01*
X122014998Y-54835013D01*
X122004505Y-54732302D01*
X121949358Y-54565880D01*
X121949356Y-54565875D01*
X121857315Y-54416654D01*
X121733345Y-54292684D01*
X121584124Y-54200643D01*
X121584119Y-54200641D01*
X121417697Y-54145494D01*
X121417690Y-54145493D01*
X121314986Y-54135000D01*
X121250000Y-54135000D01*
X121250000Y-55233811D01*
X121224116Y-55207927D01*
X121140885Y-55159874D01*
X121048053Y-55135000D01*
X120951947Y-55135000D01*
X120859115Y-55159874D01*
X120775884Y-55207927D01*
X120750000Y-55233811D01*
X120750000Y-54135000D01*
X120749999Y-54134999D01*
X120685028Y-54135000D01*
X120685011Y-54135001D01*
X120582302Y-54145494D01*
X120413004Y-54201594D01*
X120343175Y-54203996D01*
X120283134Y-54168264D01*
X120251941Y-54105743D01*
X120250000Y-54083888D01*
X120250000Y-53500000D01*
X108250000Y-53500000D01*
X108250000Y-54198415D01*
X108230315Y-54265454D01*
X108177511Y-54311209D01*
X108108353Y-54321153D01*
X108057110Y-54301518D01*
X107980787Y-54250521D01*
X107980780Y-54250517D01*
X107796065Y-54174006D01*
X107796057Y-54174004D01*
X107750000Y-54164842D01*
X107750000Y-55233811D01*
X107724116Y-55207927D01*
X107640885Y-55159874D01*
X107548053Y-55135000D01*
X107451947Y-55135000D01*
X107359115Y-55159874D01*
X107275884Y-55207927D01*
X107250000Y-55233811D01*
X107250000Y-54164843D01*
X107249999Y-54164842D01*
X107203942Y-54174004D01*
X107203934Y-54174006D01*
X107019219Y-54250517D01*
X107019210Y-54250522D01*
X106852975Y-54361597D01*
X106852971Y-54361600D01*
X106711600Y-54502971D01*
X106711597Y-54502975D01*
X106600522Y-54669210D01*
X106600517Y-54669219D01*
X106524006Y-54853934D01*
X106524004Y-54853942D01*
X106485000Y-55050026D01*
X106485000Y-55250000D01*
X107233811Y-55250000D01*
X107207927Y-55275884D01*
X107159874Y-55359115D01*
X107135000Y-55451947D01*
X107135000Y-55548053D01*
X107159874Y-55640885D01*
X107207927Y-55724116D01*
X107233811Y-55750000D01*
X106485000Y-55750000D01*
X106485000Y-55949973D01*
X106524004Y-56146057D01*
X106524006Y-56146065D01*
X106600517Y-56330780D01*
X106600522Y-56330789D01*
X106711597Y-56497024D01*
X106711600Y-56497028D01*
X106852971Y-56638399D01*
X106852975Y-56638402D01*
X107019210Y-56749477D01*
X107019223Y-56749484D01*
X107203929Y-56825991D01*
X107203936Y-56825993D01*
X107250000Y-56835155D01*
X107250000Y-55766189D01*
X107275884Y-55792073D01*
X107359115Y-55840126D01*
X107451947Y-55865000D01*
X107548053Y-55865000D01*
X107640885Y-55840126D01*
X107724116Y-55792073D01*
X107750000Y-55766189D01*
X107750000Y-56835154D01*
X107796063Y-56825993D01*
X107796070Y-56825991D01*
X107980776Y-56749484D01*
X107980789Y-56749477D01*
X108057109Y-56698482D01*
X108123786Y-56677604D01*
X108191167Y-56696088D01*
X108237857Y-56748067D01*
X108250000Y-56801584D01*
X108250000Y-58126000D01*
X108230315Y-58193039D01*
X108177511Y-58238794D01*
X108126000Y-58250000D01*
X105624000Y-58250000D01*
X105556961Y-58230315D01*
X105511206Y-58177511D01*
X105500000Y-58126000D01*
X105500000Y-51874000D01*
X105519685Y-51806961D01*
X105572489Y-51761206D01*
X105624000Y-51750000D01*
X141000000Y-51750000D01*
X141000000Y-53000000D01*
G37*
G04 #@! TD.AperFunction*
G04 #@! TA.AperFunction,Conductor*
G36*
X135250000Y-56835154D02*
G01*
X135296063Y-56825993D01*
X135296066Y-56825992D01*
X135328547Y-56812539D01*
X135398017Y-56805070D01*
X135460496Y-56836345D01*
X135496148Y-56896434D01*
X135500000Y-56927100D01*
X135500000Y-57250000D01*
X133500000Y-57250000D01*
X133500000Y-59000000D01*
X134611111Y-59000000D01*
X133536995Y-60208381D01*
X133477744Y-60245409D01*
X133444316Y-60250000D01*
X114566363Y-60250000D01*
X114499324Y-60230315D01*
X114463189Y-60194783D01*
X113020826Y-58031239D01*
X113000018Y-57964540D01*
X113000000Y-57962456D01*
X113000000Y-56927100D01*
X113019685Y-56860061D01*
X113072489Y-56814306D01*
X113141647Y-56804362D01*
X113171453Y-56812539D01*
X113203933Y-56825992D01*
X113203936Y-56825993D01*
X113250000Y-56835155D01*
X113250000Y-55766189D01*
X113275884Y-55792073D01*
X113359115Y-55840126D01*
X113451947Y-55865000D01*
X113548053Y-55865000D01*
X113640885Y-55840126D01*
X113724116Y-55792073D01*
X113750000Y-55766189D01*
X113750000Y-56835154D01*
X113796063Y-56825993D01*
X113796070Y-56825991D01*
X113980776Y-56749484D01*
X113980789Y-56749477D01*
X114147024Y-56638402D01*
X114147027Y-56638400D01*
X114162317Y-56623110D01*
X114223639Y-56589623D01*
X114293331Y-56594606D01*
X114337683Y-56623110D01*
X114352972Y-56638400D01*
X114352975Y-56638402D01*
X114519210Y-56749477D01*
X114519223Y-56749484D01*
X114703929Y-56825991D01*
X114703936Y-56825993D01*
X114750000Y-56835155D01*
X114750000Y-55766189D01*
X114775884Y-55792073D01*
X114859115Y-55840126D01*
X114951947Y-55865000D01*
X115048053Y-55865000D01*
X115140885Y-55840126D01*
X115224116Y-55792073D01*
X115250000Y-55766189D01*
X115250000Y-56835154D01*
X115296063Y-56825993D01*
X115296070Y-56825991D01*
X115480776Y-56749484D01*
X115480789Y-56749477D01*
X115647023Y-56638403D01*
X115661962Y-56623464D01*
X115723285Y-56589977D01*
X115792977Y-56594960D01*
X115837329Y-56623464D01*
X115852651Y-56638787D01*
X115852654Y-56638789D01*
X115852656Y-56638791D01*
X115944893Y-56700421D01*
X115989695Y-56754030D01*
X116000000Y-56803521D01*
X116000000Y-57000000D01*
X116500000Y-58500000D01*
X132500000Y-58500000D01*
X132910405Y-56858377D01*
X132945761Y-56798116D01*
X133008085Y-56766534D01*
X133077590Y-56773661D01*
X133078155Y-56773893D01*
X133203933Y-56825992D01*
X133203936Y-56825993D01*
X133250000Y-56835155D01*
X133250000Y-55766189D01*
X133275884Y-55792073D01*
X133359115Y-55840126D01*
X133451947Y-55865000D01*
X133548053Y-55865000D01*
X133640885Y-55840126D01*
X133724116Y-55792073D01*
X133750000Y-55766189D01*
X133750000Y-56835154D01*
X133796063Y-56825993D01*
X133796070Y-56825991D01*
X133980776Y-56749484D01*
X133980789Y-56749477D01*
X134147024Y-56638402D01*
X134147027Y-56638400D01*
X134162317Y-56623110D01*
X134223639Y-56589623D01*
X134293331Y-56594606D01*
X134337683Y-56623110D01*
X134352972Y-56638400D01*
X134352975Y-56638402D01*
X134519210Y-56749477D01*
X134519223Y-56749484D01*
X134703929Y-56825991D01*
X134703936Y-56825993D01*
X134750000Y-56835155D01*
X134750000Y-55766189D01*
X134775884Y-55792073D01*
X134859115Y-55840126D01*
X134951947Y-55865000D01*
X135048053Y-55865000D01*
X135140885Y-55840126D01*
X135224116Y-55792073D01*
X135250000Y-55766189D01*
X135250000Y-56835154D01*
G37*
G04 #@! TD.AperFunction*
G04 #@! TA.AperFunction,Conductor*
G36*
X114707927Y-55275884D02*
G01*
X114659874Y-55359115D01*
X114635000Y-55451947D01*
X114635000Y-55548053D01*
X114659874Y-55640885D01*
X114707927Y-55724116D01*
X114733811Y-55750000D01*
X113766189Y-55750000D01*
X113792073Y-55724116D01*
X113840126Y-55640885D01*
X113865000Y-55548053D01*
X113865000Y-55451947D01*
X113840126Y-55359115D01*
X113792073Y-55275884D01*
X113766189Y-55250000D01*
X114733811Y-55250000D01*
X114707927Y-55275884D01*
G37*
G04 #@! TD.AperFunction*
G04 #@! TA.AperFunction,Conductor*
G36*
X134707927Y-55275884D02*
G01*
X134659874Y-55359115D01*
X134635000Y-55451947D01*
X134635000Y-55548053D01*
X134659874Y-55640885D01*
X134707927Y-55724116D01*
X134733811Y-55750000D01*
X133766189Y-55750000D01*
X133792073Y-55724116D01*
X133840126Y-55640885D01*
X133865000Y-55548053D01*
X133865000Y-55451947D01*
X133840126Y-55359115D01*
X133792073Y-55275884D01*
X133766189Y-55250000D01*
X134733811Y-55250000D01*
X134707927Y-55275884D01*
G37*
G04 #@! TD.AperFunction*
G04 #@! TA.AperFunction,Conductor*
G36*
X163443039Y-52769685D02*
G01*
X163488794Y-52822489D01*
X163500000Y-52874000D01*
X163500000Y-58876000D01*
X163480315Y-58943039D01*
X163427511Y-58988794D01*
X163376000Y-59000000D01*
X133500000Y-59000000D01*
X133500000Y-57250000D01*
X159250000Y-57250000D01*
X159250000Y-54999995D01*
X159520023Y-54999995D01*
X159520023Y-55000004D01*
X159539903Y-55265290D01*
X159539903Y-55265292D01*
X159599098Y-55524643D01*
X159599104Y-55524662D01*
X159696296Y-55772303D01*
X159829313Y-56002695D01*
X159829320Y-56002706D01*
X159880084Y-56066360D01*
X159880085Y-56066361D01*
X160603287Y-55343159D01*
X160613204Y-55367100D01*
X160698018Y-55494034D01*
X160805966Y-55601982D01*
X160932900Y-55686796D01*
X160956839Y-55696712D01*
X160232839Y-56420711D01*
X160410011Y-56541504D01*
X160410015Y-56541506D01*
X160649695Y-56656931D01*
X160649699Y-56656932D01*
X160903909Y-56735346D01*
X160903915Y-56735347D01*
X161166976Y-56774999D01*
X161166983Y-56775000D01*
X161433017Y-56775000D01*
X161433023Y-56774999D01*
X161696084Y-56735347D01*
X161696090Y-56735346D01*
X161950299Y-56656933D01*
X162189984Y-56541507D01*
X162367159Y-56420711D01*
X161643159Y-55696712D01*
X161667100Y-55686796D01*
X161794034Y-55601982D01*
X161901982Y-55494034D01*
X161986796Y-55367100D01*
X161996712Y-55343160D01*
X162719913Y-56066361D01*
X162719913Y-56066360D01*
X162770688Y-56002693D01*
X162903703Y-55772303D01*
X163000895Y-55524662D01*
X163000901Y-55524643D01*
X163060096Y-55265292D01*
X163060096Y-55265290D01*
X163079977Y-55000004D01*
X163079977Y-54999995D01*
X163060096Y-54734709D01*
X163060096Y-54734707D01*
X163000901Y-54475356D01*
X163000895Y-54475337D01*
X162903703Y-54227696D01*
X162770686Y-53997304D01*
X162719913Y-53933637D01*
X161996711Y-54656839D01*
X161986796Y-54632900D01*
X161901982Y-54505966D01*
X161794034Y-54398018D01*
X161667100Y-54313204D01*
X161643158Y-54303287D01*
X162367159Y-53579287D01*
X162189989Y-53458495D01*
X162189985Y-53458493D01*
X161950299Y-53343066D01*
X161696090Y-53264653D01*
X161696084Y-53264652D01*
X161433023Y-53225000D01*
X161166976Y-53225000D01*
X160903915Y-53264652D01*
X160903909Y-53264653D01*
X160649699Y-53343067D01*
X160649695Y-53343068D01*
X160410012Y-53458494D01*
X160410004Y-53458499D01*
X160232840Y-53579286D01*
X160956841Y-54303287D01*
X160932900Y-54313204D01*
X160805966Y-54398018D01*
X160698018Y-54505966D01*
X160613204Y-54632900D01*
X160603287Y-54656840D01*
X159880084Y-53933637D01*
X159829316Y-53997299D01*
X159696296Y-54227696D01*
X159599104Y-54475337D01*
X159599098Y-54475356D01*
X159539903Y-54734707D01*
X159539903Y-54734709D01*
X159520023Y-54999995D01*
X159250000Y-54999995D01*
X159250000Y-52874000D01*
X159269685Y-52806961D01*
X159322489Y-52761206D01*
X159374000Y-52750000D01*
X163376000Y-52750000D01*
X163443039Y-52769685D01*
G37*
G04 #@! TD.AperFunction*
G04 #@! TA.AperFunction,Conductor*
G36*
X118250000Y-56835154D02*
G01*
X118296063Y-56825993D01*
X118296070Y-56825991D01*
X118480776Y-56749484D01*
X118480789Y-56749477D01*
X118647023Y-56638403D01*
X118661962Y-56623464D01*
X118723285Y-56589977D01*
X118792977Y-56594960D01*
X118837329Y-56623464D01*
X118852653Y-56638789D01*
X118852656Y-56638791D01*
X119018973Y-56749921D01*
X119018986Y-56749928D01*
X119202625Y-56825993D01*
X119203789Y-56826475D01*
X119367113Y-56858962D01*
X119399977Y-56865499D01*
X119399981Y-56865500D01*
X119399982Y-56865500D01*
X119600020Y-56865500D01*
X119606083Y-56864903D01*
X119606302Y-56867136D01*
X119665878Y-56872456D01*
X119721063Y-56915308D01*
X119744321Y-56981194D01*
X119744500Y-56987855D01*
X119744500Y-57126000D01*
X119744501Y-57126009D01*
X119756052Y-57233450D01*
X119756054Y-57233462D01*
X119767260Y-57284972D01*
X119801383Y-57387497D01*
X119801386Y-57387503D01*
X119879171Y-57508537D01*
X119879179Y-57508548D01*
X119924923Y-57561340D01*
X119924926Y-57561343D01*
X119924930Y-57561347D01*
X120033664Y-57655567D01*
X120033667Y-57655568D01*
X120033668Y-57655569D01*
X120127925Y-57698616D01*
X120164541Y-57715338D01*
X120231580Y-57735023D01*
X120231584Y-57735024D01*
X120320182Y-57747762D01*
X120383737Y-57776787D01*
X120421512Y-57835565D01*
X120421512Y-57905434D01*
X120383738Y-57964213D01*
X120320183Y-57993238D01*
X120302535Y-57994500D01*
X116953717Y-57994500D01*
X116886678Y-57974815D01*
X116840923Y-57922011D01*
X116836080Y-57909712D01*
X116811364Y-57835565D01*
X116539439Y-57019789D01*
X116536915Y-56949967D01*
X116572540Y-56889862D01*
X116632885Y-56858962D01*
X116796211Y-56826475D01*
X116981020Y-56749925D01*
X117147344Y-56638791D01*
X117162671Y-56623463D01*
X117223989Y-56589978D01*
X117293681Y-56594959D01*
X117338034Y-56623462D01*
X117352971Y-56638399D01*
X117352975Y-56638402D01*
X117519210Y-56749477D01*
X117519223Y-56749484D01*
X117703929Y-56825991D01*
X117703936Y-56825993D01*
X117750000Y-56835155D01*
X117750000Y-55766189D01*
X117775884Y-55792073D01*
X117859115Y-55840126D01*
X117951947Y-55865000D01*
X118048053Y-55865000D01*
X118140885Y-55840126D01*
X118224116Y-55792073D01*
X118250000Y-55766189D01*
X118250000Y-56835154D01*
G37*
G04 #@! TD.AperFunction*
G04 #@! TA.AperFunction,Conductor*
G36*
X130750000Y-56835154D02*
G01*
X130796063Y-56825993D01*
X130796070Y-56825991D01*
X130980776Y-56749484D01*
X130980789Y-56749477D01*
X131147023Y-56638403D01*
X131161962Y-56623464D01*
X131223285Y-56589977D01*
X131292977Y-56594960D01*
X131337329Y-56623464D01*
X131352653Y-56638789D01*
X131352656Y-56638791D01*
X131518973Y-56749921D01*
X131518986Y-56749928D01*
X131702625Y-56825993D01*
X131703789Y-56826475D01*
X131867113Y-56858962D01*
X131899977Y-56865499D01*
X131899981Y-56865500D01*
X131899982Y-56865500D01*
X132100019Y-56865500D01*
X132100019Y-56865499D01*
X132210654Y-56843493D01*
X132280246Y-56849720D01*
X132335423Y-56892583D01*
X132358668Y-56958473D01*
X132355144Y-56995184D01*
X132128798Y-57900574D01*
X132093442Y-57960838D01*
X132031117Y-57992420D01*
X132008500Y-57994500D01*
X128216352Y-57994500D01*
X128149313Y-57974815D01*
X128103558Y-57922011D01*
X128093614Y-57852853D01*
X128122639Y-57789297D01*
X128181417Y-57751523D01*
X128203097Y-57747211D01*
X128233456Y-57743947D01*
X128284967Y-57732741D01*
X128319197Y-57721347D01*
X128387497Y-57698616D01*
X128387501Y-57698613D01*
X128387504Y-57698613D01*
X128508543Y-57620825D01*
X128561347Y-57575070D01*
X128655567Y-57466336D01*
X128715338Y-57335459D01*
X128735023Y-57268420D01*
X128735024Y-57268416D01*
X128755500Y-57126000D01*
X128755500Y-56987855D01*
X128775185Y-56920816D01*
X128827989Y-56875061D01*
X128893849Y-56865591D01*
X128893917Y-56864903D01*
X128896717Y-56865178D01*
X128897147Y-56865117D01*
X128898576Y-56865361D01*
X128899980Y-56865500D01*
X128899982Y-56865500D01*
X129100019Y-56865500D01*
X129100020Y-56865499D01*
X129296211Y-56826475D01*
X129481020Y-56749925D01*
X129647344Y-56638791D01*
X129662671Y-56623463D01*
X129723989Y-56589978D01*
X129793681Y-56594959D01*
X129838034Y-56623462D01*
X129852971Y-56638399D01*
X129852975Y-56638402D01*
X130019210Y-56749477D01*
X130019223Y-56749484D01*
X130203929Y-56825991D01*
X130203936Y-56825993D01*
X130250000Y-56835155D01*
X130250000Y-55766189D01*
X130275884Y-55792073D01*
X130359115Y-55840126D01*
X130451947Y-55865000D01*
X130548053Y-55865000D01*
X130640885Y-55840126D01*
X130724116Y-55792073D01*
X130750000Y-55766189D01*
X130750000Y-56835154D01*
G37*
G04 #@! TD.AperFunction*
G04 #@! TA.AperFunction,Conductor*
G36*
X197501039Y-50000017D02*
G01*
X197503981Y-50000065D01*
X197656582Y-50002559D01*
X197670718Y-50003602D01*
X197980196Y-50044345D01*
X197996087Y-50047506D01*
X198240218Y-50112921D01*
X198296612Y-50128032D01*
X198311971Y-50133246D01*
X198599400Y-50252303D01*
X198613947Y-50259477D01*
X198883377Y-50415032D01*
X198896863Y-50424043D01*
X199143686Y-50613437D01*
X199155881Y-50624132D01*
X199375867Y-50844118D01*
X199386562Y-50856313D01*
X199575956Y-51103136D01*
X199584967Y-51116622D01*
X199740522Y-51386052D01*
X199747696Y-51400599D01*
X199866753Y-51688028D01*
X199871967Y-51703387D01*
X199952491Y-52003903D01*
X199955655Y-52019812D01*
X199996396Y-52329270D01*
X199997440Y-52343428D01*
X199999983Y-52498960D01*
X200000000Y-52500987D01*
X200000000Y-147499012D01*
X199999983Y-147501039D01*
X199997440Y-147656571D01*
X199996396Y-147670729D01*
X199955655Y-147980187D01*
X199952491Y-147996096D01*
X199871967Y-148296612D01*
X199866753Y-148311971D01*
X199747696Y-148599400D01*
X199740522Y-148613947D01*
X199584967Y-148883377D01*
X199575956Y-148896863D01*
X199386562Y-149143686D01*
X199375867Y-149155881D01*
X199155881Y-149375867D01*
X199143686Y-149386562D01*
X198896863Y-149575956D01*
X198883377Y-149584967D01*
X198613947Y-149740522D01*
X198599400Y-149747696D01*
X198311971Y-149866753D01*
X198296612Y-149871967D01*
X197996096Y-149952491D01*
X197980187Y-149955655D01*
X197670729Y-149996396D01*
X197656571Y-149997440D01*
X197501040Y-149999983D01*
X197499013Y-150000000D01*
X179624000Y-150000000D01*
X179556961Y-149980315D01*
X179511206Y-149927511D01*
X179500000Y-149876000D01*
X179500000Y-147700000D01*
X177000000Y-147700000D01*
X177000000Y-149876000D01*
X176980315Y-149943039D01*
X176927511Y-149988794D01*
X176876000Y-150000000D01*
X175374500Y-150000000D01*
X175307461Y-149980315D01*
X175261706Y-149927511D01*
X175250500Y-149876000D01*
X175250499Y-144862155D01*
X177000000Y-144862155D01*
X177000000Y-147200000D01*
X178000000Y-147200000D01*
X178500000Y-147200000D01*
X179500000Y-147200000D01*
X179500000Y-144862172D01*
X179499999Y-144862155D01*
X179493598Y-144802627D01*
X179493596Y-144802620D01*
X179443354Y-144667913D01*
X179443350Y-144667906D01*
X179357190Y-144552812D01*
X179357187Y-144552809D01*
X179242093Y-144466649D01*
X179242086Y-144466645D01*
X179107379Y-144416403D01*
X179107372Y-144416401D01*
X179047844Y-144410000D01*
X178500000Y-144410000D01*
X178500000Y-147200000D01*
X178000000Y-147200000D01*
X178000000Y-144410000D01*
X177452155Y-144410000D01*
X177392627Y-144416401D01*
X177392620Y-144416403D01*
X177257913Y-144466645D01*
X177257906Y-144466649D01*
X177142812Y-144552809D01*
X177142809Y-144552812D01*
X177056649Y-144667906D01*
X177056645Y-144667913D01*
X177006403Y-144802620D01*
X177006401Y-144802627D01*
X177000000Y-144862155D01*
X175250499Y-144862155D01*
X175250499Y-144862129D01*
X175250498Y-144862123D01*
X175250497Y-144862116D01*
X175244091Y-144802517D01*
X175193884Y-144667906D01*
X175193797Y-144667671D01*
X175193793Y-144667664D01*
X175107547Y-144552455D01*
X175107544Y-144552452D01*
X174992335Y-144466206D01*
X174992328Y-144466202D01*
X174857482Y-144415908D01*
X174857483Y-144415908D01*
X174797883Y-144409501D01*
X174797881Y-144409500D01*
X174797873Y-144409500D01*
X174797864Y-144409500D01*
X173202129Y-144409500D01*
X173202123Y-144409501D01*
X173142516Y-144415908D01*
X173007671Y-144466202D01*
X173007664Y-144466206D01*
X172892455Y-144552452D01*
X172892452Y-144552455D01*
X172806206Y-144667664D01*
X172806202Y-144667671D01*
X172755908Y-144802516D01*
X172750411Y-144853648D01*
X172723673Y-144918199D01*
X172666280Y-144958047D01*
X172596455Y-144960540D01*
X172539441Y-144928073D01*
X169706819Y-142095451D01*
X169673334Y-142034128D01*
X169670500Y-142007770D01*
X169670500Y-136626662D01*
X169690185Y-136559623D01*
X169723379Y-136525086D01*
X169759139Y-136500047D01*
X169920047Y-136339139D01*
X170050568Y-136152734D01*
X170146739Y-135946496D01*
X170205635Y-135726692D01*
X170225468Y-135500000D01*
X170225468Y-135499998D01*
X177774532Y-135499998D01*
X177774532Y-135500001D01*
X177794364Y-135726686D01*
X177794366Y-135726697D01*
X177853258Y-135946488D01*
X177853261Y-135946497D01*
X177949431Y-136152732D01*
X177949432Y-136152734D01*
X178079954Y-136339141D01*
X178240858Y-136500045D01*
X178262660Y-136515311D01*
X178427266Y-136630568D01*
X178633504Y-136726739D01*
X178853308Y-136785635D01*
X179015230Y-136799801D01*
X179079998Y-136805468D01*
X179080000Y-136805468D01*
X179080002Y-136805468D01*
X179136673Y-136800509D01*
X179306692Y-136785635D01*
X179526496Y-136726739D01*
X179732734Y-136630568D01*
X179919139Y-136500047D01*
X180080047Y-136339139D01*
X180210568Y-136152734D01*
X180306739Y-135946496D01*
X180365635Y-135726692D01*
X180385468Y-135500000D01*
X180365635Y-135273308D01*
X180306739Y-135053504D01*
X180225231Y-134878711D01*
X188149500Y-134878711D01*
X188149500Y-135121288D01*
X188181161Y-135361785D01*
X188243947Y-135596104D01*
X188336773Y-135820205D01*
X188336777Y-135820214D01*
X188358974Y-135858661D01*
X188458064Y-136030289D01*
X188458066Y-136030292D01*
X188458067Y-136030293D01*
X188605733Y-136222736D01*
X188605739Y-136222743D01*
X188777256Y-136394260D01*
X188777263Y-136394266D01*
X188818144Y-136425635D01*
X188969711Y-136541936D01*
X189179788Y-136663224D01*
X189403900Y-136756054D01*
X189638211Y-136818838D01*
X189818586Y-136842584D01*
X189878711Y-136850500D01*
X189878712Y-136850500D01*
X190121289Y-136850500D01*
X190169388Y-136844167D01*
X190361789Y-136818838D01*
X190596100Y-136756054D01*
X190820212Y-136663224D01*
X191030289Y-136541936D01*
X191222738Y-136394265D01*
X191394265Y-136222738D01*
X191541936Y-136030289D01*
X191663224Y-135820212D01*
X191756054Y-135596100D01*
X191818838Y-135361789D01*
X191850500Y-135121288D01*
X191850500Y-134878712D01*
X191818838Y-134638211D01*
X191756054Y-134403900D01*
X191663224Y-134179788D01*
X191541936Y-133969711D01*
X191394265Y-133777262D01*
X191394260Y-133777256D01*
X191222743Y-133605739D01*
X191222736Y-133605733D01*
X191030293Y-133458067D01*
X191030292Y-133458066D01*
X191030289Y-133458064D01*
X190820212Y-133336776D01*
X190820205Y-133336773D01*
X190596104Y-133243947D01*
X190361785Y-133181161D01*
X190121289Y-133149500D01*
X190121288Y-133149500D01*
X189878712Y-133149500D01*
X189878711Y-133149500D01*
X189638214Y-133181161D01*
X189403895Y-133243947D01*
X189179794Y-133336773D01*
X189179785Y-133336777D01*
X188969706Y-133458067D01*
X188777263Y-133605733D01*
X188777256Y-133605739D01*
X188605739Y-133777256D01*
X188605733Y-133777263D01*
X188458067Y-133969706D01*
X188336777Y-134179785D01*
X188336773Y-134179794D01*
X188243947Y-134403895D01*
X188181161Y-134638214D01*
X188149500Y-134878711D01*
X180225231Y-134878711D01*
X180210568Y-134847266D01*
X180080047Y-134660861D01*
X180080045Y-134660858D01*
X179919141Y-134499954D01*
X179732734Y-134369432D01*
X179732732Y-134369431D01*
X179526497Y-134273261D01*
X179526488Y-134273258D01*
X179306697Y-134214366D01*
X179306693Y-134214365D01*
X179306692Y-134214365D01*
X179306691Y-134214364D01*
X179306686Y-134214364D01*
X179080002Y-134194532D01*
X179079998Y-134194532D01*
X178853313Y-134214364D01*
X178853302Y-134214366D01*
X178633511Y-134273258D01*
X178633502Y-134273261D01*
X178427267Y-134369431D01*
X178427265Y-134369432D01*
X178240858Y-134499954D01*
X178079954Y-134660858D01*
X177949432Y-134847265D01*
X177949431Y-134847267D01*
X177853261Y-135053502D01*
X177853258Y-135053511D01*
X177794366Y-135273302D01*
X177794364Y-135273313D01*
X177774532Y-135499998D01*
X170225468Y-135499998D01*
X170205635Y-135273308D01*
X170146739Y-135053504D01*
X170050568Y-134847266D01*
X169920047Y-134660861D01*
X169920045Y-134660858D01*
X169759141Y-134499954D01*
X169572734Y-134369432D01*
X169572732Y-134369431D01*
X169366497Y-134273261D01*
X169366488Y-134273258D01*
X169146697Y-134214366D01*
X169146693Y-134214365D01*
X169146692Y-134214365D01*
X169146691Y-134214364D01*
X169146686Y-134214364D01*
X168920002Y-134194532D01*
X168919998Y-134194532D01*
X168693313Y-134214364D01*
X168693302Y-134214366D01*
X168473511Y-134273258D01*
X168473502Y-134273261D01*
X168267267Y-134369431D01*
X168267265Y-134369432D01*
X168080858Y-134499954D01*
X167919954Y-134660858D01*
X167789432Y-134847265D01*
X167789431Y-134847267D01*
X167693261Y-135053502D01*
X167693258Y-135053511D01*
X167634366Y-135273302D01*
X167634364Y-135273313D01*
X167614532Y-135499998D01*
X167614532Y-135500001D01*
X167634364Y-135726686D01*
X167634366Y-135726697D01*
X167693258Y-135946488D01*
X167693261Y-135946497D01*
X167789431Y-136152732D01*
X167789432Y-136152734D01*
X167919954Y-136339141D01*
X168080859Y-136500046D01*
X168116621Y-136525086D01*
X168160247Y-136579662D01*
X168169500Y-136626662D01*
X168169500Y-142443918D01*
X168169500Y-142443920D01*
X168169499Y-142443920D01*
X168198340Y-142588907D01*
X168198343Y-142588917D01*
X168254914Y-142725492D01*
X168273499Y-142753306D01*
X168273500Y-142753309D01*
X168337046Y-142848414D01*
X168337052Y-142848421D01*
X169686951Y-144198319D01*
X169720436Y-144259642D01*
X169715452Y-144329334D01*
X169673580Y-144385267D01*
X169608116Y-144409684D01*
X169599270Y-144410000D01*
X168952155Y-144410000D01*
X168892627Y-144416401D01*
X168892620Y-144416403D01*
X168757913Y-144466645D01*
X168757906Y-144466649D01*
X168642812Y-144552809D01*
X168642809Y-144552812D01*
X168556649Y-144667906D01*
X168556645Y-144667913D01*
X168506403Y-144802620D01*
X168506401Y-144802627D01*
X168500000Y-144862155D01*
X168500000Y-147200000D01*
X171000000Y-147200000D01*
X171000000Y-145810730D01*
X171019685Y-145743691D01*
X171072489Y-145697936D01*
X171141647Y-145687992D01*
X171205203Y-145717017D01*
X171211681Y-145723049D01*
X172713181Y-147224549D01*
X172746666Y-147285872D01*
X172749500Y-147312229D01*
X172749500Y-148613947D01*
X172749501Y-149876000D01*
X172729816Y-149943039D01*
X172677013Y-149988794D01*
X172625501Y-150000000D01*
X171124000Y-150000000D01*
X171056961Y-149980315D01*
X171011206Y-149927511D01*
X171000000Y-149876000D01*
X171000000Y-147700000D01*
X168500000Y-147700000D01*
X168500000Y-149876000D01*
X168480315Y-149943039D01*
X168427511Y-149988794D01*
X168376000Y-150000000D01*
X163624000Y-150000000D01*
X163556961Y-149980315D01*
X163511206Y-149927511D01*
X163500000Y-149876000D01*
X163500000Y-147700000D01*
X161000000Y-147700000D01*
X161000000Y-149876000D01*
X160980315Y-149943039D01*
X160927511Y-149988794D01*
X160876000Y-150000000D01*
X159374500Y-150000000D01*
X159307461Y-149980315D01*
X159261706Y-149927511D01*
X159250500Y-149876000D01*
X159250499Y-144862155D01*
X161000000Y-144862155D01*
X161000000Y-147200000D01*
X162000000Y-147200000D01*
X162500000Y-147200000D01*
X163500000Y-147200000D01*
X163500000Y-144862172D01*
X163499999Y-144862155D01*
X163493598Y-144802627D01*
X163493596Y-144802620D01*
X163443354Y-144667913D01*
X163443350Y-144667906D01*
X163357190Y-144552812D01*
X163357187Y-144552809D01*
X163242093Y-144466649D01*
X163242086Y-144466645D01*
X163107379Y-144416403D01*
X163107372Y-144416401D01*
X163047844Y-144410000D01*
X162500000Y-144410000D01*
X162500000Y-147200000D01*
X162000000Y-147200000D01*
X162000000Y-144410000D01*
X161452155Y-144410000D01*
X161392627Y-144416401D01*
X161392620Y-144416403D01*
X161257913Y-144466645D01*
X161257906Y-144466649D01*
X161142812Y-144552809D01*
X161142809Y-144552812D01*
X161056649Y-144667906D01*
X161056645Y-144667913D01*
X161006403Y-144802620D01*
X161006401Y-144802627D01*
X161000000Y-144862155D01*
X159250499Y-144862155D01*
X159250499Y-144862129D01*
X159250498Y-144862123D01*
X159250497Y-144862116D01*
X159244091Y-144802517D01*
X159193884Y-144667906D01*
X159193797Y-144667671D01*
X159193793Y-144667664D01*
X159107547Y-144552455D01*
X159107544Y-144552452D01*
X158992335Y-144466206D01*
X158992328Y-144466202D01*
X158857482Y-144415908D01*
X158857483Y-144415908D01*
X158797883Y-144409501D01*
X158797881Y-144409500D01*
X158797873Y-144409500D01*
X158797864Y-144409500D01*
X157202129Y-144409500D01*
X157202123Y-144409501D01*
X157142516Y-144415908D01*
X157007671Y-144466202D01*
X157007664Y-144466206D01*
X156892455Y-144552452D01*
X156892452Y-144552455D01*
X156806206Y-144667664D01*
X156806202Y-144667671D01*
X156755908Y-144802516D01*
X156750411Y-144853648D01*
X156723673Y-144918199D01*
X156666280Y-144958047D01*
X156596455Y-144960540D01*
X156539441Y-144928073D01*
X153666819Y-142055451D01*
X153633334Y-141994128D01*
X153630500Y-141967770D01*
X153630500Y-138126662D01*
X153650185Y-138059623D01*
X153683379Y-138025086D01*
X153719140Y-138000046D01*
X153880045Y-137839141D01*
X153880047Y-137839139D01*
X154010568Y-137652734D01*
X154106739Y-137446496D01*
X154165635Y-137226692D01*
X154185468Y-137000000D01*
X154165635Y-136773308D01*
X154111832Y-136572511D01*
X154106741Y-136553511D01*
X154106738Y-136553502D01*
X154087163Y-136511523D01*
X154010568Y-136347266D01*
X153880047Y-136160861D01*
X153880045Y-136160858D01*
X153719141Y-135999954D01*
X153532734Y-135869432D01*
X153532732Y-135869431D01*
X153326497Y-135773261D01*
X153326488Y-135773258D01*
X153106697Y-135714366D01*
X153106693Y-135714365D01*
X153106692Y-135714365D01*
X153106691Y-135714364D01*
X153106686Y-135714364D01*
X152880002Y-135694532D01*
X152879998Y-135694532D01*
X152653313Y-135714364D01*
X152653302Y-135714366D01*
X152433511Y-135773258D01*
X152433502Y-135773261D01*
X152227267Y-135869431D01*
X152227265Y-135869432D01*
X152040858Y-135999954D01*
X151879954Y-136160858D01*
X151749432Y-136347265D01*
X151749431Y-136347267D01*
X151653261Y-136553502D01*
X151653258Y-136553511D01*
X151594366Y-136773302D01*
X151594364Y-136773313D01*
X151574532Y-136999998D01*
X151574532Y-137000001D01*
X151594364Y-137226686D01*
X151594366Y-137226697D01*
X151653258Y-137446488D01*
X151653261Y-137446497D01*
X151749431Y-137652732D01*
X151749432Y-137652734D01*
X151879954Y-137839141D01*
X152040859Y-138000046D01*
X152076621Y-138025086D01*
X152120247Y-138079662D01*
X152129500Y-138126662D01*
X152129500Y-142403918D01*
X152129500Y-142403920D01*
X152129499Y-142403920D01*
X152158340Y-142548907D01*
X152158343Y-142548917D01*
X152214914Y-142685492D01*
X152241642Y-142725493D01*
X152241643Y-142725496D01*
X152297046Y-142808414D01*
X152297052Y-142808421D01*
X153686951Y-144198319D01*
X153720436Y-144259642D01*
X153715452Y-144329334D01*
X153673580Y-144385267D01*
X153608116Y-144409684D01*
X153599270Y-144410000D01*
X152952155Y-144410000D01*
X152892627Y-144416401D01*
X152892620Y-144416403D01*
X152757913Y-144466645D01*
X152757906Y-144466649D01*
X152642812Y-144552809D01*
X152642809Y-144552812D01*
X152556649Y-144667906D01*
X152556645Y-144667913D01*
X152506403Y-144802620D01*
X152506401Y-144802627D01*
X152500000Y-144862155D01*
X152500000Y-147200000D01*
X155000000Y-147200000D01*
X155000000Y-145810729D01*
X155019685Y-145743690D01*
X155072489Y-145697935D01*
X155141647Y-145687991D01*
X155205203Y-145717016D01*
X155211681Y-145723048D01*
X156713181Y-147224548D01*
X156746666Y-147285871D01*
X156749500Y-147312229D01*
X156749500Y-148613947D01*
X156749501Y-149876000D01*
X156729816Y-149943039D01*
X156677013Y-149988794D01*
X156625501Y-150000000D01*
X155124000Y-150000000D01*
X155056961Y-149980315D01*
X155011206Y-149927511D01*
X155000000Y-149876000D01*
X155000000Y-147700000D01*
X152500000Y-147700000D01*
X152500000Y-149876000D01*
X152480315Y-149943039D01*
X152427511Y-149988794D01*
X152376000Y-150000000D01*
X147624000Y-150000000D01*
X147556961Y-149980315D01*
X147511206Y-149927511D01*
X147500000Y-149876000D01*
X147500000Y-147700000D01*
X145000000Y-147700000D01*
X145000000Y-149876000D01*
X144980315Y-149943039D01*
X144927511Y-149988794D01*
X144876000Y-150000000D01*
X143374500Y-150000000D01*
X143307461Y-149980315D01*
X143261706Y-149927511D01*
X143250500Y-149876000D01*
X143250499Y-144862155D01*
X145000000Y-144862155D01*
X145000000Y-147200000D01*
X146000000Y-147200000D01*
X146500000Y-147200000D01*
X147500000Y-147200000D01*
X147500000Y-144862172D01*
X147499999Y-144862155D01*
X147493598Y-144802627D01*
X147493596Y-144802620D01*
X147443354Y-144667913D01*
X147443350Y-144667906D01*
X147357190Y-144552812D01*
X147357187Y-144552809D01*
X147242093Y-144466649D01*
X147242086Y-144466645D01*
X147107379Y-144416403D01*
X147107372Y-144416401D01*
X147047844Y-144410000D01*
X146500000Y-144410000D01*
X146500000Y-147200000D01*
X146000000Y-147200000D01*
X146000000Y-144410000D01*
X145452155Y-144410000D01*
X145392627Y-144416401D01*
X145392620Y-144416403D01*
X145257913Y-144466645D01*
X145257906Y-144466649D01*
X145142812Y-144552809D01*
X145142809Y-144552812D01*
X145056649Y-144667906D01*
X145056645Y-144667913D01*
X145006403Y-144802620D01*
X145006401Y-144802627D01*
X145000000Y-144862155D01*
X143250499Y-144862155D01*
X143250499Y-144862129D01*
X143250498Y-144862123D01*
X143250497Y-144862116D01*
X143244091Y-144802517D01*
X143193884Y-144667906D01*
X143193797Y-144667671D01*
X143193793Y-144667664D01*
X143107547Y-144552455D01*
X143107544Y-144552452D01*
X142992335Y-144466206D01*
X142992328Y-144466202D01*
X142857482Y-144415908D01*
X142849938Y-144414126D01*
X142850474Y-144411853D01*
X142796688Y-144389571D01*
X142756843Y-144332177D01*
X142750500Y-144293024D01*
X142750500Y-142926079D01*
X142721659Y-142781092D01*
X142721658Y-142781091D01*
X142721658Y-142781087D01*
X142698631Y-142725495D01*
X142665087Y-142644511D01*
X142665083Y-142644504D01*
X142653017Y-142626446D01*
X142625380Y-142585084D01*
X142582952Y-142521584D01*
X142286819Y-142225451D01*
X142253334Y-142164128D01*
X142250500Y-142137770D01*
X142250500Y-141846079D01*
X142221659Y-141701092D01*
X142221658Y-141701091D01*
X142221658Y-141701087D01*
X142174812Y-141587990D01*
X142165087Y-141564511D01*
X142165080Y-141564498D01*
X142082952Y-141441585D01*
X142073226Y-141431859D01*
X141978416Y-141337049D01*
X141087684Y-140446317D01*
X140192869Y-139551501D01*
X140159384Y-139490178D01*
X140157022Y-139453012D01*
X140159152Y-139428673D01*
X140175659Y-139240000D01*
X140155063Y-139004592D01*
X140093903Y-138776337D01*
X139994035Y-138562171D01*
X139988425Y-138554158D01*
X139858494Y-138368597D01*
X139691402Y-138201506D01*
X139691395Y-138201501D01*
X139497834Y-138065967D01*
X139497830Y-138065965D01*
X139456690Y-138046781D01*
X139283663Y-137966097D01*
X139283659Y-137966096D01*
X139283655Y-137966094D01*
X139055413Y-137904938D01*
X139055403Y-137904936D01*
X138820001Y-137884341D01*
X138819999Y-137884341D01*
X138584596Y-137904936D01*
X138584586Y-137904938D01*
X138356344Y-137966094D01*
X138356335Y-137966098D01*
X138142171Y-138065964D01*
X138142169Y-138065965D01*
X137948597Y-138201505D01*
X137781505Y-138368597D01*
X137651575Y-138554158D01*
X137596998Y-138597783D01*
X137527500Y-138604977D01*
X137465145Y-138573454D01*
X137448425Y-138554158D01*
X137318494Y-138368597D01*
X137151402Y-138201506D01*
X137151401Y-138201505D01*
X137074508Y-138147664D01*
X137008375Y-138101357D01*
X136964752Y-138046781D01*
X136955500Y-137999783D01*
X136955500Y-128011162D01*
X136975185Y-127944123D01*
X136991814Y-127923486D01*
X137415302Y-127499998D01*
X156734532Y-127499998D01*
X156734532Y-127500001D01*
X156754364Y-127726686D01*
X156754366Y-127726697D01*
X156813258Y-127946488D01*
X156813261Y-127946497D01*
X156909431Y-128152732D01*
X156909432Y-128152734D01*
X157039954Y-128339141D01*
X157200857Y-128500044D01*
X157200860Y-128500046D01*
X157200861Y-128500047D01*
X157311623Y-128577602D01*
X157355248Y-128632178D01*
X157364500Y-128679177D01*
X157364500Y-129470842D01*
X157344815Y-129537881D01*
X157311625Y-129572416D01*
X157300863Y-129579951D01*
X157139951Y-129740862D01*
X157009432Y-129927265D01*
X157009431Y-129927267D01*
X156913261Y-130133502D01*
X156913258Y-130133511D01*
X156854366Y-130353302D01*
X156854364Y-130353313D01*
X156834532Y-130579998D01*
X156834532Y-130580001D01*
X156854364Y-130806686D01*
X156854366Y-130806697D01*
X156913258Y-131026488D01*
X156913261Y-131026497D01*
X157009431Y-131232732D01*
X157009432Y-131232734D01*
X157139954Y-131419141D01*
X157300857Y-131580044D01*
X157300860Y-131580046D01*
X157300861Y-131580047D01*
X157311620Y-131587580D01*
X157355246Y-131642154D01*
X157364500Y-131689157D01*
X157364500Y-132320821D01*
X157344815Y-132387860D01*
X157311624Y-132422396D01*
X157200856Y-132499956D01*
X157039954Y-132660858D01*
X156909432Y-132847265D01*
X156909431Y-132847267D01*
X156813261Y-133053502D01*
X156813258Y-133053511D01*
X156754366Y-133273302D01*
X156754364Y-133273313D01*
X156734532Y-133499998D01*
X156734532Y-133500001D01*
X156754364Y-133726686D01*
X156754366Y-133726697D01*
X156813258Y-133946488D01*
X156813261Y-133946497D01*
X156909431Y-134152732D01*
X156909432Y-134152734D01*
X157039954Y-134339141D01*
X157200858Y-134500045D01*
X157200861Y-134500047D01*
X157387266Y-134630568D01*
X157593504Y-134726739D01*
X157813308Y-134785635D01*
X157975230Y-134799801D01*
X158039998Y-134805468D01*
X158040000Y-134805468D01*
X158040002Y-134805468D01*
X158096673Y-134800509D01*
X158266692Y-134785635D01*
X158486496Y-134726739D01*
X158692734Y-134630568D01*
X158879139Y-134500047D01*
X159040047Y-134339139D01*
X159170568Y-134152734D01*
X159266739Y-133946496D01*
X159325635Y-133726692D01*
X159345468Y-133500000D01*
X159325635Y-133273308D01*
X159266739Y-133053504D01*
X159170568Y-132847266D01*
X159040047Y-132660861D01*
X159040045Y-132660858D01*
X158879143Y-132499956D01*
X158768376Y-132422396D01*
X158724752Y-132367819D01*
X158715500Y-132320821D01*
X158715500Y-131825579D01*
X158735185Y-131758540D01*
X158787095Y-131713197D01*
X158792734Y-131710568D01*
X158979139Y-131580047D01*
X159140047Y-131419139D01*
X159270568Y-131232734D01*
X159366739Y-131026496D01*
X159425635Y-130806692D01*
X159445468Y-130580000D01*
X159441968Y-130540000D01*
X159439584Y-130512741D01*
X159425635Y-130353308D01*
X159366739Y-130133504D01*
X159270568Y-129927266D01*
X159140047Y-129740861D01*
X159140045Y-129740858D01*
X158979141Y-129579954D01*
X158792735Y-129449432D01*
X158792731Y-129449430D01*
X158787093Y-129446801D01*
X158734654Y-129400627D01*
X158715500Y-129334420D01*
X158715500Y-128679177D01*
X158735185Y-128612138D01*
X158768375Y-128577603D01*
X158879139Y-128500047D01*
X159040047Y-128339139D01*
X159170568Y-128152734D01*
X159266739Y-127946496D01*
X159325635Y-127726692D01*
X159345468Y-127500000D01*
X159325635Y-127273308D01*
X159322262Y-127260720D01*
X159323923Y-127190873D01*
X159354353Y-127140946D01*
X161604695Y-124890606D01*
X161632749Y-124848620D01*
X161678620Y-124779969D01*
X161729540Y-124657036D01*
X161755500Y-124526531D01*
X161755500Y-123581515D01*
X161775185Y-123514476D01*
X161808378Y-123479939D01*
X161867519Y-123438529D01*
X162018529Y-123287519D01*
X162141021Y-123112581D01*
X162231276Y-122919030D01*
X162231280Y-122919013D01*
X162233130Y-122913936D01*
X162235253Y-122914709D01*
X162266576Y-122863305D01*
X162329419Y-122832766D01*
X162398796Y-122841050D01*
X162452680Y-122885528D01*
X162465827Y-122914315D01*
X162466870Y-122913936D01*
X162468722Y-122919022D01*
X162468724Y-122919030D01*
X162468727Y-122919036D01*
X162558977Y-123112578D01*
X162681472Y-123287521D01*
X162832478Y-123438527D01*
X162832481Y-123438529D01*
X163007419Y-123561021D01*
X163007421Y-123561022D01*
X163007420Y-123561022D01*
X163051368Y-123581515D01*
X163200970Y-123651276D01*
X163200976Y-123651277D01*
X163200977Y-123651278D01*
X163250627Y-123664581D01*
X163407253Y-123706549D01*
X163559215Y-123719844D01*
X163619998Y-123725162D01*
X163620000Y-123725162D01*
X163620002Y-123725162D01*
X163673186Y-123720508D01*
X163832747Y-123706549D01*
X164039030Y-123651276D01*
X164065718Y-123638830D01*
X164134795Y-123628338D01*
X164198579Y-123656857D01*
X164236820Y-123715333D01*
X164237375Y-123785200D01*
X164205805Y-123838893D01*
X162515307Y-125529390D01*
X162515304Y-125529394D01*
X162441383Y-125640024D01*
X162441378Y-125640034D01*
X162410155Y-125715413D01*
X162390459Y-125762964D01*
X162376032Y-125835494D01*
X162376032Y-125835496D01*
X162364500Y-125893467D01*
X162364500Y-126320821D01*
X162344815Y-126387860D01*
X162311624Y-126422396D01*
X162200856Y-126499956D01*
X162039954Y-126660858D01*
X161909432Y-126847265D01*
X161909431Y-126847267D01*
X161813261Y-127053502D01*
X161813258Y-127053511D01*
X161754366Y-127273302D01*
X161754364Y-127273313D01*
X161734532Y-127499998D01*
X161734532Y-127500001D01*
X161754364Y-127726686D01*
X161754366Y-127726697D01*
X161813258Y-127946488D01*
X161813261Y-127946497D01*
X161909431Y-128152732D01*
X161909432Y-128152734D01*
X162039954Y-128339141D01*
X162200857Y-128500044D01*
X162200860Y-128500046D01*
X162200861Y-128500047D01*
X162311623Y-128577602D01*
X162355248Y-128632178D01*
X162364500Y-128679177D01*
X162364500Y-129470842D01*
X162344815Y-129537881D01*
X162311625Y-129572416D01*
X162300863Y-129579951D01*
X162139951Y-129740862D01*
X162009432Y-129927265D01*
X162009431Y-129927267D01*
X161913261Y-130133502D01*
X161913258Y-130133511D01*
X161854366Y-130353302D01*
X161854364Y-130353313D01*
X161834532Y-130579998D01*
X161834532Y-130580001D01*
X161854364Y-130806686D01*
X161854366Y-130806697D01*
X161913258Y-131026488D01*
X161913261Y-131026497D01*
X162009431Y-131232732D01*
X162009432Y-131232734D01*
X162139954Y-131419141D01*
X162300857Y-131580044D01*
X162300860Y-131580046D01*
X162300861Y-131580047D01*
X162311620Y-131587580D01*
X162355246Y-131642154D01*
X162364500Y-131689157D01*
X162364500Y-132320821D01*
X162344815Y-132387860D01*
X162311624Y-132422396D01*
X162200856Y-132499956D01*
X162039954Y-132660858D01*
X161909432Y-132847265D01*
X161909431Y-132847267D01*
X161813261Y-133053502D01*
X161813258Y-133053511D01*
X161754366Y-133273302D01*
X161754364Y-133273313D01*
X161734532Y-133499998D01*
X161734532Y-133500001D01*
X161754364Y-133726686D01*
X161754366Y-133726697D01*
X161813258Y-133946488D01*
X161813261Y-133946497D01*
X161909431Y-134152732D01*
X161909432Y-134152734D01*
X162039954Y-134339141D01*
X162200857Y-134500044D01*
X162200860Y-134500046D01*
X162200861Y-134500047D01*
X162311623Y-134577602D01*
X162355248Y-134632178D01*
X162364500Y-134679177D01*
X162364500Y-135820821D01*
X162344815Y-135887860D01*
X162311624Y-135922396D01*
X162200856Y-135999956D01*
X162039954Y-136160858D01*
X161909432Y-136347265D01*
X161909431Y-136347267D01*
X161813261Y-136553502D01*
X161813258Y-136553511D01*
X161754366Y-136773302D01*
X161754364Y-136773313D01*
X161734532Y-136999998D01*
X161734532Y-137000001D01*
X161754364Y-137226686D01*
X161754366Y-137226697D01*
X161813258Y-137446488D01*
X161813261Y-137446497D01*
X161909431Y-137652732D01*
X161909432Y-137652734D01*
X162039954Y-137839141D01*
X162200858Y-138000045D01*
X162215297Y-138010155D01*
X162387266Y-138130568D01*
X162593504Y-138226739D01*
X162813308Y-138285635D01*
X162975230Y-138299801D01*
X163039998Y-138305468D01*
X163040000Y-138305468D01*
X163040002Y-138305468D01*
X163096673Y-138300509D01*
X163266692Y-138285635D01*
X163486496Y-138226739D01*
X163692734Y-138130568D01*
X163879139Y-138000047D01*
X164040047Y-137839139D01*
X164170568Y-137652734D01*
X164266739Y-137446496D01*
X164325635Y-137226692D01*
X164345468Y-137000000D01*
X164325635Y-136773308D01*
X164271832Y-136572511D01*
X164266741Y-136553511D01*
X164266738Y-136553502D01*
X164247163Y-136511523D01*
X164170568Y-136347266D01*
X164040047Y-136160861D01*
X164040045Y-136160858D01*
X163879143Y-135999956D01*
X163865638Y-135990500D01*
X163768376Y-135922396D01*
X163724752Y-135867819D01*
X163715500Y-135820821D01*
X163715500Y-134679177D01*
X163735185Y-134612138D01*
X163768375Y-134577603D01*
X163879139Y-134500047D01*
X164040047Y-134339139D01*
X164170568Y-134152734D01*
X164266739Y-133946496D01*
X164325635Y-133726692D01*
X164345468Y-133500000D01*
X164325635Y-133273308D01*
X164266739Y-133053504D01*
X164170568Y-132847266D01*
X164040047Y-132660861D01*
X164040045Y-132660858D01*
X163879143Y-132499956D01*
X163768376Y-132422396D01*
X163724752Y-132367819D01*
X163715500Y-132320821D01*
X163715500Y-131825579D01*
X163735185Y-131758540D01*
X163787095Y-131713197D01*
X163792734Y-131710568D01*
X163979139Y-131580047D01*
X164140047Y-131419139D01*
X164270568Y-131232734D01*
X164366739Y-131026496D01*
X164425635Y-130806692D01*
X164445468Y-130580000D01*
X164441968Y-130540000D01*
X164439584Y-130512741D01*
X164425635Y-130353308D01*
X164366739Y-130133504D01*
X164270568Y-129927266D01*
X164140047Y-129740861D01*
X164140045Y-129740858D01*
X163979141Y-129579954D01*
X163792735Y-129449432D01*
X163792731Y-129449430D01*
X163787093Y-129446801D01*
X163734654Y-129400627D01*
X163715500Y-129334420D01*
X163715500Y-128679177D01*
X163735185Y-128612138D01*
X163768375Y-128577603D01*
X163879139Y-128500047D01*
X163879140Y-128500045D01*
X163879377Y-128499880D01*
X163945583Y-128477553D01*
X164013351Y-128494563D01*
X164061163Y-128545512D01*
X164074500Y-128601455D01*
X164074500Y-128938236D01*
X164100457Y-129068729D01*
X164100459Y-129068737D01*
X164151378Y-129191666D01*
X164151383Y-129191676D01*
X164225304Y-129302306D01*
X164225307Y-129302310D01*
X168108604Y-133185606D01*
X168202693Y-133279695D01*
X168202696Y-133279697D01*
X168202697Y-133279698D01*
X168313319Y-133353613D01*
X168313322Y-133353614D01*
X168313330Y-133353620D01*
X168313336Y-133353622D01*
X168313337Y-133353623D01*
X168380912Y-133381613D01*
X168436263Y-133404540D01*
X168436267Y-133404540D01*
X168436268Y-133404541D01*
X168566765Y-133430500D01*
X168566768Y-133430500D01*
X182391532Y-133430500D01*
X182391533Y-133430499D01*
X182522036Y-133404541D01*
X182644969Y-133353620D01*
X182755606Y-133279695D01*
X183140947Y-132894352D01*
X183202266Y-132860870D01*
X183260720Y-132862261D01*
X183273308Y-132865635D01*
X183348872Y-132872246D01*
X183499998Y-132885468D01*
X183500000Y-132885468D01*
X183500002Y-132885468D01*
X183556673Y-132880509D01*
X183726692Y-132865635D01*
X183946496Y-132806739D01*
X184152734Y-132710568D01*
X184339139Y-132580047D01*
X184500047Y-132419139D01*
X184630568Y-132232734D01*
X184726739Y-132026496D01*
X184785635Y-131806692D01*
X184805468Y-131580000D01*
X184785635Y-131353308D01*
X184726739Y-131133504D01*
X184630568Y-130927266D01*
X184518151Y-130766716D01*
X184500045Y-130740858D01*
X184339141Y-130579954D01*
X184152734Y-130449432D01*
X184152732Y-130449431D01*
X183946497Y-130353261D01*
X183946488Y-130353258D01*
X183726697Y-130294366D01*
X183726693Y-130294365D01*
X183726692Y-130294365D01*
X183726691Y-130294364D01*
X183726686Y-130294364D01*
X183500002Y-130274532D01*
X183499998Y-130274532D01*
X183273313Y-130294364D01*
X183273302Y-130294366D01*
X183053511Y-130353258D01*
X183053502Y-130353261D01*
X182847267Y-130449431D01*
X182847265Y-130449432D01*
X182660858Y-130579954D01*
X182499954Y-130740858D01*
X182369432Y-130927265D01*
X182369431Y-130927267D01*
X182273261Y-131133502D01*
X182273258Y-131133511D01*
X182214366Y-131353302D01*
X182214364Y-131353313D01*
X182194532Y-131579998D01*
X182194532Y-131580001D01*
X182214364Y-131806686D01*
X182214366Y-131806697D01*
X182217738Y-131819280D01*
X182216075Y-131889130D01*
X182185646Y-131939052D01*
X182081516Y-132043182D01*
X182020196Y-132076666D01*
X181993837Y-132079500D01*
X180914137Y-132079500D01*
X180847098Y-132059815D01*
X180801343Y-132007011D01*
X180791399Y-131937853D01*
X180794362Y-131923407D01*
X180813284Y-131852786D01*
X180825635Y-131806692D01*
X180845468Y-131580000D01*
X180825635Y-131353308D01*
X180766739Y-131133504D01*
X180670568Y-130927266D01*
X180558151Y-130766716D01*
X180540045Y-130740858D01*
X180379143Y-130579956D01*
X180268376Y-130502396D01*
X180224752Y-130447819D01*
X180215500Y-130400821D01*
X180215500Y-126553466D01*
X180189541Y-126422969D01*
X180189540Y-126422968D01*
X180189540Y-126422964D01*
X180159898Y-126351401D01*
X180138623Y-126300038D01*
X180138622Y-126300037D01*
X180138620Y-126300031D01*
X180121046Y-126273730D01*
X180064698Y-126189398D01*
X180064697Y-126189397D01*
X180064695Y-126189394D01*
X179970606Y-126095305D01*
X177776818Y-123901517D01*
X177743333Y-123840194D01*
X177740499Y-123813836D01*
X177740499Y-122272129D01*
X177740499Y-122272128D01*
X177736266Y-122232753D01*
X177748672Y-122163995D01*
X177796283Y-122112858D01*
X177859556Y-122095500D01*
X178360822Y-122095500D01*
X178427861Y-122115185D01*
X178462397Y-122148377D01*
X178539954Y-122259141D01*
X178700858Y-122420045D01*
X178700861Y-122420047D01*
X178887266Y-122550568D01*
X179093504Y-122646739D01*
X179313308Y-122705635D01*
X179475230Y-122719801D01*
X179539998Y-122725468D01*
X179540000Y-122725468D01*
X179540002Y-122725468D01*
X179596673Y-122720509D01*
X179766692Y-122705635D01*
X179986496Y-122646739D01*
X180192734Y-122550568D01*
X180379139Y-122420047D01*
X180540047Y-122259139D01*
X180670568Y-122072734D01*
X180766739Y-121866496D01*
X180825635Y-121646692D01*
X180845468Y-121420000D01*
X180845206Y-121417011D01*
X180831611Y-121261613D01*
X180825635Y-121193308D01*
X180777737Y-121014548D01*
X180766741Y-120973511D01*
X180766738Y-120973502D01*
X180725251Y-120884534D01*
X180670568Y-120767266D01*
X180540047Y-120580861D01*
X180540045Y-120580858D01*
X180379141Y-120419954D01*
X180192734Y-120289432D01*
X180192732Y-120289431D01*
X179986497Y-120193261D01*
X179986488Y-120193258D01*
X179766697Y-120134366D01*
X179766693Y-120134365D01*
X179766692Y-120134365D01*
X179766691Y-120134364D01*
X179766686Y-120134364D01*
X179540002Y-120114532D01*
X179539998Y-120114532D01*
X179313313Y-120134364D01*
X179313302Y-120134366D01*
X179093511Y-120193258D01*
X179093502Y-120193261D01*
X178887267Y-120289431D01*
X178887265Y-120289432D01*
X178700858Y-120419954D01*
X178539954Y-120580858D01*
X178462397Y-120691623D01*
X178407820Y-120735248D01*
X178360822Y-120744500D01*
X177864500Y-120744500D01*
X177797461Y-120724815D01*
X177751706Y-120672011D01*
X177740500Y-120620500D01*
X177740500Y-120477648D01*
X177708477Y-120275465D01*
X177679127Y-120185137D01*
X177645220Y-120080781D01*
X177645218Y-120080778D01*
X177645218Y-120080776D01*
X177611503Y-120014607D01*
X177552287Y-119898390D01*
X177544556Y-119887749D01*
X177431971Y-119732786D01*
X177287213Y-119588028D01*
X177121614Y-119467715D01*
X177080069Y-119446547D01*
X177028917Y-119420483D01*
X176978123Y-119372511D01*
X176961328Y-119304690D01*
X176983865Y-119238555D01*
X177028917Y-119199516D01*
X177121610Y-119152287D01*
X177176871Y-119112138D01*
X177287213Y-119031971D01*
X177287215Y-119031968D01*
X177287219Y-119031966D01*
X177431966Y-118887219D01*
X177519589Y-118766615D01*
X177574918Y-118723949D01*
X177619907Y-118715500D01*
X179788837Y-118715500D01*
X179855876Y-118735185D01*
X179876518Y-118751819D01*
X182185644Y-121060945D01*
X182219129Y-121122268D01*
X182217738Y-121180718D01*
X182214367Y-121193299D01*
X182214364Y-121193313D01*
X182194532Y-121419998D01*
X182194532Y-121420001D01*
X182214364Y-121646686D01*
X182214366Y-121646697D01*
X182273258Y-121866488D01*
X182273261Y-121866497D01*
X182369431Y-122072732D01*
X182369432Y-122072734D01*
X182499954Y-122259141D01*
X182660858Y-122420045D01*
X182660861Y-122420047D01*
X182847266Y-122550568D01*
X183053504Y-122646739D01*
X183273308Y-122705635D01*
X183435230Y-122719801D01*
X183499998Y-122725468D01*
X183500000Y-122725468D01*
X183500002Y-122725468D01*
X183556673Y-122720509D01*
X183726692Y-122705635D01*
X183946496Y-122646739D01*
X184152734Y-122550568D01*
X184339139Y-122420047D01*
X184500047Y-122259139D01*
X184630568Y-122072734D01*
X184726739Y-121866496D01*
X184785635Y-121646692D01*
X184805468Y-121420000D01*
X184805206Y-121417011D01*
X184791611Y-121261613D01*
X184785635Y-121193308D01*
X184737737Y-121014548D01*
X184726741Y-120973511D01*
X184726738Y-120973502D01*
X184685251Y-120884534D01*
X184630568Y-120767266D01*
X184500047Y-120580861D01*
X184500045Y-120580858D01*
X184339141Y-120419954D01*
X184152734Y-120289432D01*
X184152732Y-120289431D01*
X183946497Y-120193261D01*
X183946488Y-120193258D01*
X183726697Y-120134366D01*
X183726693Y-120134365D01*
X183726692Y-120134365D01*
X183726691Y-120134364D01*
X183726686Y-120134364D01*
X183500002Y-120114532D01*
X183499998Y-120114532D01*
X183273313Y-120134364D01*
X183273299Y-120134367D01*
X183260718Y-120137738D01*
X183190868Y-120136074D01*
X183140945Y-120105644D01*
X180550609Y-117515307D01*
X180550605Y-117515304D01*
X180439975Y-117441383D01*
X180439965Y-117441378D01*
X180317036Y-117390459D01*
X180317028Y-117390457D01*
X180186535Y-117364500D01*
X180186531Y-117364500D01*
X177619907Y-117364500D01*
X177552868Y-117344815D01*
X177519588Y-117313384D01*
X177516421Y-117309025D01*
X177431970Y-117192786D01*
X177431969Y-117192784D01*
X177287213Y-117048028D01*
X177121614Y-116927715D01*
X177111175Y-116922396D01*
X177028917Y-116880483D01*
X176978123Y-116832511D01*
X176961328Y-116764690D01*
X176983865Y-116698555D01*
X177028917Y-116659516D01*
X177121610Y-116612287D01*
X177142770Y-116596913D01*
X177287213Y-116491971D01*
X177287215Y-116491968D01*
X177287219Y-116491966D01*
X177431966Y-116347219D01*
X177519589Y-116226615D01*
X177574918Y-116183949D01*
X177619907Y-116175500D01*
X178626532Y-116175500D01*
X178626533Y-116175499D01*
X178757036Y-116149541D01*
X178879969Y-116098620D01*
X178879970Y-116098619D01*
X178883172Y-116097293D01*
X178952641Y-116089824D01*
X178962707Y-116092076D01*
X179013308Y-116105635D01*
X179175230Y-116119801D01*
X179239998Y-116125468D01*
X179240000Y-116125468D01*
X179240002Y-116125468D01*
X179296673Y-116120509D01*
X179466692Y-116105635D01*
X179686496Y-116046739D01*
X179892734Y-115950568D01*
X180079139Y-115820047D01*
X180240047Y-115659139D01*
X180317603Y-115548377D01*
X180372180Y-115504752D01*
X180419178Y-115495500D01*
X181060822Y-115495500D01*
X181127861Y-115515185D01*
X181162397Y-115548377D01*
X181239954Y-115659141D01*
X181400858Y-115820045D01*
X181400861Y-115820047D01*
X181587266Y-115950568D01*
X181793504Y-116046739D01*
X182013308Y-116105635D01*
X182175230Y-116119801D01*
X182239998Y-116125468D01*
X182240000Y-116125468D01*
X182240002Y-116125468D01*
X182296673Y-116120509D01*
X182466692Y-116105635D01*
X182686496Y-116046739D01*
X182892734Y-115950568D01*
X183079139Y-115820047D01*
X183240047Y-115659139D01*
X183370568Y-115472734D01*
X183466739Y-115266496D01*
X183525635Y-115046692D01*
X183545468Y-114820000D01*
X183545329Y-114818416D01*
X183534575Y-114695493D01*
X183525635Y-114593308D01*
X183466739Y-114373504D01*
X183370568Y-114167266D01*
X183240047Y-113980861D01*
X183240045Y-113980858D01*
X183079141Y-113819954D01*
X182892734Y-113689432D01*
X182892732Y-113689431D01*
X182686497Y-113593261D01*
X182686488Y-113593258D01*
X182466697Y-113534366D01*
X182466693Y-113534365D01*
X182466692Y-113534365D01*
X182466691Y-113534364D01*
X182466686Y-113534364D01*
X182240002Y-113514532D01*
X182239998Y-113514532D01*
X182013313Y-113534364D01*
X182013302Y-113534366D01*
X181793511Y-113593258D01*
X181793502Y-113593261D01*
X181587267Y-113689431D01*
X181587265Y-113689432D01*
X181400858Y-113819954D01*
X181239954Y-113980858D01*
X181162397Y-114091623D01*
X181107820Y-114135248D01*
X181060822Y-114144500D01*
X180419178Y-114144500D01*
X180352139Y-114124815D01*
X180317603Y-114091623D01*
X180240045Y-113980858D01*
X180079141Y-113819954D01*
X179892734Y-113689432D01*
X179892732Y-113689431D01*
X179686497Y-113593261D01*
X179686488Y-113593258D01*
X179466697Y-113534366D01*
X179466693Y-113534365D01*
X179466692Y-113534365D01*
X179466691Y-113534364D01*
X179466686Y-113534364D01*
X179240002Y-113514532D01*
X179239998Y-113514532D01*
X179013313Y-113534364D01*
X179013302Y-113534366D01*
X178793511Y-113593258D01*
X178793502Y-113593261D01*
X178587267Y-113689431D01*
X178587265Y-113689432D01*
X178400858Y-113819954D01*
X178239954Y-113980858D01*
X178109432Y-114167265D01*
X178109431Y-114167267D01*
X178013261Y-114373502D01*
X178013258Y-114373511D01*
X177954366Y-114593302D01*
X177954364Y-114593312D01*
X177944041Y-114711308D01*
X177918588Y-114776376D01*
X177861997Y-114817355D01*
X177820513Y-114824500D01*
X177619907Y-114824500D01*
X177552868Y-114804815D01*
X177519588Y-114773384D01*
X177431969Y-114652784D01*
X177287213Y-114508028D01*
X177121613Y-114387715D01*
X177121612Y-114387714D01*
X177121610Y-114387713D01*
X177064653Y-114358691D01*
X176939223Y-114294781D01*
X176744534Y-114231522D01*
X176569995Y-114203878D01*
X176542352Y-114199500D01*
X175537648Y-114199500D01*
X175513329Y-114203351D01*
X175335465Y-114231522D01*
X175140776Y-114294781D01*
X174958386Y-114387715D01*
X174792786Y-114508028D01*
X174648028Y-114652786D01*
X174527715Y-114818386D01*
X174434781Y-115000776D01*
X174371522Y-115195465D01*
X174339500Y-115397648D01*
X174339500Y-115602351D01*
X174371522Y-115804534D01*
X174434781Y-115999223D01*
X174484751Y-116097293D01*
X174524599Y-116175499D01*
X174527715Y-116181613D01*
X174648028Y-116347213D01*
X174792786Y-116491971D01*
X174947749Y-116604556D01*
X174958390Y-116612287D01*
X175049840Y-116658883D01*
X175051080Y-116659515D01*
X175101876Y-116707490D01*
X175118671Y-116775311D01*
X175096134Y-116841446D01*
X175051080Y-116880485D01*
X174958386Y-116927715D01*
X174792786Y-117048028D01*
X174648028Y-117192786D01*
X174527715Y-117358386D01*
X174434781Y-117540776D01*
X174371522Y-117735465D01*
X174339500Y-117937648D01*
X174339500Y-118142351D01*
X174371522Y-118344534D01*
X174434781Y-118539223D01*
X174527715Y-118721613D01*
X174648028Y-118887213D01*
X174792786Y-119031971D01*
X174903129Y-119112138D01*
X174958390Y-119152287D01*
X175011165Y-119179177D01*
X175051080Y-119199515D01*
X175101876Y-119247490D01*
X175118671Y-119315311D01*
X175096134Y-119381446D01*
X175051080Y-119420485D01*
X174958386Y-119467715D01*
X174792786Y-119588028D01*
X174648028Y-119732786D01*
X174527715Y-119898386D01*
X174434781Y-120080776D01*
X174371522Y-120275465D01*
X174345291Y-120441087D01*
X174339500Y-120477648D01*
X174339500Y-120682352D01*
X174343878Y-120709995D01*
X174371522Y-120884534D01*
X174434781Y-121079223D01*
X174527715Y-121261613D01*
X174648028Y-121427213D01*
X174792784Y-121571969D01*
X174829068Y-121598330D01*
X174871735Y-121653659D01*
X174877715Y-121723273D01*
X174845109Y-121785068D01*
X174784271Y-121819426D01*
X174769440Y-121821938D01*
X174732519Y-121825907D01*
X174597671Y-121876202D01*
X174597664Y-121876206D01*
X174482455Y-121962452D01*
X174482452Y-121962455D01*
X174396206Y-122077664D01*
X174396202Y-122077671D01*
X174345908Y-122212517D01*
X174339501Y-122272116D01*
X174339500Y-122272135D01*
X174339500Y-123967870D01*
X174339501Y-123967876D01*
X174345908Y-124027483D01*
X174396202Y-124162328D01*
X174396206Y-124162335D01*
X174482452Y-124277544D01*
X174482455Y-124277547D01*
X174597664Y-124363793D01*
X174597671Y-124363797D01*
X174732517Y-124414091D01*
X174732516Y-124414091D01*
X174739444Y-124414835D01*
X174792127Y-124420500D01*
X176333836Y-124420499D01*
X176400875Y-124440184D01*
X176421517Y-124456818D01*
X178828181Y-126863482D01*
X178861666Y-126924805D01*
X178864500Y-126951163D01*
X178864500Y-130400821D01*
X178844815Y-130467860D01*
X178811624Y-130502396D01*
X178700856Y-130579956D01*
X178539954Y-130740858D01*
X178409432Y-130927265D01*
X178409431Y-130927267D01*
X178313261Y-131133502D01*
X178313258Y-131133511D01*
X178254366Y-131353302D01*
X178254364Y-131353313D01*
X178234532Y-131579998D01*
X178234532Y-131580001D01*
X178254364Y-131806686D01*
X178254366Y-131806697D01*
X178285638Y-131923407D01*
X178283975Y-131993257D01*
X178244812Y-132051119D01*
X178180583Y-132078623D01*
X178165863Y-132079500D01*
X168964462Y-132079500D01*
X168897423Y-132059815D01*
X168876781Y-132043181D01*
X168662076Y-131828476D01*
X168628591Y-131767153D01*
X168633575Y-131697461D01*
X168675447Y-131641528D01*
X168688361Y-131633827D01*
X168688043Y-131633276D01*
X168692725Y-131630572D01*
X168692734Y-131630568D01*
X168879139Y-131500047D01*
X169040047Y-131339139D01*
X169170568Y-131152734D01*
X169266739Y-130946496D01*
X169325635Y-130726692D01*
X169345468Y-130500000D01*
X169345468Y-130499997D01*
X171735034Y-130499997D01*
X171735034Y-130500002D01*
X171754858Y-130726599D01*
X171754860Y-130726610D01*
X171813730Y-130946317D01*
X171813735Y-130946331D01*
X171909863Y-131152478D01*
X171960974Y-131225472D01*
X172640000Y-130546446D01*
X172640000Y-130552661D01*
X172667259Y-130654394D01*
X172719920Y-130745606D01*
X172794394Y-130820080D01*
X172885606Y-130872741D01*
X172987339Y-130900000D01*
X172993553Y-130900000D01*
X172314526Y-131579025D01*
X172387513Y-131630132D01*
X172387521Y-131630136D01*
X172593668Y-131726264D01*
X172593682Y-131726269D01*
X172813389Y-131785139D01*
X172813400Y-131785141D01*
X173039998Y-131804966D01*
X173040002Y-131804966D01*
X173266599Y-131785141D01*
X173266610Y-131785139D01*
X173486317Y-131726269D01*
X173486331Y-131726264D01*
X173692478Y-131630136D01*
X173765471Y-131579024D01*
X173086447Y-130900000D01*
X173092661Y-130900000D01*
X173194394Y-130872741D01*
X173285606Y-130820080D01*
X173360080Y-130745606D01*
X173412741Y-130654394D01*
X173440000Y-130552661D01*
X173440000Y-130546447D01*
X174119024Y-131225471D01*
X174170136Y-131152478D01*
X174266264Y-130946331D01*
X174266269Y-130946317D01*
X174325139Y-130726610D01*
X174325141Y-130726599D01*
X174344966Y-130500002D01*
X174344966Y-130499997D01*
X174325141Y-130273400D01*
X174325139Y-130273389D01*
X174266269Y-130053682D01*
X174266264Y-130053668D01*
X174170136Y-129847521D01*
X174170132Y-129847513D01*
X174119025Y-129774526D01*
X173440000Y-130453551D01*
X173440000Y-130447339D01*
X173412741Y-130345606D01*
X173360080Y-130254394D01*
X173285606Y-130179920D01*
X173194394Y-130127259D01*
X173092661Y-130100000D01*
X173086445Y-130100000D01*
X173765472Y-129420974D01*
X173692478Y-129369863D01*
X173486331Y-129273735D01*
X173486317Y-129273730D01*
X173266610Y-129214860D01*
X173266599Y-129214858D01*
X173040002Y-129195034D01*
X173039998Y-129195034D01*
X172813400Y-129214858D01*
X172813389Y-129214860D01*
X172593682Y-129273730D01*
X172593673Y-129273734D01*
X172387516Y-129369866D01*
X172387512Y-129369868D01*
X172314526Y-129420973D01*
X172314526Y-129420974D01*
X172993553Y-130100000D01*
X172987339Y-130100000D01*
X172885606Y-130127259D01*
X172794394Y-130179920D01*
X172719920Y-130254394D01*
X172667259Y-130345606D01*
X172640000Y-130447339D01*
X172640000Y-130453552D01*
X171960974Y-129774526D01*
X171960973Y-129774526D01*
X171909868Y-129847512D01*
X171909866Y-129847516D01*
X171813734Y-130053673D01*
X171813730Y-130053682D01*
X171754860Y-130273389D01*
X171754858Y-130273400D01*
X171735034Y-130499997D01*
X169345468Y-130499997D01*
X169342438Y-130465372D01*
X169335460Y-130385606D01*
X169325635Y-130273308D01*
X169266739Y-130053504D01*
X169170568Y-129847266D01*
X169063022Y-129693673D01*
X169040048Y-129660862D01*
X168986045Y-129606859D01*
X168879139Y-129499953D01*
X168874373Y-129496615D01*
X168843375Y-129474910D01*
X168799751Y-129420332D01*
X168790500Y-129373336D01*
X168790500Y-128626662D01*
X168810185Y-128559623D01*
X168843379Y-128525086D01*
X168879140Y-128500046D01*
X169040045Y-128339141D01*
X169040047Y-128339139D01*
X169170568Y-128152734D01*
X169266739Y-127946496D01*
X169325635Y-127726692D01*
X169345468Y-127500000D01*
X169345468Y-127499997D01*
X171735034Y-127499997D01*
X171735034Y-127500002D01*
X171754858Y-127726599D01*
X171754860Y-127726610D01*
X171813730Y-127946317D01*
X171813735Y-127946331D01*
X171909863Y-128152478D01*
X171960974Y-128225472D01*
X172640000Y-127546446D01*
X172640000Y-127552661D01*
X172667259Y-127654394D01*
X172719920Y-127745606D01*
X172794394Y-127820080D01*
X172885606Y-127872741D01*
X172987339Y-127900000D01*
X172993553Y-127900000D01*
X172314526Y-128579025D01*
X172387513Y-128630132D01*
X172387521Y-128630136D01*
X172593668Y-128726264D01*
X172593682Y-128726269D01*
X172813389Y-128785139D01*
X172813400Y-128785141D01*
X173039998Y-128804966D01*
X173040002Y-128804966D01*
X173266599Y-128785141D01*
X173266610Y-128785139D01*
X173486317Y-128726269D01*
X173486331Y-128726264D01*
X173692478Y-128630136D01*
X173765471Y-128579024D01*
X173086447Y-127900000D01*
X173092661Y-127900000D01*
X173194394Y-127872741D01*
X173285606Y-127820080D01*
X173360080Y-127745606D01*
X173412741Y-127654394D01*
X173440000Y-127552661D01*
X173440000Y-127546447D01*
X174119024Y-128225471D01*
X174170136Y-128152478D01*
X174266264Y-127946331D01*
X174266269Y-127946317D01*
X174325139Y-127726610D01*
X174325141Y-127726599D01*
X174344966Y-127500002D01*
X174344966Y-127499997D01*
X174325141Y-127273400D01*
X174325139Y-127273389D01*
X174266269Y-127053682D01*
X174266264Y-127053668D01*
X174170136Y-126847521D01*
X174170132Y-126847513D01*
X174119025Y-126774526D01*
X173440000Y-127453551D01*
X173440000Y-127447339D01*
X173412741Y-127345606D01*
X173360080Y-127254394D01*
X173285606Y-127179920D01*
X173194394Y-127127259D01*
X173092661Y-127100000D01*
X173086445Y-127100000D01*
X173765472Y-126420974D01*
X173692478Y-126369863D01*
X173486331Y-126273735D01*
X173486317Y-126273730D01*
X173266610Y-126214860D01*
X173266599Y-126214858D01*
X173040002Y-126195034D01*
X173039998Y-126195034D01*
X172813400Y-126214858D01*
X172813389Y-126214860D01*
X172593682Y-126273730D01*
X172593673Y-126273734D01*
X172387516Y-126369866D01*
X172387512Y-126369868D01*
X172314526Y-126420973D01*
X172314526Y-126420974D01*
X172993553Y-127100000D01*
X172987339Y-127100000D01*
X172885606Y-127127259D01*
X172794394Y-127179920D01*
X172719920Y-127254394D01*
X172667259Y-127345606D01*
X172640000Y-127447339D01*
X172640000Y-127453552D01*
X171960974Y-126774526D01*
X171960973Y-126774526D01*
X171909868Y-126847512D01*
X171909866Y-126847516D01*
X171813734Y-127053673D01*
X171813730Y-127053682D01*
X171754860Y-127273389D01*
X171754858Y-127273400D01*
X171735034Y-127499997D01*
X169345468Y-127499997D01*
X169325635Y-127273308D01*
X169266739Y-127053504D01*
X169170568Y-126847266D01*
X169040047Y-126660861D01*
X168879139Y-126499953D01*
X168874373Y-126496615D01*
X168843375Y-126474910D01*
X168799751Y-126420332D01*
X168790500Y-126373336D01*
X168790500Y-124544500D01*
X168810185Y-124477461D01*
X168862989Y-124431706D01*
X168914500Y-124420500D01*
X168922351Y-124420500D01*
X168922352Y-124420500D01*
X169124534Y-124388477D01*
X169319219Y-124325220D01*
X169501610Y-124232287D01*
X169637171Y-124133797D01*
X169667213Y-124111971D01*
X169667215Y-124111968D01*
X169667219Y-124111966D01*
X169811966Y-123967219D01*
X169811968Y-123967215D01*
X169811971Y-123967213D01*
X169904254Y-123840194D01*
X169932287Y-123801610D01*
X170025220Y-123619219D01*
X170088477Y-123424534D01*
X170120500Y-123222352D01*
X170120500Y-123017648D01*
X170088477Y-122815466D01*
X170025220Y-122620781D01*
X170025218Y-122620778D01*
X170025218Y-122620776D01*
X169963679Y-122500001D01*
X169932287Y-122438390D01*
X169918959Y-122420045D01*
X169811971Y-122272786D01*
X169667213Y-122128028D01*
X169501614Y-122007715D01*
X169452158Y-121982516D01*
X169408917Y-121960483D01*
X169358123Y-121912511D01*
X169341328Y-121844690D01*
X169363865Y-121778555D01*
X169408917Y-121739516D01*
X169501610Y-121692287D01*
X169522770Y-121676913D01*
X169667213Y-121571971D01*
X169667215Y-121571968D01*
X169667219Y-121571966D01*
X169811966Y-121427219D01*
X169811968Y-121427215D01*
X169811971Y-121427213D01*
X169903242Y-121301587D01*
X169932287Y-121261610D01*
X170025220Y-121079219D01*
X170088477Y-120884534D01*
X170120500Y-120682352D01*
X170120500Y-120477648D01*
X170093077Y-120304507D01*
X170088477Y-120275465D01*
X170059127Y-120185137D01*
X170025220Y-120080781D01*
X170025218Y-120080778D01*
X170025218Y-120080776D01*
X169991503Y-120014607D01*
X169932287Y-119898390D01*
X169924556Y-119887749D01*
X169811971Y-119732786D01*
X169667213Y-119588028D01*
X169501614Y-119467715D01*
X169460069Y-119446547D01*
X169408917Y-119420483D01*
X169358123Y-119372511D01*
X169341328Y-119304690D01*
X169363865Y-119238555D01*
X169408917Y-119199516D01*
X169501610Y-119152287D01*
X169556871Y-119112138D01*
X169667213Y-119031971D01*
X169667215Y-119031968D01*
X169667219Y-119031966D01*
X169811966Y-118887219D01*
X169811968Y-118887215D01*
X169811971Y-118887213D01*
X169864732Y-118814590D01*
X169932287Y-118721610D01*
X170025220Y-118539219D01*
X170088477Y-118344534D01*
X170120500Y-118142352D01*
X170120500Y-117937648D01*
X170102019Y-117820968D01*
X170088477Y-117735465D01*
X170025218Y-117540776D01*
X169989061Y-117469815D01*
X169932287Y-117358390D01*
X169907665Y-117324500D01*
X169811971Y-117192786D01*
X169667213Y-117048028D01*
X169501614Y-116927715D01*
X169491175Y-116922396D01*
X169408917Y-116880483D01*
X169358123Y-116832511D01*
X169341328Y-116764690D01*
X169363865Y-116698555D01*
X169408917Y-116659516D01*
X169501610Y-116612287D01*
X169522770Y-116596913D01*
X169667213Y-116491971D01*
X169667215Y-116491968D01*
X169667219Y-116491966D01*
X169811966Y-116347219D01*
X169811968Y-116347215D01*
X169811971Y-116347213D01*
X169899588Y-116226616D01*
X169932287Y-116181610D01*
X170025220Y-115999219D01*
X170088477Y-115804534D01*
X170120500Y-115602352D01*
X170120500Y-115397648D01*
X170088477Y-115195466D01*
X170037754Y-115039359D01*
X170035760Y-114969521D01*
X170068006Y-114913361D01*
X170162947Y-114818421D01*
X170162948Y-114818420D01*
X170162948Y-114818419D01*
X170162952Y-114818416D01*
X170227602Y-114721658D01*
X170245084Y-114695495D01*
X170275127Y-114622964D01*
X170301659Y-114558912D01*
X170330500Y-114413917D01*
X170330500Y-114266082D01*
X170330500Y-113126662D01*
X170350185Y-113059623D01*
X170383379Y-113025086D01*
X170419140Y-113000046D01*
X170580045Y-112839141D01*
X170580047Y-112839139D01*
X170710568Y-112652734D01*
X170806739Y-112446496D01*
X170865635Y-112226692D01*
X170885468Y-112000000D01*
X170865635Y-111773308D01*
X170806739Y-111553504D01*
X170710568Y-111347266D01*
X170580047Y-111160861D01*
X170580045Y-111160858D01*
X170419141Y-110999954D01*
X170232734Y-110869432D01*
X170232732Y-110869431D01*
X170026497Y-110773261D01*
X170026488Y-110773258D01*
X169806697Y-110714366D01*
X169806693Y-110714365D01*
X169806692Y-110714365D01*
X169806691Y-110714364D01*
X169806686Y-110714364D01*
X169580002Y-110694532D01*
X169579997Y-110694532D01*
X169413137Y-110709129D01*
X169344637Y-110695362D01*
X169314650Y-110673282D01*
X168461365Y-109819997D01*
X177935034Y-109819997D01*
X177935034Y-109820002D01*
X177954858Y-110046599D01*
X177954860Y-110046610D01*
X178013730Y-110266317D01*
X178013735Y-110266331D01*
X178109863Y-110472478D01*
X178160974Y-110545472D01*
X178840000Y-109866446D01*
X178840000Y-109872661D01*
X178867259Y-109974394D01*
X178919920Y-110065606D01*
X178994394Y-110140080D01*
X179085606Y-110192741D01*
X179187339Y-110220000D01*
X179193553Y-110220000D01*
X178514526Y-110899025D01*
X178587513Y-110950132D01*
X178587521Y-110950136D01*
X178793668Y-111046264D01*
X178793682Y-111046269D01*
X179013389Y-111105139D01*
X179013400Y-111105141D01*
X179239998Y-111124966D01*
X179240002Y-111124966D01*
X179466599Y-111105141D01*
X179466610Y-111105139D01*
X179686317Y-111046269D01*
X179686331Y-111046264D01*
X179892478Y-110950136D01*
X179965471Y-110899024D01*
X179286447Y-110220000D01*
X179292661Y-110220000D01*
X179394394Y-110192741D01*
X179485606Y-110140080D01*
X179560080Y-110065606D01*
X179612741Y-109974394D01*
X179640000Y-109872661D01*
X179640000Y-109866447D01*
X180319024Y-110545471D01*
X180370136Y-110472478D01*
X180466264Y-110266331D01*
X180466269Y-110266317D01*
X180525139Y-110046610D01*
X180525141Y-110046599D01*
X180544966Y-109820002D01*
X180544966Y-109819997D01*
X180935034Y-109819997D01*
X180935034Y-109820002D01*
X180954858Y-110046599D01*
X180954860Y-110046610D01*
X181013730Y-110266317D01*
X181013735Y-110266331D01*
X181109863Y-110472478D01*
X181160974Y-110545472D01*
X181840000Y-109866446D01*
X181840000Y-109872661D01*
X181867259Y-109974394D01*
X181919920Y-110065606D01*
X181994394Y-110140080D01*
X182085606Y-110192741D01*
X182187339Y-110220000D01*
X182193553Y-110220000D01*
X181514526Y-110899025D01*
X181587513Y-110950132D01*
X181587521Y-110950136D01*
X181793668Y-111046264D01*
X181793682Y-111046269D01*
X182013389Y-111105139D01*
X182013400Y-111105141D01*
X182239998Y-111124966D01*
X182240002Y-111124966D01*
X182466599Y-111105141D01*
X182466610Y-111105139D01*
X182686317Y-111046269D01*
X182686331Y-111046264D01*
X182892478Y-110950136D01*
X182965471Y-110899024D01*
X182286447Y-110220000D01*
X182292661Y-110220000D01*
X182394394Y-110192741D01*
X182485606Y-110140080D01*
X182560080Y-110065606D01*
X182612741Y-109974394D01*
X182640000Y-109872661D01*
X182640000Y-109866447D01*
X183319024Y-110545471D01*
X183370136Y-110472478D01*
X183466264Y-110266331D01*
X183466269Y-110266317D01*
X183525139Y-110046610D01*
X183525141Y-110046599D01*
X183544966Y-109820002D01*
X183544966Y-109819997D01*
X183525141Y-109593400D01*
X183525139Y-109593389D01*
X183466269Y-109373682D01*
X183466264Y-109373668D01*
X183370136Y-109167521D01*
X183370132Y-109167513D01*
X183319025Y-109094526D01*
X182640000Y-109773551D01*
X182640000Y-109767339D01*
X182612741Y-109665606D01*
X182560080Y-109574394D01*
X182485606Y-109499920D01*
X182394394Y-109447259D01*
X182292661Y-109420000D01*
X182286445Y-109420000D01*
X182965472Y-108740974D01*
X182892478Y-108689863D01*
X182686331Y-108593735D01*
X182686317Y-108593730D01*
X182466610Y-108534860D01*
X182466599Y-108534858D01*
X182240002Y-108515034D01*
X182239998Y-108515034D01*
X182013400Y-108534858D01*
X182013389Y-108534860D01*
X181793682Y-108593730D01*
X181793673Y-108593734D01*
X181587516Y-108689866D01*
X181587512Y-108689868D01*
X181514526Y-108740973D01*
X181514526Y-108740974D01*
X182193553Y-109420000D01*
X182187339Y-109420000D01*
X182085606Y-109447259D01*
X181994394Y-109499920D01*
X181919920Y-109574394D01*
X181867259Y-109665606D01*
X181840000Y-109767339D01*
X181840000Y-109773552D01*
X181160974Y-109094526D01*
X181160973Y-109094526D01*
X181109868Y-109167512D01*
X181109866Y-109167516D01*
X181013734Y-109373673D01*
X181013730Y-109373682D01*
X180954860Y-109593389D01*
X180954858Y-109593400D01*
X180935034Y-109819997D01*
X180544966Y-109819997D01*
X180525141Y-109593400D01*
X180525139Y-109593389D01*
X180466269Y-109373682D01*
X180466264Y-109373668D01*
X180370136Y-109167521D01*
X180370132Y-109167513D01*
X180319025Y-109094526D01*
X179640000Y-109773551D01*
X179640000Y-109767339D01*
X179612741Y-109665606D01*
X179560080Y-109574394D01*
X179485606Y-109499920D01*
X179394394Y-109447259D01*
X179292661Y-109420000D01*
X179286445Y-109420000D01*
X179965472Y-108740974D01*
X179892478Y-108689863D01*
X179686331Y-108593735D01*
X179686317Y-108593730D01*
X179466610Y-108534860D01*
X179466599Y-108534858D01*
X179240002Y-108515034D01*
X179239998Y-108515034D01*
X179013400Y-108534858D01*
X179013389Y-108534860D01*
X178793682Y-108593730D01*
X178793673Y-108593734D01*
X178587516Y-108689866D01*
X178587512Y-108689868D01*
X178514526Y-108740973D01*
X178514526Y-108740974D01*
X179193553Y-109420000D01*
X179187339Y-109420000D01*
X179085606Y-109447259D01*
X178994394Y-109499920D01*
X178919920Y-109574394D01*
X178867259Y-109665606D01*
X178840000Y-109767339D01*
X178840000Y-109773552D01*
X178160974Y-109094526D01*
X178160973Y-109094526D01*
X178109868Y-109167512D01*
X178109866Y-109167516D01*
X178013734Y-109373673D01*
X178013730Y-109373682D01*
X177954860Y-109593389D01*
X177954858Y-109593400D01*
X177935034Y-109819997D01*
X168461365Y-109819997D01*
X166866819Y-108225451D01*
X166833334Y-108164128D01*
X166830500Y-108137770D01*
X166830500Y-107310049D01*
X166850185Y-107243010D01*
X166866819Y-107222368D01*
X167000045Y-107089141D01*
X167000047Y-107089139D01*
X167130568Y-106902734D01*
X167226739Y-106696496D01*
X167285635Y-106476692D01*
X167305468Y-106250000D01*
X167285635Y-106023308D01*
X167226739Y-105803504D01*
X167130568Y-105597266D01*
X167000047Y-105410861D01*
X167000045Y-105410858D01*
X166866819Y-105277632D01*
X166833334Y-105216309D01*
X166830500Y-105189951D01*
X166830500Y-104126662D01*
X166850185Y-104059623D01*
X166883379Y-104025086D01*
X166919140Y-104000046D01*
X167080045Y-103839141D01*
X167080047Y-103839139D01*
X167210568Y-103652734D01*
X167306739Y-103446496D01*
X167365635Y-103226692D01*
X167385468Y-103000000D01*
X167365635Y-102773308D01*
X167306739Y-102553504D01*
X167210568Y-102347266D01*
X167080047Y-102160861D01*
X167080045Y-102160858D01*
X166919141Y-101999954D01*
X166732734Y-101869432D01*
X166732732Y-101869431D01*
X166526497Y-101773261D01*
X166526488Y-101773258D01*
X166306697Y-101714366D01*
X166306693Y-101714365D01*
X166306692Y-101714365D01*
X166306691Y-101714364D01*
X166306686Y-101714364D01*
X166080002Y-101694532D01*
X166079998Y-101694532D01*
X165853313Y-101714364D01*
X165853302Y-101714366D01*
X165633511Y-101773258D01*
X165633502Y-101773261D01*
X165427267Y-101869431D01*
X165427265Y-101869432D01*
X165240858Y-101999954D01*
X165079954Y-102160858D01*
X164949432Y-102347265D01*
X164949431Y-102347267D01*
X164853261Y-102553502D01*
X164853258Y-102553511D01*
X164794366Y-102773302D01*
X164794364Y-102773313D01*
X164774532Y-102999998D01*
X164774532Y-103000001D01*
X164794364Y-103226686D01*
X164794366Y-103226697D01*
X164853258Y-103446488D01*
X164853261Y-103446497D01*
X164949431Y-103652732D01*
X164949432Y-103652734D01*
X165079954Y-103839141D01*
X165240859Y-104000046D01*
X165276621Y-104025086D01*
X165320247Y-104079662D01*
X165329500Y-104126662D01*
X165329500Y-105067320D01*
X165309815Y-105134359D01*
X165276624Y-105168895D01*
X165160856Y-105249956D01*
X164999954Y-105410858D01*
X164869432Y-105597265D01*
X164869431Y-105597267D01*
X164773261Y-105803502D01*
X164773258Y-105803511D01*
X164714366Y-106023302D01*
X164714364Y-106023313D01*
X164694532Y-106249998D01*
X164694532Y-106250001D01*
X164714364Y-106476686D01*
X164714366Y-106476697D01*
X164773258Y-106696488D01*
X164773261Y-106696497D01*
X164869431Y-106902732D01*
X164869432Y-106902734D01*
X164999954Y-107089141D01*
X165160857Y-107250044D01*
X165160860Y-107250046D01*
X165160861Y-107250047D01*
X165276623Y-107331103D01*
X165320248Y-107385679D01*
X165329500Y-107432678D01*
X165329500Y-108573918D01*
X165329500Y-108573920D01*
X165329499Y-108573920D01*
X165358340Y-108718907D01*
X165358343Y-108718917D01*
X165414914Y-108855492D01*
X165447812Y-108904727D01*
X165447813Y-108904730D01*
X165497046Y-108978414D01*
X165497052Y-108978421D01*
X168253282Y-111734650D01*
X168286767Y-111795973D01*
X168289129Y-111833137D01*
X168274532Y-111999996D01*
X168274532Y-112000001D01*
X168294364Y-112226686D01*
X168294366Y-112226697D01*
X168353258Y-112446488D01*
X168353261Y-112446497D01*
X168449431Y-112652732D01*
X168449432Y-112652734D01*
X168579954Y-112839141D01*
X168740859Y-113000046D01*
X168776621Y-113025086D01*
X168820247Y-113079662D01*
X168829500Y-113126662D01*
X168829500Y-113977770D01*
X168809815Y-114044809D01*
X168793181Y-114065451D01*
X168695451Y-114163181D01*
X168634128Y-114196666D01*
X168607770Y-114199500D01*
X167917648Y-114199500D01*
X167893329Y-114203351D01*
X167715465Y-114231522D01*
X167520776Y-114294781D01*
X167338386Y-114387715D01*
X167172786Y-114508028D01*
X167028028Y-114652786D01*
X166907715Y-114818386D01*
X166814781Y-115000776D01*
X166751522Y-115195465D01*
X166719500Y-115397648D01*
X166719500Y-115602351D01*
X166751522Y-115804534D01*
X166814781Y-115999223D01*
X166864751Y-116097293D01*
X166904599Y-116175499D01*
X166907715Y-116181613D01*
X167028028Y-116347213D01*
X167172786Y-116491971D01*
X167327749Y-116604556D01*
X167338390Y-116612287D01*
X167429840Y-116658883D01*
X167431080Y-116659515D01*
X167481876Y-116707490D01*
X167498671Y-116775311D01*
X167476134Y-116841446D01*
X167431080Y-116880485D01*
X167338386Y-116927715D01*
X167172786Y-117048028D01*
X167028028Y-117192786D01*
X166974576Y-117266359D01*
X166919247Y-117309025D01*
X166849633Y-117315004D01*
X166787838Y-117282399D01*
X166772683Y-117264597D01*
X166700045Y-117160858D01*
X166539141Y-116999954D01*
X166352734Y-116869432D01*
X166352732Y-116869431D01*
X166146497Y-116773261D01*
X166146488Y-116773258D01*
X165926697Y-116714366D01*
X165926693Y-116714365D01*
X165926692Y-116714365D01*
X165926691Y-116714364D01*
X165926686Y-116714364D01*
X165700002Y-116694532D01*
X165699998Y-116694532D01*
X165473313Y-116714364D01*
X165473302Y-116714366D01*
X165253511Y-116773258D01*
X165253502Y-116773261D01*
X165047267Y-116869431D01*
X165047265Y-116869432D01*
X164860858Y-116999954D01*
X164699954Y-117160858D01*
X164569432Y-117347265D01*
X164569431Y-117347267D01*
X164473261Y-117553502D01*
X164473258Y-117553511D01*
X164414366Y-117773302D01*
X164414364Y-117773313D01*
X164394532Y-117999998D01*
X164394532Y-118000001D01*
X164414364Y-118226686D01*
X164414366Y-118226697D01*
X164473258Y-118446488D01*
X164473261Y-118446497D01*
X164569431Y-118652732D01*
X164569432Y-118652734D01*
X164699954Y-118839141D01*
X164860857Y-119000044D01*
X164860860Y-119000046D01*
X164860861Y-119000047D01*
X164971623Y-119077602D01*
X165015248Y-119132178D01*
X165024500Y-119179177D01*
X165024500Y-120088836D01*
X165004815Y-120155875D01*
X164988181Y-120176517D01*
X163909036Y-121255661D01*
X163847713Y-121289146D01*
X163810548Y-121291508D01*
X163620002Y-121274838D01*
X163619998Y-121274838D01*
X163407258Y-121293450D01*
X163407247Y-121293452D01*
X163200977Y-121348721D01*
X163200968Y-121348725D01*
X163007421Y-121438977D01*
X162832478Y-121561472D01*
X162681472Y-121712478D01*
X162558977Y-121887421D01*
X162468725Y-122080968D01*
X162466870Y-122086064D01*
X162464749Y-122085292D01*
X162433406Y-122136710D01*
X162370558Y-122167237D01*
X162301183Y-122158939D01*
X162247307Y-122114452D01*
X162234169Y-122085685D01*
X162233130Y-122086064D01*
X162231279Y-122080983D01*
X162231276Y-122080970D01*
X162141021Y-121887419D01*
X162018529Y-121712481D01*
X162018527Y-121712478D01*
X161867521Y-121561472D01*
X161692578Y-121438977D01*
X161692579Y-121438977D01*
X161551139Y-121373023D01*
X161499030Y-121348724D01*
X161499026Y-121348723D01*
X161499022Y-121348721D01*
X161292752Y-121293452D01*
X161292748Y-121293451D01*
X161292747Y-121293451D01*
X161292746Y-121293450D01*
X161292741Y-121293450D01*
X161080002Y-121274838D01*
X161079998Y-121274838D01*
X160867258Y-121293450D01*
X160867247Y-121293452D01*
X160660977Y-121348721D01*
X160660968Y-121348725D01*
X160467421Y-121438977D01*
X160292478Y-121561472D01*
X160141472Y-121712478D01*
X160018977Y-121887421D01*
X159928725Y-122080968D01*
X159926870Y-122086064D01*
X159924749Y-122085292D01*
X159893406Y-122136710D01*
X159830558Y-122167237D01*
X159761183Y-122158939D01*
X159707307Y-122114452D01*
X159694169Y-122085685D01*
X159693130Y-122086064D01*
X159691279Y-122080983D01*
X159691276Y-122080970D01*
X159601021Y-121887419D01*
X159478529Y-121712481D01*
X159478527Y-121712478D01*
X159327521Y-121561472D01*
X159152578Y-121438977D01*
X159152579Y-121438977D01*
X159011139Y-121373023D01*
X158959030Y-121348724D01*
X158959026Y-121348723D01*
X158959022Y-121348721D01*
X158752752Y-121293452D01*
X158752748Y-121293451D01*
X158752747Y-121293451D01*
X158752746Y-121293450D01*
X158752741Y-121293450D01*
X158540002Y-121274838D01*
X158539998Y-121274838D01*
X158327258Y-121293450D01*
X158327247Y-121293452D01*
X158120977Y-121348721D01*
X158120968Y-121348725D01*
X157927421Y-121438977D01*
X157752478Y-121561472D01*
X157601472Y-121712478D01*
X157478977Y-121887421D01*
X157388725Y-122080968D01*
X157388721Y-122080977D01*
X157333452Y-122287247D01*
X157333450Y-122287258D01*
X157314838Y-122499998D01*
X157314838Y-122500001D01*
X157333450Y-122712741D01*
X157333452Y-122712752D01*
X157388721Y-122919022D01*
X157388723Y-122919026D01*
X157388724Y-122919030D01*
X157388727Y-122919036D01*
X157478977Y-123112578D01*
X157601472Y-123287521D01*
X157752478Y-123438527D01*
X157752481Y-123438529D01*
X157927419Y-123561021D01*
X157927421Y-123561022D01*
X157927420Y-123561022D01*
X157971368Y-123581515D01*
X158120970Y-123651276D01*
X158120976Y-123651277D01*
X158120977Y-123651278D01*
X158170627Y-123664581D01*
X158327253Y-123706549D01*
X158479215Y-123719844D01*
X158539998Y-123725162D01*
X158540000Y-123725162D01*
X158540002Y-123725162D01*
X158593186Y-123720508D01*
X158752747Y-123706549D01*
X158959030Y-123651276D01*
X159152581Y-123561021D01*
X159327519Y-123438529D01*
X159478529Y-123287519D01*
X159601021Y-123112581D01*
X159691276Y-122919030D01*
X159691280Y-122919013D01*
X159693130Y-122913936D01*
X159695253Y-122914709D01*
X159726576Y-122863305D01*
X159789419Y-122832766D01*
X159858796Y-122841050D01*
X159912680Y-122885528D01*
X159925827Y-122914315D01*
X159926870Y-122913936D01*
X159928722Y-122919022D01*
X159928724Y-122919030D01*
X159928727Y-122919036D01*
X160018977Y-123112578D01*
X160141472Y-123287521D01*
X160292477Y-123438526D01*
X160292480Y-123438528D01*
X160292481Y-123438529D01*
X160351622Y-123479939D01*
X160395248Y-123534516D01*
X160404500Y-123581515D01*
X160404500Y-124128836D01*
X160384815Y-124195875D01*
X160368181Y-124216517D01*
X158399054Y-126185644D01*
X158337731Y-126219129D01*
X158279280Y-126217738D01*
X158266697Y-126214366D01*
X158266693Y-126214365D01*
X158266692Y-126214365D01*
X158266691Y-126214364D01*
X158266686Y-126214364D01*
X158040002Y-126194532D01*
X158039998Y-126194532D01*
X157813313Y-126214364D01*
X157813302Y-126214366D01*
X157593511Y-126273258D01*
X157593502Y-126273261D01*
X157387267Y-126369431D01*
X157387265Y-126369432D01*
X157200858Y-126499954D01*
X157039954Y-126660858D01*
X156909432Y-126847265D01*
X156909431Y-126847267D01*
X156813261Y-127053502D01*
X156813258Y-127053511D01*
X156754366Y-127273302D01*
X156754364Y-127273313D01*
X156734532Y-127499998D01*
X137415302Y-127499998D01*
X150170964Y-114744335D01*
X150232285Y-114710852D01*
X150269443Y-114708490D01*
X150445701Y-114723911D01*
X150459999Y-114725162D01*
X150460000Y-114725162D01*
X150460002Y-114725162D01*
X150513186Y-114720508D01*
X150672747Y-114706549D01*
X150879030Y-114651276D01*
X151072581Y-114561021D01*
X151247519Y-114438529D01*
X151398529Y-114287519D01*
X151521021Y-114112581D01*
X151611276Y-113919030D01*
X151611280Y-113919013D01*
X151613130Y-113913936D01*
X151615253Y-113914709D01*
X151646576Y-113863305D01*
X151709419Y-113832766D01*
X151778796Y-113841050D01*
X151832680Y-113885528D01*
X151845827Y-113914315D01*
X151846870Y-113913936D01*
X151848722Y-113919022D01*
X151848724Y-113919030D01*
X151891171Y-114010058D01*
X151938977Y-114112578D01*
X151938978Y-114112580D01*
X151938979Y-114112581D01*
X151961329Y-114144500D01*
X152061472Y-114287521D01*
X152212478Y-114438527D01*
X152212481Y-114438529D01*
X152387419Y-114561021D01*
X152387421Y-114561022D01*
X152387420Y-114561022D01*
X152431368Y-114581515D01*
X152580970Y-114651276D01*
X152580976Y-114651277D01*
X152580977Y-114651278D01*
X152586598Y-114652784D01*
X152787253Y-114706549D01*
X152939215Y-114719844D01*
X152999998Y-114725162D01*
X153000000Y-114725162D01*
X153000002Y-114725162D01*
X153053186Y-114720508D01*
X153212747Y-114706549D01*
X153419030Y-114651276D01*
X153612581Y-114561021D01*
X153787519Y-114438529D01*
X153938529Y-114287519D01*
X153977738Y-114231523D01*
X153979941Y-114228377D01*
X154034518Y-114184752D01*
X154081516Y-114175500D01*
X154458484Y-114175500D01*
X154525523Y-114195185D01*
X154560059Y-114228377D01*
X154601471Y-114287520D01*
X154752477Y-114438526D01*
X154811622Y-114479939D01*
X154855248Y-114534516D01*
X154864500Y-114581515D01*
X154864500Y-116820821D01*
X154844815Y-116887860D01*
X154811624Y-116922396D01*
X154700856Y-116999956D01*
X154539954Y-117160858D01*
X154409432Y-117347265D01*
X154409431Y-117347267D01*
X154313261Y-117553502D01*
X154313258Y-117553511D01*
X154254366Y-117773302D01*
X154254364Y-117773313D01*
X154234532Y-117999998D01*
X154234532Y-118000001D01*
X154254364Y-118226686D01*
X154254366Y-118226697D01*
X154313258Y-118446488D01*
X154313261Y-118446497D01*
X154409431Y-118652732D01*
X154409432Y-118652734D01*
X154539954Y-118839141D01*
X154700858Y-119000045D01*
X154700861Y-119000047D01*
X154887266Y-119130568D01*
X155093504Y-119226739D01*
X155313308Y-119285635D01*
X155475230Y-119299801D01*
X155539998Y-119305468D01*
X155540000Y-119305468D01*
X155540002Y-119305468D01*
X155596673Y-119300509D01*
X155766692Y-119285635D01*
X155986496Y-119226739D01*
X156192734Y-119130568D01*
X156379139Y-119000047D01*
X156540047Y-118839139D01*
X156670568Y-118652734D01*
X156766739Y-118446496D01*
X156825635Y-118226692D01*
X156845468Y-118000000D01*
X156825635Y-117773308D01*
X156766739Y-117553504D01*
X156670568Y-117347266D01*
X156540047Y-117160861D01*
X156540045Y-117160858D01*
X156379143Y-116999956D01*
X156268376Y-116922396D01*
X156224752Y-116867819D01*
X156215500Y-116820821D01*
X156215500Y-114581515D01*
X156235185Y-114514476D01*
X156268378Y-114479939D01*
X156327519Y-114438529D01*
X156478529Y-114287519D01*
X156601021Y-114112581D01*
X156691276Y-113919030D01*
X156746549Y-113712747D01*
X156765162Y-113500000D01*
X156746549Y-113287253D01*
X156691276Y-113080970D01*
X156601021Y-112887419D01*
X156478529Y-112712481D01*
X156478527Y-112712478D01*
X156327521Y-112561472D01*
X156152578Y-112438977D01*
X156152579Y-112438977D01*
X156010534Y-112372741D01*
X155959030Y-112348724D01*
X155959026Y-112348723D01*
X155959022Y-112348721D01*
X155752752Y-112293452D01*
X155752748Y-112293451D01*
X155752747Y-112293451D01*
X155752746Y-112293450D01*
X155752741Y-112293450D01*
X155540002Y-112274838D01*
X155539998Y-112274838D01*
X155327258Y-112293450D01*
X155327247Y-112293452D01*
X155120977Y-112348721D01*
X155120968Y-112348725D01*
X154927421Y-112438977D01*
X154752478Y-112561472D01*
X154601471Y-112712479D01*
X154560059Y-112771623D01*
X154505482Y-112815248D01*
X154458484Y-112824500D01*
X154081516Y-112824500D01*
X154014477Y-112804815D01*
X153979941Y-112771623D01*
X153938528Y-112712479D01*
X153787521Y-112561472D01*
X153612578Y-112438977D01*
X153612579Y-112438977D01*
X153470534Y-112372741D01*
X153419030Y-112348724D01*
X153419026Y-112348723D01*
X153419022Y-112348721D01*
X153212752Y-112293452D01*
X153212748Y-112293451D01*
X153212747Y-112293451D01*
X153212746Y-112293450D01*
X153212741Y-112293450D01*
X153000002Y-112274838D01*
X152999998Y-112274838D01*
X152787258Y-112293450D01*
X152787247Y-112293452D01*
X152580977Y-112348721D01*
X152580968Y-112348725D01*
X152387421Y-112438977D01*
X152212478Y-112561472D01*
X152061472Y-112712478D01*
X151938977Y-112887421D01*
X151848725Y-113080968D01*
X151846870Y-113086064D01*
X151844749Y-113085292D01*
X151813406Y-113136710D01*
X151750558Y-113167237D01*
X151681183Y-113158939D01*
X151627307Y-113114452D01*
X151614169Y-113085685D01*
X151613130Y-113086064D01*
X151611279Y-113080983D01*
X151611276Y-113080970D01*
X151521021Y-112887419D01*
X151398529Y-112712481D01*
X151398527Y-112712478D01*
X151247521Y-112561472D01*
X151072578Y-112438977D01*
X151072579Y-112438977D01*
X150930534Y-112372741D01*
X150879030Y-112348724D01*
X150879026Y-112348723D01*
X150879022Y-112348721D01*
X150672752Y-112293452D01*
X150672748Y-112293451D01*
X150672747Y-112293451D01*
X150672746Y-112293450D01*
X150672741Y-112293450D01*
X150460002Y-112274838D01*
X150459998Y-112274838D01*
X150247258Y-112293450D01*
X150247247Y-112293452D01*
X150040977Y-112348721D01*
X150040968Y-112348725D01*
X149847421Y-112438977D01*
X149672478Y-112561472D01*
X149521472Y-112712478D01*
X149398977Y-112887421D01*
X149308725Y-113080968D01*
X149308721Y-113080977D01*
X149253452Y-113287247D01*
X149253450Y-113287258D01*
X149234838Y-113499998D01*
X149234838Y-113500002D01*
X149251508Y-113690548D01*
X149237741Y-113759048D01*
X149215661Y-113789036D01*
X135755307Y-127249390D01*
X135755304Y-127249394D01*
X135681383Y-127360024D01*
X135681378Y-127360034D01*
X135630460Y-127482961D01*
X135630457Y-127482971D01*
X135613836Y-127566532D01*
X135613836Y-127566533D01*
X135604500Y-127613466D01*
X135604500Y-137999783D01*
X135584815Y-138066822D01*
X135551624Y-138101358D01*
X135408597Y-138201505D01*
X135286673Y-138323430D01*
X135225350Y-138356914D01*
X135155658Y-138351930D01*
X135099725Y-138310058D01*
X135082810Y-138279081D01*
X135033797Y-138147671D01*
X135033793Y-138147664D01*
X134947547Y-138032455D01*
X134947544Y-138032452D01*
X134832335Y-137946206D01*
X134832328Y-137946202D01*
X134697482Y-137895908D01*
X134697483Y-137895908D01*
X134637883Y-137889501D01*
X134637881Y-137889500D01*
X134637873Y-137889500D01*
X134637865Y-137889500D01*
X133325452Y-137889500D01*
X133258413Y-137869815D01*
X133237771Y-137853181D01*
X132770198Y-137385608D01*
X132770178Y-137385586D01*
X132678733Y-137294141D01*
X132627509Y-137259915D01*
X132577796Y-137226697D01*
X132576286Y-137225688D01*
X132576283Y-137225686D01*
X132576280Y-137225685D01*
X132495792Y-137192347D01*
X132462453Y-137178537D01*
X132452427Y-137176543D01*
X132402029Y-137166518D01*
X132341610Y-137154500D01*
X132341607Y-137154500D01*
X132341606Y-137154500D01*
X128936115Y-137154500D01*
X128869076Y-137134815D01*
X128836393Y-137101428D01*
X128835151Y-137102331D01*
X128711971Y-136932786D01*
X128567213Y-136788028D01*
X128401614Y-136667715D01*
X128392796Y-136663222D01*
X128308917Y-136620483D01*
X128258123Y-136572511D01*
X128241328Y-136504690D01*
X128263865Y-136438555D01*
X128308917Y-136399516D01*
X128401610Y-136352287D01*
X128422770Y-136336913D01*
X128567213Y-136231971D01*
X128567215Y-136231968D01*
X128567219Y-136231966D01*
X128711966Y-136087219D01*
X128714650Y-136083524D01*
X128745100Y-136041615D01*
X128800429Y-135998949D01*
X128845418Y-135990500D01*
X129579952Y-135990500D01*
X129646991Y-136010185D01*
X129667628Y-136026814D01*
X129728026Y-136087212D01*
X129780862Y-136140048D01*
X129874063Y-136205307D01*
X129967266Y-136270568D01*
X130173504Y-136366739D01*
X130393308Y-136425635D01*
X130555230Y-136439801D01*
X130619998Y-136445468D01*
X130620000Y-136445468D01*
X130620002Y-136445468D01*
X130676673Y-136440509D01*
X130846692Y-136425635D01*
X131066496Y-136366739D01*
X131272734Y-136270568D01*
X131459139Y-136140047D01*
X131572368Y-136026817D01*
X131633689Y-135993334D01*
X131660048Y-135990500D01*
X132379952Y-135990500D01*
X132446991Y-136010185D01*
X132467628Y-136026814D01*
X132528026Y-136087212D01*
X132580862Y-136140048D01*
X132674063Y-136205307D01*
X132767266Y-136270568D01*
X132973504Y-136366739D01*
X133193308Y-136425635D01*
X133355230Y-136439801D01*
X133419998Y-136445468D01*
X133420000Y-136445468D01*
X133420002Y-136445468D01*
X133476673Y-136440509D01*
X133646692Y-136425635D01*
X133866496Y-136366739D01*
X134072734Y-136270568D01*
X134259139Y-136140047D01*
X134420047Y-135979139D01*
X134550568Y-135792734D01*
X134646739Y-135586496D01*
X134705635Y-135366692D01*
X134725468Y-135140000D01*
X134705635Y-134913308D01*
X134646739Y-134693504D01*
X134550568Y-134487266D01*
X134420047Y-134300861D01*
X134420045Y-134300858D01*
X134259141Y-134139954D01*
X134072734Y-134009432D01*
X134072732Y-134009431D01*
X133866497Y-133913261D01*
X133866488Y-133913258D01*
X133646697Y-133854366D01*
X133646693Y-133854365D01*
X133646692Y-133854365D01*
X133646691Y-133854364D01*
X133646686Y-133854364D01*
X133420002Y-133834532D01*
X133419998Y-133834532D01*
X133193313Y-133854364D01*
X133193302Y-133854366D01*
X132973511Y-133913258D01*
X132973502Y-133913261D01*
X132767267Y-134009431D01*
X132767265Y-134009432D01*
X132580858Y-134139954D01*
X132419954Y-134300858D01*
X132324892Y-134436623D01*
X132270315Y-134480248D01*
X132223317Y-134489500D01*
X131816683Y-134489500D01*
X131749644Y-134469815D01*
X131715108Y-134436623D01*
X131620045Y-134300858D01*
X131459141Y-134139954D01*
X131272734Y-134009432D01*
X131272732Y-134009431D01*
X131066497Y-133913261D01*
X131066488Y-133913258D01*
X130846697Y-133854366D01*
X130846693Y-133854365D01*
X130846692Y-133854365D01*
X130846691Y-133854364D01*
X130846686Y-133854364D01*
X130620002Y-133834532D01*
X130619998Y-133834532D01*
X130393313Y-133854364D01*
X130393302Y-133854366D01*
X130173511Y-133913258D01*
X130173502Y-133913261D01*
X129967267Y-134009431D01*
X129967265Y-134009432D01*
X129780858Y-134139954D01*
X129619954Y-134300858D01*
X129524892Y-134436623D01*
X129470315Y-134480248D01*
X129423317Y-134489500D01*
X128845418Y-134489500D01*
X128778379Y-134469815D01*
X128745100Y-134438385D01*
X128711971Y-134392787D01*
X128711967Y-134392782D01*
X128567213Y-134248028D01*
X128401614Y-134127715D01*
X128395006Y-134124348D01*
X128308917Y-134080483D01*
X128258123Y-134032511D01*
X128241328Y-133964690D01*
X128263865Y-133898555D01*
X128308917Y-133859516D01*
X128401610Y-133812287D01*
X128449818Y-133777262D01*
X128567213Y-133691971D01*
X128567215Y-133691968D01*
X128567219Y-133691966D01*
X128711966Y-133547219D01*
X128711968Y-133547215D01*
X128711971Y-133547213D01*
X128776740Y-133458064D01*
X128832287Y-133381610D01*
X128925220Y-133199219D01*
X128988477Y-133004534D01*
X129020500Y-132802352D01*
X129020500Y-132597648D01*
X128992227Y-132419141D01*
X128988477Y-132395465D01*
X128935602Y-132232734D01*
X128925220Y-132200781D01*
X128925218Y-132200778D01*
X128925218Y-132200776D01*
X128848963Y-132051119D01*
X128832287Y-132018390D01*
X128814027Y-131993257D01*
X128711971Y-131852786D01*
X128567213Y-131708028D01*
X128401613Y-131587715D01*
X128401612Y-131587714D01*
X128401610Y-131587713D01*
X128343977Y-131558347D01*
X128238205Y-131504453D01*
X128187409Y-131456478D01*
X128170500Y-131393968D01*
X128170500Y-130566662D01*
X128190185Y-130499623D01*
X128223379Y-130465086D01*
X128259139Y-130440047D01*
X128420047Y-130279139D01*
X128517474Y-130139997D01*
X129315034Y-130139997D01*
X129315034Y-130140002D01*
X129334858Y-130366599D01*
X129334860Y-130366610D01*
X129393730Y-130586317D01*
X129393735Y-130586331D01*
X129489863Y-130792478D01*
X129540974Y-130865472D01*
X130220000Y-130186446D01*
X130220000Y-130192661D01*
X130247259Y-130294394D01*
X130299920Y-130385606D01*
X130374394Y-130460080D01*
X130465606Y-130512741D01*
X130567339Y-130540000D01*
X130573553Y-130540000D01*
X129894526Y-131219025D01*
X129967513Y-131270132D01*
X129967521Y-131270136D01*
X130173668Y-131366264D01*
X130173682Y-131366269D01*
X130393389Y-131425139D01*
X130393400Y-131425141D01*
X130619998Y-131444966D01*
X130620002Y-131444966D01*
X130846599Y-131425141D01*
X130846610Y-131425139D01*
X131066317Y-131366269D01*
X131066331Y-131366264D01*
X131272478Y-131270136D01*
X131345471Y-131219024D01*
X130666447Y-130540000D01*
X130672661Y-130540000D01*
X130774394Y-130512741D01*
X130865606Y-130460080D01*
X130940080Y-130385606D01*
X130992741Y-130294394D01*
X131020000Y-130192661D01*
X131020000Y-130186447D01*
X131699024Y-130865471D01*
X131750136Y-130792478D01*
X131846264Y-130586331D01*
X131846269Y-130586317D01*
X131900225Y-130384951D01*
X131936590Y-130325290D01*
X131999437Y-130294761D01*
X132068812Y-130303056D01*
X132122690Y-130347541D01*
X132139775Y-130384951D01*
X132193730Y-130586317D01*
X132193735Y-130586331D01*
X132289863Y-130792478D01*
X132340974Y-130865472D01*
X133020000Y-130186446D01*
X133020000Y-130192661D01*
X133047259Y-130294394D01*
X133099920Y-130385606D01*
X133174394Y-130460080D01*
X133265606Y-130512741D01*
X133367339Y-130540000D01*
X133373553Y-130540000D01*
X132694526Y-131219025D01*
X132767513Y-131270132D01*
X132767521Y-131270136D01*
X132973668Y-131366264D01*
X132973682Y-131366269D01*
X133193389Y-131425139D01*
X133193400Y-131425141D01*
X133419998Y-131444966D01*
X133420002Y-131444966D01*
X133646599Y-131425141D01*
X133646610Y-131425139D01*
X133866317Y-131366269D01*
X133866331Y-131366264D01*
X134072478Y-131270136D01*
X134145471Y-131219024D01*
X133466447Y-130540000D01*
X133472661Y-130540000D01*
X133574394Y-130512741D01*
X133665606Y-130460080D01*
X133740080Y-130385606D01*
X133792741Y-130294394D01*
X133820000Y-130192661D01*
X133820000Y-130186447D01*
X134499024Y-130865471D01*
X134550136Y-130792478D01*
X134646264Y-130586331D01*
X134646269Y-130586317D01*
X134705139Y-130366610D01*
X134705141Y-130366599D01*
X134724966Y-130140002D01*
X134724966Y-130139997D01*
X134705141Y-129913400D01*
X134705139Y-129913389D01*
X134646269Y-129693682D01*
X134646264Y-129693668D01*
X134550136Y-129487521D01*
X134550132Y-129487513D01*
X134499025Y-129414526D01*
X133820000Y-130093551D01*
X133820000Y-130087339D01*
X133792741Y-129985606D01*
X133740080Y-129894394D01*
X133665606Y-129819920D01*
X133574394Y-129767259D01*
X133472661Y-129740000D01*
X133466445Y-129740000D01*
X134145472Y-129060974D01*
X134072478Y-129009863D01*
X133866331Y-128913735D01*
X133866317Y-128913730D01*
X133646610Y-128854860D01*
X133646599Y-128854858D01*
X133420002Y-128835034D01*
X133419998Y-128835034D01*
X133193400Y-128854858D01*
X133193389Y-128854860D01*
X132973682Y-128913730D01*
X132973673Y-128913734D01*
X132767516Y-129009866D01*
X132767512Y-129009868D01*
X132694526Y-129060973D01*
X132694526Y-129060974D01*
X133373553Y-129740000D01*
X133367339Y-129740000D01*
X133265606Y-129767259D01*
X133174394Y-129819920D01*
X133099920Y-129894394D01*
X133047259Y-129985606D01*
X133020000Y-130087339D01*
X133020000Y-130093552D01*
X132340974Y-129414526D01*
X132340973Y-129414526D01*
X132289868Y-129487512D01*
X132289866Y-129487516D01*
X132193734Y-129693673D01*
X132193731Y-129693679D01*
X132139775Y-129895049D01*
X132103410Y-129954709D01*
X132040563Y-129985238D01*
X131971187Y-129976943D01*
X131917310Y-129932458D01*
X131900225Y-129895049D01*
X131846268Y-129693679D01*
X131846264Y-129693668D01*
X131750136Y-129487521D01*
X131750132Y-129487513D01*
X131699025Y-129414526D01*
X131020000Y-130093551D01*
X131020000Y-130087339D01*
X130992741Y-129985606D01*
X130940080Y-129894394D01*
X130865606Y-129819920D01*
X130774394Y-129767259D01*
X130672661Y-129740000D01*
X130666445Y-129740000D01*
X131345472Y-129060974D01*
X131272478Y-129009863D01*
X131066331Y-128913735D01*
X131066317Y-128913730D01*
X130846610Y-128854860D01*
X130846599Y-128854858D01*
X130620002Y-128835034D01*
X130619998Y-128835034D01*
X130393400Y-128854858D01*
X130393389Y-128854860D01*
X130173682Y-128913730D01*
X130173673Y-128913734D01*
X129967516Y-129009866D01*
X129967512Y-129009868D01*
X129894526Y-129060973D01*
X129894526Y-129060974D01*
X130573553Y-129740000D01*
X130567339Y-129740000D01*
X130465606Y-129767259D01*
X130374394Y-129819920D01*
X130299920Y-129894394D01*
X130247259Y-129985606D01*
X130220000Y-130087339D01*
X130220000Y-130093552D01*
X129540974Y-129414526D01*
X129540973Y-129414526D01*
X129489868Y-129487512D01*
X129489866Y-129487516D01*
X129393734Y-129693673D01*
X129393730Y-129693682D01*
X129334860Y-129913389D01*
X129334858Y-129913400D01*
X129315034Y-130139997D01*
X128517474Y-130139997D01*
X128550568Y-130092734D01*
X128646739Y-129886496D01*
X128705635Y-129666692D01*
X128725468Y-129440000D01*
X128723803Y-129420974D01*
X128716231Y-129334420D01*
X128705635Y-129213308D01*
X128646739Y-128993504D01*
X128550568Y-128787266D01*
X128441975Y-128632178D01*
X128420048Y-128600862D01*
X128344272Y-128525086D01*
X128259139Y-128439953D01*
X128254373Y-128436615D01*
X128223375Y-128414910D01*
X128179751Y-128360332D01*
X128170500Y-128313336D01*
X128170500Y-126567700D01*
X128190185Y-126500661D01*
X128223375Y-126466126D01*
X128291401Y-126418495D01*
X128458495Y-126251401D01*
X128594035Y-126057830D01*
X128693903Y-125843663D01*
X128755063Y-125615408D01*
X128775659Y-125380000D01*
X128755063Y-125144592D01*
X128693903Y-124916337D01*
X128594035Y-124702171D01*
X128562431Y-124657036D01*
X128458496Y-124508600D01*
X128406714Y-124456818D01*
X128336567Y-124386671D01*
X128303084Y-124325351D01*
X128308068Y-124255659D01*
X128349939Y-124199725D01*
X128380915Y-124182810D01*
X128512331Y-124133796D01*
X128627546Y-124047546D01*
X128713796Y-123932331D01*
X128764091Y-123797483D01*
X128770500Y-123737873D01*
X128770499Y-121942128D01*
X128764091Y-121882517D01*
X128761737Y-121876206D01*
X128713797Y-121747671D01*
X128713793Y-121747664D01*
X128627547Y-121632455D01*
X128627544Y-121632452D01*
X128512335Y-121546206D01*
X128512328Y-121546202D01*
X128377482Y-121495908D01*
X128377483Y-121495908D01*
X128317883Y-121489501D01*
X128317881Y-121489500D01*
X128317873Y-121489500D01*
X128317865Y-121489500D01*
X128194500Y-121489500D01*
X128127461Y-121469815D01*
X128081706Y-121417011D01*
X128070500Y-121365500D01*
X128070500Y-120586079D01*
X128041659Y-120441092D01*
X128041658Y-120441091D01*
X128041658Y-120441087D01*
X128041656Y-120441082D01*
X127985086Y-120304509D01*
X127985085Y-120304507D01*
X127965680Y-120275466D01*
X127952186Y-120255270D01*
X127952185Y-120255268D01*
X127902956Y-120181589D01*
X127902952Y-120181584D01*
X126152870Y-118431502D01*
X126119385Y-118370179D01*
X126117023Y-118333018D01*
X126125162Y-118240000D01*
X126106549Y-118027253D01*
X126051276Y-117820970D01*
X125961021Y-117627419D01*
X125838529Y-117452481D01*
X125838527Y-117452478D01*
X125687521Y-117301472D01*
X125512578Y-117178977D01*
X125512579Y-117178977D01*
X125383547Y-117118809D01*
X125319030Y-117088724D01*
X125319026Y-117088723D01*
X125319022Y-117088721D01*
X125112752Y-117033452D01*
X125112748Y-117033451D01*
X125112747Y-117033451D01*
X125112746Y-117033450D01*
X125112741Y-117033450D01*
X124900002Y-117014838D01*
X124899998Y-117014838D01*
X124687258Y-117033450D01*
X124687247Y-117033452D01*
X124480977Y-117088721D01*
X124480968Y-117088725D01*
X124287421Y-117178977D01*
X124112478Y-117301472D01*
X123961472Y-117452478D01*
X123838977Y-117627421D01*
X123748725Y-117820968D01*
X123746870Y-117826064D01*
X123744749Y-117825292D01*
X123713406Y-117876710D01*
X123650558Y-117907237D01*
X123581183Y-117898939D01*
X123527307Y-117854452D01*
X123514169Y-117825685D01*
X123513130Y-117826064D01*
X123511279Y-117820983D01*
X123511276Y-117820970D01*
X123421021Y-117627419D01*
X123298529Y-117452481D01*
X123298527Y-117452478D01*
X123147521Y-117301472D01*
X122972578Y-117178977D01*
X122972579Y-117178977D01*
X122843547Y-117118809D01*
X122779030Y-117088724D01*
X122779026Y-117088723D01*
X122779022Y-117088721D01*
X122572752Y-117033452D01*
X122572748Y-117033451D01*
X122572747Y-117033451D01*
X122572746Y-117033450D01*
X122572741Y-117033450D01*
X122360002Y-117014838D01*
X122359998Y-117014838D01*
X122147258Y-117033450D01*
X122147247Y-117033452D01*
X121940977Y-117088721D01*
X121940968Y-117088725D01*
X121747421Y-117178977D01*
X121572482Y-117301469D01*
X121529137Y-117344815D01*
X121421471Y-117452481D01*
X121421468Y-117452484D01*
X121420772Y-117453181D01*
X121359448Y-117486666D01*
X121333090Y-117489500D01*
X120846910Y-117489500D01*
X120779871Y-117469815D01*
X120759228Y-117453181D01*
X120758531Y-117452484D01*
X120758529Y-117452481D01*
X120607519Y-117301471D01*
X120607518Y-117301470D01*
X120607517Y-117301469D01*
X120432578Y-117178977D01*
X120432579Y-117178977D01*
X120303547Y-117118809D01*
X120239030Y-117088724D01*
X120239026Y-117088723D01*
X120239022Y-117088721D01*
X120032752Y-117033452D01*
X120032748Y-117033451D01*
X120032747Y-117033451D01*
X120032746Y-117033450D01*
X120032741Y-117033450D01*
X119820002Y-117014838D01*
X119819998Y-117014838D01*
X119607258Y-117033450D01*
X119607247Y-117033452D01*
X119400977Y-117088721D01*
X119400968Y-117088725D01*
X119207421Y-117178977D01*
X119032478Y-117301472D01*
X118881472Y-117452478D01*
X118758977Y-117627421D01*
X118668725Y-117820968D01*
X118668721Y-117820977D01*
X118613452Y-118027247D01*
X118613450Y-118027258D01*
X118594838Y-118239998D01*
X118594838Y-118240002D01*
X118602975Y-118333014D01*
X118589208Y-118401514D01*
X118567128Y-118431502D01*
X116737047Y-120261584D01*
X116737045Y-120261586D01*
X116718441Y-120289432D01*
X116699798Y-120317334D01*
X116677279Y-120351035D01*
X116654914Y-120384507D01*
X116598343Y-120521082D01*
X116598340Y-120521092D01*
X116569500Y-120666079D01*
X116569500Y-121465500D01*
X116549815Y-121532539D01*
X116497011Y-121578294D01*
X116445505Y-121589500D01*
X116422132Y-121589500D01*
X116422123Y-121589501D01*
X116362516Y-121595908D01*
X116227671Y-121646202D01*
X116227664Y-121646206D01*
X116112455Y-121732452D01*
X116112452Y-121732455D01*
X116026206Y-121847664D01*
X116026202Y-121847671D01*
X115975908Y-121982517D01*
X115969501Y-122042116D01*
X115969501Y-122042123D01*
X115969500Y-122042135D01*
X115969500Y-123837870D01*
X115969501Y-123837876D01*
X115975908Y-123897483D01*
X116026202Y-124032328D01*
X116026206Y-124032335D01*
X116112452Y-124147544D01*
X116112455Y-124147547D01*
X116227664Y-124233793D01*
X116227671Y-124233797D01*
X116359081Y-124282810D01*
X116415015Y-124324681D01*
X116439432Y-124390145D01*
X116424580Y-124458418D01*
X116403430Y-124486673D01*
X116281503Y-124608600D01*
X116145965Y-124802169D01*
X116145964Y-124802171D01*
X116046098Y-125016335D01*
X116046094Y-125016344D01*
X115984938Y-125244586D01*
X115984936Y-125244596D01*
X115964341Y-125479999D01*
X115964341Y-125480000D01*
X115984936Y-125715403D01*
X115984938Y-125715413D01*
X116046094Y-125943655D01*
X116046096Y-125943659D01*
X116046097Y-125943663D01*
X116145965Y-126157830D01*
X116145967Y-126157834D01*
X116281501Y-126351395D01*
X116281506Y-126351402D01*
X116448595Y-126518492D01*
X116448598Y-126518494D01*
X116448599Y-126518495D01*
X116456620Y-126524111D01*
X116500246Y-126578685D01*
X116509500Y-126625688D01*
X116509500Y-128313336D01*
X116489815Y-128380375D01*
X116456625Y-128414910D01*
X116420863Y-128439951D01*
X116259951Y-128600862D01*
X116129432Y-128787265D01*
X116129431Y-128787267D01*
X116033261Y-128993502D01*
X116033258Y-128993511D01*
X115974366Y-129213302D01*
X115974364Y-129213313D01*
X115954532Y-129439998D01*
X115954532Y-129440001D01*
X115974364Y-129666686D01*
X115974366Y-129666697D01*
X116033258Y-129886488D01*
X116033261Y-129886497D01*
X116129431Y-130092732D01*
X116129432Y-130092734D01*
X116259954Y-130279141D01*
X116420858Y-130440045D01*
X116420861Y-130440047D01*
X116607266Y-130570568D01*
X116813504Y-130666739D01*
X117033308Y-130725635D01*
X117195230Y-130739801D01*
X117259998Y-130745468D01*
X117260000Y-130745468D01*
X117260001Y-130745468D01*
X117280062Y-130743712D01*
X117426861Y-130730869D01*
X117495359Y-130744635D01*
X117525348Y-130766716D01*
X118134390Y-131375758D01*
X118167875Y-131437081D01*
X118162891Y-131506773D01*
X118145975Y-131537750D01*
X118056206Y-131657664D01*
X118056202Y-131657671D01*
X118005908Y-131792517D01*
X117999501Y-131852116D01*
X117999501Y-131852123D01*
X117999500Y-131852135D01*
X117999500Y-133547870D01*
X117999501Y-133547876D01*
X118005908Y-133607483D01*
X118056202Y-133742328D01*
X118056206Y-133742335D01*
X118142452Y-133857544D01*
X118142455Y-133857547D01*
X118257664Y-133943793D01*
X118257671Y-133943797D01*
X118302618Y-133960561D01*
X118392517Y-133994091D01*
X118429441Y-133998060D01*
X118493989Y-134024796D01*
X118533838Y-134082188D01*
X118536333Y-134152013D01*
X118500681Y-134212102D01*
X118489071Y-134221666D01*
X118452784Y-134248030D01*
X118308028Y-134392786D01*
X118187715Y-134558386D01*
X118094781Y-134740776D01*
X118031522Y-134935465D01*
X117999500Y-135137648D01*
X117999500Y-135342351D01*
X118031522Y-135544534D01*
X118094781Y-135739223D01*
X118135218Y-135818583D01*
X118170516Y-135887860D01*
X118187715Y-135921613D01*
X118308028Y-136087213D01*
X118452786Y-136231971D01*
X118600293Y-136339139D01*
X118618390Y-136352287D01*
X118700778Y-136394266D01*
X118711080Y-136399515D01*
X118761876Y-136447490D01*
X118778671Y-136515311D01*
X118756134Y-136581446D01*
X118711080Y-136620485D01*
X118618386Y-136667715D01*
X118452786Y-136788028D01*
X118308028Y-136932786D01*
X118187715Y-137098386D01*
X118094781Y-137280776D01*
X118031522Y-137475465D01*
X117999500Y-137677648D01*
X117999500Y-137882351D01*
X118031522Y-138084534D01*
X118094781Y-138279223D01*
X118135218Y-138358583D01*
X118165406Y-138417831D01*
X118187715Y-138461613D01*
X118308028Y-138627213D01*
X118452786Y-138771971D01*
X118607749Y-138884556D01*
X118618390Y-138892287D01*
X118709840Y-138938883D01*
X118711080Y-138939515D01*
X118761876Y-138987490D01*
X118778671Y-139055311D01*
X118756134Y-139121446D01*
X118711080Y-139160485D01*
X118618386Y-139207715D01*
X118452788Y-139328027D01*
X118352142Y-139428673D01*
X118290819Y-139462157D01*
X118221127Y-139457173D01*
X118165194Y-139415301D01*
X118152079Y-139393397D01*
X118130568Y-139347266D01*
X118000047Y-139160861D01*
X118000045Y-139160858D01*
X117839141Y-138999954D01*
X117652734Y-138869432D01*
X117652732Y-138869431D01*
X117446497Y-138773261D01*
X117446488Y-138773258D01*
X117226697Y-138714366D01*
X117226693Y-138714365D01*
X117226692Y-138714365D01*
X117226691Y-138714364D01*
X117226686Y-138714364D01*
X117000002Y-138694532D01*
X116999998Y-138694532D01*
X116773313Y-138714364D01*
X116773302Y-138714366D01*
X116553511Y-138773258D01*
X116553502Y-138773261D01*
X116347267Y-138869431D01*
X116347265Y-138869432D01*
X116160858Y-138999954D01*
X115999954Y-139160858D01*
X115869432Y-139347265D01*
X115869431Y-139347267D01*
X115773261Y-139553502D01*
X115773258Y-139553511D01*
X115714366Y-139773302D01*
X115714364Y-139773313D01*
X115694532Y-139999998D01*
X115694532Y-140000001D01*
X115714364Y-140226686D01*
X115714366Y-140226697D01*
X115773258Y-140446488D01*
X115773261Y-140446497D01*
X115869431Y-140652732D01*
X115869432Y-140652734D01*
X115999954Y-140839141D01*
X116160859Y-141000046D01*
X116196621Y-141025086D01*
X116240247Y-141079662D01*
X116249500Y-141126662D01*
X116249500Y-141853336D01*
X116229815Y-141920375D01*
X116196625Y-141954910D01*
X116160863Y-141979951D01*
X115999951Y-142140862D01*
X115869432Y-142327265D01*
X115869431Y-142327267D01*
X115773261Y-142533502D01*
X115773258Y-142533511D01*
X115714366Y-142753302D01*
X115714364Y-142753313D01*
X115694532Y-142979998D01*
X115694532Y-142980001D01*
X115714364Y-143206686D01*
X115714366Y-143206697D01*
X115773258Y-143426488D01*
X115773261Y-143426497D01*
X115869431Y-143632732D01*
X115869432Y-143632734D01*
X115999954Y-143819141D01*
X116160858Y-143980045D01*
X116160861Y-143980047D01*
X116347266Y-144110568D01*
X116553504Y-144206739D01*
X116773308Y-144265635D01*
X116935230Y-144279801D01*
X116999998Y-144285468D01*
X117000000Y-144285468D01*
X117000002Y-144285468D01*
X117056673Y-144280509D01*
X117226692Y-144265635D01*
X117446496Y-144206739D01*
X117652734Y-144110568D01*
X117839139Y-143980047D01*
X118000047Y-143819139D01*
X118130568Y-143632734D01*
X118226739Y-143426496D01*
X118285635Y-143206692D01*
X118305468Y-142980000D01*
X118305329Y-142978416D01*
X118297709Y-142891310D01*
X118285635Y-142753308D01*
X118226739Y-142533504D01*
X118130568Y-142327266D01*
X118037639Y-142194548D01*
X118000048Y-142140862D01*
X117946956Y-142087770D01*
X117839139Y-141979953D01*
X117821740Y-141967770D01*
X117803375Y-141954910D01*
X117759751Y-141900332D01*
X117750500Y-141853336D01*
X117750500Y-141194500D01*
X117770185Y-141127461D01*
X117822989Y-141081706D01*
X117874500Y-141070500D01*
X118174582Y-141070500D01*
X118241621Y-141090185D01*
X118274900Y-141121615D01*
X118308028Y-141167212D01*
X118308032Y-141167217D01*
X118452786Y-141311971D01*
X118607749Y-141424556D01*
X118618390Y-141432287D01*
X118734607Y-141491503D01*
X118800776Y-141525218D01*
X118800778Y-141525218D01*
X118800781Y-141525220D01*
X118905137Y-141559127D01*
X118995465Y-141588477D01*
X119096557Y-141604488D01*
X119197648Y-141620500D01*
X119197649Y-141620500D01*
X120202351Y-141620500D01*
X120202352Y-141620500D01*
X120404534Y-141588477D01*
X120599219Y-141525220D01*
X120781610Y-141432287D01*
X120912695Y-141337049D01*
X120947213Y-141311971D01*
X120947215Y-141311968D01*
X120947219Y-141311966D01*
X121091966Y-141167219D01*
X121091968Y-141167215D01*
X121091971Y-141167213D01*
X121168330Y-141062112D01*
X121212287Y-141001610D01*
X121305220Y-140819219D01*
X121368477Y-140624534D01*
X121370258Y-140613288D01*
X121400183Y-140550155D01*
X121459493Y-140513221D01*
X121529355Y-140514215D01*
X121580412Y-140545002D01*
X125238076Y-144202666D01*
X125271561Y-144263989D01*
X125266577Y-144333681D01*
X125224705Y-144389614D01*
X125163650Y-144413637D01*
X125142516Y-144415909D01*
X125007671Y-144466202D01*
X125007664Y-144466206D01*
X124892455Y-144552452D01*
X124892452Y-144552455D01*
X124806206Y-144667664D01*
X124806202Y-144667671D01*
X124755908Y-144802517D01*
X124749501Y-144862116D01*
X124749501Y-144862123D01*
X124749500Y-144862135D01*
X124749501Y-149876000D01*
X124729816Y-149943039D01*
X124677012Y-149988794D01*
X124625501Y-150000000D01*
X123124500Y-150000000D01*
X123057461Y-149980315D01*
X123011706Y-149927511D01*
X123000500Y-149876000D01*
X123000499Y-144862129D01*
X123000498Y-144862123D01*
X123000497Y-144862116D01*
X122994091Y-144802517D01*
X122943884Y-144667906D01*
X122943797Y-144667671D01*
X122943793Y-144667664D01*
X122857547Y-144552455D01*
X122857544Y-144552452D01*
X122742335Y-144466206D01*
X122742328Y-144466202D01*
X122607482Y-144415908D01*
X122607483Y-144415908D01*
X122547883Y-144409501D01*
X122547881Y-144409500D01*
X122547873Y-144409500D01*
X122547864Y-144409500D01*
X120952129Y-144409500D01*
X120952123Y-144409501D01*
X120892516Y-144415908D01*
X120757671Y-144466202D01*
X120757664Y-144466206D01*
X120642455Y-144552452D01*
X120642452Y-144552455D01*
X120556206Y-144667664D01*
X120556202Y-144667671D01*
X120505908Y-144802517D01*
X120499501Y-144862116D01*
X120499501Y-144862123D01*
X120499500Y-144862135D01*
X120499501Y-149876000D01*
X120479816Y-149943039D01*
X120427012Y-149988794D01*
X120375501Y-150000000D01*
X115624000Y-150000000D01*
X115556961Y-149980315D01*
X115511206Y-149927511D01*
X115500000Y-149876000D01*
X115500000Y-147700000D01*
X113000000Y-147700000D01*
X113000000Y-149876000D01*
X112980315Y-149943039D01*
X112927511Y-149988794D01*
X112876000Y-150000000D01*
X111374500Y-150000000D01*
X111307461Y-149980315D01*
X111261706Y-149927511D01*
X111250500Y-149876000D01*
X111250499Y-144862155D01*
X113000000Y-144862155D01*
X113000000Y-147200000D01*
X114000000Y-147200000D01*
X114500000Y-147200000D01*
X115500000Y-147200000D01*
X115500000Y-144862172D01*
X115499999Y-144862155D01*
X115493598Y-144802627D01*
X115493596Y-144802620D01*
X115443354Y-144667913D01*
X115443350Y-144667906D01*
X115357190Y-144552812D01*
X115357187Y-144552809D01*
X115242093Y-144466649D01*
X115242086Y-144466645D01*
X115107379Y-144416403D01*
X115107372Y-144416401D01*
X115047844Y-144410000D01*
X114500000Y-144410000D01*
X114500000Y-147200000D01*
X114000000Y-147200000D01*
X114000000Y-144410000D01*
X113452155Y-144410000D01*
X113392627Y-144416401D01*
X113392620Y-144416403D01*
X113257913Y-144466645D01*
X113257906Y-144466649D01*
X113142812Y-144552809D01*
X113142809Y-144552812D01*
X113056649Y-144667906D01*
X113056645Y-144667913D01*
X113006403Y-144802620D01*
X113006401Y-144802627D01*
X113000000Y-144862155D01*
X111250499Y-144862155D01*
X111250499Y-144862129D01*
X111250498Y-144862123D01*
X111250497Y-144862116D01*
X111244091Y-144802517D01*
X111193884Y-144667906D01*
X111193797Y-144667671D01*
X111193793Y-144667664D01*
X111107547Y-144552455D01*
X111107544Y-144552452D01*
X110992335Y-144466206D01*
X110992328Y-144466202D01*
X110857482Y-144415908D01*
X110857483Y-144415908D01*
X110797883Y-144409501D01*
X110797881Y-144409500D01*
X110797873Y-144409500D01*
X110797864Y-144409500D01*
X109202129Y-144409500D01*
X109202123Y-144409501D01*
X109142516Y-144415908D01*
X109007671Y-144466202D01*
X109007664Y-144466206D01*
X108892455Y-144552452D01*
X108892452Y-144552455D01*
X108806206Y-144667664D01*
X108806202Y-144667671D01*
X108755908Y-144802516D01*
X108750411Y-144853648D01*
X108723673Y-144918199D01*
X108666280Y-144958047D01*
X108596455Y-144960540D01*
X108539441Y-144928073D01*
X106591365Y-142979997D01*
X110695034Y-142979997D01*
X110695034Y-142980002D01*
X110714858Y-143206599D01*
X110714860Y-143206610D01*
X110773730Y-143426317D01*
X110773735Y-143426331D01*
X110869863Y-143632478D01*
X110920974Y-143705472D01*
X111600000Y-143026446D01*
X111600000Y-143032661D01*
X111627259Y-143134394D01*
X111679920Y-143225606D01*
X111754394Y-143300080D01*
X111845606Y-143352741D01*
X111947339Y-143380000D01*
X111953553Y-143380000D01*
X111274526Y-144059025D01*
X111347513Y-144110132D01*
X111347521Y-144110136D01*
X111553668Y-144206264D01*
X111553682Y-144206269D01*
X111773389Y-144265139D01*
X111773400Y-144265141D01*
X111999998Y-144284966D01*
X112000002Y-144284966D01*
X112226599Y-144265141D01*
X112226610Y-144265139D01*
X112446317Y-144206269D01*
X112446331Y-144206264D01*
X112652478Y-144110136D01*
X112725471Y-144059024D01*
X112046447Y-143380000D01*
X112052661Y-143380000D01*
X112154394Y-143352741D01*
X112245606Y-143300080D01*
X112320080Y-143225606D01*
X112372741Y-143134394D01*
X112400000Y-143032661D01*
X112400000Y-143026447D01*
X113079024Y-143705471D01*
X113130136Y-143632478D01*
X113226264Y-143426331D01*
X113226269Y-143426317D01*
X113285139Y-143206610D01*
X113285141Y-143206599D01*
X113304966Y-142980002D01*
X113304966Y-142979997D01*
X113285141Y-142753400D01*
X113285139Y-142753389D01*
X113226269Y-142533682D01*
X113226264Y-142533668D01*
X113130136Y-142327521D01*
X113130132Y-142327513D01*
X113079025Y-142254526D01*
X112400000Y-142933551D01*
X112400000Y-142927339D01*
X112372741Y-142825606D01*
X112320080Y-142734394D01*
X112245606Y-142659920D01*
X112154394Y-142607259D01*
X112052661Y-142580000D01*
X112046445Y-142580000D01*
X112725472Y-141900974D01*
X112652478Y-141849863D01*
X112446331Y-141753735D01*
X112446317Y-141753730D01*
X112226610Y-141694860D01*
X112226599Y-141694858D01*
X112000002Y-141675034D01*
X111999998Y-141675034D01*
X111773400Y-141694858D01*
X111773389Y-141694860D01*
X111553682Y-141753730D01*
X111553673Y-141753734D01*
X111347516Y-141849866D01*
X111347512Y-141849868D01*
X111274526Y-141900973D01*
X111274526Y-141900974D01*
X111953553Y-142580000D01*
X111947339Y-142580000D01*
X111845606Y-142607259D01*
X111754394Y-142659920D01*
X111679920Y-142734394D01*
X111627259Y-142825606D01*
X111600000Y-142927339D01*
X111600000Y-142933552D01*
X110920974Y-142254526D01*
X110920973Y-142254526D01*
X110869868Y-142327512D01*
X110869866Y-142327516D01*
X110773734Y-142533673D01*
X110773730Y-142533682D01*
X110714860Y-142753389D01*
X110714858Y-142753400D01*
X110695034Y-142979997D01*
X106591365Y-142979997D01*
X105786819Y-142175451D01*
X105753334Y-142114128D01*
X105750500Y-142087770D01*
X105750500Y-139999997D01*
X110695034Y-139999997D01*
X110695034Y-140000002D01*
X110714858Y-140226599D01*
X110714860Y-140226610D01*
X110773730Y-140446317D01*
X110773735Y-140446331D01*
X110869863Y-140652478D01*
X110920974Y-140725472D01*
X111600000Y-140046446D01*
X111600000Y-140052661D01*
X111627259Y-140154394D01*
X111679920Y-140245606D01*
X111754394Y-140320080D01*
X111845606Y-140372741D01*
X111947339Y-140400000D01*
X111953553Y-140400000D01*
X111274526Y-141079025D01*
X111347513Y-141130132D01*
X111347521Y-141130136D01*
X111553668Y-141226264D01*
X111553682Y-141226269D01*
X111773389Y-141285139D01*
X111773400Y-141285141D01*
X111999998Y-141304966D01*
X112000002Y-141304966D01*
X112226599Y-141285141D01*
X112226610Y-141285139D01*
X112446317Y-141226269D01*
X112446331Y-141226264D01*
X112652478Y-141130136D01*
X112725471Y-141079024D01*
X112046447Y-140400000D01*
X112052661Y-140400000D01*
X112154394Y-140372741D01*
X112245606Y-140320080D01*
X112320080Y-140245606D01*
X112372741Y-140154394D01*
X112400000Y-140052661D01*
X112400000Y-140046447D01*
X113079024Y-140725471D01*
X113130136Y-140652478D01*
X113226264Y-140446331D01*
X113226269Y-140446317D01*
X113285139Y-140226610D01*
X113285141Y-140226599D01*
X113304966Y-140000002D01*
X113304966Y-139999997D01*
X113285141Y-139773400D01*
X113285139Y-139773389D01*
X113226269Y-139553682D01*
X113226264Y-139553668D01*
X113130136Y-139347521D01*
X113130132Y-139347513D01*
X113079025Y-139274526D01*
X112400000Y-139953551D01*
X112400000Y-139947339D01*
X112372741Y-139845606D01*
X112320080Y-139754394D01*
X112245606Y-139679920D01*
X112154394Y-139627259D01*
X112052661Y-139600000D01*
X112046445Y-139600000D01*
X112725472Y-138920974D01*
X112652478Y-138869863D01*
X112446331Y-138773735D01*
X112446317Y-138773730D01*
X112226610Y-138714860D01*
X112226599Y-138714858D01*
X112000002Y-138695034D01*
X111999998Y-138695034D01*
X111773400Y-138714858D01*
X111773389Y-138714860D01*
X111553682Y-138773730D01*
X111553673Y-138773734D01*
X111347516Y-138869866D01*
X111347512Y-138869868D01*
X111274526Y-138920973D01*
X111274526Y-138920974D01*
X111953553Y-139600000D01*
X111947339Y-139600000D01*
X111845606Y-139627259D01*
X111754394Y-139679920D01*
X111679920Y-139754394D01*
X111627259Y-139845606D01*
X111600000Y-139947339D01*
X111600000Y-139953552D01*
X110920974Y-139274526D01*
X110920973Y-139274526D01*
X110869868Y-139347512D01*
X110869866Y-139347516D01*
X110773734Y-139553673D01*
X110773730Y-139553682D01*
X110714860Y-139773389D01*
X110714858Y-139773400D01*
X110695034Y-139999997D01*
X105750500Y-139999997D01*
X105750500Y-134878711D01*
X108149500Y-134878711D01*
X108149500Y-135121288D01*
X108181161Y-135361785D01*
X108243947Y-135596104D01*
X108336773Y-135820205D01*
X108336777Y-135820214D01*
X108358974Y-135858661D01*
X108458064Y-136030289D01*
X108458066Y-136030292D01*
X108458067Y-136030293D01*
X108605733Y-136222736D01*
X108605739Y-136222743D01*
X108777256Y-136394260D01*
X108777263Y-136394266D01*
X108818144Y-136425635D01*
X108969711Y-136541936D01*
X109179788Y-136663224D01*
X109403900Y-136756054D01*
X109638211Y-136818838D01*
X109818586Y-136842584D01*
X109878711Y-136850500D01*
X109878712Y-136850500D01*
X110121289Y-136850500D01*
X110169388Y-136844167D01*
X110361789Y-136818838D01*
X110596100Y-136756054D01*
X110820212Y-136663224D01*
X111030289Y-136541936D01*
X111222738Y-136394265D01*
X111394265Y-136222738D01*
X111541936Y-136030289D01*
X111663224Y-135820212D01*
X111756054Y-135596100D01*
X111818838Y-135361789D01*
X111850500Y-135121288D01*
X111850500Y-134878712D01*
X111818838Y-134638211D01*
X111756054Y-134403900D01*
X111663224Y-134179788D01*
X111541936Y-133969711D01*
X111394265Y-133777262D01*
X111394260Y-133777256D01*
X111222743Y-133605739D01*
X111222736Y-133605733D01*
X111030293Y-133458067D01*
X111030292Y-133458066D01*
X111030289Y-133458064D01*
X110820212Y-133336776D01*
X110820205Y-133336773D01*
X110596104Y-133243947D01*
X110361785Y-133181161D01*
X110121289Y-133149500D01*
X110121288Y-133149500D01*
X109878712Y-133149500D01*
X109878711Y-133149500D01*
X109638214Y-133181161D01*
X109403895Y-133243947D01*
X109179794Y-133336773D01*
X109179785Y-133336777D01*
X108969706Y-133458067D01*
X108777263Y-133605733D01*
X108777256Y-133605739D01*
X108605739Y-133777256D01*
X108605733Y-133777263D01*
X108458067Y-133969706D01*
X108336777Y-134179785D01*
X108336773Y-134179794D01*
X108243947Y-134403895D01*
X108181161Y-134638214D01*
X108149500Y-134878711D01*
X105750500Y-134878711D01*
X105750500Y-114362228D01*
X105770185Y-114295189D01*
X105786814Y-114274552D01*
X108061369Y-111999997D01*
X158115034Y-111999997D01*
X158115034Y-112000002D01*
X158134858Y-112226599D01*
X158134860Y-112226610D01*
X158193730Y-112446317D01*
X158193735Y-112446331D01*
X158289863Y-112652478D01*
X158340974Y-112725472D01*
X159020000Y-112046446D01*
X159020000Y-112052661D01*
X159047259Y-112154394D01*
X159099920Y-112245606D01*
X159174394Y-112320080D01*
X159265606Y-112372741D01*
X159367339Y-112400000D01*
X159373553Y-112400000D01*
X158694526Y-113079025D01*
X158767513Y-113130132D01*
X158767521Y-113130136D01*
X158973668Y-113226264D01*
X158973682Y-113226269D01*
X159193389Y-113285139D01*
X159193400Y-113285141D01*
X159419998Y-113304966D01*
X159420002Y-113304966D01*
X159646599Y-113285141D01*
X159646610Y-113285139D01*
X159866317Y-113226269D01*
X159866331Y-113226264D01*
X160072478Y-113130136D01*
X160145471Y-113079024D01*
X159466447Y-112400000D01*
X159472661Y-112400000D01*
X159574394Y-112372741D01*
X159665606Y-112320080D01*
X159740080Y-112245606D01*
X159792741Y-112154394D01*
X159820000Y-112052661D01*
X159820000Y-112046447D01*
X160499024Y-112725471D01*
X160550136Y-112652478D01*
X160646264Y-112446331D01*
X160646269Y-112446317D01*
X160705139Y-112226610D01*
X160705141Y-112226599D01*
X160724966Y-112000002D01*
X160724966Y-111999997D01*
X160705141Y-111773400D01*
X160705139Y-111773389D01*
X160646269Y-111553682D01*
X160646264Y-111553668D01*
X160550136Y-111347521D01*
X160550132Y-111347513D01*
X160499025Y-111274526D01*
X159820000Y-111953551D01*
X159820000Y-111947339D01*
X159792741Y-111845606D01*
X159740080Y-111754394D01*
X159665606Y-111679920D01*
X159574394Y-111627259D01*
X159472661Y-111600000D01*
X159466445Y-111600000D01*
X160145472Y-110920974D01*
X160072478Y-110869863D01*
X159866331Y-110773735D01*
X159866317Y-110773730D01*
X159646610Y-110714860D01*
X159646599Y-110714858D01*
X159420002Y-110695034D01*
X159419998Y-110695034D01*
X159193400Y-110714858D01*
X159193389Y-110714860D01*
X158973682Y-110773730D01*
X158973673Y-110773734D01*
X158767516Y-110869866D01*
X158767512Y-110869868D01*
X158694526Y-110920973D01*
X158694526Y-110920974D01*
X159373553Y-111600000D01*
X159367339Y-111600000D01*
X159265606Y-111627259D01*
X159174394Y-111679920D01*
X159099920Y-111754394D01*
X159047259Y-111845606D01*
X159020000Y-111947339D01*
X159020000Y-111953552D01*
X158340974Y-111274526D01*
X158340973Y-111274526D01*
X158289868Y-111347512D01*
X158289866Y-111347516D01*
X158193734Y-111553673D01*
X158193730Y-111553682D01*
X158134860Y-111773389D01*
X158134858Y-111773400D01*
X158115034Y-111999997D01*
X108061369Y-111999997D01*
X113811368Y-106249997D01*
X159695034Y-106249997D01*
X159695034Y-106250002D01*
X159714858Y-106476599D01*
X159714860Y-106476610D01*
X159773730Y-106696317D01*
X159773735Y-106696331D01*
X159869863Y-106902478D01*
X159920974Y-106975472D01*
X160600000Y-106296446D01*
X160600000Y-106302661D01*
X160627259Y-106404394D01*
X160679920Y-106495606D01*
X160754394Y-106570080D01*
X160845606Y-106622741D01*
X160947339Y-106650000D01*
X160953553Y-106650000D01*
X160274526Y-107329025D01*
X160347513Y-107380132D01*
X160347521Y-107380136D01*
X160553668Y-107476264D01*
X160553682Y-107476269D01*
X160773389Y-107535139D01*
X160773400Y-107535141D01*
X160999998Y-107554966D01*
X161000002Y-107554966D01*
X161226599Y-107535141D01*
X161226610Y-107535139D01*
X161446317Y-107476269D01*
X161446331Y-107476264D01*
X161652478Y-107380136D01*
X161725471Y-107329024D01*
X161046447Y-106650000D01*
X161052661Y-106650000D01*
X161154394Y-106622741D01*
X161245606Y-106570080D01*
X161320080Y-106495606D01*
X161372741Y-106404394D01*
X161400000Y-106302661D01*
X161400000Y-106296447D01*
X162079024Y-106975471D01*
X162130136Y-106902478D01*
X162226264Y-106696331D01*
X162226269Y-106696317D01*
X162285139Y-106476610D01*
X162285141Y-106476599D01*
X162304966Y-106250002D01*
X162304966Y-106249997D01*
X162285141Y-106023400D01*
X162285139Y-106023389D01*
X162226269Y-105803682D01*
X162226264Y-105803668D01*
X162130136Y-105597521D01*
X162130132Y-105597513D01*
X162079025Y-105524526D01*
X161400000Y-106203551D01*
X161400000Y-106197339D01*
X161372741Y-106095606D01*
X161320080Y-106004394D01*
X161245606Y-105929920D01*
X161154394Y-105877259D01*
X161052661Y-105850000D01*
X161046445Y-105850000D01*
X161725472Y-105170974D01*
X161652478Y-105119863D01*
X161446331Y-105023735D01*
X161446317Y-105023730D01*
X161226610Y-104964860D01*
X161226599Y-104964858D01*
X161000002Y-104945034D01*
X160999998Y-104945034D01*
X160773400Y-104964858D01*
X160773389Y-104964860D01*
X160553682Y-105023730D01*
X160553673Y-105023734D01*
X160347516Y-105119866D01*
X160347512Y-105119868D01*
X160274526Y-105170973D01*
X160274526Y-105170974D01*
X160953553Y-105850000D01*
X160947339Y-105850000D01*
X160845606Y-105877259D01*
X160754394Y-105929920D01*
X160679920Y-106004394D01*
X160627259Y-106095606D01*
X160600000Y-106197339D01*
X160600000Y-106203552D01*
X159920974Y-105524526D01*
X159920973Y-105524526D01*
X159869868Y-105597512D01*
X159869866Y-105597516D01*
X159773734Y-105803673D01*
X159773730Y-105803682D01*
X159714860Y-106023389D01*
X159714858Y-106023400D01*
X159695034Y-106249997D01*
X113811368Y-106249997D01*
X114718206Y-105343159D01*
X114718211Y-105343156D01*
X114728414Y-105332952D01*
X114728416Y-105332952D01*
X116274549Y-103786819D01*
X116335872Y-103753334D01*
X116362230Y-103750500D01*
X154793337Y-103750500D01*
X154860376Y-103770185D01*
X154894912Y-103803377D01*
X154919954Y-103839141D01*
X155080858Y-104000045D01*
X155080861Y-104000047D01*
X155267266Y-104130568D01*
X155473504Y-104226739D01*
X155693308Y-104285635D01*
X155855230Y-104299801D01*
X155919998Y-104305468D01*
X155920000Y-104305468D01*
X155920002Y-104305468D01*
X155976673Y-104300509D01*
X156146692Y-104285635D01*
X156366496Y-104226739D01*
X156572734Y-104130568D01*
X156759139Y-104000047D01*
X156920047Y-103839139D01*
X157050568Y-103652734D01*
X157146739Y-103446496D01*
X157205635Y-103226692D01*
X157225468Y-103000000D01*
X157205635Y-102773308D01*
X157146739Y-102553504D01*
X157050568Y-102347266D01*
X156920047Y-102160861D01*
X156920045Y-102160858D01*
X156759141Y-101999954D01*
X156572734Y-101869432D01*
X156572732Y-101869431D01*
X156366497Y-101773261D01*
X156366488Y-101773258D01*
X156146697Y-101714366D01*
X156146693Y-101714365D01*
X156146692Y-101714365D01*
X156146691Y-101714364D01*
X156146686Y-101714364D01*
X155920002Y-101694532D01*
X155919998Y-101694532D01*
X155693313Y-101714364D01*
X155693302Y-101714366D01*
X155473511Y-101773258D01*
X155473502Y-101773261D01*
X155267267Y-101869431D01*
X155267265Y-101869432D01*
X155080858Y-101999954D01*
X154919954Y-102160858D01*
X154894912Y-102196623D01*
X154840335Y-102240248D01*
X154793337Y-102249500D01*
X115926076Y-102249500D01*
X115897242Y-102255234D01*
X115897243Y-102255235D01*
X115781093Y-102278339D01*
X115781083Y-102278342D01*
X115701081Y-102311479D01*
X115701082Y-102311480D01*
X115644502Y-102334917D01*
X115595269Y-102367813D01*
X115521588Y-102417044D01*
X115521580Y-102417050D01*
X113667048Y-104271584D01*
X113667046Y-104271586D01*
X104417052Y-113521578D01*
X104417049Y-113521581D01*
X104387015Y-113566530D01*
X104387016Y-113566531D01*
X104334914Y-113644508D01*
X104278343Y-113781082D01*
X104278340Y-113781092D01*
X104249500Y-113926079D01*
X104249500Y-113926082D01*
X104249500Y-142523918D01*
X104249500Y-142523920D01*
X104249499Y-142523920D01*
X104278340Y-142668907D01*
X104278342Y-142668913D01*
X104334916Y-142805495D01*
X104336862Y-142808407D01*
X104336865Y-142808417D01*
X104336868Y-142808416D01*
X104416328Y-142927339D01*
X104417051Y-142928420D01*
X104417052Y-142928421D01*
X105686951Y-144198319D01*
X105720436Y-144259642D01*
X105715452Y-144329334D01*
X105673580Y-144385267D01*
X105608116Y-144409684D01*
X105599270Y-144410000D01*
X104952155Y-144410000D01*
X104892627Y-144416401D01*
X104892620Y-144416403D01*
X104757913Y-144466645D01*
X104757906Y-144466649D01*
X104642812Y-144552809D01*
X104642809Y-144552812D01*
X104556649Y-144667906D01*
X104556645Y-144667913D01*
X104506403Y-144802620D01*
X104506401Y-144802627D01*
X104500000Y-144862155D01*
X104500000Y-147200000D01*
X107000000Y-147200000D01*
X107000000Y-145810730D01*
X107019685Y-145743691D01*
X107072489Y-145697936D01*
X107141647Y-145687992D01*
X107205203Y-145717017D01*
X107211681Y-145723049D01*
X108713181Y-147224549D01*
X108746666Y-147285872D01*
X108749500Y-147312229D01*
X108749500Y-148613947D01*
X108749501Y-149876000D01*
X108729816Y-149943039D01*
X108677013Y-149988794D01*
X108625501Y-150000000D01*
X107124000Y-150000000D01*
X107056961Y-149980315D01*
X107011206Y-149927511D01*
X107000000Y-149876000D01*
X107000000Y-147700000D01*
X104500000Y-147700000D01*
X104500000Y-149876000D01*
X104480315Y-149943039D01*
X104427511Y-149988794D01*
X104376000Y-150000000D01*
X102500987Y-150000000D01*
X102498960Y-149999983D01*
X102343428Y-149997440D01*
X102329270Y-149996396D01*
X102019812Y-149955655D01*
X102003903Y-149952491D01*
X101703387Y-149871967D01*
X101688028Y-149866753D01*
X101400599Y-149747696D01*
X101386052Y-149740522D01*
X101116622Y-149584967D01*
X101103136Y-149575956D01*
X100856313Y-149386562D01*
X100844118Y-149375867D01*
X100624132Y-149155881D01*
X100613437Y-149143686D01*
X100424043Y-148896863D01*
X100415032Y-148883377D01*
X100259477Y-148613947D01*
X100252303Y-148599400D01*
X100133246Y-148311971D01*
X100128032Y-148296612D01*
X100112921Y-148240218D01*
X100047506Y-147996087D01*
X100044345Y-147980196D01*
X100003602Y-147670718D01*
X100002559Y-147656582D01*
X100000017Y-147501038D01*
X100000000Y-147499012D01*
X100000000Y-64878711D01*
X108149500Y-64878711D01*
X108149500Y-65121288D01*
X108181161Y-65361785D01*
X108243947Y-65596104D01*
X108336773Y-65820205D01*
X108336776Y-65820212D01*
X108458064Y-66030289D01*
X108458066Y-66030292D01*
X108458067Y-66030293D01*
X108605733Y-66222736D01*
X108605739Y-66222743D01*
X108777256Y-66394260D01*
X108777262Y-66394265D01*
X108969711Y-66541936D01*
X109179788Y-66663224D01*
X109403900Y-66756054D01*
X109638211Y-66818838D01*
X109818586Y-66842584D01*
X109878711Y-66850500D01*
X109878712Y-66850500D01*
X110121289Y-66850500D01*
X110169388Y-66844167D01*
X110361789Y-66818838D01*
X110596100Y-66756054D01*
X110820212Y-66663224D01*
X111030289Y-66541936D01*
X111222738Y-66394265D01*
X111394265Y-66222738D01*
X111541936Y-66030289D01*
X111663224Y-65820212D01*
X111756054Y-65596100D01*
X111818838Y-65361789D01*
X111850500Y-65121288D01*
X111850500Y-64878712D01*
X111850500Y-64878711D01*
X188149500Y-64878711D01*
X188149500Y-65121288D01*
X188181161Y-65361785D01*
X188243947Y-65596104D01*
X188336773Y-65820205D01*
X188336776Y-65820212D01*
X188458064Y-66030289D01*
X188458066Y-66030292D01*
X188458067Y-66030293D01*
X188605733Y-66222736D01*
X188605739Y-66222743D01*
X188777256Y-66394260D01*
X188777262Y-66394265D01*
X188969711Y-66541936D01*
X189179788Y-66663224D01*
X189403900Y-66756054D01*
X189638211Y-66818838D01*
X189818586Y-66842584D01*
X189878711Y-66850500D01*
X189878712Y-66850500D01*
X190121289Y-66850500D01*
X190169388Y-66844167D01*
X190361789Y-66818838D01*
X190596100Y-66756054D01*
X190820212Y-66663224D01*
X191030289Y-66541936D01*
X191222738Y-66394265D01*
X191394265Y-66222738D01*
X191541936Y-66030289D01*
X191663224Y-65820212D01*
X191756054Y-65596100D01*
X191818838Y-65361789D01*
X191850500Y-65121288D01*
X191850500Y-64878712D01*
X191818838Y-64638211D01*
X191756054Y-64403900D01*
X191663224Y-64179788D01*
X191541936Y-63969711D01*
X191394265Y-63777262D01*
X191394260Y-63777256D01*
X191222743Y-63605739D01*
X191222736Y-63605733D01*
X191030293Y-63458067D01*
X191030292Y-63458066D01*
X191030289Y-63458064D01*
X190820212Y-63336776D01*
X190820205Y-63336773D01*
X190596104Y-63243947D01*
X190361785Y-63181161D01*
X190121289Y-63149500D01*
X190121288Y-63149500D01*
X189878712Y-63149500D01*
X189878711Y-63149500D01*
X189638214Y-63181161D01*
X189403895Y-63243947D01*
X189179794Y-63336773D01*
X189179785Y-63336777D01*
X188969706Y-63458067D01*
X188777263Y-63605733D01*
X188777256Y-63605739D01*
X188605739Y-63777256D01*
X188605733Y-63777263D01*
X188458067Y-63969706D01*
X188336777Y-64179785D01*
X188336773Y-64179794D01*
X188243947Y-64403895D01*
X188181161Y-64638214D01*
X188149500Y-64878711D01*
X111850500Y-64878711D01*
X111818838Y-64638211D01*
X111756054Y-64403900D01*
X111663224Y-64179788D01*
X111541936Y-63969711D01*
X111394265Y-63777262D01*
X111394260Y-63777256D01*
X111222743Y-63605739D01*
X111222736Y-63605733D01*
X111030293Y-63458067D01*
X111030292Y-63458066D01*
X111030289Y-63458064D01*
X110820212Y-63336776D01*
X110820205Y-63336773D01*
X110596104Y-63243947D01*
X110361785Y-63181161D01*
X110121289Y-63149500D01*
X110121288Y-63149500D01*
X109878712Y-63149500D01*
X109878711Y-63149500D01*
X109638214Y-63181161D01*
X109403895Y-63243947D01*
X109179794Y-63336773D01*
X109179785Y-63336777D01*
X108969706Y-63458067D01*
X108777263Y-63605733D01*
X108777256Y-63605739D01*
X108605739Y-63777256D01*
X108605733Y-63777263D01*
X108458067Y-63969706D01*
X108336777Y-64179785D01*
X108336773Y-64179794D01*
X108243947Y-64403895D01*
X108181161Y-64638214D01*
X108149500Y-64878711D01*
X100000000Y-64878711D01*
X100000000Y-52500987D01*
X100000017Y-52498961D01*
X100002543Y-52344430D01*
X100002559Y-52343416D01*
X100003602Y-52329283D01*
X100044346Y-52019800D01*
X100047505Y-52003915D01*
X100082316Y-51874000D01*
X104994500Y-51874000D01*
X104994500Y-58126000D01*
X104994501Y-58126009D01*
X105006052Y-58233450D01*
X105006054Y-58233462D01*
X105017260Y-58284972D01*
X105051383Y-58387497D01*
X105051386Y-58387503D01*
X105129171Y-58508537D01*
X105129179Y-58508548D01*
X105174923Y-58561340D01*
X105174926Y-58561343D01*
X105174930Y-58561347D01*
X105283664Y-58655567D01*
X105283667Y-58655568D01*
X105283668Y-58655569D01*
X105377925Y-58698616D01*
X105414541Y-58715338D01*
X105481580Y-58735023D01*
X105481584Y-58735024D01*
X105624000Y-58755500D01*
X105624003Y-58755500D01*
X108125990Y-58755500D01*
X108126000Y-58755500D01*
X108233456Y-58743947D01*
X108284967Y-58732741D01*
X108319197Y-58721347D01*
X108387497Y-58698616D01*
X108387501Y-58698613D01*
X108387504Y-58698613D01*
X108508543Y-58620825D01*
X108561347Y-58575070D01*
X108655567Y-58466336D01*
X108715338Y-58335459D01*
X108735023Y-58268420D01*
X108735024Y-58268416D01*
X108755500Y-58126000D01*
X108755500Y-56987855D01*
X108775185Y-56920816D01*
X108827989Y-56875061D01*
X108893849Y-56865591D01*
X108893917Y-56864903D01*
X108896717Y-56865178D01*
X108897147Y-56865117D01*
X108898576Y-56865361D01*
X108899980Y-56865500D01*
X108899982Y-56865500D01*
X109100019Y-56865500D01*
X109100020Y-56865499D01*
X109296211Y-56826475D01*
X109481020Y-56749925D01*
X109647344Y-56638791D01*
X109662671Y-56623463D01*
X109723989Y-56589978D01*
X109793681Y-56594959D01*
X109838034Y-56623462D01*
X109852971Y-56638399D01*
X109852975Y-56638402D01*
X110019210Y-56749477D01*
X110019223Y-56749484D01*
X110203929Y-56825991D01*
X110203936Y-56825993D01*
X110250000Y-56835155D01*
X110250000Y-55766189D01*
X110275884Y-55792073D01*
X110359115Y-55840126D01*
X110451947Y-55865000D01*
X110548053Y-55865000D01*
X110640885Y-55840126D01*
X110724116Y-55792073D01*
X110750000Y-55766189D01*
X110750000Y-56835154D01*
X110796063Y-56825993D01*
X110796070Y-56825991D01*
X110980776Y-56749484D01*
X110980789Y-56749477D01*
X111147023Y-56638403D01*
X111161962Y-56623464D01*
X111223285Y-56589977D01*
X111292977Y-56594960D01*
X111337329Y-56623464D01*
X111352653Y-56638789D01*
X111352656Y-56638791D01*
X111518973Y-56749921D01*
X111518986Y-56749928D01*
X111702625Y-56825993D01*
X111703789Y-56826475D01*
X111867113Y-56858962D01*
X111899977Y-56865499D01*
X111899981Y-56865500D01*
X111899982Y-56865500D01*
X112100019Y-56865500D01*
X112100020Y-56865499D01*
X112296211Y-56826475D01*
X112323047Y-56815358D01*
X112392517Y-56807890D01*
X112454996Y-56839165D01*
X112490648Y-56899254D01*
X112494500Y-56929920D01*
X112494500Y-57962428D01*
X112494519Y-57966870D01*
X112494537Y-57968928D01*
X112494588Y-57973030D01*
X112494589Y-57973035D01*
X112517454Y-58115080D01*
X112517454Y-58115081D01*
X112538265Y-58181789D01*
X112538318Y-58181922D01*
X112538746Y-58182796D01*
X112600225Y-58311640D01*
X113399192Y-59510091D01*
X114042588Y-60475184D01*
X114108767Y-60555220D01*
X114108776Y-60555229D01*
X114108778Y-60555231D01*
X114144895Y-60590746D01*
X114144899Y-60590749D01*
X114144902Y-60590752D01*
X114226027Y-60655567D01*
X114356904Y-60715338D01*
X114423943Y-60735023D01*
X114423947Y-60735024D01*
X114566363Y-60755500D01*
X114566366Y-60755500D01*
X133444326Y-60755500D01*
X133493444Y-60752142D01*
X133513096Y-60750799D01*
X133546524Y-60746208D01*
X133614015Y-60732195D01*
X133745638Y-60674085D01*
X133804889Y-60637057D01*
X133804890Y-60637056D01*
X133804926Y-60637025D01*
X133807295Y-60635141D01*
X133808859Y-60633703D01*
X133914810Y-60544217D01*
X134801119Y-59547118D01*
X134860370Y-59510091D01*
X134893798Y-59505500D01*
X163375990Y-59505500D01*
X163376000Y-59505500D01*
X163483456Y-59493947D01*
X163534967Y-59482741D01*
X163569197Y-59471347D01*
X163637497Y-59448616D01*
X163637501Y-59448613D01*
X163637504Y-59448613D01*
X163758543Y-59370825D01*
X163811347Y-59325070D01*
X163905567Y-59216336D01*
X163965338Y-59085459D01*
X163985023Y-59018420D01*
X163985024Y-59018416D01*
X164005500Y-58876000D01*
X164005500Y-54999995D01*
X164320023Y-54999995D01*
X164320023Y-55000004D01*
X164339903Y-55265290D01*
X164339903Y-55265292D01*
X164399098Y-55524643D01*
X164399104Y-55524662D01*
X164496296Y-55772303D01*
X164629313Y-56002695D01*
X164629320Y-56002706D01*
X164680084Y-56066360D01*
X164680085Y-56066361D01*
X165403287Y-55343159D01*
X165413204Y-55367100D01*
X165498018Y-55494034D01*
X165605966Y-55601982D01*
X165732900Y-55686796D01*
X165756839Y-55696712D01*
X165032839Y-56420711D01*
X165210011Y-56541504D01*
X165210015Y-56541506D01*
X165449695Y-56656931D01*
X165449699Y-56656932D01*
X165703909Y-56735346D01*
X165703915Y-56735347D01*
X165966976Y-56774999D01*
X165966983Y-56775000D01*
X166233017Y-56775000D01*
X166233023Y-56774999D01*
X166496084Y-56735347D01*
X166496090Y-56735346D01*
X166750299Y-56656933D01*
X166989984Y-56541507D01*
X167167159Y-56420711D01*
X166443159Y-55696712D01*
X166467100Y-55686796D01*
X166594034Y-55601982D01*
X166701982Y-55494034D01*
X166786796Y-55367100D01*
X166796712Y-55343160D01*
X167519913Y-56066361D01*
X167519913Y-56066360D01*
X167570688Y-56002693D01*
X167703703Y-55772303D01*
X167800895Y-55524662D01*
X167800901Y-55524643D01*
X167860096Y-55265292D01*
X167860096Y-55265290D01*
X167879977Y-55000004D01*
X167879977Y-54999995D01*
X167860096Y-54734709D01*
X167860096Y-54734707D01*
X167800901Y-54475356D01*
X167800895Y-54475337D01*
X167703703Y-54227696D01*
X167570686Y-53997304D01*
X167519913Y-53933637D01*
X166796711Y-54656839D01*
X166786796Y-54632900D01*
X166701982Y-54505966D01*
X166594034Y-54398018D01*
X166467100Y-54313204D01*
X166443158Y-54303287D01*
X167167159Y-53579287D01*
X166989989Y-53458495D01*
X166989985Y-53458493D01*
X166750299Y-53343066D01*
X166496090Y-53264653D01*
X166496084Y-53264652D01*
X166233023Y-53225000D01*
X165966976Y-53225000D01*
X165703915Y-53264652D01*
X165703909Y-53264653D01*
X165449699Y-53343067D01*
X165449695Y-53343068D01*
X165210012Y-53458494D01*
X165210004Y-53458499D01*
X165032840Y-53579286D01*
X165756841Y-54303287D01*
X165732900Y-54313204D01*
X165605966Y-54398018D01*
X165498018Y-54505966D01*
X165413204Y-54632900D01*
X165403287Y-54656840D01*
X164680084Y-53933637D01*
X164629316Y-53997299D01*
X164496296Y-54227696D01*
X164399104Y-54475337D01*
X164399098Y-54475356D01*
X164339903Y-54734707D01*
X164339903Y-54734709D01*
X164320023Y-54999995D01*
X164005500Y-54999995D01*
X164005500Y-52874000D01*
X163993947Y-52766544D01*
X163982741Y-52715033D01*
X163982637Y-52714722D01*
X163948616Y-52612502D01*
X163948613Y-52612496D01*
X163897950Y-52533664D01*
X163870825Y-52491457D01*
X163870820Y-52491451D01*
X163825076Y-52438659D01*
X163825072Y-52438656D01*
X163825070Y-52438653D01*
X163716336Y-52344433D01*
X163716333Y-52344431D01*
X163716331Y-52344430D01*
X163585465Y-52284664D01*
X163585460Y-52284662D01*
X163585459Y-52284662D01*
X163518420Y-52264977D01*
X163518422Y-52264977D01*
X163518417Y-52264976D01*
X163456347Y-52256052D01*
X163376000Y-52244500D01*
X159374000Y-52244500D01*
X159373991Y-52244500D01*
X159373990Y-52244501D01*
X159266549Y-52256052D01*
X159266537Y-52256054D01*
X159215027Y-52267260D01*
X159112502Y-52301383D01*
X159112496Y-52301386D01*
X158991462Y-52379171D01*
X158991451Y-52379179D01*
X158938659Y-52424923D01*
X158844433Y-52533664D01*
X158844430Y-52533668D01*
X158784664Y-52664534D01*
X158764976Y-52731582D01*
X158759949Y-52766549D01*
X158744502Y-52873990D01*
X158744500Y-52874001D01*
X158744500Y-56620500D01*
X158724815Y-56687539D01*
X158672011Y-56733294D01*
X158620500Y-56744500D01*
X157495137Y-56744500D01*
X157428098Y-56724815D01*
X157382343Y-56672011D01*
X157372399Y-56602853D01*
X157401424Y-56539297D01*
X157425281Y-56518048D01*
X157610110Y-56392035D01*
X157805183Y-56211033D01*
X157971101Y-56002980D01*
X158104156Y-55772521D01*
X158201377Y-55524805D01*
X158260593Y-55265367D01*
X158263539Y-55226059D01*
X158280479Y-55000004D01*
X158280479Y-54999995D01*
X158260594Y-54734642D01*
X158260594Y-54734640D01*
X158260593Y-54734636D01*
X158260593Y-54734633D01*
X158201377Y-54475195D01*
X158104156Y-54227479D01*
X157971101Y-53997020D01*
X157805183Y-53788967D01*
X157805182Y-53788966D01*
X157805179Y-53788962D01*
X157610110Y-53607965D01*
X157568047Y-53579287D01*
X157390240Y-53458060D01*
X157390236Y-53458058D01*
X157390233Y-53458056D01*
X157390232Y-53458055D01*
X157150484Y-53342600D01*
X157150486Y-53342600D01*
X156896195Y-53264161D01*
X156896189Y-53264159D01*
X156633062Y-53224500D01*
X156633055Y-53224500D01*
X156366945Y-53224500D01*
X156366937Y-53224500D01*
X156103810Y-53264159D01*
X156103804Y-53264161D01*
X155849514Y-53342600D01*
X155609769Y-53458055D01*
X155609760Y-53458060D01*
X155389892Y-53607963D01*
X155194820Y-53788962D01*
X155028899Y-53997020D01*
X154895844Y-54227478D01*
X154798625Y-54475189D01*
X154798620Y-54475206D01*
X154739405Y-54734640D01*
X154739405Y-54734642D01*
X154719521Y-54999995D01*
X154719521Y-55000004D01*
X154739405Y-55265357D01*
X154739405Y-55265359D01*
X154797666Y-55520615D01*
X154798623Y-55524805D01*
X154895844Y-55772521D01*
X155028899Y-56002980D01*
X155143123Y-56146211D01*
X155194820Y-56211037D01*
X155242874Y-56255624D01*
X155389890Y-56392035D01*
X155574715Y-56518046D01*
X155619017Y-56572075D01*
X155627077Y-56641478D01*
X155596334Y-56704221D01*
X155536550Y-56740383D01*
X155504864Y-56744500D01*
X152695137Y-56744500D01*
X152628098Y-56724815D01*
X152582343Y-56672011D01*
X152572399Y-56602853D01*
X152601424Y-56539297D01*
X152625281Y-56518048D01*
X152810110Y-56392035D01*
X153005183Y-56211033D01*
X153171101Y-56002980D01*
X153304156Y-55772521D01*
X153401377Y-55524805D01*
X153460593Y-55265367D01*
X153463539Y-55226059D01*
X153480479Y-55000004D01*
X153480479Y-54999995D01*
X153460594Y-54734642D01*
X153460594Y-54734640D01*
X153460593Y-54734636D01*
X153460593Y-54734633D01*
X153401377Y-54475195D01*
X153304156Y-54227479D01*
X153171101Y-53997020D01*
X153005183Y-53788967D01*
X153005182Y-53788966D01*
X153005179Y-53788962D01*
X152810110Y-53607965D01*
X152768047Y-53579287D01*
X152590240Y-53458060D01*
X152590236Y-53458058D01*
X152590233Y-53458056D01*
X152590232Y-53458055D01*
X152350484Y-53342600D01*
X152350486Y-53342600D01*
X152096195Y-53264161D01*
X152096189Y-53264159D01*
X151833062Y-53224500D01*
X151833055Y-53224500D01*
X151566945Y-53224500D01*
X151566937Y-53224500D01*
X151303810Y-53264159D01*
X151303804Y-53264161D01*
X151049514Y-53342600D01*
X150809769Y-53458055D01*
X150809760Y-53458060D01*
X150589892Y-53607963D01*
X150394820Y-53788962D01*
X150228899Y-53997020D01*
X150095844Y-54227478D01*
X149998624Y-54475192D01*
X149997987Y-54477257D01*
X149997561Y-54477899D01*
X149996928Y-54479514D01*
X149996582Y-54479378D01*
X149959409Y-54535511D01*
X149895461Y-54563661D01*
X149826446Y-54552770D01*
X149774274Y-54506295D01*
X149755500Y-54440693D01*
X149755500Y-51874010D01*
X149755500Y-51874000D01*
X149743947Y-51766544D01*
X149732741Y-51715033D01*
X149723753Y-51688028D01*
X149698616Y-51612502D01*
X149698613Y-51612496D01*
X149620828Y-51491462D01*
X149620825Y-51491457D01*
X149620820Y-51491451D01*
X149575076Y-51438659D01*
X149575072Y-51438656D01*
X149575070Y-51438653D01*
X149466336Y-51344433D01*
X149466333Y-51344431D01*
X149466331Y-51344430D01*
X149335465Y-51284664D01*
X149335460Y-51284662D01*
X149335459Y-51284662D01*
X149268420Y-51264977D01*
X149268422Y-51264977D01*
X149268417Y-51264976D01*
X149206347Y-51256052D01*
X149126000Y-51244500D01*
X141000000Y-51244500D01*
X105624000Y-51244500D01*
X105623991Y-51244500D01*
X105623990Y-51244501D01*
X105516549Y-51256052D01*
X105516537Y-51256054D01*
X105465027Y-51267260D01*
X105362502Y-51301383D01*
X105362496Y-51301386D01*
X105241462Y-51379171D01*
X105241451Y-51379179D01*
X105188659Y-51424923D01*
X105094433Y-51533664D01*
X105094430Y-51533668D01*
X105034664Y-51664534D01*
X105014976Y-51731582D01*
X105009949Y-51766549D01*
X104994500Y-51874000D01*
X100082316Y-51874000D01*
X100128032Y-51703385D01*
X100133246Y-51688028D01*
X100164530Y-51612502D01*
X100252306Y-51400592D01*
X100259473Y-51386058D01*
X100415036Y-51116615D01*
X100424038Y-51103143D01*
X100613443Y-50856305D01*
X100624124Y-50844126D01*
X100844126Y-50624124D01*
X100856305Y-50613443D01*
X101103143Y-50424038D01*
X101116615Y-50415036D01*
X101386058Y-50259473D01*
X101400592Y-50252306D01*
X101688030Y-50133245D01*
X101703387Y-50128032D01*
X102003915Y-50047505D01*
X102019800Y-50044346D01*
X102329283Y-50003602D01*
X102343416Y-50002559D01*
X102496083Y-50000064D01*
X102498961Y-50000017D01*
X102500987Y-50000000D01*
X197499013Y-50000000D01*
X197501039Y-50000017D01*
G37*
G04 #@! TD.AperFunction*
G04 #@! TA.AperFunction,Conductor*
G36*
X132036587Y-138425185D02*
G01*
X132057229Y-138441819D01*
X132353181Y-138737771D01*
X132386666Y-138799094D01*
X132389500Y-138825452D01*
X132389500Y-140137870D01*
X132389501Y-140137876D01*
X132395908Y-140197483D01*
X132446202Y-140332328D01*
X132446206Y-140332335D01*
X132532452Y-140447544D01*
X132532455Y-140447547D01*
X132647664Y-140533793D01*
X132647671Y-140533797D01*
X132782517Y-140584091D01*
X132782516Y-140584091D01*
X132789444Y-140584835D01*
X132842127Y-140590500D01*
X134637872Y-140590499D01*
X134697483Y-140584091D01*
X134832331Y-140533796D01*
X134947546Y-140447546D01*
X135033796Y-140332331D01*
X135082810Y-140200916D01*
X135124681Y-140144984D01*
X135190145Y-140120566D01*
X135258418Y-140135417D01*
X135286673Y-140156569D01*
X135408599Y-140278495D01*
X135505384Y-140346265D01*
X135602165Y-140414032D01*
X135602167Y-140414033D01*
X135602170Y-140414035D01*
X135816337Y-140513903D01*
X136044592Y-140575063D01*
X136232918Y-140591539D01*
X136279999Y-140595659D01*
X136280000Y-140595659D01*
X136280001Y-140595659D01*
X136319234Y-140592226D01*
X136515408Y-140575063D01*
X136743663Y-140513903D01*
X136957830Y-140414035D01*
X137151401Y-140278495D01*
X137318495Y-140111401D01*
X137448425Y-139925842D01*
X137503002Y-139882217D01*
X137572500Y-139875023D01*
X137634855Y-139906546D01*
X137651575Y-139925842D01*
X137752515Y-140070000D01*
X137781505Y-140111401D01*
X137948599Y-140278495D01*
X138045384Y-140346265D01*
X138142165Y-140414032D01*
X138142167Y-140414033D01*
X138142170Y-140414035D01*
X138356337Y-140513903D01*
X138584592Y-140575063D01*
X138772918Y-140591539D01*
X138819999Y-140595659D01*
X138820000Y-140595659D01*
X138820001Y-140595659D01*
X138855284Y-140592571D01*
X139033013Y-140577022D01*
X139101512Y-140590788D01*
X139131501Y-140612869D01*
X140713181Y-142194548D01*
X140746666Y-142255871D01*
X140749500Y-142282229D01*
X140749500Y-142573918D01*
X140749500Y-142573920D01*
X140749499Y-142573920D01*
X140778340Y-142718907D01*
X140778343Y-142718917D01*
X140834914Y-142855492D01*
X140858845Y-142891307D01*
X140858846Y-142891310D01*
X140917046Y-142978414D01*
X140917052Y-142978421D01*
X141213181Y-143274549D01*
X141246666Y-143335872D01*
X141249500Y-143362230D01*
X141249500Y-144293023D01*
X141229815Y-144360062D01*
X141177011Y-144405817D01*
X141149865Y-144413266D01*
X141150068Y-144414124D01*
X141142520Y-144415907D01*
X141007671Y-144466202D01*
X141007664Y-144466206D01*
X140892455Y-144552452D01*
X140892452Y-144552455D01*
X140806206Y-144667664D01*
X140806202Y-144667671D01*
X140755908Y-144802517D01*
X140749501Y-144862116D01*
X140749501Y-144862123D01*
X140749500Y-144862135D01*
X140749501Y-149876000D01*
X140729816Y-149943039D01*
X140677012Y-149988794D01*
X140625501Y-150000000D01*
X139124000Y-150000000D01*
X139056961Y-149980315D01*
X139011206Y-149927511D01*
X139000000Y-149876000D01*
X139000000Y-147700000D01*
X136500000Y-147700000D01*
X136500000Y-149876000D01*
X136480315Y-149943039D01*
X136427511Y-149988794D01*
X136376000Y-150000000D01*
X131624500Y-150000000D01*
X131557461Y-149980315D01*
X131511706Y-149927511D01*
X131500500Y-149876000D01*
X131500499Y-144862155D01*
X136500000Y-144862155D01*
X136500000Y-147200000D01*
X137500000Y-147200000D01*
X138000000Y-147200000D01*
X139000000Y-147200000D01*
X139000000Y-144862172D01*
X138999999Y-144862155D01*
X138993598Y-144802627D01*
X138993596Y-144802620D01*
X138943354Y-144667913D01*
X138943350Y-144667906D01*
X138857190Y-144552812D01*
X138857187Y-144552809D01*
X138742093Y-144466649D01*
X138742086Y-144466645D01*
X138607379Y-144416403D01*
X138607372Y-144416401D01*
X138547844Y-144410000D01*
X138000000Y-144410000D01*
X138000000Y-147200000D01*
X137500000Y-147200000D01*
X137500000Y-144410000D01*
X136952155Y-144410000D01*
X136892627Y-144416401D01*
X136892620Y-144416403D01*
X136757913Y-144466645D01*
X136757906Y-144466649D01*
X136642812Y-144552809D01*
X136642809Y-144552812D01*
X136556649Y-144667906D01*
X136556645Y-144667913D01*
X136506403Y-144802620D01*
X136506401Y-144802627D01*
X136500000Y-144862155D01*
X131500499Y-144862155D01*
X131500499Y-144862129D01*
X131500498Y-144862123D01*
X131500497Y-144862116D01*
X131494091Y-144802517D01*
X131443884Y-144667906D01*
X131443797Y-144667671D01*
X131443793Y-144667664D01*
X131357547Y-144552455D01*
X131357544Y-144552452D01*
X131242335Y-144466206D01*
X131242328Y-144466202D01*
X131107482Y-144415908D01*
X131107483Y-144415908D01*
X131047883Y-144409501D01*
X131047881Y-144409500D01*
X131047873Y-144409500D01*
X131047865Y-144409500D01*
X129805452Y-144409500D01*
X129738413Y-144389815D01*
X129717771Y-144373181D01*
X127104976Y-141760386D01*
X127071491Y-141699063D01*
X127073472Y-141671362D01*
X127070000Y-141671362D01*
X127070000Y-140635686D01*
X127074394Y-140640080D01*
X127165606Y-140692741D01*
X127267339Y-140720000D01*
X127372661Y-140720000D01*
X127474394Y-140692741D01*
X127565606Y-140640080D01*
X127570000Y-140635686D01*
X127570000Y-141620000D01*
X127822317Y-141620000D01*
X128024417Y-141587990D01*
X128219031Y-141524755D01*
X128401349Y-141431859D01*
X128566894Y-141311582D01*
X128566895Y-141311582D01*
X128711582Y-141166895D01*
X128711582Y-141166894D01*
X128831859Y-141001349D01*
X128924755Y-140819029D01*
X128987990Y-140624413D01*
X128996609Y-140570000D01*
X127635686Y-140570000D01*
X127640080Y-140565606D01*
X127692741Y-140474394D01*
X127720000Y-140372661D01*
X127720000Y-140267339D01*
X127692741Y-140165606D01*
X127640080Y-140074394D01*
X127635686Y-140070000D01*
X128996609Y-140070000D01*
X128987990Y-140015586D01*
X128924755Y-139820970D01*
X128831859Y-139638650D01*
X128711582Y-139473105D01*
X128711582Y-139473104D01*
X128566895Y-139328417D01*
X128401349Y-139208140D01*
X128308370Y-139160765D01*
X128257574Y-139112790D01*
X128240779Y-139044969D01*
X128263316Y-138978835D01*
X128308370Y-138939795D01*
X128308920Y-138939515D01*
X128401610Y-138892287D01*
X128432474Y-138869863D01*
X128567213Y-138771971D01*
X128567215Y-138771968D01*
X128567219Y-138771966D01*
X128711966Y-138627219D01*
X128711968Y-138627215D01*
X128711971Y-138627213D01*
X128835151Y-138457669D01*
X128836823Y-138458884D01*
X128882208Y-138417831D01*
X128936115Y-138405500D01*
X131969548Y-138405500D01*
X132036587Y-138425185D01*
G37*
G04 #@! TD.AperFunction*
G04 #@! TA.AperFunction,Conductor*
G36*
X123678796Y-118581050D02*
G01*
X123732680Y-118625528D01*
X123745827Y-118654315D01*
X123746870Y-118653936D01*
X123748722Y-118659023D01*
X123748724Y-118659030D01*
X123779637Y-118725322D01*
X123838977Y-118852578D01*
X123961472Y-119027521D01*
X124112478Y-119178527D01*
X124112481Y-119178529D01*
X124287419Y-119301021D01*
X124287421Y-119301022D01*
X124287420Y-119301022D01*
X124351936Y-119331106D01*
X124480970Y-119391276D01*
X124687253Y-119446549D01*
X124833969Y-119459385D01*
X124899998Y-119465162D01*
X124899999Y-119465162D01*
X124899999Y-119465161D01*
X124900000Y-119465162D01*
X124993015Y-119457023D01*
X125061512Y-119470789D01*
X125091502Y-119492870D01*
X126533181Y-120934549D01*
X126566666Y-120995872D01*
X126569500Y-121022230D01*
X126569500Y-121373023D01*
X126549815Y-121440062D01*
X126497011Y-121485817D01*
X126469865Y-121493266D01*
X126470068Y-121494124D01*
X126462520Y-121495907D01*
X126327671Y-121546202D01*
X126327664Y-121546206D01*
X126212455Y-121632452D01*
X126212452Y-121632455D01*
X126126206Y-121747664D01*
X126126202Y-121747671D01*
X126075908Y-121882517D01*
X126072684Y-121912511D01*
X126069501Y-121942123D01*
X126069500Y-121942135D01*
X126069500Y-123737870D01*
X126069501Y-123737876D01*
X126075908Y-123797483D01*
X126126202Y-123932328D01*
X126126206Y-123932335D01*
X126212452Y-124047544D01*
X126212455Y-124047547D01*
X126327664Y-124133793D01*
X126327671Y-124133797D01*
X126459081Y-124182810D01*
X126515015Y-124224681D01*
X126539432Y-124290145D01*
X126524580Y-124358418D01*
X126503430Y-124386673D01*
X126381503Y-124508600D01*
X126245965Y-124702169D01*
X126245964Y-124702171D01*
X126146098Y-124916335D01*
X126146094Y-124916344D01*
X126084938Y-125144586D01*
X126084936Y-125144596D01*
X126064341Y-125379999D01*
X126064341Y-125380000D01*
X126084936Y-125615403D01*
X126084938Y-125615413D01*
X126146094Y-125843655D01*
X126146096Y-125843659D01*
X126146097Y-125843663D01*
X126245965Y-126057830D01*
X126245967Y-126057834D01*
X126381501Y-126251395D01*
X126381506Y-126251402D01*
X126548595Y-126418492D01*
X126548598Y-126418494D01*
X126548599Y-126418495D01*
X126616623Y-126466125D01*
X126660248Y-126520701D01*
X126669500Y-126567700D01*
X126669500Y-128313336D01*
X126649815Y-128380375D01*
X126616625Y-128414910D01*
X126580863Y-128439951D01*
X126419951Y-128600862D01*
X126289432Y-128787265D01*
X126289431Y-128787267D01*
X126193261Y-128993502D01*
X126193258Y-128993511D01*
X126134366Y-129213302D01*
X126134364Y-129213313D01*
X126114532Y-129439998D01*
X126114532Y-129440001D01*
X126134364Y-129666686D01*
X126134366Y-129666697D01*
X126193258Y-129886488D01*
X126193261Y-129886497D01*
X126289431Y-130092732D01*
X126289432Y-130092734D01*
X126419954Y-130279141D01*
X126580859Y-130440046D01*
X126616621Y-130465086D01*
X126660247Y-130519662D01*
X126669500Y-130566662D01*
X126669500Y-131323875D01*
X126649815Y-131390914D01*
X126597011Y-131436669D01*
X126583818Y-131441806D01*
X126420778Y-131494781D01*
X126238386Y-131587715D01*
X126072786Y-131708028D01*
X125928028Y-131852786D01*
X125807715Y-132018386D01*
X125714781Y-132200776D01*
X125651522Y-132395465D01*
X125619500Y-132597648D01*
X125619500Y-132802351D01*
X125651522Y-133004534D01*
X125714781Y-133199223D01*
X125755785Y-133279696D01*
X125793451Y-133353620D01*
X125807715Y-133381613D01*
X125928028Y-133547213D01*
X126072786Y-133691971D01*
X126190183Y-133777263D01*
X126238390Y-133812287D01*
X126320971Y-133854364D01*
X126331080Y-133859515D01*
X126381876Y-133907490D01*
X126398671Y-133975311D01*
X126376134Y-134041446D01*
X126331080Y-134080485D01*
X126238386Y-134127715D01*
X126072786Y-134248028D01*
X125928028Y-134392786D01*
X125807715Y-134558386D01*
X125714781Y-134740776D01*
X125651522Y-134935465D01*
X125619500Y-135137648D01*
X125619500Y-135342351D01*
X125651522Y-135544534D01*
X125714781Y-135739223D01*
X125755218Y-135818583D01*
X125790516Y-135887860D01*
X125807715Y-135921613D01*
X125928028Y-136087213D01*
X126072786Y-136231971D01*
X126220293Y-136339139D01*
X126238390Y-136352287D01*
X126320778Y-136394266D01*
X126331080Y-136399515D01*
X126381876Y-136447490D01*
X126398671Y-136515311D01*
X126376134Y-136581446D01*
X126331080Y-136620485D01*
X126238386Y-136667715D01*
X126072786Y-136788028D01*
X125928028Y-136932786D01*
X125807715Y-137098386D01*
X125714781Y-137280776D01*
X125651522Y-137475465D01*
X125619500Y-137677648D01*
X125619500Y-137882351D01*
X125651522Y-138084534D01*
X125714781Y-138279223D01*
X125755218Y-138358583D01*
X125785406Y-138417831D01*
X125807715Y-138461613D01*
X125928028Y-138627213D01*
X126072786Y-138771971D01*
X126227749Y-138884556D01*
X126238390Y-138892287D01*
X126310424Y-138928990D01*
X126331629Y-138939795D01*
X126382425Y-138987770D01*
X126399220Y-139055591D01*
X126376682Y-139121726D01*
X126331629Y-139160765D01*
X126238650Y-139208140D01*
X126073105Y-139328417D01*
X126073104Y-139328417D01*
X125928417Y-139473104D01*
X125928417Y-139473105D01*
X125808140Y-139638650D01*
X125715244Y-139820968D01*
X125652009Y-140015582D01*
X125652009Y-140015584D01*
X125650176Y-140027156D01*
X125620244Y-140090289D01*
X125560931Y-140127217D01*
X125491068Y-140126216D01*
X125440023Y-140095433D01*
X121294188Y-135949598D01*
X121260703Y-135888275D01*
X121265687Y-135818583D01*
X121271379Y-135805633D01*
X121305220Y-135739219D01*
X121368477Y-135544534D01*
X121400500Y-135342352D01*
X121400500Y-135137648D01*
X121368477Y-134935466D01*
X121361277Y-134913308D01*
X121305218Y-134740776D01*
X121249884Y-134632178D01*
X121212287Y-134558390D01*
X121169899Y-134500047D01*
X121091971Y-134392786D01*
X120947219Y-134248034D01*
X120910930Y-134221669D01*
X120868264Y-134166339D01*
X120862285Y-134096726D01*
X120894890Y-134034931D01*
X120955728Y-134000573D01*
X120970562Y-133998060D01*
X121007483Y-133994091D01*
X121072849Y-133969711D01*
X121142331Y-133943796D01*
X121257546Y-133857546D01*
X121343796Y-133742331D01*
X121394091Y-133607483D01*
X121400500Y-133547873D01*
X121400499Y-131852128D01*
X121394091Y-131792517D01*
X121391339Y-131785139D01*
X121343797Y-131657671D01*
X121343793Y-131657664D01*
X121257547Y-131542455D01*
X121257544Y-131542452D01*
X121142335Y-131456206D01*
X121142328Y-131456202D01*
X121007482Y-131405908D01*
X121007483Y-131405908D01*
X120947883Y-131399501D01*
X120947881Y-131399500D01*
X120947873Y-131399500D01*
X120947865Y-131399500D01*
X120332229Y-131399500D01*
X120265190Y-131379815D01*
X120244548Y-131363181D01*
X120178416Y-131297049D01*
X118586716Y-129705348D01*
X118553231Y-129644025D01*
X118550869Y-129606863D01*
X118565468Y-129440000D01*
X118563803Y-129420974D01*
X118556231Y-129334420D01*
X118545635Y-129213308D01*
X118486739Y-128993504D01*
X118390568Y-128787266D01*
X118281975Y-128632178D01*
X118260048Y-128600862D01*
X118184272Y-128525086D01*
X118099139Y-128439953D01*
X118094373Y-128436615D01*
X118063375Y-128414910D01*
X118019751Y-128360332D01*
X118010500Y-128313336D01*
X118010500Y-126709713D01*
X118030185Y-126642674D01*
X118063377Y-126608138D01*
X118191401Y-126518495D01*
X118358495Y-126351401D01*
X118494035Y-126157830D01*
X118593903Y-125943663D01*
X118655063Y-125715408D01*
X118675659Y-125480000D01*
X118655063Y-125244592D01*
X118593903Y-125016337D01*
X118494035Y-124802171D01*
X118478483Y-124779961D01*
X118358496Y-124608600D01*
X118331058Y-124581162D01*
X118236567Y-124486671D01*
X118203084Y-124425351D01*
X118208068Y-124355659D01*
X118249939Y-124299725D01*
X118280915Y-124282810D01*
X118412331Y-124233796D01*
X118527546Y-124147546D01*
X118613796Y-124032331D01*
X118664091Y-123897483D01*
X118670500Y-123837873D01*
X118670499Y-122042128D01*
X118664091Y-121982517D01*
X118656608Y-121962455D01*
X118613797Y-121847671D01*
X118613793Y-121847664D01*
X118527547Y-121732455D01*
X118527544Y-121732452D01*
X118412335Y-121646206D01*
X118412328Y-121646202D01*
X118277482Y-121595908D01*
X118277483Y-121595908D01*
X118217883Y-121589501D01*
X118217881Y-121589500D01*
X118217873Y-121589500D01*
X118217865Y-121589500D01*
X118194500Y-121589500D01*
X118127461Y-121569815D01*
X118081706Y-121517011D01*
X118070500Y-121465500D01*
X118070500Y-121102229D01*
X118090185Y-121035190D01*
X118106814Y-121014553D01*
X119628498Y-119492868D01*
X119689819Y-119459385D01*
X119726980Y-119457023D01*
X119820000Y-119465162D01*
X119820000Y-119465161D01*
X119820001Y-119465162D01*
X119820002Y-119465162D01*
X119886031Y-119459385D01*
X120032747Y-119446549D01*
X120239030Y-119391276D01*
X120432581Y-119301021D01*
X120607519Y-119178529D01*
X120758529Y-119027519D01*
X120758531Y-119027515D01*
X120759228Y-119026819D01*
X120820552Y-118993334D01*
X120846910Y-118990500D01*
X121333090Y-118990500D01*
X121400129Y-119010185D01*
X121420772Y-119026819D01*
X121421468Y-119027515D01*
X121421471Y-119027519D01*
X121506090Y-119112138D01*
X121572482Y-119178530D01*
X121641335Y-119226741D01*
X121747419Y-119301021D01*
X121747421Y-119301022D01*
X121747420Y-119301022D01*
X121811936Y-119331106D01*
X121940970Y-119391276D01*
X122147253Y-119446549D01*
X122293969Y-119459385D01*
X122359998Y-119465162D01*
X122360000Y-119465162D01*
X122360002Y-119465162D01*
X122426031Y-119459385D01*
X122572747Y-119446549D01*
X122779030Y-119391276D01*
X122972581Y-119301021D01*
X123147519Y-119178529D01*
X123298529Y-119027519D01*
X123421021Y-118852581D01*
X123511276Y-118659030D01*
X123511280Y-118659013D01*
X123513130Y-118653936D01*
X123515253Y-118654709D01*
X123546576Y-118603305D01*
X123609419Y-118572766D01*
X123678796Y-118581050D01*
G37*
G04 #@! TD.AperFunction*
M02*
