G04 #@! TF.GenerationSoftware,KiCad,Pcbnew,8.0.7*
G04 #@! TF.CreationDate,2025-01-07T02:15:50-08:00*
G04 #@! TF.ProjectId,standalone_pi_loop,7374616e-6461-46c6-9f6e-655f70695f6c,rev?*
G04 #@! TF.SameCoordinates,Original*
G04 #@! TF.FileFunction,Copper,L4,Bot*
G04 #@! TF.FilePolarity,Positive*
%FSLAX46Y46*%
G04 Gerber Fmt 4.6, Leading zero omitted, Abs format (unit mm)*
G04 Created by KiCad (PCBNEW 8.0.7) date 2025-01-07 02:15:50*
%MOMM*%
%LPD*%
G01*
G04 APERTURE LIST*
G04 Aperture macros list*
%AMRoundRect*
0 Rectangle with rounded corners*
0 $1 Rounding radius*
0 $2 $3 $4 $5 $6 $7 $8 $9 X,Y pos of 4 corners*
0 Add a 4 corners polygon primitive as box body*
4,1,4,$2,$3,$4,$5,$6,$7,$8,$9,$2,$3,0*
0 Add four circle primitives for the rounded corners*
1,1,$1+$1,$2,$3*
1,1,$1+$1,$4,$5*
1,1,$1+$1,$6,$7*
1,1,$1+$1,$8,$9*
0 Add four rect primitives between the rounded corners*
20,1,$1+$1,$2,$3,$4,$5,0*
20,1,$1+$1,$4,$5,$6,$7,0*
20,1,$1+$1,$6,$7,$8,$9,0*
20,1,$1+$1,$8,$9,$2,$3,0*%
G04 Aperture macros list end*
G04 #@! TA.AperFunction,ComponentPad*
%ADD10C,1.600000*%
G04 #@! TD*
G04 #@! TA.AperFunction,SMDPad,CuDef*
%ADD11R,1.500000X5.080000*%
G04 #@! TD*
G04 #@! TA.AperFunction,ComponentPad*
%ADD12C,1.440000*%
G04 #@! TD*
G04 #@! TA.AperFunction,ComponentPad*
%ADD13RoundRect,0.249999X-1.025001X-1.025001X1.025001X-1.025001X1.025001X1.025001X-1.025001X1.025001X0*%
G04 #@! TD*
G04 #@! TA.AperFunction,ComponentPad*
%ADD14C,2.550000*%
G04 #@! TD*
G04 #@! TA.AperFunction,ComponentPad*
%ADD15RoundRect,0.250000X0.265000X0.615000X-0.265000X0.615000X-0.265000X-0.615000X0.265000X-0.615000X0*%
G04 #@! TD*
G04 #@! TA.AperFunction,ComponentPad*
%ADD16O,1.030000X1.730000*%
G04 #@! TD*
G04 #@! TA.AperFunction,ComponentPad*
%ADD17O,1.600000X1.600000*%
G04 #@! TD*
G04 #@! TA.AperFunction,ComponentPad*
%ADD18R,1.700000X1.700000*%
G04 #@! TD*
G04 #@! TA.AperFunction,ComponentPad*
%ADD19O,1.700000X1.700000*%
G04 #@! TD*
G04 #@! TA.AperFunction,ComponentPad*
%ADD20R,2.400000X1.600000*%
G04 #@! TD*
G04 #@! TA.AperFunction,ComponentPad*
%ADD21O,2.400000X1.600000*%
G04 #@! TD*
G04 #@! TA.AperFunction,ViaPad*
%ADD22C,0.800000*%
G04 #@! TD*
G04 #@! TA.AperFunction,Conductor*
%ADD23C,0.500000*%
G04 #@! TD*
G04 APERTURE END LIST*
D10*
X117000000Y-142980000D03*
X112000000Y-142980000D03*
X133420000Y-135140000D03*
X133420000Y-130140000D03*
D11*
X114250000Y-147450000D03*
X105750000Y-147450000D03*
D12*
X124900000Y-118240000D03*
X122360000Y-118240000D03*
X119820000Y-118240000D03*
D13*
X146900000Y-55000000D03*
D14*
X151700000Y-55000000D03*
X156500000Y-55000000D03*
X161300000Y-55000000D03*
X166100000Y-55000000D03*
D15*
X141000000Y-55500000D03*
D16*
X139500000Y-55500000D03*
X138000000Y-55500000D03*
X136500000Y-55500000D03*
X135000000Y-55500000D03*
X133500000Y-55500000D03*
X132000000Y-55500000D03*
X130500000Y-55500000D03*
X129000000Y-55500000D03*
X127500000Y-55500000D03*
D12*
X158540000Y-122500000D03*
X161080000Y-122500000D03*
X163620000Y-122500000D03*
D10*
X159420000Y-112000000D03*
D17*
X169580000Y-112000000D03*
D10*
X182240000Y-114820000D03*
X182240000Y-109820000D03*
D18*
X117320000Y-122940000D03*
D19*
X117320000Y-125480000D03*
D10*
X179240000Y-114820000D03*
X179240000Y-109820000D03*
X168040000Y-130500000D03*
X173040000Y-130500000D03*
D20*
X119700000Y-132700000D03*
D21*
X119700000Y-135240000D03*
X119700000Y-137780000D03*
X119700000Y-140320000D03*
X127320000Y-140320000D03*
X127320000Y-137780000D03*
X127320000Y-135240000D03*
X127320000Y-132700000D03*
D10*
X183500000Y-131580000D03*
D17*
X183500000Y-121420000D03*
D10*
X155540000Y-118000000D03*
D17*
X165700000Y-118000000D03*
D20*
X176040000Y-123120000D03*
D21*
X176040000Y-120580000D03*
X176040000Y-118040000D03*
X176040000Y-115500000D03*
X168420000Y-115500000D03*
X168420000Y-118040000D03*
X168420000Y-120580000D03*
X168420000Y-123120000D03*
D10*
X130620000Y-130140000D03*
X130620000Y-135140000D03*
X163040000Y-137000000D03*
D17*
X152880000Y-137000000D03*
D10*
X168040000Y-127500000D03*
X173040000Y-127500000D03*
X158040000Y-127500000D03*
X163040000Y-127500000D03*
X117260000Y-129440000D03*
D17*
X127420000Y-129440000D03*
D10*
X166080000Y-103000000D03*
D17*
X155920000Y-103000000D03*
D11*
X162250000Y-147450000D03*
X153750000Y-147450000D03*
D18*
X127420000Y-122840000D03*
D19*
X127420000Y-125380000D03*
D10*
X158140000Y-130580000D03*
X163140000Y-130580000D03*
X166000000Y-106250000D03*
X161000000Y-106250000D03*
X158040000Y-133500000D03*
X163040000Y-133500000D03*
X117000000Y-140000000D03*
X112000000Y-140000000D03*
D15*
X121000000Y-55500000D03*
D16*
X119500000Y-55500000D03*
X118000000Y-55500000D03*
X116500000Y-55500000D03*
X115000000Y-55500000D03*
X113500000Y-55500000D03*
X112000000Y-55500000D03*
X110500000Y-55500000D03*
X109000000Y-55500000D03*
X107500000Y-55500000D03*
D11*
X130250000Y-147450000D03*
X121750000Y-147450000D03*
X146250000Y-147450000D03*
X137750000Y-147450000D03*
D18*
X133740000Y-139240000D03*
D19*
X136280000Y-139240000D03*
X138820000Y-139240000D03*
D11*
X178250000Y-147450000D03*
X169750000Y-147450000D03*
D10*
X179540000Y-131580000D03*
D17*
X179540000Y-121420000D03*
D10*
X179080000Y-135500000D03*
D17*
X168920000Y-135500000D03*
D12*
X155540000Y-113500000D03*
X153000000Y-113500000D03*
X150460000Y-113500000D03*
D22*
X169750000Y-147500000D03*
X178250000Y-147450000D03*
X162250000Y-147500000D03*
X122250000Y-122750000D03*
X153750000Y-147500000D03*
X130250000Y-147500000D03*
X121750000Y-147500000D03*
D23*
X171250000Y-64950000D02*
X171250000Y-120290000D01*
X124500000Y-132420000D02*
X124500000Y-130250000D01*
X161300000Y-55000000D02*
X171250000Y-64950000D01*
X171250000Y-120290000D02*
X168420000Y-123120000D01*
X153500000Y-101250000D02*
X153500000Y-62800000D01*
X153500000Y-62800000D02*
X161300000Y-55000000D01*
X127320000Y-135240000D02*
X124500000Y-132420000D01*
X124500000Y-130250000D02*
X153500000Y-101250000D01*
X169500000Y-51750000D02*
X150150000Y-51750000D01*
X114500000Y-120250000D02*
X117230000Y-120250000D01*
X114500000Y-116750000D02*
X114500000Y-120250000D01*
X122020000Y-138000000D02*
X119700000Y-140320000D01*
X176040000Y-115500000D02*
X176040000Y-58290000D01*
X122500000Y-125520000D02*
X122500000Y-138000000D01*
X176040000Y-58290000D02*
X169500000Y-51750000D01*
X117230000Y-120250000D02*
X122500000Y-125520000D01*
X150150000Y-51750000D02*
X146900000Y-55000000D01*
X122500000Y-138000000D02*
X122020000Y-138000000D01*
X146900000Y-55000000D02*
X146900000Y-84350000D01*
X146900000Y-84350000D02*
X114500000Y-116750000D01*
X179540000Y-131580000D02*
X179540000Y-135040000D01*
X179540000Y-135040000D02*
X179080000Y-135500000D01*
G04 #@! TA.AperFunction,Conductor*
G36*
X197501039Y-50000017D02*
G01*
X197503981Y-50000065D01*
X197656582Y-50002559D01*
X197670718Y-50003602D01*
X197980196Y-50044345D01*
X197996087Y-50047506D01*
X198240218Y-50112921D01*
X198296612Y-50128032D01*
X198311971Y-50133246D01*
X198599400Y-50252303D01*
X198613947Y-50259477D01*
X198883377Y-50415032D01*
X198896863Y-50424043D01*
X199143686Y-50613437D01*
X199155881Y-50624132D01*
X199375867Y-50844118D01*
X199386562Y-50856313D01*
X199575956Y-51103136D01*
X199584967Y-51116622D01*
X199740522Y-51386052D01*
X199747696Y-51400599D01*
X199866753Y-51688028D01*
X199871967Y-51703387D01*
X199952491Y-52003903D01*
X199955655Y-52019812D01*
X199996396Y-52329270D01*
X199997440Y-52343428D01*
X199999983Y-52498960D01*
X200000000Y-52500987D01*
X200000000Y-147499012D01*
X199999983Y-147501039D01*
X199997440Y-147656571D01*
X199996396Y-147670729D01*
X199955655Y-147980187D01*
X199952491Y-147996096D01*
X199871967Y-148296612D01*
X199866753Y-148311971D01*
X199747696Y-148599400D01*
X199740522Y-148613947D01*
X199584967Y-148883377D01*
X199575956Y-148896863D01*
X199386562Y-149143686D01*
X199375867Y-149155881D01*
X199155881Y-149375867D01*
X199143686Y-149386562D01*
X198896863Y-149575956D01*
X198883377Y-149584967D01*
X198613947Y-149740522D01*
X198599400Y-149747696D01*
X198311971Y-149866753D01*
X198296612Y-149871967D01*
X197996096Y-149952491D01*
X197980187Y-149955655D01*
X197670729Y-149996396D01*
X197656571Y-149997440D01*
X197501040Y-149999983D01*
X197499013Y-150000000D01*
X179624000Y-150000000D01*
X179556961Y-149980315D01*
X179511206Y-149927511D01*
X179500000Y-149876000D01*
X179500000Y-147700000D01*
X177000000Y-147700000D01*
X177000000Y-149876000D01*
X176980315Y-149943039D01*
X176927511Y-149988794D01*
X176876000Y-150000000D01*
X171124000Y-150000000D01*
X171056961Y-149980315D01*
X171011206Y-149927511D01*
X171000000Y-149876000D01*
X171000000Y-147700000D01*
X168500000Y-147700000D01*
X168500000Y-149876000D01*
X168480315Y-149943039D01*
X168427511Y-149988794D01*
X168376000Y-150000000D01*
X163624000Y-150000000D01*
X163556961Y-149980315D01*
X163511206Y-149927511D01*
X163500000Y-149876000D01*
X163500000Y-147700000D01*
X161000000Y-147700000D01*
X161000000Y-149876000D01*
X160980315Y-149943039D01*
X160927511Y-149988794D01*
X160876000Y-150000000D01*
X155124000Y-150000000D01*
X155056961Y-149980315D01*
X155011206Y-149927511D01*
X155000000Y-149876000D01*
X155000000Y-147700000D01*
X152500000Y-147700000D01*
X152500000Y-149876000D01*
X152480315Y-149943039D01*
X152427511Y-149988794D01*
X152376000Y-150000000D01*
X147624000Y-150000000D01*
X147556961Y-149980315D01*
X147511206Y-149927511D01*
X147500000Y-149876000D01*
X147500000Y-147700000D01*
X145000000Y-147700000D01*
X145000000Y-149876000D01*
X144980315Y-149943039D01*
X144927511Y-149988794D01*
X144876000Y-150000000D01*
X139124000Y-150000000D01*
X139056961Y-149980315D01*
X139011206Y-149927511D01*
X139000000Y-149876000D01*
X139000000Y-147700000D01*
X136500000Y-147700000D01*
X136500000Y-149876000D01*
X136480315Y-149943039D01*
X136427511Y-149988794D01*
X136376000Y-150000000D01*
X131624500Y-150000000D01*
X131557461Y-149980315D01*
X131511706Y-149927511D01*
X131500500Y-149876000D01*
X131500499Y-144862155D01*
X136500000Y-144862155D01*
X136500000Y-147200000D01*
X137500000Y-147200000D01*
X138000000Y-147200000D01*
X139000000Y-147200000D01*
X139000000Y-144862172D01*
X138999999Y-144862155D01*
X145000000Y-144862155D01*
X145000000Y-147200000D01*
X146000000Y-147200000D01*
X146500000Y-147200000D01*
X147500000Y-147200000D01*
X147500000Y-144862172D01*
X147499999Y-144862155D01*
X152500000Y-144862155D01*
X152500000Y-147200000D01*
X153500000Y-147200000D01*
X154000000Y-147200000D01*
X155000000Y-147200000D01*
X155000000Y-144862172D01*
X154999999Y-144862155D01*
X161000000Y-144862155D01*
X161000000Y-147200000D01*
X162000000Y-147200000D01*
X162500000Y-147200000D01*
X163500000Y-147200000D01*
X163500000Y-144862172D01*
X163499999Y-144862155D01*
X168500000Y-144862155D01*
X168500000Y-147200000D01*
X169500000Y-147200000D01*
X170000000Y-147200000D01*
X171000000Y-147200000D01*
X171000000Y-144862172D01*
X170999999Y-144862155D01*
X177000000Y-144862155D01*
X177000000Y-147200000D01*
X178000000Y-147200000D01*
X178500000Y-147200000D01*
X179500000Y-147200000D01*
X179500000Y-144862172D01*
X179499999Y-144862155D01*
X179493598Y-144802627D01*
X179493596Y-144802620D01*
X179443354Y-144667913D01*
X179443350Y-144667906D01*
X179357190Y-144552812D01*
X179357187Y-144552809D01*
X179242093Y-144466649D01*
X179242086Y-144466645D01*
X179107379Y-144416403D01*
X179107372Y-144416401D01*
X179047844Y-144410000D01*
X178500000Y-144410000D01*
X178500000Y-147200000D01*
X178000000Y-147200000D01*
X178000000Y-144410000D01*
X177452155Y-144410000D01*
X177392627Y-144416401D01*
X177392620Y-144416403D01*
X177257913Y-144466645D01*
X177257906Y-144466649D01*
X177142812Y-144552809D01*
X177142809Y-144552812D01*
X177056649Y-144667906D01*
X177056645Y-144667913D01*
X177006403Y-144802620D01*
X177006401Y-144802627D01*
X177000000Y-144862155D01*
X170999999Y-144862155D01*
X170993598Y-144802627D01*
X170993596Y-144802620D01*
X170943354Y-144667913D01*
X170943350Y-144667906D01*
X170857190Y-144552812D01*
X170857187Y-144552809D01*
X170742093Y-144466649D01*
X170742086Y-144466645D01*
X170607379Y-144416403D01*
X170607372Y-144416401D01*
X170547844Y-144410000D01*
X170000000Y-144410000D01*
X170000000Y-147200000D01*
X169500000Y-147200000D01*
X169500000Y-144410000D01*
X168952155Y-144410000D01*
X168892627Y-144416401D01*
X168892620Y-144416403D01*
X168757913Y-144466645D01*
X168757906Y-144466649D01*
X168642812Y-144552809D01*
X168642809Y-144552812D01*
X168556649Y-144667906D01*
X168556645Y-144667913D01*
X168506403Y-144802620D01*
X168506401Y-144802627D01*
X168500000Y-144862155D01*
X163499999Y-144862155D01*
X163493598Y-144802627D01*
X163493596Y-144802620D01*
X163443354Y-144667913D01*
X163443350Y-144667906D01*
X163357190Y-144552812D01*
X163357187Y-144552809D01*
X163242093Y-144466649D01*
X163242086Y-144466645D01*
X163107379Y-144416403D01*
X163107372Y-144416401D01*
X163047844Y-144410000D01*
X162500000Y-144410000D01*
X162500000Y-147200000D01*
X162000000Y-147200000D01*
X162000000Y-144410000D01*
X161452155Y-144410000D01*
X161392627Y-144416401D01*
X161392620Y-144416403D01*
X161257913Y-144466645D01*
X161257906Y-144466649D01*
X161142812Y-144552809D01*
X161142809Y-144552812D01*
X161056649Y-144667906D01*
X161056645Y-144667913D01*
X161006403Y-144802620D01*
X161006401Y-144802627D01*
X161000000Y-144862155D01*
X154999999Y-144862155D01*
X154993598Y-144802627D01*
X154993596Y-144802620D01*
X154943354Y-144667913D01*
X154943350Y-144667906D01*
X154857190Y-144552812D01*
X154857187Y-144552809D01*
X154742093Y-144466649D01*
X154742086Y-144466645D01*
X154607379Y-144416403D01*
X154607372Y-144416401D01*
X154547844Y-144410000D01*
X154000000Y-144410000D01*
X154000000Y-147200000D01*
X153500000Y-147200000D01*
X153500000Y-144410000D01*
X152952155Y-144410000D01*
X152892627Y-144416401D01*
X152892620Y-144416403D01*
X152757913Y-144466645D01*
X152757906Y-144466649D01*
X152642812Y-144552809D01*
X152642809Y-144552812D01*
X152556649Y-144667906D01*
X152556645Y-144667913D01*
X152506403Y-144802620D01*
X152506401Y-144802627D01*
X152500000Y-144862155D01*
X147499999Y-144862155D01*
X147493598Y-144802627D01*
X147493596Y-144802620D01*
X147443354Y-144667913D01*
X147443350Y-144667906D01*
X147357190Y-144552812D01*
X147357187Y-144552809D01*
X147242093Y-144466649D01*
X147242086Y-144466645D01*
X147107379Y-144416403D01*
X147107372Y-144416401D01*
X147047844Y-144410000D01*
X146500000Y-144410000D01*
X146500000Y-147200000D01*
X146000000Y-147200000D01*
X146000000Y-144410000D01*
X145452155Y-144410000D01*
X145392627Y-144416401D01*
X145392620Y-144416403D01*
X145257913Y-144466645D01*
X145257906Y-144466649D01*
X145142812Y-144552809D01*
X145142809Y-144552812D01*
X145056649Y-144667906D01*
X145056645Y-144667913D01*
X145006403Y-144802620D01*
X145006401Y-144802627D01*
X145000000Y-144862155D01*
X138999999Y-144862155D01*
X138993598Y-144802627D01*
X138993596Y-144802620D01*
X138943354Y-144667913D01*
X138943350Y-144667906D01*
X138857190Y-144552812D01*
X138857187Y-144552809D01*
X138742093Y-144466649D01*
X138742086Y-144466645D01*
X138607379Y-144416403D01*
X138607372Y-144416401D01*
X138547844Y-144410000D01*
X138000000Y-144410000D01*
X138000000Y-147200000D01*
X137500000Y-147200000D01*
X137500000Y-144410000D01*
X136952155Y-144410000D01*
X136892627Y-144416401D01*
X136892620Y-144416403D01*
X136757913Y-144466645D01*
X136757906Y-144466649D01*
X136642812Y-144552809D01*
X136642809Y-144552812D01*
X136556649Y-144667906D01*
X136556645Y-144667913D01*
X136506403Y-144802620D01*
X136506401Y-144802627D01*
X136500000Y-144862155D01*
X131500499Y-144862155D01*
X131500499Y-144862129D01*
X131500498Y-144862123D01*
X131500497Y-144862116D01*
X131494091Y-144802517D01*
X131443884Y-144667906D01*
X131443797Y-144667671D01*
X131443793Y-144667664D01*
X131357547Y-144552455D01*
X131357544Y-144552452D01*
X131242335Y-144466206D01*
X131242328Y-144466202D01*
X131107482Y-144415908D01*
X131107483Y-144415908D01*
X131047883Y-144409501D01*
X131047881Y-144409500D01*
X131047873Y-144409500D01*
X131047864Y-144409500D01*
X129452129Y-144409500D01*
X129452123Y-144409501D01*
X129392516Y-144415908D01*
X129257671Y-144466202D01*
X129257664Y-144466206D01*
X129142455Y-144552452D01*
X129142452Y-144552455D01*
X129056206Y-144667664D01*
X129056202Y-144667671D01*
X129005908Y-144802517D01*
X128999501Y-144862116D01*
X128999501Y-144862123D01*
X128999500Y-144862135D01*
X128999501Y-149876000D01*
X128979816Y-149943039D01*
X128927012Y-149988794D01*
X128875501Y-150000000D01*
X123124500Y-150000000D01*
X123057461Y-149980315D01*
X123011706Y-149927511D01*
X123000500Y-149876000D01*
X123000499Y-144862129D01*
X123000498Y-144862123D01*
X123000497Y-144862116D01*
X122994091Y-144802517D01*
X122943884Y-144667906D01*
X122943797Y-144667671D01*
X122943793Y-144667664D01*
X122857547Y-144552455D01*
X122857544Y-144552452D01*
X122742335Y-144466206D01*
X122742328Y-144466202D01*
X122607482Y-144415908D01*
X122607483Y-144415908D01*
X122547883Y-144409501D01*
X122547881Y-144409500D01*
X122547873Y-144409500D01*
X122547864Y-144409500D01*
X120952129Y-144409500D01*
X120952123Y-144409501D01*
X120892516Y-144415908D01*
X120757671Y-144466202D01*
X120757664Y-144466206D01*
X120642455Y-144552452D01*
X120642452Y-144552455D01*
X120556206Y-144667664D01*
X120556202Y-144667671D01*
X120505908Y-144802517D01*
X120499501Y-144862116D01*
X120499501Y-144862123D01*
X120499500Y-144862135D01*
X120499501Y-149876000D01*
X120479816Y-149943039D01*
X120427012Y-149988794D01*
X120375501Y-150000000D01*
X115624000Y-150000000D01*
X115556961Y-149980315D01*
X115511206Y-149927511D01*
X115500000Y-149876000D01*
X115500000Y-147700000D01*
X113000000Y-147700000D01*
X113000000Y-149876000D01*
X112980315Y-149943039D01*
X112927511Y-149988794D01*
X112876000Y-150000000D01*
X107124000Y-150000000D01*
X107056961Y-149980315D01*
X107011206Y-149927511D01*
X107000000Y-149876000D01*
X107000000Y-147700000D01*
X104500000Y-147700000D01*
X104500000Y-149876000D01*
X104480315Y-149943039D01*
X104427511Y-149988794D01*
X104376000Y-150000000D01*
X102500987Y-150000000D01*
X102498960Y-149999983D01*
X102343428Y-149997440D01*
X102329270Y-149996396D01*
X102019812Y-149955655D01*
X102003903Y-149952491D01*
X101703387Y-149871967D01*
X101688028Y-149866753D01*
X101400599Y-149747696D01*
X101386052Y-149740522D01*
X101116622Y-149584967D01*
X101103136Y-149575956D01*
X100856313Y-149386562D01*
X100844118Y-149375867D01*
X100624132Y-149155881D01*
X100613437Y-149143686D01*
X100424043Y-148896863D01*
X100415032Y-148883377D01*
X100259477Y-148613947D01*
X100252303Y-148599400D01*
X100133246Y-148311971D01*
X100128032Y-148296612D01*
X100112921Y-148240218D01*
X100047506Y-147996087D01*
X100044345Y-147980196D01*
X100003602Y-147670718D01*
X100002559Y-147656582D01*
X100000017Y-147501038D01*
X100000000Y-147499012D01*
X100000000Y-144862155D01*
X104500000Y-144862155D01*
X104500000Y-147200000D01*
X105500000Y-147200000D01*
X106000000Y-147200000D01*
X107000000Y-147200000D01*
X107000000Y-144862172D01*
X106999999Y-144862155D01*
X113000000Y-144862155D01*
X113000000Y-147200000D01*
X114000000Y-147200000D01*
X114500000Y-147200000D01*
X115500000Y-147200000D01*
X115500000Y-144862172D01*
X115499999Y-144862155D01*
X115493598Y-144802627D01*
X115493596Y-144802620D01*
X115443354Y-144667913D01*
X115443350Y-144667906D01*
X115357190Y-144552812D01*
X115357187Y-144552809D01*
X115242093Y-144466649D01*
X115242086Y-144466645D01*
X115107379Y-144416403D01*
X115107372Y-144416401D01*
X115047844Y-144410000D01*
X114500000Y-144410000D01*
X114500000Y-147200000D01*
X114000000Y-147200000D01*
X114000000Y-144410000D01*
X113452155Y-144410000D01*
X113392627Y-144416401D01*
X113392620Y-144416403D01*
X113257913Y-144466645D01*
X113257906Y-144466649D01*
X113142812Y-144552809D01*
X113142809Y-144552812D01*
X113056649Y-144667906D01*
X113056645Y-144667913D01*
X113006403Y-144802620D01*
X113006401Y-144802627D01*
X113000000Y-144862155D01*
X106999999Y-144862155D01*
X106993598Y-144802627D01*
X106993596Y-144802620D01*
X106943354Y-144667913D01*
X106943350Y-144667906D01*
X106857190Y-144552812D01*
X106857187Y-144552809D01*
X106742093Y-144466649D01*
X106742086Y-144466645D01*
X106607379Y-144416403D01*
X106607372Y-144416401D01*
X106547844Y-144410000D01*
X106000000Y-144410000D01*
X106000000Y-147200000D01*
X105500000Y-147200000D01*
X105500000Y-144410000D01*
X104952155Y-144410000D01*
X104892627Y-144416401D01*
X104892620Y-144416403D01*
X104757913Y-144466645D01*
X104757906Y-144466649D01*
X104642812Y-144552809D01*
X104642809Y-144552812D01*
X104556649Y-144667906D01*
X104556645Y-144667913D01*
X104506403Y-144802620D01*
X104506401Y-144802627D01*
X104500000Y-144862155D01*
X100000000Y-144862155D01*
X100000000Y-142979997D01*
X110695034Y-142979997D01*
X110695034Y-142980002D01*
X110714858Y-143206599D01*
X110714860Y-143206610D01*
X110773730Y-143426317D01*
X110773735Y-143426331D01*
X110869863Y-143632478D01*
X110920974Y-143705472D01*
X111600000Y-143026446D01*
X111600000Y-143032661D01*
X111627259Y-143134394D01*
X111679920Y-143225606D01*
X111754394Y-143300080D01*
X111845606Y-143352741D01*
X111947339Y-143380000D01*
X111953553Y-143380000D01*
X111274526Y-144059025D01*
X111347513Y-144110132D01*
X111347521Y-144110136D01*
X111553668Y-144206264D01*
X111553682Y-144206269D01*
X111773389Y-144265139D01*
X111773400Y-144265141D01*
X111999998Y-144284966D01*
X112000002Y-144284966D01*
X112226599Y-144265141D01*
X112226610Y-144265139D01*
X112446317Y-144206269D01*
X112446331Y-144206264D01*
X112652478Y-144110136D01*
X112725471Y-144059024D01*
X112046447Y-143380000D01*
X112052661Y-143380000D01*
X112154394Y-143352741D01*
X112245606Y-143300080D01*
X112320080Y-143225606D01*
X112372741Y-143134394D01*
X112400000Y-143032661D01*
X112400000Y-143026447D01*
X113079024Y-143705471D01*
X113130136Y-143632478D01*
X113226264Y-143426331D01*
X113226269Y-143426317D01*
X113285139Y-143206610D01*
X113285141Y-143206599D01*
X113304966Y-142980002D01*
X113304966Y-142979998D01*
X115694532Y-142979998D01*
X115694532Y-142980001D01*
X115714364Y-143206686D01*
X115714366Y-143206697D01*
X115773258Y-143426488D01*
X115773261Y-143426497D01*
X115869431Y-143632732D01*
X115869432Y-143632734D01*
X115999954Y-143819141D01*
X116160858Y-143980045D01*
X116160861Y-143980047D01*
X116347266Y-144110568D01*
X116553504Y-144206739D01*
X116773308Y-144265635D01*
X116935230Y-144279801D01*
X116999998Y-144285468D01*
X117000000Y-144285468D01*
X117000002Y-144285468D01*
X117056673Y-144280509D01*
X117226692Y-144265635D01*
X117446496Y-144206739D01*
X117652734Y-144110568D01*
X117839139Y-143980047D01*
X118000047Y-143819139D01*
X118130568Y-143632734D01*
X118226739Y-143426496D01*
X118285635Y-143206692D01*
X118305468Y-142980000D01*
X118285635Y-142753308D01*
X118226739Y-142533504D01*
X118130568Y-142327266D01*
X118000047Y-142140861D01*
X118000045Y-142140858D01*
X117839141Y-141979954D01*
X117652734Y-141849432D01*
X117652732Y-141849431D01*
X117446497Y-141753261D01*
X117446488Y-141753258D01*
X117226697Y-141694366D01*
X117226693Y-141694365D01*
X117226692Y-141694365D01*
X117226691Y-141694364D01*
X117226686Y-141694364D01*
X117000002Y-141674532D01*
X116999998Y-141674532D01*
X116773313Y-141694364D01*
X116773302Y-141694366D01*
X116553511Y-141753258D01*
X116553502Y-141753261D01*
X116347267Y-141849431D01*
X116347265Y-141849432D01*
X116160858Y-141979954D01*
X115999954Y-142140858D01*
X115869432Y-142327265D01*
X115869431Y-142327267D01*
X115773261Y-142533502D01*
X115773258Y-142533511D01*
X115714366Y-142753302D01*
X115714364Y-142753313D01*
X115694532Y-142979998D01*
X113304966Y-142979998D01*
X113304966Y-142979997D01*
X113285141Y-142753400D01*
X113285139Y-142753389D01*
X113226269Y-142533682D01*
X113226264Y-142533668D01*
X113130136Y-142327521D01*
X113130132Y-142327513D01*
X113079025Y-142254526D01*
X112400000Y-142933551D01*
X112400000Y-142927339D01*
X112372741Y-142825606D01*
X112320080Y-142734394D01*
X112245606Y-142659920D01*
X112154394Y-142607259D01*
X112052661Y-142580000D01*
X112046445Y-142580000D01*
X112725472Y-141900974D01*
X112652478Y-141849863D01*
X112446331Y-141753735D01*
X112446317Y-141753730D01*
X112226610Y-141694860D01*
X112226599Y-141694858D01*
X112000002Y-141675034D01*
X111999998Y-141675034D01*
X111773400Y-141694858D01*
X111773389Y-141694860D01*
X111553682Y-141753730D01*
X111553673Y-141753734D01*
X111347516Y-141849866D01*
X111347512Y-141849868D01*
X111274526Y-141900973D01*
X111274526Y-141900974D01*
X111953553Y-142580000D01*
X111947339Y-142580000D01*
X111845606Y-142607259D01*
X111754394Y-142659920D01*
X111679920Y-142734394D01*
X111627259Y-142825606D01*
X111600000Y-142927339D01*
X111600000Y-142933552D01*
X110920974Y-142254526D01*
X110920973Y-142254526D01*
X110869868Y-142327512D01*
X110869866Y-142327516D01*
X110773734Y-142533673D01*
X110773730Y-142533682D01*
X110714860Y-142753389D01*
X110714858Y-142753400D01*
X110695034Y-142979997D01*
X100000000Y-142979997D01*
X100000000Y-139999997D01*
X110695034Y-139999997D01*
X110695034Y-140000002D01*
X110714858Y-140226599D01*
X110714860Y-140226610D01*
X110773730Y-140446317D01*
X110773735Y-140446331D01*
X110869863Y-140652478D01*
X110920974Y-140725472D01*
X111600000Y-140046446D01*
X111600000Y-140052661D01*
X111627259Y-140154394D01*
X111679920Y-140245606D01*
X111754394Y-140320080D01*
X111845606Y-140372741D01*
X111947339Y-140400000D01*
X111953553Y-140400000D01*
X111274526Y-141079025D01*
X111347513Y-141130132D01*
X111347521Y-141130136D01*
X111553668Y-141226264D01*
X111553682Y-141226269D01*
X111773389Y-141285139D01*
X111773400Y-141285141D01*
X111999998Y-141304966D01*
X112000002Y-141304966D01*
X112226599Y-141285141D01*
X112226610Y-141285139D01*
X112446317Y-141226269D01*
X112446331Y-141226264D01*
X112652478Y-141130136D01*
X112725471Y-141079024D01*
X112046447Y-140400000D01*
X112052661Y-140400000D01*
X112154394Y-140372741D01*
X112245606Y-140320080D01*
X112320080Y-140245606D01*
X112372741Y-140154394D01*
X112400000Y-140052661D01*
X112400000Y-140046447D01*
X113079024Y-140725471D01*
X113130136Y-140652478D01*
X113226264Y-140446331D01*
X113226269Y-140446317D01*
X113285139Y-140226610D01*
X113285141Y-140226599D01*
X113304966Y-140000002D01*
X113304966Y-139999997D01*
X113285141Y-139773400D01*
X113285139Y-139773389D01*
X113226269Y-139553682D01*
X113226264Y-139553668D01*
X113130136Y-139347521D01*
X113130132Y-139347513D01*
X113079025Y-139274526D01*
X112400000Y-139953551D01*
X112400000Y-139947339D01*
X112372741Y-139845606D01*
X112320080Y-139754394D01*
X112245606Y-139679920D01*
X112154394Y-139627259D01*
X112052661Y-139600000D01*
X112046445Y-139600000D01*
X112725472Y-138920974D01*
X112652478Y-138869863D01*
X112446331Y-138773735D01*
X112446317Y-138773730D01*
X112226610Y-138714860D01*
X112226599Y-138714858D01*
X112000002Y-138695034D01*
X111999998Y-138695034D01*
X111773400Y-138714858D01*
X111773389Y-138714860D01*
X111553682Y-138773730D01*
X111553673Y-138773734D01*
X111347516Y-138869866D01*
X111347512Y-138869868D01*
X111274526Y-138920973D01*
X111274526Y-138920974D01*
X111953553Y-139600000D01*
X111947339Y-139600000D01*
X111845606Y-139627259D01*
X111754394Y-139679920D01*
X111679920Y-139754394D01*
X111627259Y-139845606D01*
X111600000Y-139947339D01*
X111600000Y-139953552D01*
X110920974Y-139274526D01*
X110920973Y-139274526D01*
X110869868Y-139347512D01*
X110869866Y-139347516D01*
X110773734Y-139553673D01*
X110773730Y-139553682D01*
X110714860Y-139773389D01*
X110714858Y-139773400D01*
X110695034Y-139999997D01*
X100000000Y-139999997D01*
X100000000Y-134878711D01*
X108149500Y-134878711D01*
X108149500Y-135121288D01*
X108181161Y-135361785D01*
X108243947Y-135596104D01*
X108303229Y-135739223D01*
X108336776Y-135820212D01*
X108458064Y-136030289D01*
X108458066Y-136030292D01*
X108458067Y-136030293D01*
X108605733Y-136222736D01*
X108605739Y-136222743D01*
X108777256Y-136394260D01*
X108777263Y-136394266D01*
X108818144Y-136425635D01*
X108969711Y-136541936D01*
X109179788Y-136663224D01*
X109403900Y-136756054D01*
X109638211Y-136818838D01*
X109818586Y-136842584D01*
X109878711Y-136850500D01*
X109878712Y-136850500D01*
X110121289Y-136850500D01*
X110169388Y-136844167D01*
X110361789Y-136818838D01*
X110596100Y-136756054D01*
X110820212Y-136663224D01*
X111030289Y-136541936D01*
X111222738Y-136394265D01*
X111394265Y-136222738D01*
X111541936Y-136030289D01*
X111663224Y-135820212D01*
X111756054Y-135596100D01*
X111818838Y-135361789D01*
X111850500Y-135121288D01*
X111850500Y-134878712D01*
X111818838Y-134638211D01*
X111756054Y-134403900D01*
X111663224Y-134179788D01*
X111541936Y-133969711D01*
X111394265Y-133777262D01*
X111394260Y-133777256D01*
X111222743Y-133605739D01*
X111222736Y-133605733D01*
X111030293Y-133458067D01*
X111030292Y-133458066D01*
X111030289Y-133458064D01*
X110820212Y-133336776D01*
X110820205Y-133336773D01*
X110596104Y-133243947D01*
X110361785Y-133181161D01*
X110121289Y-133149500D01*
X110121288Y-133149500D01*
X109878712Y-133149500D01*
X109878711Y-133149500D01*
X109638214Y-133181161D01*
X109403895Y-133243947D01*
X109179794Y-133336773D01*
X109179785Y-133336777D01*
X108969706Y-133458067D01*
X108777263Y-133605733D01*
X108777256Y-133605739D01*
X108605739Y-133777256D01*
X108605733Y-133777263D01*
X108458067Y-133969706D01*
X108336777Y-134179785D01*
X108336773Y-134179794D01*
X108243947Y-134403895D01*
X108181161Y-134638214D01*
X108149500Y-134878711D01*
X100000000Y-134878711D01*
X100000000Y-129439998D01*
X115954532Y-129439998D01*
X115954532Y-129440001D01*
X115974364Y-129666686D01*
X115974366Y-129666697D01*
X116033258Y-129886488D01*
X116033261Y-129886497D01*
X116129431Y-130092732D01*
X116129432Y-130092734D01*
X116259954Y-130279141D01*
X116420858Y-130440045D01*
X116420861Y-130440047D01*
X116607266Y-130570568D01*
X116813504Y-130666739D01*
X117033308Y-130725635D01*
X117195230Y-130739801D01*
X117259998Y-130745468D01*
X117260000Y-130745468D01*
X117260002Y-130745468D01*
X117316673Y-130740509D01*
X117486692Y-130725635D01*
X117706496Y-130666739D01*
X117912734Y-130570568D01*
X118099139Y-130440047D01*
X118260047Y-130279139D01*
X118390568Y-130092734D01*
X118486739Y-129886496D01*
X118545635Y-129666692D01*
X118565468Y-129440000D01*
X118563803Y-129420974D01*
X118557879Y-129353258D01*
X118545635Y-129213308D01*
X118486739Y-128993504D01*
X118390568Y-128787266D01*
X118260047Y-128600861D01*
X118260045Y-128600858D01*
X118099141Y-128439954D01*
X117912734Y-128309432D01*
X117912732Y-128309431D01*
X117706497Y-128213261D01*
X117706488Y-128213258D01*
X117486697Y-128154366D01*
X117486693Y-128154365D01*
X117486692Y-128154365D01*
X117486691Y-128154364D01*
X117486686Y-128154364D01*
X117260002Y-128134532D01*
X117259998Y-128134532D01*
X117033313Y-128154364D01*
X117033302Y-128154366D01*
X116813511Y-128213258D01*
X116813502Y-128213261D01*
X116607267Y-128309431D01*
X116607265Y-128309432D01*
X116420858Y-128439954D01*
X116259954Y-128600858D01*
X116129432Y-128787265D01*
X116129431Y-128787267D01*
X116033261Y-128993502D01*
X116033258Y-128993511D01*
X115974366Y-129213302D01*
X115974364Y-129213313D01*
X115954532Y-129439998D01*
X100000000Y-129439998D01*
X100000000Y-64878711D01*
X108149500Y-64878711D01*
X108149500Y-65121288D01*
X108181161Y-65361785D01*
X108243947Y-65596104D01*
X108336773Y-65820205D01*
X108336776Y-65820212D01*
X108458064Y-66030289D01*
X108458066Y-66030292D01*
X108458067Y-66030293D01*
X108605733Y-66222736D01*
X108605739Y-66222743D01*
X108777256Y-66394260D01*
X108777262Y-66394265D01*
X108969711Y-66541936D01*
X109179788Y-66663224D01*
X109403900Y-66756054D01*
X109638211Y-66818838D01*
X109818586Y-66842584D01*
X109878711Y-66850500D01*
X109878712Y-66850500D01*
X110121289Y-66850500D01*
X110169388Y-66844167D01*
X110361789Y-66818838D01*
X110596100Y-66756054D01*
X110820212Y-66663224D01*
X111030289Y-66541936D01*
X111222738Y-66394265D01*
X111394265Y-66222738D01*
X111541936Y-66030289D01*
X111663224Y-65820212D01*
X111756054Y-65596100D01*
X111818838Y-65361789D01*
X111850500Y-65121288D01*
X111850500Y-64878712D01*
X111818838Y-64638211D01*
X111756054Y-64403900D01*
X111663224Y-64179788D01*
X111541936Y-63969711D01*
X111394265Y-63777262D01*
X111394260Y-63777256D01*
X111222743Y-63605739D01*
X111222736Y-63605733D01*
X111030293Y-63458067D01*
X111030292Y-63458066D01*
X111030289Y-63458064D01*
X110820212Y-63336776D01*
X110820205Y-63336773D01*
X110596104Y-63243947D01*
X110361785Y-63181161D01*
X110121289Y-63149500D01*
X110121288Y-63149500D01*
X109878712Y-63149500D01*
X109878711Y-63149500D01*
X109638214Y-63181161D01*
X109403895Y-63243947D01*
X109179794Y-63336773D01*
X109179785Y-63336777D01*
X108969706Y-63458067D01*
X108777263Y-63605733D01*
X108777256Y-63605739D01*
X108605739Y-63777256D01*
X108605733Y-63777263D01*
X108458067Y-63969706D01*
X108336777Y-64179785D01*
X108336773Y-64179794D01*
X108243947Y-64403895D01*
X108181161Y-64638214D01*
X108149500Y-64878711D01*
X100000000Y-64878711D01*
X100000000Y-55049977D01*
X106484500Y-55049977D01*
X106484500Y-55950022D01*
X106523523Y-56146203D01*
X106523526Y-56146215D01*
X106600071Y-56331013D01*
X106600078Y-56331026D01*
X106711208Y-56497343D01*
X106711211Y-56497347D01*
X106852652Y-56638788D01*
X106852656Y-56638791D01*
X107018973Y-56749921D01*
X107018986Y-56749928D01*
X107202625Y-56825993D01*
X107203789Y-56826475D01*
X107347190Y-56854999D01*
X107399977Y-56865499D01*
X107399981Y-56865500D01*
X107399982Y-56865500D01*
X107600019Y-56865500D01*
X107600020Y-56865499D01*
X107796211Y-56826475D01*
X107981020Y-56749925D01*
X108147344Y-56638791D01*
X108162318Y-56623816D01*
X108223639Y-56590331D01*
X108293331Y-56595314D01*
X108337681Y-56623816D01*
X108352264Y-56638399D01*
X108352657Y-56638792D01*
X108518973Y-56749921D01*
X108518986Y-56749928D01*
X108702625Y-56825993D01*
X108703789Y-56826475D01*
X108847190Y-56854999D01*
X108899977Y-56865499D01*
X108899981Y-56865500D01*
X108899982Y-56865500D01*
X109100019Y-56865500D01*
X109100020Y-56865499D01*
X109296211Y-56826475D01*
X109481020Y-56749925D01*
X109647344Y-56638791D01*
X109662671Y-56623463D01*
X109723989Y-56589978D01*
X109793681Y-56594959D01*
X109838034Y-56623462D01*
X109852971Y-56638399D01*
X109852975Y-56638402D01*
X110019210Y-56749477D01*
X110019219Y-56749482D01*
X110203934Y-56825993D01*
X110203942Y-56825995D01*
X110394691Y-56863938D01*
X110456602Y-56896323D01*
X110491176Y-56957038D01*
X110494500Y-56985555D01*
X110494500Y-60876000D01*
X110494501Y-60876009D01*
X110506052Y-60983450D01*
X110506054Y-60983462D01*
X110517260Y-61034972D01*
X110551383Y-61137497D01*
X110551386Y-61137503D01*
X110629171Y-61258537D01*
X110629179Y-61258548D01*
X110674923Y-61311340D01*
X110674926Y-61311343D01*
X110674930Y-61311347D01*
X110783664Y-61405567D01*
X110783667Y-61405568D01*
X110783668Y-61405569D01*
X110877925Y-61448616D01*
X110914541Y-61465338D01*
X110981580Y-61485023D01*
X110981584Y-61485024D01*
X111124000Y-61505500D01*
X111124003Y-61505500D01*
X136875990Y-61505500D01*
X136876000Y-61505500D01*
X136983456Y-61493947D01*
X137034967Y-61482741D01*
X137069197Y-61471347D01*
X137137497Y-61448616D01*
X137137501Y-61448613D01*
X137137504Y-61448613D01*
X137258543Y-61370825D01*
X137311347Y-61325070D01*
X137405567Y-61216336D01*
X137450868Y-61117143D01*
X137459687Y-61097833D01*
X137505442Y-61045029D01*
X137572482Y-61025345D01*
X137573780Y-61025351D01*
X146018658Y-61117144D01*
X146018678Y-61117141D01*
X146020037Y-61117083D01*
X146020359Y-61117162D01*
X146022063Y-61117181D01*
X146022058Y-61117581D01*
X146087879Y-61133796D01*
X146135916Y-61184533D01*
X146149500Y-61240963D01*
X146149500Y-83987769D01*
X146129815Y-84054808D01*
X146113181Y-84075450D01*
X113917050Y-116271580D01*
X113917044Y-116271588D01*
X113867812Y-116345268D01*
X113867813Y-116345269D01*
X113834921Y-116394496D01*
X113834914Y-116394508D01*
X113778342Y-116531086D01*
X113778340Y-116531092D01*
X113749500Y-116676079D01*
X113749500Y-116676082D01*
X113749500Y-120323918D01*
X113749500Y-120323920D01*
X113749499Y-120323920D01*
X113778340Y-120468907D01*
X113778343Y-120468917D01*
X113834912Y-120605488D01*
X113834919Y-120605501D01*
X113917048Y-120728415D01*
X113917051Y-120728419D01*
X114021580Y-120832948D01*
X114021584Y-120832951D01*
X114144498Y-120915080D01*
X114144511Y-120915087D01*
X114281082Y-120971656D01*
X114281087Y-120971658D01*
X114281091Y-120971658D01*
X114281092Y-120971659D01*
X114426079Y-121000500D01*
X114426082Y-121000500D01*
X114573918Y-121000500D01*
X116867770Y-121000500D01*
X116934809Y-121020185D01*
X116955451Y-121036819D01*
X117296451Y-121377819D01*
X117329936Y-121439142D01*
X117324952Y-121508834D01*
X117283080Y-121564767D01*
X117217616Y-121589184D01*
X117208770Y-121589500D01*
X116422129Y-121589500D01*
X116422123Y-121589501D01*
X116362516Y-121595908D01*
X116227671Y-121646202D01*
X116227664Y-121646206D01*
X116112455Y-121732452D01*
X116112452Y-121732455D01*
X116026206Y-121847664D01*
X116026202Y-121847671D01*
X115975908Y-121982517D01*
X115969501Y-122042116D01*
X115969500Y-122042135D01*
X115969500Y-123837870D01*
X115969501Y-123837876D01*
X115975908Y-123897483D01*
X116026202Y-124032328D01*
X116026206Y-124032335D01*
X116112452Y-124147544D01*
X116112455Y-124147547D01*
X116227664Y-124233793D01*
X116227671Y-124233797D01*
X116359081Y-124282810D01*
X116415015Y-124324681D01*
X116439432Y-124390145D01*
X116424580Y-124458418D01*
X116403430Y-124486673D01*
X116281503Y-124608600D01*
X116145965Y-124802169D01*
X116145964Y-124802171D01*
X116046098Y-125016335D01*
X116046094Y-125016344D01*
X115984938Y-125244586D01*
X115984936Y-125244596D01*
X115964341Y-125479999D01*
X115964341Y-125480000D01*
X115984936Y-125715403D01*
X115984938Y-125715413D01*
X116046094Y-125943655D01*
X116046096Y-125943659D01*
X116046097Y-125943663D01*
X116099334Y-126057830D01*
X116145965Y-126157830D01*
X116145967Y-126157834D01*
X116254281Y-126312521D01*
X116281505Y-126351401D01*
X116448599Y-126518495D01*
X116545384Y-126586265D01*
X116642165Y-126654032D01*
X116642167Y-126654033D01*
X116642170Y-126654035D01*
X116856337Y-126753903D01*
X117084592Y-126815063D01*
X117272918Y-126831539D01*
X117319999Y-126835659D01*
X117320000Y-126835659D01*
X117320001Y-126835659D01*
X117359234Y-126832226D01*
X117555408Y-126815063D01*
X117783663Y-126753903D01*
X117997830Y-126654035D01*
X118191401Y-126518495D01*
X118358495Y-126351401D01*
X118494035Y-126157830D01*
X118593903Y-125943663D01*
X118655063Y-125715408D01*
X118675659Y-125480000D01*
X118672691Y-125446082D01*
X118655063Y-125244596D01*
X118655063Y-125244592D01*
X118593903Y-125016337D01*
X118494035Y-124802171D01*
X118358495Y-124608599D01*
X118236567Y-124486671D01*
X118203084Y-124425351D01*
X118208068Y-124355659D01*
X118249939Y-124299725D01*
X118280915Y-124282810D01*
X118412331Y-124233796D01*
X118527546Y-124147546D01*
X118613796Y-124032331D01*
X118664091Y-123897483D01*
X118670500Y-123837873D01*
X118670499Y-123051228D01*
X118690183Y-122984190D01*
X118742987Y-122938435D01*
X118812146Y-122928491D01*
X118875702Y-122957516D01*
X118882180Y-122963548D01*
X121713181Y-125794548D01*
X121746666Y-125855871D01*
X121749500Y-125882229D01*
X121749500Y-137216855D01*
X121729815Y-137283894D01*
X121677011Y-137329649D01*
X121672960Y-137331413D01*
X121664508Y-137334914D01*
X121664498Y-137334919D01*
X121541587Y-137417046D01*
X121541579Y-137417053D01*
X121539678Y-137418954D01*
X121538439Y-137419630D01*
X121536880Y-137420910D01*
X121536637Y-137420614D01*
X121478352Y-137452434D01*
X121408661Y-137447444D01*
X121352731Y-137405568D01*
X121334075Y-137369588D01*
X121305220Y-137280781D01*
X121212287Y-137098390D01*
X121204556Y-137087749D01*
X121091971Y-136932786D01*
X120947213Y-136788028D01*
X120781614Y-136667715D01*
X120772796Y-136663222D01*
X120688917Y-136620483D01*
X120638123Y-136572511D01*
X120621328Y-136504690D01*
X120643865Y-136438555D01*
X120688917Y-136399516D01*
X120781610Y-136352287D01*
X120802770Y-136336913D01*
X120947213Y-136231971D01*
X120947215Y-136231968D01*
X120947219Y-136231966D01*
X121091966Y-136087219D01*
X121091968Y-136087215D01*
X121091971Y-136087213D01*
X121155368Y-135999953D01*
X121212287Y-135921610D01*
X121305220Y-135739219D01*
X121368477Y-135544534D01*
X121400500Y-135342352D01*
X121400500Y-135137648D01*
X121377303Y-134991189D01*
X121368477Y-134935465D01*
X121305218Y-134740776D01*
X121252958Y-134638211D01*
X121212287Y-134558390D01*
X121169899Y-134500047D01*
X121091971Y-134392786D01*
X120947219Y-134248034D01*
X120910930Y-134221669D01*
X120868264Y-134166339D01*
X120862285Y-134096726D01*
X120894890Y-134034931D01*
X120955728Y-134000573D01*
X120970562Y-133998060D01*
X121007483Y-133994091D01*
X121072849Y-133969711D01*
X121142331Y-133943796D01*
X121257546Y-133857546D01*
X121343796Y-133742331D01*
X121394091Y-133607483D01*
X121400500Y-133547873D01*
X121400499Y-131852128D01*
X121394091Y-131792517D01*
X121391524Y-131785635D01*
X121343797Y-131657671D01*
X121343793Y-131657664D01*
X121257547Y-131542455D01*
X121257544Y-131542452D01*
X121142335Y-131456206D01*
X121142328Y-131456202D01*
X121007482Y-131405908D01*
X121007483Y-131405908D01*
X120947883Y-131399501D01*
X120947881Y-131399500D01*
X120947873Y-131399500D01*
X120947864Y-131399500D01*
X118452129Y-131399500D01*
X118452123Y-131399501D01*
X118392516Y-131405908D01*
X118257671Y-131456202D01*
X118257664Y-131456206D01*
X118142455Y-131542452D01*
X118142452Y-131542455D01*
X118056206Y-131657664D01*
X118056202Y-131657671D01*
X118005908Y-131792517D01*
X117999501Y-131852116D01*
X117999501Y-131852123D01*
X117999500Y-131852135D01*
X117999500Y-133547870D01*
X117999501Y-133547876D01*
X118005908Y-133607483D01*
X118056202Y-133742328D01*
X118056206Y-133742335D01*
X118142452Y-133857544D01*
X118142455Y-133857547D01*
X118257664Y-133943793D01*
X118257671Y-133943797D01*
X118302618Y-133960561D01*
X118392517Y-133994091D01*
X118429441Y-133998060D01*
X118493989Y-134024796D01*
X118533838Y-134082188D01*
X118536333Y-134152013D01*
X118500681Y-134212102D01*
X118489071Y-134221666D01*
X118452784Y-134248030D01*
X118308028Y-134392786D01*
X118187715Y-134558386D01*
X118094781Y-134740776D01*
X118031522Y-134935465D01*
X117999500Y-135137648D01*
X117999500Y-135342351D01*
X118031522Y-135544534D01*
X118094781Y-135739223D01*
X118187715Y-135921613D01*
X118308028Y-136087213D01*
X118452786Y-136231971D01*
X118600293Y-136339139D01*
X118618390Y-136352287D01*
X118700778Y-136394266D01*
X118711080Y-136399515D01*
X118761876Y-136447490D01*
X118778671Y-136515311D01*
X118756134Y-136581446D01*
X118711080Y-136620485D01*
X118618386Y-136667715D01*
X118452786Y-136788028D01*
X118308028Y-136932786D01*
X118187715Y-137098386D01*
X118094781Y-137280776D01*
X118031522Y-137475465D01*
X117999500Y-137677648D01*
X117999500Y-137882351D01*
X118031522Y-138084534D01*
X118094781Y-138279223D01*
X118187715Y-138461613D01*
X118308028Y-138627213D01*
X118452786Y-138771971D01*
X118607749Y-138884556D01*
X118618390Y-138892287D01*
X118709840Y-138938883D01*
X118711080Y-138939515D01*
X118761876Y-138987490D01*
X118778671Y-139055311D01*
X118756134Y-139121446D01*
X118711080Y-139160485D01*
X118618386Y-139207715D01*
X118452788Y-139328027D01*
X118352142Y-139428673D01*
X118290819Y-139462157D01*
X118221127Y-139457173D01*
X118165194Y-139415301D01*
X118152079Y-139393397D01*
X118130568Y-139347266D01*
X118000047Y-139160861D01*
X118000045Y-139160858D01*
X117839141Y-138999954D01*
X117652734Y-138869432D01*
X117652732Y-138869431D01*
X117446497Y-138773261D01*
X117446488Y-138773258D01*
X117226697Y-138714366D01*
X117226693Y-138714365D01*
X117226692Y-138714365D01*
X117226691Y-138714364D01*
X117226686Y-138714364D01*
X117000002Y-138694532D01*
X116999998Y-138694532D01*
X116773313Y-138714364D01*
X116773302Y-138714366D01*
X116553511Y-138773258D01*
X116553502Y-138773261D01*
X116347267Y-138869431D01*
X116347265Y-138869432D01*
X116160858Y-138999954D01*
X115999954Y-139160858D01*
X115869432Y-139347265D01*
X115869431Y-139347267D01*
X115773261Y-139553502D01*
X115773258Y-139553511D01*
X115714366Y-139773302D01*
X115714364Y-139773313D01*
X115694532Y-139999998D01*
X115694532Y-140000001D01*
X115714364Y-140226686D01*
X115714366Y-140226697D01*
X115773258Y-140446488D01*
X115773261Y-140446497D01*
X115869431Y-140652732D01*
X115869432Y-140652734D01*
X115999954Y-140839141D01*
X116160858Y-141000045D01*
X116163099Y-141001614D01*
X116347266Y-141130568D01*
X116553504Y-141226739D01*
X116773308Y-141285635D01*
X116935230Y-141299801D01*
X116999998Y-141305468D01*
X117000000Y-141305468D01*
X117000002Y-141305468D01*
X117056673Y-141300509D01*
X117226692Y-141285635D01*
X117446496Y-141226739D01*
X117652734Y-141130568D01*
X117839139Y-141000047D01*
X117948846Y-140890339D01*
X118010167Y-140856856D01*
X118079859Y-140861840D01*
X118135793Y-140903711D01*
X118147011Y-140921727D01*
X118187715Y-141001614D01*
X118308028Y-141167213D01*
X118452786Y-141311971D01*
X118607749Y-141424556D01*
X118618390Y-141432287D01*
X118734607Y-141491503D01*
X118800776Y-141525218D01*
X118800778Y-141525218D01*
X118800781Y-141525220D01*
X118905137Y-141559127D01*
X118995465Y-141588477D01*
X119096557Y-141604488D01*
X119197648Y-141620500D01*
X119197649Y-141620500D01*
X120202351Y-141620500D01*
X120202352Y-141620500D01*
X120404534Y-141588477D01*
X120599219Y-141525220D01*
X120781610Y-141432287D01*
X120874590Y-141364732D01*
X120947213Y-141311971D01*
X120947215Y-141311968D01*
X120947219Y-141311966D01*
X121091966Y-141167219D01*
X121091968Y-141167215D01*
X121091971Y-141167213D01*
X121156043Y-141079024D01*
X121212287Y-141001610D01*
X121305220Y-140819219D01*
X121368477Y-140624534D01*
X121400500Y-140422352D01*
X121400500Y-140217648D01*
X121387476Y-140135417D01*
X121368477Y-140015465D01*
X121325977Y-139884664D01*
X121317754Y-139859359D01*
X121315760Y-139789519D01*
X121348003Y-139733363D01*
X122294548Y-138786819D01*
X122355871Y-138753334D01*
X122382229Y-138750500D01*
X122573920Y-138750500D01*
X122671462Y-138731096D01*
X122718913Y-138721658D01*
X122855495Y-138665084D01*
X122978416Y-138582951D01*
X123082951Y-138478416D01*
X123165084Y-138355495D01*
X123221658Y-138218913D01*
X123235831Y-138147664D01*
X123250500Y-138073920D01*
X123250500Y-125446079D01*
X123221659Y-125301092D01*
X123221658Y-125301091D01*
X123221658Y-125301087D01*
X123198255Y-125244586D01*
X123165087Y-125164511D01*
X123165080Y-125164498D01*
X123082952Y-125041585D01*
X123057702Y-125016335D01*
X122978416Y-124937049D01*
X121692641Y-123651274D01*
X117708421Y-119667052D01*
X117708420Y-119667051D01*
X117590161Y-119588034D01*
X117590158Y-119588032D01*
X117585495Y-119584916D01*
X117448913Y-119528342D01*
X117448907Y-119528340D01*
X117303920Y-119499500D01*
X117303918Y-119499500D01*
X115374500Y-119499500D01*
X115307461Y-119479815D01*
X115261706Y-119427011D01*
X115250500Y-119375500D01*
X115250500Y-118239998D01*
X118594838Y-118239998D01*
X118594838Y-118240001D01*
X118613450Y-118452741D01*
X118613452Y-118452752D01*
X118668721Y-118659022D01*
X118668723Y-118659026D01*
X118668724Y-118659030D01*
X118697906Y-118721610D01*
X118758977Y-118852578D01*
X118881472Y-119027521D01*
X119032478Y-119178527D01*
X119032481Y-119178529D01*
X119207419Y-119301021D01*
X119207421Y-119301022D01*
X119207420Y-119301022D01*
X119271936Y-119331106D01*
X119400970Y-119391276D01*
X119607253Y-119446549D01*
X119759215Y-119459844D01*
X119819998Y-119465162D01*
X119820000Y-119465162D01*
X119820002Y-119465162D01*
X119873186Y-119460508D01*
X120032747Y-119446549D01*
X120239030Y-119391276D01*
X120432581Y-119301021D01*
X120607519Y-119178529D01*
X120758529Y-119027519D01*
X120881021Y-118852581D01*
X120971276Y-118659030D01*
X120971280Y-118659013D01*
X120973130Y-118653936D01*
X120975253Y-118654709D01*
X121006576Y-118603305D01*
X121069419Y-118572766D01*
X121138796Y-118581050D01*
X121192680Y-118625528D01*
X121205827Y-118654315D01*
X121206870Y-118653936D01*
X121208722Y-118659022D01*
X121208724Y-118659030D01*
X121237906Y-118721610D01*
X121298977Y-118852578D01*
X121421472Y-119027521D01*
X121572478Y-119178527D01*
X121572481Y-119178529D01*
X121747419Y-119301021D01*
X121747421Y-119301022D01*
X121747420Y-119301022D01*
X121811936Y-119331106D01*
X121940970Y-119391276D01*
X122147253Y-119446549D01*
X122299215Y-119459844D01*
X122359998Y-119465162D01*
X122360000Y-119465162D01*
X122360002Y-119465162D01*
X122413186Y-119460508D01*
X122572747Y-119446549D01*
X122779030Y-119391276D01*
X122972581Y-119301021D01*
X123147519Y-119178529D01*
X123298529Y-119027519D01*
X123421021Y-118852581D01*
X123511276Y-118659030D01*
X123511280Y-118659013D01*
X123513130Y-118653936D01*
X123515253Y-118654709D01*
X123546576Y-118603305D01*
X123609419Y-118572766D01*
X123678796Y-118581050D01*
X123732680Y-118625528D01*
X123745827Y-118654315D01*
X123746870Y-118653936D01*
X123748722Y-118659022D01*
X123748724Y-118659030D01*
X123777906Y-118721610D01*
X123838977Y-118852578D01*
X123961472Y-119027521D01*
X124112478Y-119178527D01*
X124112481Y-119178529D01*
X124287419Y-119301021D01*
X124287421Y-119301022D01*
X124287420Y-119301022D01*
X124351936Y-119331106D01*
X124480970Y-119391276D01*
X124687253Y-119446549D01*
X124839215Y-119459844D01*
X124899998Y-119465162D01*
X124900000Y-119465162D01*
X124900002Y-119465162D01*
X124953186Y-119460508D01*
X125112747Y-119446549D01*
X125319030Y-119391276D01*
X125512581Y-119301021D01*
X125687519Y-119178529D01*
X125838529Y-119027519D01*
X125961021Y-118852581D01*
X126051276Y-118659030D01*
X126106549Y-118452747D01*
X126125162Y-118240000D01*
X126106549Y-118027253D01*
X126051276Y-117820970D01*
X125961021Y-117627419D01*
X125838529Y-117452481D01*
X125838527Y-117452478D01*
X125687521Y-117301472D01*
X125512578Y-117178977D01*
X125512579Y-117178977D01*
X125369436Y-117112229D01*
X125319030Y-117088724D01*
X125319026Y-117088723D01*
X125319022Y-117088721D01*
X125112752Y-117033452D01*
X125112748Y-117033451D01*
X125112747Y-117033451D01*
X125112746Y-117033450D01*
X125112741Y-117033450D01*
X124900002Y-117014838D01*
X124899998Y-117014838D01*
X124687258Y-117033450D01*
X124687247Y-117033452D01*
X124480977Y-117088721D01*
X124480968Y-117088725D01*
X124287421Y-117178977D01*
X124112478Y-117301472D01*
X123961472Y-117452478D01*
X123838977Y-117627421D01*
X123748725Y-117820968D01*
X123746870Y-117826064D01*
X123744749Y-117825292D01*
X123713406Y-117876710D01*
X123650558Y-117907237D01*
X123581183Y-117898939D01*
X123527307Y-117854452D01*
X123514169Y-117825685D01*
X123513130Y-117826064D01*
X123511279Y-117820983D01*
X123511276Y-117820970D01*
X123421021Y-117627419D01*
X123298529Y-117452481D01*
X123298527Y-117452478D01*
X123147521Y-117301472D01*
X122972578Y-117178977D01*
X122972579Y-117178977D01*
X122829436Y-117112229D01*
X122779030Y-117088724D01*
X122779026Y-117088723D01*
X122779022Y-117088721D01*
X122572752Y-117033452D01*
X122572748Y-117033451D01*
X122572747Y-117033451D01*
X122572746Y-117033450D01*
X122572741Y-117033450D01*
X122360002Y-117014838D01*
X122359998Y-117014838D01*
X122147258Y-117033450D01*
X122147247Y-117033452D01*
X121940977Y-117088721D01*
X121940968Y-117088725D01*
X121747421Y-117178977D01*
X121572478Y-117301472D01*
X121421472Y-117452478D01*
X121298977Y-117627421D01*
X121208725Y-117820968D01*
X121206870Y-117826064D01*
X121204749Y-117825292D01*
X121173406Y-117876710D01*
X121110558Y-117907237D01*
X121041183Y-117898939D01*
X120987307Y-117854452D01*
X120974169Y-117825685D01*
X120973130Y-117826064D01*
X120971279Y-117820983D01*
X120971276Y-117820970D01*
X120881021Y-117627419D01*
X120758529Y-117452481D01*
X120758527Y-117452478D01*
X120607521Y-117301472D01*
X120432578Y-117178977D01*
X120432579Y-117178977D01*
X120289436Y-117112229D01*
X120239030Y-117088724D01*
X120239026Y-117088723D01*
X120239022Y-117088721D01*
X120032752Y-117033452D01*
X120032748Y-117033451D01*
X120032747Y-117033451D01*
X120032746Y-117033450D01*
X120032741Y-117033450D01*
X119820002Y-117014838D01*
X119819998Y-117014838D01*
X119607258Y-117033450D01*
X119607247Y-117033452D01*
X119400977Y-117088721D01*
X119400968Y-117088725D01*
X119207421Y-117178977D01*
X119032478Y-117301472D01*
X118881472Y-117452478D01*
X118758977Y-117627421D01*
X118668725Y-117820968D01*
X118668721Y-117820977D01*
X118613452Y-118027247D01*
X118613450Y-118027258D01*
X118594838Y-118239998D01*
X115250500Y-118239998D01*
X115250500Y-117112229D01*
X115270185Y-117045190D01*
X115286819Y-117024548D01*
X147482948Y-84828419D01*
X147482951Y-84828416D01*
X147565084Y-84705495D01*
X147621658Y-84568913D01*
X147650500Y-84423918D01*
X147650500Y-84276083D01*
X147650500Y-61260237D01*
X147670185Y-61193198D01*
X147722989Y-61147443D01*
X147775847Y-61136244D01*
X153739559Y-61201066D01*
X153806378Y-61221478D01*
X153851557Y-61274777D01*
X153860748Y-61344039D01*
X153831034Y-61407275D01*
X153825890Y-61412740D01*
X152917050Y-62321580D01*
X152917044Y-62321588D01*
X152867812Y-62395268D01*
X152867813Y-62395269D01*
X152834921Y-62444496D01*
X152834914Y-62444508D01*
X152778342Y-62581086D01*
X152778340Y-62581092D01*
X152749500Y-62726079D01*
X152749500Y-100887770D01*
X152729815Y-100954809D01*
X152713181Y-100975451D01*
X128844054Y-124844577D01*
X128782731Y-124878062D01*
X128713039Y-124873078D01*
X128657106Y-124831206D01*
X128643991Y-124809301D01*
X128594035Y-124702171D01*
X128594034Y-124702169D01*
X128458496Y-124508600D01*
X128408314Y-124458418D01*
X128336567Y-124386671D01*
X128303084Y-124325351D01*
X128308068Y-124255659D01*
X128349939Y-124199725D01*
X128380915Y-124182810D01*
X128512331Y-124133796D01*
X128627546Y-124047546D01*
X128713796Y-123932331D01*
X128764091Y-123797483D01*
X128770500Y-123737873D01*
X128770499Y-121942128D01*
X128764091Y-121882517D01*
X128761737Y-121876206D01*
X128713797Y-121747671D01*
X128713793Y-121747664D01*
X128627547Y-121632455D01*
X128627544Y-121632452D01*
X128512335Y-121546206D01*
X128512328Y-121546202D01*
X128377482Y-121495908D01*
X128377483Y-121495908D01*
X128317883Y-121489501D01*
X128317881Y-121489500D01*
X128317873Y-121489500D01*
X128317864Y-121489500D01*
X126522129Y-121489500D01*
X126522123Y-121489501D01*
X126462516Y-121495908D01*
X126327671Y-121546202D01*
X126327664Y-121546206D01*
X126212455Y-121632452D01*
X126212452Y-121632455D01*
X126126206Y-121747664D01*
X126126202Y-121747671D01*
X126075908Y-121882517D01*
X126069501Y-121942116D01*
X126069501Y-121942123D01*
X126069500Y-121942135D01*
X126069500Y-123737870D01*
X126069501Y-123737876D01*
X126075908Y-123797483D01*
X126126202Y-123932328D01*
X126126206Y-123932335D01*
X126212452Y-124047544D01*
X126212455Y-124047547D01*
X126327664Y-124133793D01*
X126327671Y-124133797D01*
X126459081Y-124182810D01*
X126515015Y-124224681D01*
X126539432Y-124290145D01*
X126524580Y-124358418D01*
X126503430Y-124386673D01*
X126381503Y-124508600D01*
X126245965Y-124702169D01*
X126245964Y-124702171D01*
X126146098Y-124916335D01*
X126146094Y-124916344D01*
X126084938Y-125144586D01*
X126084936Y-125144596D01*
X126064341Y-125379999D01*
X126064341Y-125380000D01*
X126084936Y-125615403D01*
X126084938Y-125615413D01*
X126146094Y-125843655D01*
X126146096Y-125843659D01*
X126146097Y-125843663D01*
X126245965Y-126057830D01*
X126245967Y-126057834D01*
X126341685Y-126194532D01*
X126381505Y-126251401D01*
X126548599Y-126418495D01*
X126645384Y-126486265D01*
X126742165Y-126554032D01*
X126742167Y-126554033D01*
X126742170Y-126554035D01*
X126849301Y-126603991D01*
X126901740Y-126650163D01*
X126920892Y-126717357D01*
X126900676Y-126784238D01*
X126884577Y-126804054D01*
X123917050Y-129771580D01*
X123917044Y-129771588D01*
X123867812Y-129845268D01*
X123867813Y-129845269D01*
X123834921Y-129894496D01*
X123834914Y-129894508D01*
X123778342Y-130031086D01*
X123778340Y-130031092D01*
X123749500Y-130176079D01*
X123749500Y-130176082D01*
X123749500Y-132493918D01*
X123749500Y-132493920D01*
X123749499Y-132493920D01*
X123778340Y-132638907D01*
X123778343Y-132638917D01*
X123834913Y-132775490D01*
X123855794Y-132806741D01*
X123917043Y-132898410D01*
X123917047Y-132898415D01*
X125671994Y-134653362D01*
X125705479Y-134714685D01*
X125702244Y-134779361D01*
X125651523Y-134935461D01*
X125651523Y-134935464D01*
X125619500Y-135137648D01*
X125619500Y-135342351D01*
X125651522Y-135544534D01*
X125714781Y-135739223D01*
X125807715Y-135921613D01*
X125928028Y-136087213D01*
X126072786Y-136231971D01*
X126220293Y-136339139D01*
X126238390Y-136352287D01*
X126320778Y-136394266D01*
X126331080Y-136399515D01*
X126381876Y-136447490D01*
X126398671Y-136515311D01*
X126376134Y-136581446D01*
X126331080Y-136620485D01*
X126238386Y-136667715D01*
X126072786Y-136788028D01*
X125928028Y-136932786D01*
X125807715Y-137098386D01*
X125714781Y-137280776D01*
X125651522Y-137475465D01*
X125619500Y-137677648D01*
X125619500Y-137882351D01*
X125651522Y-138084534D01*
X125714781Y-138279223D01*
X125807715Y-138461613D01*
X125928028Y-138627213D01*
X126072786Y-138771971D01*
X126227749Y-138884556D01*
X126238390Y-138892287D01*
X126310424Y-138928990D01*
X126331629Y-138939795D01*
X126382425Y-138987770D01*
X126399220Y-139055591D01*
X126376682Y-139121726D01*
X126331629Y-139160765D01*
X126238650Y-139208140D01*
X126073105Y-139328417D01*
X126073104Y-139328417D01*
X125928417Y-139473104D01*
X125928417Y-139473105D01*
X125808140Y-139638650D01*
X125715244Y-139820970D01*
X125652009Y-140015586D01*
X125643391Y-140070000D01*
X127004314Y-140070000D01*
X126999920Y-140074394D01*
X126947259Y-140165606D01*
X126920000Y-140267339D01*
X126920000Y-140372661D01*
X126947259Y-140474394D01*
X126999920Y-140565606D01*
X127004314Y-140570000D01*
X125643391Y-140570000D01*
X125652009Y-140624413D01*
X125715244Y-140819029D01*
X125808140Y-141001349D01*
X125928417Y-141166894D01*
X125928417Y-141166895D01*
X126073104Y-141311582D01*
X126238650Y-141431859D01*
X126420968Y-141524755D01*
X126615582Y-141587990D01*
X126817683Y-141620000D01*
X127070000Y-141620000D01*
X127070000Y-140635686D01*
X127074394Y-140640080D01*
X127165606Y-140692741D01*
X127267339Y-140720000D01*
X127372661Y-140720000D01*
X127474394Y-140692741D01*
X127565606Y-140640080D01*
X127570000Y-140635686D01*
X127570000Y-141620000D01*
X127822317Y-141620000D01*
X128024417Y-141587990D01*
X128219031Y-141524755D01*
X128401349Y-141431859D01*
X128566894Y-141311582D01*
X128566895Y-141311582D01*
X128711582Y-141166895D01*
X128711582Y-141166894D01*
X128831859Y-141001349D01*
X128924755Y-140819029D01*
X128987990Y-140624413D01*
X128996609Y-140570000D01*
X127635686Y-140570000D01*
X127640080Y-140565606D01*
X127692741Y-140474394D01*
X127720000Y-140372661D01*
X127720000Y-140267339D01*
X127692741Y-140165606D01*
X127640080Y-140074394D01*
X127635686Y-140070000D01*
X128996609Y-140070000D01*
X128987990Y-140015586D01*
X128924755Y-139820970D01*
X128831859Y-139638650D01*
X128711582Y-139473105D01*
X128711582Y-139473104D01*
X128566895Y-139328417D01*
X128401349Y-139208140D01*
X128308370Y-139160765D01*
X128257574Y-139112790D01*
X128240779Y-139044969D01*
X128263316Y-138978835D01*
X128308370Y-138939795D01*
X128308920Y-138939515D01*
X128401610Y-138892287D01*
X128432474Y-138869863D01*
X128567213Y-138771971D01*
X128567215Y-138771968D01*
X128567219Y-138771966D01*
X128711966Y-138627219D01*
X128711968Y-138627215D01*
X128711971Y-138627213D01*
X128765047Y-138554158D01*
X128832287Y-138461610D01*
X128893163Y-138342135D01*
X132389500Y-138342135D01*
X132389500Y-140137870D01*
X132389501Y-140137876D01*
X132395908Y-140197483D01*
X132446202Y-140332328D01*
X132446206Y-140332335D01*
X132532452Y-140447544D01*
X132532455Y-140447547D01*
X132647664Y-140533793D01*
X132647671Y-140533797D01*
X132782517Y-140584091D01*
X132782516Y-140584091D01*
X132789444Y-140584835D01*
X132842127Y-140590500D01*
X134637872Y-140590499D01*
X134697483Y-140584091D01*
X134832331Y-140533796D01*
X134947546Y-140447546D01*
X135033796Y-140332331D01*
X135082810Y-140200916D01*
X135124681Y-140144984D01*
X135190145Y-140120566D01*
X135258418Y-140135417D01*
X135286673Y-140156569D01*
X135408599Y-140278495D01*
X135505384Y-140346265D01*
X135602165Y-140414032D01*
X135602167Y-140414033D01*
X135602170Y-140414035D01*
X135816337Y-140513903D01*
X136044592Y-140575063D01*
X136221034Y-140590500D01*
X136279999Y-140595659D01*
X136280000Y-140595659D01*
X136280001Y-140595659D01*
X136338966Y-140590500D01*
X136515408Y-140575063D01*
X136743663Y-140513903D01*
X136957830Y-140414035D01*
X137151401Y-140278495D01*
X137318495Y-140111401D01*
X137448425Y-139925842D01*
X137503002Y-139882217D01*
X137572500Y-139875023D01*
X137634855Y-139906546D01*
X137651575Y-139925842D01*
X137781500Y-140111395D01*
X137781505Y-140111401D01*
X137948599Y-140278495D01*
X138045384Y-140346265D01*
X138142165Y-140414032D01*
X138142167Y-140414033D01*
X138142170Y-140414035D01*
X138356337Y-140513903D01*
X138584592Y-140575063D01*
X138761034Y-140590500D01*
X138819999Y-140595659D01*
X138820000Y-140595659D01*
X138820001Y-140595659D01*
X138878966Y-140590500D01*
X139055408Y-140575063D01*
X139283663Y-140513903D01*
X139497830Y-140414035D01*
X139691401Y-140278495D01*
X139858495Y-140111401D01*
X139994035Y-139917830D01*
X140093903Y-139703663D01*
X140155063Y-139475408D01*
X140175659Y-139240000D01*
X140155063Y-139004592D01*
X140093903Y-138776337D01*
X139994035Y-138562171D01*
X139988425Y-138554158D01*
X139858494Y-138368597D01*
X139691402Y-138201506D01*
X139691395Y-138201501D01*
X139497834Y-138065967D01*
X139497830Y-138065965D01*
X139497828Y-138065964D01*
X139283663Y-137966097D01*
X139283659Y-137966096D01*
X139283655Y-137966094D01*
X139055413Y-137904938D01*
X139055403Y-137904936D01*
X138820001Y-137884341D01*
X138819999Y-137884341D01*
X138584596Y-137904936D01*
X138584586Y-137904938D01*
X138356344Y-137966094D01*
X138356335Y-137966098D01*
X138142171Y-138065964D01*
X138142169Y-138065965D01*
X137948597Y-138201505D01*
X137781505Y-138368597D01*
X137651575Y-138554158D01*
X137596998Y-138597783D01*
X137527500Y-138604977D01*
X137465145Y-138573454D01*
X137448425Y-138554158D01*
X137318494Y-138368597D01*
X137151402Y-138201506D01*
X137151395Y-138201501D01*
X136957834Y-138065967D01*
X136957830Y-138065965D01*
X136957828Y-138065964D01*
X136743663Y-137966097D01*
X136743659Y-137966096D01*
X136743655Y-137966094D01*
X136515413Y-137904938D01*
X136515403Y-137904936D01*
X136280001Y-137884341D01*
X136279999Y-137884341D01*
X136044596Y-137904936D01*
X136044586Y-137904938D01*
X135816344Y-137966094D01*
X135816335Y-137966098D01*
X135602171Y-138065964D01*
X135602169Y-138065965D01*
X135408600Y-138201503D01*
X135286673Y-138323430D01*
X135225350Y-138356914D01*
X135155658Y-138351930D01*
X135099725Y-138310058D01*
X135082810Y-138279081D01*
X135033797Y-138147671D01*
X135033793Y-138147664D01*
X134947547Y-138032455D01*
X134947544Y-138032452D01*
X134832335Y-137946206D01*
X134832328Y-137946202D01*
X134697482Y-137895908D01*
X134697483Y-137895908D01*
X134637883Y-137889501D01*
X134637881Y-137889500D01*
X134637873Y-137889500D01*
X134637864Y-137889500D01*
X132842129Y-137889500D01*
X132842123Y-137889501D01*
X132782516Y-137895908D01*
X132647671Y-137946202D01*
X132647664Y-137946206D01*
X132532455Y-138032452D01*
X132532452Y-138032455D01*
X132446206Y-138147664D01*
X132446202Y-138147671D01*
X132395908Y-138282517D01*
X132389501Y-138342116D01*
X132389500Y-138342135D01*
X128893163Y-138342135D01*
X128925220Y-138279219D01*
X128988477Y-138084534D01*
X129020500Y-137882352D01*
X129020500Y-137677648D01*
X128988477Y-137475466D01*
X128980993Y-137452434D01*
X128954074Y-137369584D01*
X128925220Y-137280781D01*
X128925218Y-137280778D01*
X128925218Y-137280776D01*
X128891503Y-137214607D01*
X128832287Y-137098390D01*
X128824556Y-137087749D01*
X128760802Y-136999998D01*
X151574532Y-136999998D01*
X151574532Y-137000001D01*
X151594364Y-137226686D01*
X151594366Y-137226697D01*
X151653258Y-137446488D01*
X151653261Y-137446497D01*
X151749431Y-137652732D01*
X151749432Y-137652734D01*
X151879954Y-137839141D01*
X152040858Y-138000045D01*
X152040861Y-138000047D01*
X152227266Y-138130568D01*
X152433504Y-138226739D01*
X152653308Y-138285635D01*
X152815230Y-138299801D01*
X152879998Y-138305468D01*
X152880000Y-138305468D01*
X152880002Y-138305468D01*
X152936673Y-138300509D01*
X153106692Y-138285635D01*
X153326496Y-138226739D01*
X153532734Y-138130568D01*
X153719139Y-138000047D01*
X153880047Y-137839139D01*
X154010568Y-137652734D01*
X154106739Y-137446496D01*
X154165635Y-137226692D01*
X154185468Y-137000000D01*
X154185468Y-136999998D01*
X161734532Y-136999998D01*
X161734532Y-137000001D01*
X161754364Y-137226686D01*
X161754366Y-137226697D01*
X161813258Y-137446488D01*
X161813261Y-137446497D01*
X161909431Y-137652732D01*
X161909432Y-137652734D01*
X162039954Y-137839141D01*
X162200858Y-138000045D01*
X162200861Y-138000047D01*
X162387266Y-138130568D01*
X162593504Y-138226739D01*
X162813308Y-138285635D01*
X162975230Y-138299801D01*
X163039998Y-138305468D01*
X163040000Y-138305468D01*
X163040002Y-138305468D01*
X163096673Y-138300509D01*
X163266692Y-138285635D01*
X163486496Y-138226739D01*
X163692734Y-138130568D01*
X163879139Y-138000047D01*
X164040047Y-137839139D01*
X164170568Y-137652734D01*
X164266739Y-137446496D01*
X164325635Y-137226692D01*
X164345468Y-137000000D01*
X164325635Y-136773308D01*
X164266739Y-136553504D01*
X164170568Y-136347266D01*
X164040047Y-136160861D01*
X164040045Y-136160858D01*
X163879141Y-135999954D01*
X163692734Y-135869432D01*
X163692732Y-135869431D01*
X163486497Y-135773261D01*
X163486488Y-135773258D01*
X163266697Y-135714366D01*
X163266693Y-135714365D01*
X163266692Y-135714365D01*
X163266691Y-135714364D01*
X163266686Y-135714364D01*
X163040002Y-135694532D01*
X163039998Y-135694532D01*
X162813313Y-135714364D01*
X162813302Y-135714366D01*
X162593511Y-135773258D01*
X162593502Y-135773261D01*
X162387267Y-135869431D01*
X162387265Y-135869432D01*
X162200858Y-135999954D01*
X162039954Y-136160858D01*
X161909432Y-136347265D01*
X161909431Y-136347267D01*
X161813261Y-136553502D01*
X161813258Y-136553511D01*
X161754366Y-136773302D01*
X161754364Y-136773313D01*
X161734532Y-136999998D01*
X154185468Y-136999998D01*
X154165635Y-136773308D01*
X154106739Y-136553504D01*
X154010568Y-136347266D01*
X153880047Y-136160861D01*
X153880045Y-136160858D01*
X153719141Y-135999954D01*
X153532734Y-135869432D01*
X153532732Y-135869431D01*
X153326497Y-135773261D01*
X153326488Y-135773258D01*
X153106697Y-135714366D01*
X153106693Y-135714365D01*
X153106692Y-135714365D01*
X153106691Y-135714364D01*
X153106686Y-135714364D01*
X152880002Y-135694532D01*
X152879998Y-135694532D01*
X152653313Y-135714364D01*
X152653302Y-135714366D01*
X152433511Y-135773258D01*
X152433502Y-135773261D01*
X152227267Y-135869431D01*
X152227265Y-135869432D01*
X152040858Y-135999954D01*
X151879954Y-136160858D01*
X151749432Y-136347265D01*
X151749431Y-136347267D01*
X151653261Y-136553502D01*
X151653258Y-136553511D01*
X151594366Y-136773302D01*
X151594364Y-136773313D01*
X151574532Y-136999998D01*
X128760802Y-136999998D01*
X128711971Y-136932786D01*
X128567213Y-136788028D01*
X128401614Y-136667715D01*
X128392796Y-136663222D01*
X128308917Y-136620483D01*
X128258123Y-136572511D01*
X128241328Y-136504690D01*
X128263865Y-136438555D01*
X128308917Y-136399516D01*
X128401610Y-136352287D01*
X128422770Y-136336913D01*
X128567213Y-136231971D01*
X128567215Y-136231968D01*
X128567219Y-136231966D01*
X128711966Y-136087219D01*
X128711968Y-136087215D01*
X128711971Y-136087213D01*
X128775368Y-135999953D01*
X128832287Y-135921610D01*
X128925220Y-135739219D01*
X128988477Y-135544534D01*
X129020500Y-135342352D01*
X129020500Y-135139998D01*
X129314532Y-135139998D01*
X129314532Y-135140001D01*
X129334364Y-135366686D01*
X129334366Y-135366697D01*
X129393258Y-135586488D01*
X129393261Y-135586497D01*
X129489431Y-135792732D01*
X129489432Y-135792734D01*
X129619954Y-135979141D01*
X129780858Y-136140045D01*
X129780861Y-136140047D01*
X129967266Y-136270568D01*
X130173504Y-136366739D01*
X130393308Y-136425635D01*
X130555230Y-136439801D01*
X130619998Y-136445468D01*
X130620000Y-136445468D01*
X130620002Y-136445468D01*
X130676673Y-136440509D01*
X130846692Y-136425635D01*
X131066496Y-136366739D01*
X131272734Y-136270568D01*
X131459139Y-136140047D01*
X131620047Y-135979139D01*
X131750568Y-135792734D01*
X131846739Y-135586496D01*
X131900225Y-135386881D01*
X131936590Y-135327221D01*
X131999437Y-135296692D01*
X132068812Y-135304987D01*
X132122690Y-135349472D01*
X132139775Y-135386882D01*
X132193258Y-135586488D01*
X132193261Y-135586497D01*
X132289431Y-135792732D01*
X132289432Y-135792734D01*
X132419954Y-135979141D01*
X132580858Y-136140045D01*
X132580861Y-136140047D01*
X132767266Y-136270568D01*
X132973504Y-136366739D01*
X133193308Y-136425635D01*
X133355230Y-136439801D01*
X133419998Y-136445468D01*
X133420000Y-136445468D01*
X133420002Y-136445468D01*
X133476673Y-136440509D01*
X133646692Y-136425635D01*
X133866496Y-136366739D01*
X134072734Y-136270568D01*
X134259139Y-136140047D01*
X134420047Y-135979139D01*
X134550568Y-135792734D01*
X134646739Y-135586496D01*
X134669916Y-135499998D01*
X167614532Y-135499998D01*
X167614532Y-135500001D01*
X167634364Y-135726686D01*
X167634366Y-135726697D01*
X167693258Y-135946488D01*
X167693261Y-135946497D01*
X167789431Y-136152732D01*
X167789432Y-136152734D01*
X167919954Y-136339141D01*
X168080858Y-136500045D01*
X168102660Y-136515311D01*
X168267266Y-136630568D01*
X168473504Y-136726739D01*
X168693308Y-136785635D01*
X168855230Y-136799801D01*
X168919998Y-136805468D01*
X168920000Y-136805468D01*
X168920002Y-136805468D01*
X168976673Y-136800509D01*
X169146692Y-136785635D01*
X169366496Y-136726739D01*
X169572734Y-136630568D01*
X169759139Y-136500047D01*
X169920047Y-136339139D01*
X170050568Y-136152734D01*
X170146739Y-135946496D01*
X170205635Y-135726692D01*
X170225468Y-135500000D01*
X170225468Y-135499998D01*
X177774532Y-135499998D01*
X177774532Y-135500001D01*
X177794364Y-135726686D01*
X177794366Y-135726697D01*
X177853258Y-135946488D01*
X177853261Y-135946497D01*
X177949431Y-136152732D01*
X177949432Y-136152734D01*
X178079954Y-136339141D01*
X178240858Y-136500045D01*
X178262660Y-136515311D01*
X178427266Y-136630568D01*
X178633504Y-136726739D01*
X178853308Y-136785635D01*
X179015230Y-136799801D01*
X179079998Y-136805468D01*
X179080000Y-136805468D01*
X179080002Y-136805468D01*
X179136673Y-136800509D01*
X179306692Y-136785635D01*
X179526496Y-136726739D01*
X179732734Y-136630568D01*
X179919139Y-136500047D01*
X180080047Y-136339139D01*
X180210568Y-136152734D01*
X180306739Y-135946496D01*
X180365635Y-135726692D01*
X180385468Y-135500000D01*
X180365635Y-135273308D01*
X180306739Y-135053504D01*
X180302116Y-135043591D01*
X180290500Y-134991189D01*
X180290500Y-134878711D01*
X188149500Y-134878711D01*
X188149500Y-135121288D01*
X188181161Y-135361785D01*
X188243947Y-135596104D01*
X188303229Y-135739223D01*
X188336776Y-135820212D01*
X188458064Y-136030289D01*
X188458066Y-136030292D01*
X188458067Y-136030293D01*
X188605733Y-136222736D01*
X188605739Y-136222743D01*
X188777256Y-136394260D01*
X188777263Y-136394266D01*
X188818144Y-136425635D01*
X188969711Y-136541936D01*
X189179788Y-136663224D01*
X189403900Y-136756054D01*
X189638211Y-136818838D01*
X189818586Y-136842584D01*
X189878711Y-136850500D01*
X189878712Y-136850500D01*
X190121289Y-136850500D01*
X190169388Y-136844167D01*
X190361789Y-136818838D01*
X190596100Y-136756054D01*
X190820212Y-136663224D01*
X191030289Y-136541936D01*
X191222738Y-136394265D01*
X191394265Y-136222738D01*
X191541936Y-136030289D01*
X191663224Y-135820212D01*
X191756054Y-135596100D01*
X191818838Y-135361789D01*
X191850500Y-135121288D01*
X191850500Y-134878712D01*
X191818838Y-134638211D01*
X191756054Y-134403900D01*
X191663224Y-134179788D01*
X191541936Y-133969711D01*
X191394265Y-133777262D01*
X191394260Y-133777256D01*
X191222743Y-133605739D01*
X191222736Y-133605733D01*
X191030293Y-133458067D01*
X191030292Y-133458066D01*
X191030289Y-133458064D01*
X190820212Y-133336776D01*
X190820205Y-133336773D01*
X190596104Y-133243947D01*
X190361785Y-133181161D01*
X190121289Y-133149500D01*
X190121288Y-133149500D01*
X189878712Y-133149500D01*
X189878711Y-133149500D01*
X189638214Y-133181161D01*
X189403895Y-133243947D01*
X189179794Y-133336773D01*
X189179785Y-133336777D01*
X188969706Y-133458067D01*
X188777263Y-133605733D01*
X188777256Y-133605739D01*
X188605739Y-133777256D01*
X188605733Y-133777263D01*
X188458067Y-133969706D01*
X188336777Y-134179785D01*
X188336773Y-134179794D01*
X188243947Y-134403895D01*
X188181161Y-134638214D01*
X188149500Y-134878711D01*
X180290500Y-134878711D01*
X180290500Y-132706662D01*
X180310185Y-132639623D01*
X180343379Y-132605086D01*
X180379140Y-132580046D01*
X180540045Y-132419141D01*
X180540047Y-132419139D01*
X180670568Y-132232734D01*
X180766739Y-132026496D01*
X180825635Y-131806692D01*
X180845468Y-131580000D01*
X180845468Y-131579998D01*
X182194532Y-131579998D01*
X182194532Y-131580001D01*
X182214364Y-131806686D01*
X182214366Y-131806697D01*
X182273258Y-132026488D01*
X182273261Y-132026497D01*
X182369431Y-132232732D01*
X182369432Y-132232734D01*
X182499954Y-132419141D01*
X182660858Y-132580045D01*
X182660861Y-132580047D01*
X182847266Y-132710568D01*
X183053504Y-132806739D01*
X183273308Y-132865635D01*
X183435230Y-132879801D01*
X183499998Y-132885468D01*
X183500000Y-132885468D01*
X183500002Y-132885468D01*
X183556673Y-132880509D01*
X183726692Y-132865635D01*
X183946496Y-132806739D01*
X184152734Y-132710568D01*
X184339139Y-132580047D01*
X184500047Y-132419139D01*
X184630568Y-132232734D01*
X184726739Y-132026496D01*
X184785635Y-131806692D01*
X184805468Y-131580000D01*
X184785635Y-131353308D01*
X184726739Y-131133504D01*
X184630568Y-130927266D01*
X184532839Y-130787693D01*
X184500045Y-130740858D01*
X184339141Y-130579954D01*
X184152734Y-130449432D01*
X184152732Y-130449431D01*
X183946497Y-130353261D01*
X183946488Y-130353258D01*
X183726697Y-130294366D01*
X183726693Y-130294365D01*
X183726692Y-130294365D01*
X183726691Y-130294364D01*
X183726686Y-130294364D01*
X183500002Y-130274532D01*
X183499998Y-130274532D01*
X183273313Y-130294364D01*
X183273302Y-130294366D01*
X183053511Y-130353258D01*
X183053502Y-130353261D01*
X182847267Y-130449431D01*
X182847265Y-130449432D01*
X182660858Y-130579954D01*
X182499954Y-130740858D01*
X182369432Y-130927265D01*
X182369431Y-130927267D01*
X182273261Y-131133502D01*
X182273258Y-131133511D01*
X182214366Y-131353302D01*
X182214364Y-131353313D01*
X182194532Y-131579998D01*
X180845468Y-131579998D01*
X180825635Y-131353308D01*
X180766739Y-131133504D01*
X180670568Y-130927266D01*
X180572839Y-130787693D01*
X180540045Y-130740858D01*
X180379141Y-130579954D01*
X180192734Y-130449432D01*
X180192732Y-130449431D01*
X179986497Y-130353261D01*
X179986488Y-130353258D01*
X179766697Y-130294366D01*
X179766693Y-130294365D01*
X179766692Y-130294365D01*
X179766691Y-130294364D01*
X179766686Y-130294364D01*
X179540002Y-130274532D01*
X179539998Y-130274532D01*
X179313313Y-130294364D01*
X179313302Y-130294366D01*
X179093511Y-130353258D01*
X179093502Y-130353261D01*
X178887267Y-130449431D01*
X178887265Y-130449432D01*
X178700858Y-130579954D01*
X178539954Y-130740858D01*
X178409432Y-130927265D01*
X178409431Y-130927267D01*
X178313261Y-131133502D01*
X178313258Y-131133511D01*
X178254366Y-131353302D01*
X178254364Y-131353313D01*
X178234532Y-131579998D01*
X178234532Y-131580001D01*
X178254364Y-131806686D01*
X178254366Y-131806697D01*
X178313258Y-132026488D01*
X178313261Y-132026497D01*
X178409431Y-132232732D01*
X178409432Y-132232734D01*
X178539954Y-132419141D01*
X178700859Y-132580046D01*
X178736621Y-132605086D01*
X178780247Y-132659662D01*
X178789500Y-132706662D01*
X178789500Y-134136313D01*
X178769815Y-134203352D01*
X178717011Y-134249107D01*
X178697594Y-134256088D01*
X178633508Y-134273259D01*
X178633502Y-134273261D01*
X178427267Y-134369431D01*
X178427265Y-134369432D01*
X178240858Y-134499954D01*
X178079954Y-134660858D01*
X177949432Y-134847265D01*
X177949431Y-134847267D01*
X177853261Y-135053502D01*
X177853258Y-135053511D01*
X177794366Y-135273302D01*
X177794364Y-135273313D01*
X177774532Y-135499998D01*
X170225468Y-135499998D01*
X170205635Y-135273308D01*
X170146739Y-135053504D01*
X170050568Y-134847266D01*
X169920047Y-134660861D01*
X169920045Y-134660858D01*
X169759141Y-134499954D01*
X169572734Y-134369432D01*
X169572732Y-134369431D01*
X169366497Y-134273261D01*
X169366488Y-134273258D01*
X169146697Y-134214366D01*
X169146693Y-134214365D01*
X169146692Y-134214365D01*
X169146691Y-134214364D01*
X169146686Y-134214364D01*
X168920002Y-134194532D01*
X168919998Y-134194532D01*
X168693313Y-134214364D01*
X168693302Y-134214366D01*
X168473511Y-134273258D01*
X168473502Y-134273261D01*
X168267267Y-134369431D01*
X168267265Y-134369432D01*
X168080858Y-134499954D01*
X167919954Y-134660858D01*
X167789432Y-134847265D01*
X167789431Y-134847267D01*
X167693261Y-135053502D01*
X167693258Y-135053511D01*
X167634366Y-135273302D01*
X167634364Y-135273313D01*
X167614532Y-135499998D01*
X134669916Y-135499998D01*
X134705635Y-135366692D01*
X134725468Y-135140000D01*
X134705635Y-134913308D01*
X134646739Y-134693504D01*
X134550568Y-134487266D01*
X134420047Y-134300861D01*
X134420045Y-134300858D01*
X134259141Y-134139954D01*
X134072734Y-134009432D01*
X134072732Y-134009431D01*
X133866497Y-133913261D01*
X133866488Y-133913258D01*
X133646697Y-133854366D01*
X133646693Y-133854365D01*
X133646692Y-133854365D01*
X133646691Y-133854364D01*
X133646686Y-133854364D01*
X133420002Y-133834532D01*
X133419998Y-133834532D01*
X133193313Y-133854364D01*
X133193302Y-133854366D01*
X132973511Y-133913258D01*
X132973502Y-133913261D01*
X132767267Y-134009431D01*
X132767265Y-134009432D01*
X132580858Y-134139954D01*
X132419954Y-134300858D01*
X132289432Y-134487265D01*
X132289431Y-134487267D01*
X132193261Y-134693502D01*
X132193258Y-134693511D01*
X132139775Y-134893117D01*
X132103410Y-134952778D01*
X132040563Y-134983307D01*
X131971188Y-134975012D01*
X131917310Y-134930527D01*
X131900225Y-134893117D01*
X131846741Y-134693511D01*
X131846738Y-134693502D01*
X131783732Y-134558386D01*
X131750568Y-134487266D01*
X131620047Y-134300861D01*
X131620045Y-134300858D01*
X131459141Y-134139954D01*
X131272734Y-134009432D01*
X131272732Y-134009431D01*
X131066497Y-133913261D01*
X131066488Y-133913258D01*
X130846697Y-133854366D01*
X130846693Y-133854365D01*
X130846692Y-133854365D01*
X130846691Y-133854364D01*
X130846686Y-133854364D01*
X130620002Y-133834532D01*
X130619998Y-133834532D01*
X130393313Y-133854364D01*
X130393302Y-133854366D01*
X130173511Y-133913258D01*
X130173502Y-133913261D01*
X129967267Y-134009431D01*
X129967265Y-134009432D01*
X129780858Y-134139954D01*
X129619954Y-134300858D01*
X129489432Y-134487265D01*
X129489431Y-134487267D01*
X129393261Y-134693502D01*
X129393258Y-134693511D01*
X129334366Y-134913302D01*
X129334364Y-134913313D01*
X129314532Y-135139998D01*
X129020500Y-135139998D01*
X129020500Y-135137648D01*
X128997303Y-134991189D01*
X128988477Y-134935465D01*
X128925218Y-134740776D01*
X128872958Y-134638211D01*
X128832287Y-134558390D01*
X128789899Y-134500047D01*
X128711971Y-134392786D01*
X128567213Y-134248028D01*
X128401614Y-134127715D01*
X128395006Y-134124348D01*
X128308917Y-134080483D01*
X128258123Y-134032511D01*
X128241328Y-133964690D01*
X128263865Y-133898555D01*
X128308917Y-133859516D01*
X128401610Y-133812287D01*
X128449818Y-133777262D01*
X128567213Y-133691971D01*
X128567215Y-133691968D01*
X128567219Y-133691966D01*
X128711966Y-133547219D01*
X128711968Y-133547215D01*
X128711971Y-133547213D01*
X128746274Y-133499998D01*
X156734532Y-133499998D01*
X156734532Y-133500001D01*
X156754364Y-133726686D01*
X156754366Y-133726697D01*
X156813258Y-133946488D01*
X156813261Y-133946497D01*
X156909431Y-134152732D01*
X156909432Y-134152734D01*
X157039954Y-134339141D01*
X157200858Y-134500045D01*
X157200861Y-134500047D01*
X157387266Y-134630568D01*
X157593504Y-134726739D01*
X157813308Y-134785635D01*
X157975230Y-134799801D01*
X158039998Y-134805468D01*
X158040000Y-134805468D01*
X158040002Y-134805468D01*
X158096673Y-134800509D01*
X158266692Y-134785635D01*
X158486496Y-134726739D01*
X158692734Y-134630568D01*
X158879139Y-134500047D01*
X159040047Y-134339139D01*
X159170568Y-134152734D01*
X159266739Y-133946496D01*
X159325635Y-133726692D01*
X159345468Y-133500000D01*
X159345468Y-133499998D01*
X161734532Y-133499998D01*
X161734532Y-133500001D01*
X161754364Y-133726686D01*
X161754366Y-133726697D01*
X161813258Y-133946488D01*
X161813261Y-133946497D01*
X161909431Y-134152732D01*
X161909432Y-134152734D01*
X162039954Y-134339141D01*
X162200858Y-134500045D01*
X162200861Y-134500047D01*
X162387266Y-134630568D01*
X162593504Y-134726739D01*
X162813308Y-134785635D01*
X162975230Y-134799801D01*
X163039998Y-134805468D01*
X163040000Y-134805468D01*
X163040002Y-134805468D01*
X163096673Y-134800509D01*
X163266692Y-134785635D01*
X163486496Y-134726739D01*
X163692734Y-134630568D01*
X163879139Y-134500047D01*
X164040047Y-134339139D01*
X164170568Y-134152734D01*
X164266739Y-133946496D01*
X164325635Y-133726692D01*
X164345468Y-133500000D01*
X164325635Y-133273308D01*
X164266739Y-133053504D01*
X164170568Y-132847266D01*
X164040047Y-132660861D01*
X164040045Y-132660858D01*
X163879141Y-132499954D01*
X163692734Y-132369432D01*
X163692732Y-132369431D01*
X163486497Y-132273261D01*
X163486488Y-132273258D01*
X163266697Y-132214366D01*
X163266693Y-132214365D01*
X163266692Y-132214365D01*
X163266691Y-132214364D01*
X163266686Y-132214364D01*
X163040002Y-132194532D01*
X163039998Y-132194532D01*
X162813313Y-132214364D01*
X162813302Y-132214366D01*
X162593511Y-132273258D01*
X162593502Y-132273261D01*
X162387267Y-132369431D01*
X162387265Y-132369432D01*
X162200858Y-132499954D01*
X162039954Y-132660858D01*
X161909432Y-132847265D01*
X161909431Y-132847267D01*
X161813261Y-133053502D01*
X161813258Y-133053511D01*
X161754366Y-133273302D01*
X161754364Y-133273313D01*
X161734532Y-133499998D01*
X159345468Y-133499998D01*
X159325635Y-133273308D01*
X159266739Y-133053504D01*
X159170568Y-132847266D01*
X159040047Y-132660861D01*
X159040045Y-132660858D01*
X158879141Y-132499954D01*
X158692734Y-132369432D01*
X158692732Y-132369431D01*
X158486497Y-132273261D01*
X158486488Y-132273258D01*
X158266697Y-132214366D01*
X158266693Y-132214365D01*
X158266692Y-132214365D01*
X158266691Y-132214364D01*
X158266686Y-132214364D01*
X158040002Y-132194532D01*
X158039998Y-132194532D01*
X157813313Y-132214364D01*
X157813302Y-132214366D01*
X157593511Y-132273258D01*
X157593502Y-132273261D01*
X157387267Y-132369431D01*
X157387265Y-132369432D01*
X157200858Y-132499954D01*
X157039954Y-132660858D01*
X156909432Y-132847265D01*
X156909431Y-132847267D01*
X156813261Y-133053502D01*
X156813258Y-133053511D01*
X156754366Y-133273302D01*
X156754364Y-133273313D01*
X156734532Y-133499998D01*
X128746274Y-133499998D01*
X128776740Y-133458064D01*
X128832287Y-133381610D01*
X128925220Y-133199219D01*
X128988477Y-133004534D01*
X129020500Y-132802352D01*
X129020500Y-132597648D01*
X129005026Y-132499953D01*
X128988477Y-132395465D01*
X128935602Y-132232734D01*
X128925220Y-132200781D01*
X128925218Y-132200778D01*
X128925218Y-132200776D01*
X128852352Y-132057770D01*
X128832287Y-132018390D01*
X128824556Y-132007749D01*
X128711971Y-131852786D01*
X128567213Y-131708028D01*
X128401613Y-131587715D01*
X128401612Y-131587714D01*
X128401610Y-131587713D01*
X128344653Y-131558691D01*
X128219223Y-131494781D01*
X128024534Y-131431522D01*
X127849995Y-131403878D01*
X127822352Y-131399500D01*
X126817648Y-131399500D01*
X126793329Y-131403351D01*
X126615465Y-131431522D01*
X126420776Y-131494781D01*
X126238386Y-131587715D01*
X126072786Y-131708028D01*
X125928028Y-131852786D01*
X125807715Y-132018386D01*
X125714781Y-132200776D01*
X125685926Y-132289584D01*
X125646488Y-132347259D01*
X125582129Y-132374457D01*
X125513283Y-132362542D01*
X125480314Y-132338946D01*
X125286819Y-132145451D01*
X125253334Y-132084128D01*
X125250500Y-132057770D01*
X125250500Y-130612229D01*
X125270185Y-130545190D01*
X125286819Y-130524548D01*
X125635288Y-130176079D01*
X125984677Y-129826689D01*
X126045998Y-129793206D01*
X126115689Y-129798190D01*
X126171623Y-129840061D01*
X126192128Y-129882268D01*
X126193261Y-129886496D01*
X126212273Y-129927267D01*
X126289431Y-130092732D01*
X126289432Y-130092734D01*
X126419954Y-130279141D01*
X126580858Y-130440045D01*
X126580861Y-130440047D01*
X126767266Y-130570568D01*
X126973504Y-130666739D01*
X127193308Y-130725635D01*
X127355230Y-130739801D01*
X127419998Y-130745468D01*
X127420000Y-130745468D01*
X127420002Y-130745468D01*
X127476673Y-130740509D01*
X127646692Y-130725635D01*
X127866496Y-130666739D01*
X128072734Y-130570568D01*
X128259139Y-130440047D01*
X128420047Y-130279139D01*
X128517474Y-130139997D01*
X129315034Y-130139997D01*
X129315034Y-130140002D01*
X129334858Y-130366599D01*
X129334860Y-130366610D01*
X129393730Y-130586317D01*
X129393735Y-130586331D01*
X129489863Y-130792478D01*
X129540974Y-130865472D01*
X130220000Y-130186446D01*
X130220000Y-130192661D01*
X130247259Y-130294394D01*
X130299920Y-130385606D01*
X130374394Y-130460080D01*
X130465606Y-130512741D01*
X130567339Y-130540000D01*
X130573553Y-130540000D01*
X129894526Y-131219025D01*
X129967513Y-131270132D01*
X129967521Y-131270136D01*
X130173668Y-131366264D01*
X130173682Y-131366269D01*
X130393389Y-131425139D01*
X130393400Y-131425141D01*
X130619998Y-131444966D01*
X130620002Y-131444966D01*
X130846599Y-131425141D01*
X130846610Y-131425139D01*
X131066317Y-131366269D01*
X131066331Y-131366264D01*
X131272478Y-131270136D01*
X131345471Y-131219024D01*
X130666447Y-130540000D01*
X130672661Y-130540000D01*
X130774394Y-130512741D01*
X130865606Y-130460080D01*
X130940080Y-130385606D01*
X130992741Y-130294394D01*
X131020000Y-130192661D01*
X131020000Y-130186447D01*
X131699024Y-130865471D01*
X131750136Y-130792478D01*
X131846264Y-130586331D01*
X131846269Y-130586317D01*
X131900225Y-130384951D01*
X131936590Y-130325290D01*
X131999437Y-130294761D01*
X132068812Y-130303056D01*
X132122690Y-130347541D01*
X132139775Y-130384951D01*
X132193730Y-130586317D01*
X132193735Y-130586331D01*
X132289863Y-130792478D01*
X132340974Y-130865472D01*
X133020000Y-130186446D01*
X133020000Y-130192661D01*
X133047259Y-130294394D01*
X133099920Y-130385606D01*
X133174394Y-130460080D01*
X133265606Y-130512741D01*
X133367339Y-130540000D01*
X133373553Y-130540000D01*
X132694526Y-131219025D01*
X132767513Y-131270132D01*
X132767521Y-131270136D01*
X132973668Y-131366264D01*
X132973682Y-131366269D01*
X133193389Y-131425139D01*
X133193400Y-131425141D01*
X133419998Y-131444966D01*
X133420002Y-131444966D01*
X133646599Y-131425141D01*
X133646610Y-131425139D01*
X133866317Y-131366269D01*
X133866331Y-131366264D01*
X134072478Y-131270136D01*
X134145471Y-131219024D01*
X133466447Y-130540000D01*
X133472661Y-130540000D01*
X133574394Y-130512741D01*
X133665606Y-130460080D01*
X133740080Y-130385606D01*
X133792741Y-130294394D01*
X133820000Y-130192661D01*
X133820000Y-130186447D01*
X134499024Y-130865471D01*
X134550136Y-130792478D01*
X134646264Y-130586331D01*
X134646269Y-130586317D01*
X134647962Y-130579998D01*
X156834532Y-130579998D01*
X156834532Y-130580001D01*
X156854364Y-130806686D01*
X156854366Y-130806697D01*
X156913258Y-131026488D01*
X156913261Y-131026497D01*
X157009431Y-131232732D01*
X157009432Y-131232734D01*
X157139954Y-131419141D01*
X157300858Y-131580045D01*
X157300861Y-131580047D01*
X157487266Y-131710568D01*
X157693504Y-131806739D01*
X157913308Y-131865635D01*
X158075230Y-131879801D01*
X158139998Y-131885468D01*
X158140000Y-131885468D01*
X158140002Y-131885468D01*
X158196673Y-131880509D01*
X158366692Y-131865635D01*
X158586496Y-131806739D01*
X158792734Y-131710568D01*
X158979139Y-131580047D01*
X159140047Y-131419139D01*
X159270568Y-131232734D01*
X159366739Y-131026496D01*
X159425635Y-130806692D01*
X159445468Y-130580000D01*
X159445468Y-130579998D01*
X161834532Y-130579998D01*
X161834532Y-130580001D01*
X161854364Y-130806686D01*
X161854366Y-130806697D01*
X161913258Y-131026488D01*
X161913261Y-131026497D01*
X162009431Y-131232732D01*
X162009432Y-131232734D01*
X162139954Y-131419141D01*
X162300858Y-131580045D01*
X162300861Y-131580047D01*
X162487266Y-131710568D01*
X162693504Y-131806739D01*
X162913308Y-131865635D01*
X163075230Y-131879801D01*
X163139998Y-131885468D01*
X163140000Y-131885468D01*
X163140002Y-131885468D01*
X163196673Y-131880509D01*
X163366692Y-131865635D01*
X163586496Y-131806739D01*
X163792734Y-131710568D01*
X163979139Y-131580047D01*
X164140047Y-131419139D01*
X164270568Y-131232734D01*
X164366739Y-131026496D01*
X164425635Y-130806692D01*
X164445468Y-130580000D01*
X164441968Y-130540000D01*
X164438469Y-130499998D01*
X166734532Y-130499998D01*
X166734532Y-130500001D01*
X166754364Y-130726686D01*
X166754366Y-130726697D01*
X166813258Y-130946488D01*
X166813261Y-130946497D01*
X166909431Y-131152732D01*
X166909432Y-131152734D01*
X167039954Y-131339141D01*
X167200858Y-131500045D01*
X167200861Y-131500047D01*
X167387266Y-131630568D01*
X167593504Y-131726739D01*
X167813308Y-131785635D01*
X167975230Y-131799801D01*
X168039998Y-131805468D01*
X168040000Y-131805468D01*
X168040002Y-131805468D01*
X168096673Y-131800509D01*
X168266692Y-131785635D01*
X168486496Y-131726739D01*
X168692734Y-131630568D01*
X168879139Y-131500047D01*
X169040047Y-131339139D01*
X169170568Y-131152734D01*
X169266739Y-130946496D01*
X169325635Y-130726692D01*
X169345468Y-130500000D01*
X169345468Y-130499997D01*
X171735034Y-130499997D01*
X171735034Y-130500002D01*
X171754858Y-130726599D01*
X171754860Y-130726610D01*
X171813730Y-130946317D01*
X171813735Y-130946331D01*
X171909863Y-131152478D01*
X171960974Y-131225472D01*
X172640000Y-130546446D01*
X172640000Y-130552661D01*
X172667259Y-130654394D01*
X172719920Y-130745606D01*
X172794394Y-130820080D01*
X172885606Y-130872741D01*
X172987339Y-130900000D01*
X172993553Y-130900000D01*
X172314526Y-131579025D01*
X172387513Y-131630132D01*
X172387521Y-131630136D01*
X172593668Y-131726264D01*
X172593682Y-131726269D01*
X172813389Y-131785139D01*
X172813400Y-131785141D01*
X173039998Y-131804966D01*
X173040002Y-131804966D01*
X173266599Y-131785141D01*
X173266610Y-131785139D01*
X173486317Y-131726269D01*
X173486331Y-131726264D01*
X173692478Y-131630136D01*
X173765471Y-131579024D01*
X173086447Y-130900000D01*
X173092661Y-130900000D01*
X173194394Y-130872741D01*
X173285606Y-130820080D01*
X173360080Y-130745606D01*
X173412741Y-130654394D01*
X173440000Y-130552661D01*
X173440000Y-130546447D01*
X174119024Y-131225471D01*
X174170136Y-131152478D01*
X174266264Y-130946331D01*
X174266269Y-130946317D01*
X174325139Y-130726610D01*
X174325141Y-130726599D01*
X174344966Y-130500002D01*
X174344966Y-130499997D01*
X174325141Y-130273400D01*
X174325139Y-130273389D01*
X174266269Y-130053682D01*
X174266264Y-130053668D01*
X174170136Y-129847521D01*
X174170132Y-129847513D01*
X174119025Y-129774526D01*
X173440000Y-130453551D01*
X173440000Y-130447339D01*
X173412741Y-130345606D01*
X173360080Y-130254394D01*
X173285606Y-130179920D01*
X173194394Y-130127259D01*
X173092661Y-130100000D01*
X173086445Y-130100000D01*
X173765472Y-129420974D01*
X173692478Y-129369863D01*
X173486331Y-129273735D01*
X173486317Y-129273730D01*
X173266610Y-129214860D01*
X173266599Y-129214858D01*
X173040002Y-129195034D01*
X173039998Y-129195034D01*
X172813400Y-129214858D01*
X172813389Y-129214860D01*
X172593682Y-129273730D01*
X172593673Y-129273734D01*
X172387516Y-129369866D01*
X172387512Y-129369868D01*
X172314526Y-129420973D01*
X172314526Y-129420974D01*
X172993553Y-130100000D01*
X172987339Y-130100000D01*
X172885606Y-130127259D01*
X172794394Y-130179920D01*
X172719920Y-130254394D01*
X172667259Y-130345606D01*
X172640000Y-130447339D01*
X172640000Y-130453552D01*
X171960974Y-129774526D01*
X171960973Y-129774526D01*
X171909868Y-129847512D01*
X171909866Y-129847516D01*
X171813734Y-130053673D01*
X171813730Y-130053682D01*
X171754860Y-130273389D01*
X171754858Y-130273400D01*
X171735034Y-130499997D01*
X169345468Y-130499997D01*
X169341975Y-130460080D01*
X169335460Y-130385606D01*
X169325635Y-130273308D01*
X169266739Y-130053504D01*
X169170568Y-129847266D01*
X169063022Y-129693673D01*
X169040045Y-129660858D01*
X168879141Y-129499954D01*
X168692734Y-129369432D01*
X168692732Y-129369431D01*
X168486497Y-129273261D01*
X168486488Y-129273258D01*
X168266697Y-129214366D01*
X168266693Y-129214365D01*
X168266692Y-129214365D01*
X168266691Y-129214364D01*
X168266686Y-129214364D01*
X168040002Y-129194532D01*
X168039998Y-129194532D01*
X167813313Y-129214364D01*
X167813302Y-129214366D01*
X167593511Y-129273258D01*
X167593502Y-129273261D01*
X167387267Y-129369431D01*
X167387265Y-129369432D01*
X167200858Y-129499954D01*
X167039954Y-129660858D01*
X166909432Y-129847265D01*
X166909431Y-129847267D01*
X166813261Y-130053502D01*
X166813258Y-130053511D01*
X166754366Y-130273302D01*
X166754364Y-130273313D01*
X166734532Y-130499998D01*
X164438469Y-130499998D01*
X164434045Y-130449431D01*
X164425635Y-130353308D01*
X164366739Y-130133504D01*
X164270568Y-129927266D01*
X164161559Y-129771584D01*
X164140045Y-129740858D01*
X163979141Y-129579954D01*
X163792734Y-129449432D01*
X163792732Y-129449431D01*
X163586497Y-129353261D01*
X163586488Y-129353258D01*
X163366697Y-129294366D01*
X163366693Y-129294365D01*
X163366692Y-129294365D01*
X163366691Y-129294364D01*
X163366686Y-129294364D01*
X163140002Y-129274532D01*
X163139998Y-129274532D01*
X162913313Y-129294364D01*
X162913302Y-129294366D01*
X162693511Y-129353258D01*
X162693502Y-129353261D01*
X162487267Y-129449431D01*
X162487265Y-129449432D01*
X162300858Y-129579954D01*
X162139954Y-129740858D01*
X162009432Y-129927265D01*
X162009431Y-129927267D01*
X161913261Y-130133502D01*
X161913258Y-130133511D01*
X161854366Y-130353302D01*
X161854364Y-130353313D01*
X161834532Y-130579998D01*
X159445468Y-130579998D01*
X159441968Y-130540000D01*
X159434045Y-130449431D01*
X159425635Y-130353308D01*
X159366739Y-130133504D01*
X159270568Y-129927266D01*
X159161559Y-129771584D01*
X159140045Y-129740858D01*
X158979141Y-129579954D01*
X158792734Y-129449432D01*
X158792732Y-129449431D01*
X158586497Y-129353261D01*
X158586488Y-129353258D01*
X158366697Y-129294366D01*
X158366693Y-129294365D01*
X158366692Y-129294365D01*
X158366691Y-129294364D01*
X158366686Y-129294364D01*
X158140002Y-129274532D01*
X158139998Y-129274532D01*
X157913313Y-129294364D01*
X157913302Y-129294366D01*
X157693511Y-129353258D01*
X157693502Y-129353261D01*
X157487267Y-129449431D01*
X157487265Y-129449432D01*
X157300858Y-129579954D01*
X157139954Y-129740858D01*
X157009432Y-129927265D01*
X157009431Y-129927267D01*
X156913261Y-130133502D01*
X156913258Y-130133511D01*
X156854366Y-130353302D01*
X156854364Y-130353313D01*
X156834532Y-130579998D01*
X134647962Y-130579998D01*
X134705139Y-130366610D01*
X134705141Y-130366599D01*
X134724966Y-130140002D01*
X134724966Y-130139997D01*
X134705141Y-129913400D01*
X134705139Y-129913389D01*
X134646269Y-129693682D01*
X134646264Y-129693668D01*
X134550136Y-129487521D01*
X134550132Y-129487513D01*
X134499025Y-129414526D01*
X133820000Y-130093551D01*
X133820000Y-130087339D01*
X133792741Y-129985606D01*
X133740080Y-129894394D01*
X133665606Y-129819920D01*
X133574394Y-129767259D01*
X133472661Y-129740000D01*
X133466445Y-129740000D01*
X134145472Y-129060974D01*
X134072478Y-129009863D01*
X133866331Y-128913735D01*
X133866317Y-128913730D01*
X133646610Y-128854860D01*
X133646599Y-128854858D01*
X133420002Y-128835034D01*
X133419998Y-128835034D01*
X133193400Y-128854858D01*
X133193389Y-128854860D01*
X132973682Y-128913730D01*
X132973673Y-128913734D01*
X132767516Y-129009866D01*
X132767512Y-129009868D01*
X132694526Y-129060973D01*
X132694526Y-129060974D01*
X133373553Y-129740000D01*
X133367339Y-129740000D01*
X133265606Y-129767259D01*
X133174394Y-129819920D01*
X133099920Y-129894394D01*
X133047259Y-129985606D01*
X133020000Y-130087339D01*
X133020000Y-130093552D01*
X132340974Y-129414526D01*
X132340973Y-129414526D01*
X132289868Y-129487512D01*
X132289866Y-129487516D01*
X132193734Y-129693673D01*
X132193731Y-129693679D01*
X132139775Y-129895049D01*
X132103410Y-129954709D01*
X132040563Y-129985238D01*
X131971187Y-129976943D01*
X131917310Y-129932458D01*
X131900225Y-129895049D01*
X131846268Y-129693679D01*
X131846264Y-129693668D01*
X131750136Y-129487521D01*
X131750132Y-129487513D01*
X131699025Y-129414526D01*
X131020000Y-130093551D01*
X131020000Y-130087339D01*
X130992741Y-129985606D01*
X130940080Y-129894394D01*
X130865606Y-129819920D01*
X130774394Y-129767259D01*
X130672661Y-129740000D01*
X130666445Y-129740000D01*
X131345472Y-129060974D01*
X131272478Y-129009863D01*
X131066331Y-128913735D01*
X131066317Y-128913730D01*
X130846610Y-128854860D01*
X130846599Y-128854858D01*
X130620002Y-128835034D01*
X130619998Y-128835034D01*
X130393400Y-128854858D01*
X130393389Y-128854860D01*
X130173682Y-128913730D01*
X130173673Y-128913734D01*
X129967516Y-129009866D01*
X129967512Y-129009868D01*
X129894526Y-129060973D01*
X129894526Y-129060974D01*
X130573553Y-129740000D01*
X130567339Y-129740000D01*
X130465606Y-129767259D01*
X130374394Y-129819920D01*
X130299920Y-129894394D01*
X130247259Y-129985606D01*
X130220000Y-130087339D01*
X130220000Y-130093552D01*
X129540974Y-129414526D01*
X129540973Y-129414526D01*
X129489868Y-129487512D01*
X129489866Y-129487516D01*
X129393734Y-129693673D01*
X129393730Y-129693682D01*
X129334860Y-129913389D01*
X129334858Y-129913400D01*
X129315034Y-130139997D01*
X128517474Y-130139997D01*
X128550568Y-130092734D01*
X128646739Y-129886496D01*
X128705635Y-129666692D01*
X128725468Y-129440000D01*
X128723803Y-129420974D01*
X128717879Y-129353258D01*
X128705635Y-129213308D01*
X128646739Y-128993504D01*
X128550568Y-128787266D01*
X128420047Y-128600861D01*
X128420045Y-128600858D01*
X128259141Y-128439954D01*
X128072734Y-128309432D01*
X128072732Y-128309431D01*
X127892680Y-128225471D01*
X127866496Y-128213261D01*
X127866493Y-128213260D01*
X127862273Y-128212129D01*
X127802614Y-128175762D01*
X127772087Y-128112914D01*
X127780385Y-128043539D01*
X127806687Y-128004678D01*
X128311367Y-127499998D01*
X156734532Y-127499998D01*
X156734532Y-127500001D01*
X156754364Y-127726686D01*
X156754366Y-127726697D01*
X156813258Y-127946488D01*
X156813261Y-127946497D01*
X156909431Y-128152732D01*
X156909432Y-128152734D01*
X157039954Y-128339141D01*
X157200858Y-128500045D01*
X157200861Y-128500047D01*
X157387266Y-128630568D01*
X157593504Y-128726739D01*
X157813308Y-128785635D01*
X157975230Y-128799801D01*
X158039998Y-128805468D01*
X158040000Y-128805468D01*
X158040002Y-128805468D01*
X158096673Y-128800509D01*
X158266692Y-128785635D01*
X158486496Y-128726739D01*
X158692734Y-128630568D01*
X158879139Y-128500047D01*
X159040047Y-128339139D01*
X159170568Y-128152734D01*
X159266739Y-127946496D01*
X159325635Y-127726692D01*
X159345468Y-127500000D01*
X159345468Y-127499998D01*
X161734532Y-127499998D01*
X161734532Y-127500001D01*
X161754364Y-127726686D01*
X161754366Y-127726697D01*
X161813258Y-127946488D01*
X161813261Y-127946497D01*
X161909431Y-128152732D01*
X161909432Y-128152734D01*
X162039954Y-128339141D01*
X162200858Y-128500045D01*
X162200861Y-128500047D01*
X162387266Y-128630568D01*
X162593504Y-128726739D01*
X162813308Y-128785635D01*
X162975230Y-128799801D01*
X163039998Y-128805468D01*
X163040000Y-128805468D01*
X163040002Y-128805468D01*
X163096673Y-128800509D01*
X163266692Y-128785635D01*
X163486496Y-128726739D01*
X163692734Y-128630568D01*
X163879139Y-128500047D01*
X164040047Y-128339139D01*
X164170568Y-128152734D01*
X164266739Y-127946496D01*
X164325635Y-127726692D01*
X164345468Y-127500000D01*
X164345468Y-127499998D01*
X166734532Y-127499998D01*
X166734532Y-127500001D01*
X166754364Y-127726686D01*
X166754366Y-127726697D01*
X166813258Y-127946488D01*
X166813261Y-127946497D01*
X166909431Y-128152732D01*
X166909432Y-128152734D01*
X167039954Y-128339141D01*
X167200858Y-128500045D01*
X167200861Y-128500047D01*
X167387266Y-128630568D01*
X167593504Y-128726739D01*
X167813308Y-128785635D01*
X167975230Y-128799801D01*
X168039998Y-128805468D01*
X168040000Y-128805468D01*
X168040002Y-128805468D01*
X168096673Y-128800509D01*
X168266692Y-128785635D01*
X168486496Y-128726739D01*
X168692734Y-128630568D01*
X168879139Y-128500047D01*
X169040047Y-128339139D01*
X169170568Y-128152734D01*
X169266739Y-127946496D01*
X169325635Y-127726692D01*
X169345468Y-127500000D01*
X169345468Y-127499997D01*
X171735034Y-127499997D01*
X171735034Y-127500002D01*
X171754858Y-127726599D01*
X171754860Y-127726610D01*
X171813730Y-127946317D01*
X171813735Y-127946331D01*
X171909863Y-128152478D01*
X171960974Y-128225472D01*
X172640000Y-127546446D01*
X172640000Y-127552661D01*
X172667259Y-127654394D01*
X172719920Y-127745606D01*
X172794394Y-127820080D01*
X172885606Y-127872741D01*
X172987339Y-127900000D01*
X172993553Y-127900000D01*
X172314526Y-128579025D01*
X172387513Y-128630132D01*
X172387521Y-128630136D01*
X172593668Y-128726264D01*
X172593682Y-128726269D01*
X172813389Y-128785139D01*
X172813400Y-128785141D01*
X173039998Y-128804966D01*
X173040002Y-128804966D01*
X173266599Y-128785141D01*
X173266610Y-128785139D01*
X173486317Y-128726269D01*
X173486331Y-128726264D01*
X173692478Y-128630136D01*
X173765471Y-128579024D01*
X173086447Y-127900000D01*
X173092661Y-127900000D01*
X173194394Y-127872741D01*
X173285606Y-127820080D01*
X173360080Y-127745606D01*
X173412741Y-127654394D01*
X173440000Y-127552661D01*
X173440000Y-127546447D01*
X174119024Y-128225471D01*
X174170136Y-128152478D01*
X174266264Y-127946331D01*
X174266269Y-127946317D01*
X174325139Y-127726610D01*
X174325141Y-127726599D01*
X174344966Y-127500002D01*
X174344966Y-127499997D01*
X174325141Y-127273400D01*
X174325139Y-127273389D01*
X174266269Y-127053682D01*
X174266264Y-127053668D01*
X174170136Y-126847521D01*
X174170132Y-126847513D01*
X174119025Y-126774526D01*
X173440000Y-127453551D01*
X173440000Y-127447339D01*
X173412741Y-127345606D01*
X173360080Y-127254394D01*
X173285606Y-127179920D01*
X173194394Y-127127259D01*
X173092661Y-127100000D01*
X173086445Y-127100000D01*
X173765472Y-126420974D01*
X173692478Y-126369863D01*
X173486331Y-126273735D01*
X173486317Y-126273730D01*
X173266610Y-126214860D01*
X173266599Y-126214858D01*
X173040002Y-126195034D01*
X173039998Y-126195034D01*
X172813400Y-126214858D01*
X172813389Y-126214860D01*
X172593682Y-126273730D01*
X172593673Y-126273734D01*
X172387516Y-126369866D01*
X172387512Y-126369868D01*
X172314526Y-126420973D01*
X172314526Y-126420974D01*
X172993553Y-127100000D01*
X172987339Y-127100000D01*
X172885606Y-127127259D01*
X172794394Y-127179920D01*
X172719920Y-127254394D01*
X172667259Y-127345606D01*
X172640000Y-127447339D01*
X172640000Y-127453552D01*
X171960974Y-126774526D01*
X171960973Y-126774526D01*
X171909868Y-126847512D01*
X171909866Y-126847516D01*
X171813734Y-127053673D01*
X171813730Y-127053682D01*
X171754860Y-127273389D01*
X171754858Y-127273400D01*
X171735034Y-127499997D01*
X169345468Y-127499997D01*
X169325635Y-127273308D01*
X169266739Y-127053504D01*
X169170568Y-126847266D01*
X169040047Y-126660861D01*
X169040045Y-126660858D01*
X168879141Y-126499954D01*
X168692734Y-126369432D01*
X168692732Y-126369431D01*
X168486497Y-126273261D01*
X168486488Y-126273258D01*
X168266697Y-126214366D01*
X168266693Y-126214365D01*
X168266692Y-126214365D01*
X168266691Y-126214364D01*
X168266686Y-126214364D01*
X168040002Y-126194532D01*
X168039998Y-126194532D01*
X167813313Y-126214364D01*
X167813302Y-126214366D01*
X167593511Y-126273258D01*
X167593502Y-126273261D01*
X167387267Y-126369431D01*
X167387265Y-126369432D01*
X167200858Y-126499954D01*
X167039954Y-126660858D01*
X166909432Y-126847265D01*
X166909431Y-126847267D01*
X166813261Y-127053502D01*
X166813258Y-127053511D01*
X166754366Y-127273302D01*
X166754364Y-127273313D01*
X166734532Y-127499998D01*
X164345468Y-127499998D01*
X164325635Y-127273308D01*
X164266739Y-127053504D01*
X164170568Y-126847266D01*
X164040047Y-126660861D01*
X164040045Y-126660858D01*
X163879141Y-126499954D01*
X163692734Y-126369432D01*
X163692732Y-126369431D01*
X163486497Y-126273261D01*
X163486488Y-126273258D01*
X163266697Y-126214366D01*
X163266693Y-126214365D01*
X163266692Y-126214365D01*
X163266691Y-126214364D01*
X163266686Y-126214364D01*
X163040002Y-126194532D01*
X163039998Y-126194532D01*
X162813313Y-126214364D01*
X162813302Y-126214366D01*
X162593511Y-126273258D01*
X162593502Y-126273261D01*
X162387267Y-126369431D01*
X162387265Y-126369432D01*
X162200858Y-126499954D01*
X162039954Y-126660858D01*
X161909432Y-126847265D01*
X161909431Y-126847267D01*
X161813261Y-127053502D01*
X161813258Y-127053511D01*
X161754366Y-127273302D01*
X161754364Y-127273313D01*
X161734532Y-127499998D01*
X159345468Y-127499998D01*
X159325635Y-127273308D01*
X159266739Y-127053504D01*
X159170568Y-126847266D01*
X159040047Y-126660861D01*
X159040045Y-126660858D01*
X158879141Y-126499954D01*
X158692734Y-126369432D01*
X158692732Y-126369431D01*
X158486497Y-126273261D01*
X158486488Y-126273258D01*
X158266697Y-126214366D01*
X158266693Y-126214365D01*
X158266692Y-126214365D01*
X158266691Y-126214364D01*
X158266686Y-126214364D01*
X158040002Y-126194532D01*
X158039998Y-126194532D01*
X157813313Y-126214364D01*
X157813302Y-126214366D01*
X157593511Y-126273258D01*
X157593502Y-126273261D01*
X157387267Y-126369431D01*
X157387265Y-126369432D01*
X157200858Y-126499954D01*
X157039954Y-126660858D01*
X156909432Y-126847265D01*
X156909431Y-126847267D01*
X156813261Y-127053502D01*
X156813258Y-127053511D01*
X156754366Y-127273302D01*
X156754364Y-127273313D01*
X156734532Y-127499998D01*
X128311367Y-127499998D01*
X133311368Y-122499998D01*
X157314838Y-122499998D01*
X157314838Y-122500001D01*
X157333450Y-122712741D01*
X157333452Y-122712752D01*
X157388721Y-122919022D01*
X157388723Y-122919026D01*
X157388724Y-122919030D01*
X157419109Y-122984190D01*
X157478977Y-123112578D01*
X157601472Y-123287521D01*
X157752478Y-123438527D01*
X157752481Y-123438529D01*
X157927419Y-123561021D01*
X157927421Y-123561022D01*
X157927420Y-123561022D01*
X157991936Y-123591106D01*
X158120970Y-123651276D01*
X158327253Y-123706549D01*
X158479215Y-123719844D01*
X158539998Y-123725162D01*
X158540000Y-123725162D01*
X158540002Y-123725162D01*
X158593186Y-123720508D01*
X158752747Y-123706549D01*
X158959030Y-123651276D01*
X159152581Y-123561021D01*
X159327519Y-123438529D01*
X159478529Y-123287519D01*
X159601021Y-123112581D01*
X159691276Y-122919030D01*
X159691280Y-122919013D01*
X159693130Y-122913936D01*
X159695253Y-122914709D01*
X159726576Y-122863305D01*
X159789419Y-122832766D01*
X159858796Y-122841050D01*
X159912680Y-122885528D01*
X159925827Y-122914315D01*
X159926870Y-122913936D01*
X159928722Y-122919022D01*
X159928724Y-122919030D01*
X159959109Y-122984190D01*
X160018977Y-123112578D01*
X160141472Y-123287521D01*
X160292478Y-123438527D01*
X160292481Y-123438529D01*
X160467419Y-123561021D01*
X160467421Y-123561022D01*
X160467420Y-123561022D01*
X160531936Y-123591106D01*
X160660970Y-123651276D01*
X160867253Y-123706549D01*
X161019215Y-123719844D01*
X161079998Y-123725162D01*
X161080000Y-123725162D01*
X161080002Y-123725162D01*
X161133186Y-123720508D01*
X161292747Y-123706549D01*
X161499030Y-123651276D01*
X161692581Y-123561021D01*
X161867519Y-123438529D01*
X162018529Y-123287519D01*
X162141021Y-123112581D01*
X162231276Y-122919030D01*
X162231280Y-122919013D01*
X162233130Y-122913936D01*
X162235253Y-122914709D01*
X162266576Y-122863305D01*
X162329419Y-122832766D01*
X162398796Y-122841050D01*
X162452680Y-122885528D01*
X162465827Y-122914315D01*
X162466870Y-122913936D01*
X162468722Y-122919022D01*
X162468724Y-122919030D01*
X162499109Y-122984190D01*
X162558977Y-123112578D01*
X162681472Y-123287521D01*
X162832478Y-123438527D01*
X162832481Y-123438529D01*
X163007419Y-123561021D01*
X163007421Y-123561022D01*
X163007420Y-123561022D01*
X163071936Y-123591106D01*
X163200970Y-123651276D01*
X163407253Y-123706549D01*
X163559215Y-123719844D01*
X163619998Y-123725162D01*
X163620000Y-123725162D01*
X163620002Y-123725162D01*
X163673186Y-123720508D01*
X163832747Y-123706549D01*
X164039030Y-123651276D01*
X164232581Y-123561021D01*
X164407519Y-123438529D01*
X164558529Y-123287519D01*
X164681021Y-123112581D01*
X164771276Y-122919030D01*
X164826549Y-122712747D01*
X164845162Y-122500000D01*
X164826549Y-122287253D01*
X164771276Y-122080970D01*
X164681021Y-121887419D01*
X164558529Y-121712481D01*
X164558527Y-121712478D01*
X164407521Y-121561472D01*
X164232578Y-121438977D01*
X164232579Y-121438977D01*
X164101424Y-121377819D01*
X164039030Y-121348724D01*
X164039026Y-121348723D01*
X164039022Y-121348721D01*
X163832752Y-121293452D01*
X163832748Y-121293451D01*
X163832747Y-121293451D01*
X163832746Y-121293450D01*
X163832741Y-121293450D01*
X163620002Y-121274838D01*
X163619998Y-121274838D01*
X163407258Y-121293450D01*
X163407247Y-121293452D01*
X163200977Y-121348721D01*
X163200968Y-121348725D01*
X163007421Y-121438977D01*
X162832478Y-121561472D01*
X162681472Y-121712478D01*
X162558977Y-121887421D01*
X162468725Y-122080968D01*
X162466870Y-122086064D01*
X162464749Y-122085292D01*
X162433406Y-122136710D01*
X162370558Y-122167237D01*
X162301183Y-122158939D01*
X162247307Y-122114452D01*
X162234169Y-122085685D01*
X162233130Y-122086064D01*
X162231279Y-122080983D01*
X162231276Y-122080970D01*
X162141021Y-121887419D01*
X162018529Y-121712481D01*
X162018527Y-121712478D01*
X161867521Y-121561472D01*
X161692578Y-121438977D01*
X161692579Y-121438977D01*
X161561424Y-121377819D01*
X161499030Y-121348724D01*
X161499026Y-121348723D01*
X161499022Y-121348721D01*
X161292752Y-121293452D01*
X161292748Y-121293451D01*
X161292747Y-121293451D01*
X161292746Y-121293450D01*
X161292741Y-121293450D01*
X161080002Y-121274838D01*
X161079998Y-121274838D01*
X160867258Y-121293450D01*
X160867247Y-121293452D01*
X160660977Y-121348721D01*
X160660968Y-121348725D01*
X160467421Y-121438977D01*
X160292478Y-121561472D01*
X160141472Y-121712478D01*
X160018977Y-121887421D01*
X159928725Y-122080968D01*
X159926870Y-122086064D01*
X159924749Y-122085292D01*
X159893406Y-122136710D01*
X159830558Y-122167237D01*
X159761183Y-122158939D01*
X159707307Y-122114452D01*
X159694169Y-122085685D01*
X159693130Y-122086064D01*
X159691279Y-122080983D01*
X159691276Y-122080970D01*
X159601021Y-121887419D01*
X159478529Y-121712481D01*
X159478527Y-121712478D01*
X159327521Y-121561472D01*
X159152578Y-121438977D01*
X159152579Y-121438977D01*
X159021424Y-121377819D01*
X158959030Y-121348724D01*
X158959026Y-121348723D01*
X158959022Y-121348721D01*
X158752752Y-121293452D01*
X158752748Y-121293451D01*
X158752747Y-121293451D01*
X158752746Y-121293450D01*
X158752741Y-121293450D01*
X158540002Y-121274838D01*
X158539998Y-121274838D01*
X158327258Y-121293450D01*
X158327247Y-121293452D01*
X158120977Y-121348721D01*
X158120968Y-121348725D01*
X157927421Y-121438977D01*
X157752478Y-121561472D01*
X157601472Y-121712478D01*
X157478977Y-121887421D01*
X157388725Y-122080968D01*
X157388721Y-122080977D01*
X157333452Y-122287247D01*
X157333450Y-122287258D01*
X157314838Y-122499998D01*
X133311368Y-122499998D01*
X137811368Y-117999998D01*
X154234532Y-117999998D01*
X154234532Y-118000001D01*
X154254364Y-118226686D01*
X154254366Y-118226697D01*
X154313258Y-118446488D01*
X154313261Y-118446497D01*
X154409431Y-118652732D01*
X154409432Y-118652734D01*
X154539954Y-118839141D01*
X154700858Y-119000045D01*
X154700861Y-119000047D01*
X154887266Y-119130568D01*
X155093504Y-119226739D01*
X155313308Y-119285635D01*
X155475230Y-119299801D01*
X155539998Y-119305468D01*
X155540000Y-119305468D01*
X155540002Y-119305468D01*
X155596673Y-119300509D01*
X155766692Y-119285635D01*
X155986496Y-119226739D01*
X156192734Y-119130568D01*
X156379139Y-119000047D01*
X156540047Y-118839139D01*
X156670568Y-118652734D01*
X156766739Y-118446496D01*
X156825635Y-118226692D01*
X156845468Y-118000000D01*
X156825635Y-117773308D01*
X156766739Y-117553504D01*
X156670568Y-117347266D01*
X156540047Y-117160861D01*
X156540045Y-117160858D01*
X156379141Y-116999954D01*
X156192734Y-116869432D01*
X156192732Y-116869431D01*
X155986497Y-116773261D01*
X155986488Y-116773258D01*
X155766697Y-116714366D01*
X155766693Y-116714365D01*
X155766692Y-116714365D01*
X155766691Y-116714364D01*
X155766686Y-116714364D01*
X155540002Y-116694532D01*
X155539998Y-116694532D01*
X155313313Y-116714364D01*
X155313302Y-116714366D01*
X155093511Y-116773258D01*
X155093502Y-116773261D01*
X154887267Y-116869431D01*
X154887265Y-116869432D01*
X154700858Y-116999954D01*
X154539954Y-117160858D01*
X154409432Y-117347265D01*
X154409431Y-117347267D01*
X154313261Y-117553502D01*
X154313258Y-117553511D01*
X154254366Y-117773302D01*
X154254364Y-117773313D01*
X154234532Y-117999998D01*
X137811368Y-117999998D01*
X142311368Y-113499998D01*
X149234838Y-113499998D01*
X149234838Y-113500001D01*
X149253450Y-113712741D01*
X149253452Y-113712752D01*
X149308721Y-113919022D01*
X149308723Y-113919026D01*
X149308724Y-113919030D01*
X149351171Y-114010058D01*
X149398977Y-114112578D01*
X149521472Y-114287521D01*
X149672478Y-114438527D01*
X149672481Y-114438529D01*
X149847419Y-114561021D01*
X149847421Y-114561022D01*
X149847420Y-114561022D01*
X149911936Y-114591106D01*
X150040970Y-114651276D01*
X150040976Y-114651277D01*
X150040977Y-114651278D01*
X150046605Y-114652786D01*
X150247253Y-114706549D01*
X150399215Y-114719844D01*
X150459998Y-114725162D01*
X150460000Y-114725162D01*
X150460002Y-114725162D01*
X150513186Y-114720508D01*
X150672747Y-114706549D01*
X150879030Y-114651276D01*
X151072581Y-114561021D01*
X151247519Y-114438529D01*
X151398529Y-114287519D01*
X151521021Y-114112581D01*
X151611276Y-113919030D01*
X151611280Y-113919013D01*
X151613130Y-113913936D01*
X151615253Y-113914709D01*
X151646576Y-113863305D01*
X151709419Y-113832766D01*
X151778796Y-113841050D01*
X151832680Y-113885528D01*
X151845827Y-113914315D01*
X151846870Y-113913936D01*
X151848722Y-113919022D01*
X151848724Y-113919030D01*
X151891171Y-114010058D01*
X151938977Y-114112578D01*
X152061472Y-114287521D01*
X152212478Y-114438527D01*
X152212481Y-114438529D01*
X152387419Y-114561021D01*
X152387421Y-114561022D01*
X152387420Y-114561022D01*
X152451936Y-114591106D01*
X152580970Y-114651276D01*
X152580976Y-114651277D01*
X152580977Y-114651278D01*
X152586605Y-114652786D01*
X152787253Y-114706549D01*
X152939215Y-114719844D01*
X152999998Y-114725162D01*
X153000000Y-114725162D01*
X153000002Y-114725162D01*
X153053186Y-114720508D01*
X153212747Y-114706549D01*
X153419030Y-114651276D01*
X153612581Y-114561021D01*
X153787519Y-114438529D01*
X153938529Y-114287519D01*
X154061021Y-114112581D01*
X154151276Y-113919030D01*
X154151280Y-113919013D01*
X154153130Y-113913936D01*
X154155253Y-113914709D01*
X154186576Y-113863305D01*
X154249419Y-113832766D01*
X154318796Y-113841050D01*
X154372680Y-113885528D01*
X154385827Y-113914315D01*
X154386870Y-113913936D01*
X154388722Y-113919022D01*
X154388724Y-113919030D01*
X154431171Y-114010058D01*
X154478977Y-114112578D01*
X154601472Y-114287521D01*
X154752478Y-114438527D01*
X154752481Y-114438529D01*
X154927419Y-114561021D01*
X154927421Y-114561022D01*
X154927420Y-114561022D01*
X154991936Y-114591106D01*
X155120970Y-114651276D01*
X155120976Y-114651277D01*
X155120977Y-114651278D01*
X155126605Y-114652786D01*
X155327253Y-114706549D01*
X155479215Y-114719844D01*
X155539998Y-114725162D01*
X155540000Y-114725162D01*
X155540002Y-114725162D01*
X155593186Y-114720508D01*
X155752747Y-114706549D01*
X155959030Y-114651276D01*
X156152581Y-114561021D01*
X156327519Y-114438529D01*
X156478529Y-114287519D01*
X156601021Y-114112581D01*
X156691276Y-113919030D01*
X156746549Y-113712747D01*
X156765162Y-113500000D01*
X156746549Y-113287253D01*
X156691276Y-113080970D01*
X156601021Y-112887419D01*
X156478529Y-112712481D01*
X156478527Y-112712478D01*
X156327521Y-112561472D01*
X156152578Y-112438977D01*
X156152579Y-112438977D01*
X156010534Y-112372741D01*
X155959030Y-112348724D01*
X155959026Y-112348723D01*
X155959022Y-112348721D01*
X155752752Y-112293452D01*
X155752748Y-112293451D01*
X155752747Y-112293451D01*
X155752746Y-112293450D01*
X155752741Y-112293450D01*
X155540002Y-112274838D01*
X155539998Y-112274838D01*
X155327258Y-112293450D01*
X155327247Y-112293452D01*
X155120977Y-112348721D01*
X155120968Y-112348725D01*
X154927421Y-112438977D01*
X154752478Y-112561472D01*
X154601472Y-112712478D01*
X154478977Y-112887421D01*
X154388725Y-113080968D01*
X154386870Y-113086064D01*
X154384749Y-113085292D01*
X154353406Y-113136710D01*
X154290558Y-113167237D01*
X154221183Y-113158939D01*
X154167307Y-113114452D01*
X154154169Y-113085685D01*
X154153130Y-113086064D01*
X154151279Y-113080983D01*
X154151276Y-113080970D01*
X154061021Y-112887419D01*
X153938529Y-112712481D01*
X153938527Y-112712478D01*
X153787521Y-112561472D01*
X153612578Y-112438977D01*
X153612579Y-112438977D01*
X153470534Y-112372741D01*
X153419030Y-112348724D01*
X153419026Y-112348723D01*
X153419022Y-112348721D01*
X153212752Y-112293452D01*
X153212748Y-112293451D01*
X153212747Y-112293451D01*
X153212746Y-112293450D01*
X153212741Y-112293450D01*
X153000002Y-112274838D01*
X152999998Y-112274838D01*
X152787258Y-112293450D01*
X152787247Y-112293452D01*
X152580977Y-112348721D01*
X152580968Y-112348725D01*
X152387421Y-112438977D01*
X152212478Y-112561472D01*
X152061472Y-112712478D01*
X151938977Y-112887421D01*
X151848725Y-113080968D01*
X151846870Y-113086064D01*
X151844749Y-113085292D01*
X151813406Y-113136710D01*
X151750558Y-113167237D01*
X151681183Y-113158939D01*
X151627307Y-113114452D01*
X151614169Y-113085685D01*
X151613130Y-113086064D01*
X151611279Y-113080983D01*
X151611276Y-113080970D01*
X151521021Y-112887419D01*
X151398529Y-112712481D01*
X151398527Y-112712478D01*
X151247521Y-112561472D01*
X151072578Y-112438977D01*
X151072579Y-112438977D01*
X150930534Y-112372741D01*
X150879030Y-112348724D01*
X150879026Y-112348723D01*
X150879022Y-112348721D01*
X150672752Y-112293452D01*
X150672748Y-112293451D01*
X150672747Y-112293451D01*
X150672746Y-112293450D01*
X150672741Y-112293450D01*
X150460002Y-112274838D01*
X150459998Y-112274838D01*
X150247258Y-112293450D01*
X150247247Y-112293452D01*
X150040977Y-112348721D01*
X150040968Y-112348725D01*
X149847421Y-112438977D01*
X149672478Y-112561472D01*
X149521472Y-112712478D01*
X149398977Y-112887421D01*
X149308725Y-113080968D01*
X149308721Y-113080977D01*
X149253452Y-113287247D01*
X149253450Y-113287258D01*
X149234838Y-113499998D01*
X142311368Y-113499998D01*
X143811369Y-111999997D01*
X158115034Y-111999997D01*
X158115034Y-112000002D01*
X158134858Y-112226599D01*
X158134860Y-112226610D01*
X158193730Y-112446317D01*
X158193735Y-112446331D01*
X158289863Y-112652478D01*
X158340974Y-112725472D01*
X159020000Y-112046446D01*
X159020000Y-112052661D01*
X159047259Y-112154394D01*
X159099920Y-112245606D01*
X159174394Y-112320080D01*
X159265606Y-112372741D01*
X159367339Y-112400000D01*
X159373553Y-112400000D01*
X158694526Y-113079025D01*
X158767513Y-113130132D01*
X158767521Y-113130136D01*
X158973668Y-113226264D01*
X158973682Y-113226269D01*
X159193389Y-113285139D01*
X159193400Y-113285141D01*
X159419998Y-113304966D01*
X159420002Y-113304966D01*
X159646599Y-113285141D01*
X159646610Y-113285139D01*
X159866317Y-113226269D01*
X159866331Y-113226264D01*
X160072478Y-113130136D01*
X160145471Y-113079024D01*
X159466447Y-112400000D01*
X159472661Y-112400000D01*
X159574394Y-112372741D01*
X159665606Y-112320080D01*
X159740080Y-112245606D01*
X159792741Y-112154394D01*
X159820000Y-112052661D01*
X159820000Y-112046447D01*
X160499024Y-112725471D01*
X160550136Y-112652478D01*
X160646264Y-112446331D01*
X160646269Y-112446317D01*
X160705139Y-112226610D01*
X160705141Y-112226599D01*
X160724966Y-112000002D01*
X160724966Y-111999997D01*
X160705141Y-111773400D01*
X160705139Y-111773389D01*
X160646269Y-111553682D01*
X160646264Y-111553668D01*
X160550136Y-111347521D01*
X160550132Y-111347513D01*
X160499025Y-111274526D01*
X159820000Y-111953551D01*
X159820000Y-111947339D01*
X159792741Y-111845606D01*
X159740080Y-111754394D01*
X159665606Y-111679920D01*
X159574394Y-111627259D01*
X159472661Y-111600000D01*
X159466445Y-111600000D01*
X160145472Y-110920974D01*
X160072478Y-110869863D01*
X159866331Y-110773735D01*
X159866317Y-110773730D01*
X159646610Y-110714860D01*
X159646599Y-110714858D01*
X159420002Y-110695034D01*
X159419998Y-110695034D01*
X159193400Y-110714858D01*
X159193389Y-110714860D01*
X158973682Y-110773730D01*
X158973673Y-110773734D01*
X158767516Y-110869866D01*
X158767512Y-110869868D01*
X158694526Y-110920973D01*
X158694526Y-110920974D01*
X159373553Y-111600000D01*
X159367339Y-111600000D01*
X159265606Y-111627259D01*
X159174394Y-111679920D01*
X159099920Y-111754394D01*
X159047259Y-111845606D01*
X159020000Y-111947339D01*
X159020000Y-111953552D01*
X158340974Y-111274526D01*
X158340973Y-111274526D01*
X158289868Y-111347512D01*
X158289866Y-111347516D01*
X158193734Y-111553673D01*
X158193730Y-111553682D01*
X158134860Y-111773389D01*
X158134858Y-111773400D01*
X158115034Y-111999997D01*
X143811369Y-111999997D01*
X149561370Y-106249997D01*
X159695034Y-106249997D01*
X159695034Y-106250002D01*
X159714858Y-106476599D01*
X159714860Y-106476610D01*
X159773730Y-106696317D01*
X159773735Y-106696331D01*
X159869863Y-106902478D01*
X159920974Y-106975472D01*
X160600000Y-106296446D01*
X160600000Y-106302661D01*
X160627259Y-106404394D01*
X160679920Y-106495606D01*
X160754394Y-106570080D01*
X160845606Y-106622741D01*
X160947339Y-106650000D01*
X160953553Y-106650000D01*
X160274526Y-107329025D01*
X160347513Y-107380132D01*
X160347521Y-107380136D01*
X160553668Y-107476264D01*
X160553682Y-107476269D01*
X160773389Y-107535139D01*
X160773400Y-107535141D01*
X160999998Y-107554966D01*
X161000002Y-107554966D01*
X161226599Y-107535141D01*
X161226610Y-107535139D01*
X161446317Y-107476269D01*
X161446331Y-107476264D01*
X161652478Y-107380136D01*
X161725471Y-107329024D01*
X161046447Y-106650000D01*
X161052661Y-106650000D01*
X161154394Y-106622741D01*
X161245606Y-106570080D01*
X161320080Y-106495606D01*
X161372741Y-106404394D01*
X161400000Y-106302661D01*
X161400000Y-106296447D01*
X162079024Y-106975471D01*
X162130136Y-106902478D01*
X162226264Y-106696331D01*
X162226269Y-106696317D01*
X162285139Y-106476610D01*
X162285141Y-106476599D01*
X162304966Y-106250002D01*
X162304966Y-106249998D01*
X164694532Y-106249998D01*
X164694532Y-106250001D01*
X164714364Y-106476686D01*
X164714366Y-106476697D01*
X164773258Y-106696488D01*
X164773261Y-106696497D01*
X164869431Y-106902732D01*
X164869432Y-106902734D01*
X164999954Y-107089141D01*
X165160858Y-107250045D01*
X165160861Y-107250047D01*
X165347266Y-107380568D01*
X165553504Y-107476739D01*
X165773308Y-107535635D01*
X165935230Y-107549801D01*
X165999998Y-107555468D01*
X166000000Y-107555468D01*
X166000002Y-107555468D01*
X166056673Y-107550509D01*
X166226692Y-107535635D01*
X166446496Y-107476739D01*
X166652734Y-107380568D01*
X166839139Y-107250047D01*
X167000047Y-107089139D01*
X167130568Y-106902734D01*
X167226739Y-106696496D01*
X167285635Y-106476692D01*
X167305468Y-106250000D01*
X167285635Y-106023308D01*
X167226739Y-105803504D01*
X167130568Y-105597266D01*
X167000047Y-105410861D01*
X167000045Y-105410858D01*
X166839141Y-105249954D01*
X166652734Y-105119432D01*
X166652732Y-105119431D01*
X166446497Y-105023261D01*
X166446488Y-105023258D01*
X166226697Y-104964366D01*
X166226693Y-104964365D01*
X166226692Y-104964365D01*
X166226691Y-104964364D01*
X166226686Y-104964364D01*
X166000002Y-104944532D01*
X165999998Y-104944532D01*
X165773313Y-104964364D01*
X165773302Y-104964366D01*
X165553511Y-105023258D01*
X165553502Y-105023261D01*
X165347267Y-105119431D01*
X165347265Y-105119432D01*
X165160858Y-105249954D01*
X164999954Y-105410858D01*
X164869432Y-105597265D01*
X164869431Y-105597267D01*
X164773261Y-105803502D01*
X164773258Y-105803511D01*
X164714366Y-106023302D01*
X164714364Y-106023313D01*
X164694532Y-106249998D01*
X162304966Y-106249998D01*
X162304966Y-106249997D01*
X162285141Y-106023400D01*
X162285139Y-106023389D01*
X162226269Y-105803682D01*
X162226264Y-105803668D01*
X162130136Y-105597521D01*
X162130132Y-105597513D01*
X162079025Y-105524526D01*
X161400000Y-106203551D01*
X161400000Y-106197339D01*
X161372741Y-106095606D01*
X161320080Y-106004394D01*
X161245606Y-105929920D01*
X161154394Y-105877259D01*
X161052661Y-105850000D01*
X161046445Y-105850000D01*
X161725472Y-105170974D01*
X161652478Y-105119863D01*
X161446331Y-105023735D01*
X161446317Y-105023730D01*
X161226610Y-104964860D01*
X161226599Y-104964858D01*
X161000002Y-104945034D01*
X160999998Y-104945034D01*
X160773400Y-104964858D01*
X160773389Y-104964860D01*
X160553682Y-105023730D01*
X160553673Y-105023734D01*
X160347516Y-105119866D01*
X160347512Y-105119868D01*
X160274526Y-105170973D01*
X160274526Y-105170974D01*
X160953553Y-105850000D01*
X160947339Y-105850000D01*
X160845606Y-105877259D01*
X160754394Y-105929920D01*
X160679920Y-106004394D01*
X160627259Y-106095606D01*
X160600000Y-106197339D01*
X160600000Y-106203552D01*
X159920974Y-105524526D01*
X159920973Y-105524526D01*
X159869868Y-105597512D01*
X159869866Y-105597516D01*
X159773734Y-105803673D01*
X159773730Y-105803682D01*
X159714860Y-106023389D01*
X159714858Y-106023400D01*
X159695034Y-106249997D01*
X149561370Y-106249997D01*
X152811369Y-102999998D01*
X154614532Y-102999998D01*
X154614532Y-103000001D01*
X154634364Y-103226686D01*
X154634366Y-103226697D01*
X154693258Y-103446488D01*
X154693261Y-103446497D01*
X154789431Y-103652732D01*
X154789432Y-103652734D01*
X154919954Y-103839141D01*
X155080858Y-104000045D01*
X155080861Y-104000047D01*
X155267266Y-104130568D01*
X155473504Y-104226739D01*
X155693308Y-104285635D01*
X155855230Y-104299801D01*
X155919998Y-104305468D01*
X155920000Y-104305468D01*
X155920002Y-104305468D01*
X155976673Y-104300509D01*
X156146692Y-104285635D01*
X156366496Y-104226739D01*
X156572734Y-104130568D01*
X156759139Y-104000047D01*
X156920047Y-103839139D01*
X157050568Y-103652734D01*
X157146739Y-103446496D01*
X157205635Y-103226692D01*
X157225468Y-103000000D01*
X157225468Y-102999998D01*
X164774532Y-102999998D01*
X164774532Y-103000001D01*
X164794364Y-103226686D01*
X164794366Y-103226697D01*
X164853258Y-103446488D01*
X164853261Y-103446497D01*
X164949431Y-103652732D01*
X164949432Y-103652734D01*
X165079954Y-103839141D01*
X165240858Y-104000045D01*
X165240861Y-104000047D01*
X165427266Y-104130568D01*
X165633504Y-104226739D01*
X165853308Y-104285635D01*
X166015230Y-104299801D01*
X166079998Y-104305468D01*
X166080000Y-104305468D01*
X166080002Y-104305468D01*
X166136673Y-104300509D01*
X166306692Y-104285635D01*
X166526496Y-104226739D01*
X166732734Y-104130568D01*
X166919139Y-104000047D01*
X167080047Y-103839139D01*
X167210568Y-103652734D01*
X167306739Y-103446496D01*
X167365635Y-103226692D01*
X167385468Y-103000000D01*
X167365635Y-102773308D01*
X167306739Y-102553504D01*
X167210568Y-102347266D01*
X167080047Y-102160861D01*
X167080045Y-102160858D01*
X166919141Y-101999954D01*
X166732734Y-101869432D01*
X166732732Y-101869431D01*
X166526497Y-101773261D01*
X166526488Y-101773258D01*
X166306697Y-101714366D01*
X166306693Y-101714365D01*
X166306692Y-101714365D01*
X166306691Y-101714364D01*
X166306686Y-101714364D01*
X166080002Y-101694532D01*
X166079998Y-101694532D01*
X165853313Y-101714364D01*
X165853302Y-101714366D01*
X165633511Y-101773258D01*
X165633502Y-101773261D01*
X165427267Y-101869431D01*
X165427265Y-101869432D01*
X165240858Y-101999954D01*
X165079954Y-102160858D01*
X164949432Y-102347265D01*
X164949431Y-102347267D01*
X164853261Y-102553502D01*
X164853258Y-102553511D01*
X164794366Y-102773302D01*
X164794364Y-102773313D01*
X164774532Y-102999998D01*
X157225468Y-102999998D01*
X157205635Y-102773308D01*
X157146739Y-102553504D01*
X157050568Y-102347266D01*
X156920047Y-102160861D01*
X156920045Y-102160858D01*
X156759141Y-101999954D01*
X156572734Y-101869432D01*
X156572732Y-101869431D01*
X156366497Y-101773261D01*
X156366488Y-101773258D01*
X156146697Y-101714366D01*
X156146693Y-101714365D01*
X156146692Y-101714365D01*
X156146691Y-101714364D01*
X156146686Y-101714364D01*
X155920002Y-101694532D01*
X155919998Y-101694532D01*
X155693313Y-101714364D01*
X155693302Y-101714366D01*
X155473511Y-101773258D01*
X155473502Y-101773261D01*
X155267267Y-101869431D01*
X155267265Y-101869432D01*
X155080858Y-101999954D01*
X154919954Y-102160858D01*
X154789432Y-102347265D01*
X154789431Y-102347267D01*
X154693261Y-102553502D01*
X154693258Y-102553511D01*
X154634366Y-102773302D01*
X154634364Y-102773313D01*
X154614532Y-102999998D01*
X152811369Y-102999998D01*
X154082951Y-101728416D01*
X154165084Y-101605495D01*
X154221658Y-101468913D01*
X154250500Y-101323918D01*
X154250500Y-101176083D01*
X154250500Y-63162229D01*
X154270185Y-63095190D01*
X154286814Y-63074553D01*
X156313592Y-61047774D01*
X156374913Y-61014291D01*
X156444605Y-61019275D01*
X156483483Y-61042629D01*
X156584444Y-61132053D01*
X156714665Y-61193242D01*
X156781486Y-61213654D01*
X156781487Y-61213654D01*
X156781637Y-61213677D01*
X156781777Y-61213699D01*
X156806929Y-61217594D01*
X156923672Y-61235677D01*
X158619158Y-61254107D01*
X158619168Y-61254106D01*
X158619170Y-61254106D01*
X158693601Y-61246716D01*
X158729424Y-61243160D01*
X158782283Y-61231961D01*
X158887504Y-61197257D01*
X159008543Y-61119469D01*
X159061347Y-61073714D01*
X159155567Y-60964980D01*
X159215338Y-60834103D01*
X159235023Y-60767064D01*
X159235024Y-60767060D01*
X159255500Y-60624644D01*
X159255500Y-58910729D01*
X159255178Y-58892683D01*
X159254862Y-58883837D01*
X159253896Y-58865820D01*
X159223312Y-58725228D01*
X159198895Y-58659764D01*
X159129944Y-58533489D01*
X159129938Y-58533483D01*
X159066591Y-58470133D01*
X159033107Y-58408809D01*
X159038093Y-58339118D01*
X159066591Y-58294775D01*
X160638299Y-56723067D01*
X160699620Y-56689584D01*
X160762525Y-56692258D01*
X160903806Y-56735839D01*
X160903808Y-56735839D01*
X160903810Y-56735840D01*
X161166937Y-56775499D01*
X161166942Y-56775499D01*
X161166945Y-56775500D01*
X161166946Y-56775500D01*
X161433054Y-56775500D01*
X161433055Y-56775500D01*
X161433062Y-56775499D01*
X161696183Y-56735841D01*
X161696188Y-56735840D01*
X161696188Y-56735839D01*
X161696194Y-56735839D01*
X161837473Y-56692258D01*
X161907332Y-56691308D01*
X161961701Y-56723069D01*
X170463181Y-65224549D01*
X170496666Y-65285872D01*
X170499500Y-65312230D01*
X170499500Y-110818021D01*
X170479815Y-110885060D01*
X170427011Y-110930815D01*
X170357853Y-110940759D01*
X170304378Y-110919597D01*
X170255053Y-110885060D01*
X170232734Y-110869432D01*
X170232732Y-110869431D01*
X170026497Y-110773261D01*
X170026488Y-110773258D01*
X169806697Y-110714366D01*
X169806693Y-110714365D01*
X169806692Y-110714365D01*
X169806691Y-110714364D01*
X169806686Y-110714364D01*
X169580002Y-110694532D01*
X169579998Y-110694532D01*
X169353313Y-110714364D01*
X169353302Y-110714366D01*
X169133511Y-110773258D01*
X169133502Y-110773261D01*
X168927267Y-110869431D01*
X168927265Y-110869432D01*
X168740858Y-110999954D01*
X168579954Y-111160858D01*
X168449432Y-111347265D01*
X168449431Y-111347267D01*
X168353261Y-111553502D01*
X168353258Y-111553511D01*
X168294366Y-111773302D01*
X168294364Y-111773313D01*
X168274532Y-111999998D01*
X168274532Y-112000001D01*
X168294364Y-112226686D01*
X168294366Y-112226697D01*
X168353258Y-112446488D01*
X168353261Y-112446497D01*
X168449431Y-112652732D01*
X168449432Y-112652734D01*
X168579954Y-112839141D01*
X168740858Y-113000045D01*
X168740861Y-113000047D01*
X168927266Y-113130568D01*
X169133504Y-113226739D01*
X169353308Y-113285635D01*
X169515230Y-113299801D01*
X169579998Y-113305468D01*
X169580000Y-113305468D01*
X169580002Y-113305468D01*
X169636673Y-113300509D01*
X169806692Y-113285635D01*
X170026496Y-113226739D01*
X170232734Y-113130568D01*
X170304378Y-113080402D01*
X170370583Y-113058076D01*
X170438350Y-113075086D01*
X170486163Y-113126034D01*
X170499500Y-113181978D01*
X170499500Y-119927770D01*
X170479815Y-119994809D01*
X170463181Y-120015451D01*
X170259685Y-120218946D01*
X170198362Y-120252431D01*
X170128670Y-120247447D01*
X170072737Y-120205575D01*
X170054074Y-120169585D01*
X170025220Y-120080781D01*
X169932287Y-119898390D01*
X169924556Y-119887749D01*
X169811971Y-119732786D01*
X169667217Y-119588032D01*
X169667211Y-119588027D01*
X169501614Y-119467715D01*
X169460069Y-119446547D01*
X169408917Y-119420483D01*
X169358123Y-119372511D01*
X169341328Y-119304690D01*
X169363865Y-119238555D01*
X169408917Y-119199516D01*
X169501610Y-119152287D01*
X169531505Y-119130567D01*
X169667213Y-119031971D01*
X169667215Y-119031968D01*
X169667219Y-119031966D01*
X169811966Y-118887219D01*
X169811968Y-118887215D01*
X169811971Y-118887213D01*
X169864732Y-118814590D01*
X169932287Y-118721610D01*
X170025220Y-118539219D01*
X170088477Y-118344534D01*
X170120500Y-118142352D01*
X170120500Y-117937648D01*
X170102019Y-117820968D01*
X170088477Y-117735465D01*
X170025218Y-117540776D01*
X169969859Y-117432129D01*
X169932287Y-117358390D01*
X169890934Y-117301472D01*
X169811971Y-117192786D01*
X169667213Y-117048028D01*
X169501614Y-116927715D01*
X169495006Y-116924348D01*
X169408917Y-116880483D01*
X169358123Y-116832511D01*
X169341328Y-116764690D01*
X169363865Y-116698555D01*
X169408917Y-116659516D01*
X169501610Y-116612287D01*
X169522770Y-116596913D01*
X169667213Y-116491971D01*
X169667215Y-116491968D01*
X169667219Y-116491966D01*
X169811966Y-116347219D01*
X169811968Y-116347215D01*
X169811971Y-116347213D01*
X169866918Y-116271584D01*
X169932287Y-116181610D01*
X170025220Y-115999219D01*
X170088477Y-115804534D01*
X170120500Y-115602352D01*
X170120500Y-115397648D01*
X170088477Y-115195466D01*
X170025220Y-115000781D01*
X170025218Y-115000778D01*
X170025218Y-115000776D01*
X169991503Y-114934607D01*
X169932287Y-114818390D01*
X169924556Y-114807749D01*
X169811971Y-114652786D01*
X169667213Y-114508028D01*
X169501613Y-114387715D01*
X169501612Y-114387714D01*
X169501610Y-114387713D01*
X169444653Y-114358691D01*
X169319223Y-114294781D01*
X169124534Y-114231522D01*
X168949995Y-114203878D01*
X168922352Y-114199500D01*
X167917648Y-114199500D01*
X167893329Y-114203351D01*
X167715465Y-114231522D01*
X167520776Y-114294781D01*
X167338386Y-114387715D01*
X167172786Y-114508028D01*
X167028028Y-114652786D01*
X166907715Y-114818386D01*
X166814781Y-115000776D01*
X166751522Y-115195465D01*
X166719500Y-115397648D01*
X166719500Y-115602351D01*
X166751522Y-115804534D01*
X166814781Y-115999223D01*
X166907715Y-116181613D01*
X167028028Y-116347213D01*
X167172786Y-116491971D01*
X167327749Y-116604556D01*
X167338390Y-116612287D01*
X167429840Y-116658883D01*
X167431080Y-116659515D01*
X167481876Y-116707490D01*
X167498671Y-116775311D01*
X167476134Y-116841446D01*
X167431080Y-116880485D01*
X167338386Y-116927715D01*
X167172786Y-117048028D01*
X167028032Y-117192782D01*
X167028028Y-117192787D01*
X166974576Y-117266358D01*
X166919246Y-117309024D01*
X166849633Y-117315003D01*
X166787838Y-117282397D01*
X166772683Y-117264596D01*
X166700046Y-117160859D01*
X166539141Y-116999954D01*
X166352734Y-116869432D01*
X166352732Y-116869431D01*
X166146497Y-116773261D01*
X166146488Y-116773258D01*
X165926697Y-116714366D01*
X165926693Y-116714365D01*
X165926692Y-116714365D01*
X165926691Y-116714364D01*
X165926686Y-116714364D01*
X165700002Y-116694532D01*
X165699998Y-116694532D01*
X165473313Y-116714364D01*
X165473302Y-116714366D01*
X165253511Y-116773258D01*
X165253502Y-116773261D01*
X165047267Y-116869431D01*
X165047265Y-116869432D01*
X164860858Y-116999954D01*
X164699954Y-117160858D01*
X164569432Y-117347265D01*
X164569431Y-117347267D01*
X164473261Y-117553502D01*
X164473258Y-117553511D01*
X164414366Y-117773302D01*
X164414364Y-117773313D01*
X164394532Y-117999998D01*
X164394532Y-118000001D01*
X164414364Y-118226686D01*
X164414366Y-118226697D01*
X164473258Y-118446488D01*
X164473261Y-118446497D01*
X164569431Y-118652732D01*
X164569432Y-118652734D01*
X164699954Y-118839141D01*
X164860858Y-119000045D01*
X164860861Y-119000047D01*
X165047266Y-119130568D01*
X165253504Y-119226739D01*
X165473308Y-119285635D01*
X165635230Y-119299801D01*
X165699998Y-119305468D01*
X165700000Y-119305468D01*
X165700002Y-119305468D01*
X165756673Y-119300509D01*
X165926692Y-119285635D01*
X166146496Y-119226739D01*
X166352734Y-119130568D01*
X166539139Y-119000047D01*
X166700047Y-118839139D01*
X166744158Y-118776140D01*
X166798734Y-118732516D01*
X166868232Y-118725322D01*
X166930587Y-118756844D01*
X166946049Y-118774376D01*
X166993102Y-118839139D01*
X167028034Y-118887219D01*
X167172786Y-119031971D01*
X167308495Y-119130567D01*
X167338390Y-119152287D01*
X167429840Y-119198883D01*
X167431080Y-119199515D01*
X167481876Y-119247490D01*
X167498671Y-119315311D01*
X167476134Y-119381446D01*
X167431080Y-119420485D01*
X167338386Y-119467715D01*
X167172789Y-119588027D01*
X167172782Y-119588032D01*
X167028028Y-119732786D01*
X166907715Y-119898386D01*
X166814781Y-120080776D01*
X166751522Y-120275465D01*
X166719500Y-120477648D01*
X166719500Y-120682351D01*
X166751522Y-120884534D01*
X166814781Y-121079223D01*
X166907715Y-121261613D01*
X167028028Y-121427213D01*
X167172786Y-121571971D01*
X167327749Y-121684556D01*
X167338390Y-121692287D01*
X167417218Y-121732452D01*
X167431080Y-121739515D01*
X167481876Y-121787490D01*
X167498671Y-121855311D01*
X167476134Y-121921446D01*
X167431080Y-121960485D01*
X167338386Y-122007715D01*
X167172786Y-122128028D01*
X167028028Y-122272786D01*
X166907715Y-122438386D01*
X166814781Y-122620776D01*
X166751522Y-122815465D01*
X166719500Y-123017648D01*
X166719500Y-123222351D01*
X166751522Y-123424534D01*
X166814781Y-123619223D01*
X166859276Y-123706547D01*
X166905610Y-123797483D01*
X166907715Y-123801613D01*
X167028028Y-123967213D01*
X167172786Y-124111971D01*
X167327749Y-124224556D01*
X167338390Y-124232287D01*
X167427212Y-124277544D01*
X167520776Y-124325218D01*
X167520778Y-124325218D01*
X167520781Y-124325220D01*
X167614463Y-124355659D01*
X167715465Y-124388477D01*
X167816557Y-124404488D01*
X167917648Y-124420500D01*
X167917649Y-124420500D01*
X168922351Y-124420500D01*
X168922352Y-124420500D01*
X169124534Y-124388477D01*
X169319219Y-124325220D01*
X169501610Y-124232287D01*
X169637171Y-124133797D01*
X169667213Y-124111971D01*
X169667215Y-124111968D01*
X169667219Y-124111966D01*
X169811966Y-123967219D01*
X169811968Y-123967215D01*
X169811971Y-123967213D01*
X169905938Y-123837876D01*
X169932287Y-123801610D01*
X170025220Y-123619219D01*
X170088477Y-123424534D01*
X170120500Y-123222352D01*
X170120500Y-123017648D01*
X170088477Y-122815466D01*
X170037754Y-122659359D01*
X170035760Y-122589519D01*
X170068003Y-122533363D01*
X171832951Y-120768416D01*
X171915084Y-120645495D01*
X171971658Y-120508913D01*
X171981096Y-120461462D01*
X172000500Y-120363920D01*
X172000500Y-64876079D01*
X171971659Y-64731092D01*
X171971658Y-64731091D01*
X171971658Y-64731087D01*
X171915084Y-64594505D01*
X171882186Y-64545270D01*
X171882185Y-64545268D01*
X171832956Y-64471589D01*
X171832952Y-64471584D01*
X163026314Y-55664946D01*
X162992829Y-55603623D01*
X162997813Y-55533931D01*
X162998523Y-55532075D01*
X163001377Y-55524805D01*
X163060593Y-55265367D01*
X163063539Y-55226059D01*
X163080479Y-55000004D01*
X163080479Y-54999995D01*
X164320023Y-54999995D01*
X164320023Y-55000004D01*
X164339903Y-55265290D01*
X164339903Y-55265292D01*
X164399098Y-55524643D01*
X164399104Y-55524662D01*
X164496296Y-55772303D01*
X164629313Y-56002695D01*
X164629320Y-56002706D01*
X164680084Y-56066360D01*
X164680085Y-56066361D01*
X165403287Y-55343159D01*
X165413204Y-55367100D01*
X165498018Y-55494034D01*
X165605966Y-55601982D01*
X165732900Y-55686796D01*
X165756839Y-55696712D01*
X165032839Y-56420711D01*
X165210011Y-56541504D01*
X165210015Y-56541506D01*
X165449695Y-56656931D01*
X165449699Y-56656932D01*
X165703909Y-56735346D01*
X165703915Y-56735347D01*
X165966976Y-56774999D01*
X165966983Y-56775000D01*
X166233017Y-56775000D01*
X166233023Y-56774999D01*
X166496084Y-56735347D01*
X166496090Y-56735346D01*
X166750299Y-56656933D01*
X166989984Y-56541507D01*
X167167159Y-56420711D01*
X166443159Y-55696712D01*
X166467100Y-55686796D01*
X166594034Y-55601982D01*
X166701982Y-55494034D01*
X166786796Y-55367100D01*
X166796712Y-55343160D01*
X167519913Y-56066361D01*
X167519913Y-56066360D01*
X167570688Y-56002693D01*
X167703703Y-55772303D01*
X167800895Y-55524662D01*
X167800901Y-55524643D01*
X167860096Y-55265292D01*
X167860096Y-55265290D01*
X167879977Y-55000004D01*
X167879977Y-54999995D01*
X167860096Y-54734709D01*
X167860096Y-54734707D01*
X167800901Y-54475356D01*
X167800895Y-54475337D01*
X167703703Y-54227696D01*
X167570686Y-53997304D01*
X167519913Y-53933637D01*
X166796711Y-54656839D01*
X166786796Y-54632900D01*
X166701982Y-54505966D01*
X166594034Y-54398018D01*
X166467100Y-54313204D01*
X166443158Y-54303287D01*
X167167159Y-53579287D01*
X166989989Y-53458495D01*
X166989985Y-53458493D01*
X166750299Y-53343066D01*
X166496090Y-53264653D01*
X166496084Y-53264652D01*
X166233023Y-53225000D01*
X165966976Y-53225000D01*
X165703915Y-53264652D01*
X165703909Y-53264653D01*
X165449699Y-53343067D01*
X165449695Y-53343068D01*
X165210012Y-53458494D01*
X165210004Y-53458499D01*
X165032840Y-53579286D01*
X165756841Y-54303287D01*
X165732900Y-54313204D01*
X165605966Y-54398018D01*
X165498018Y-54505966D01*
X165413204Y-54632900D01*
X165403287Y-54656840D01*
X164680084Y-53933637D01*
X164629316Y-53997299D01*
X164496296Y-54227696D01*
X164399104Y-54475337D01*
X164399098Y-54475356D01*
X164339903Y-54734707D01*
X164339903Y-54734709D01*
X164320023Y-54999995D01*
X163080479Y-54999995D01*
X163060594Y-54734642D01*
X163060594Y-54734640D01*
X163060593Y-54734636D01*
X163060593Y-54734633D01*
X163001377Y-54475195D01*
X162904156Y-54227479D01*
X162771101Y-53997020D01*
X162605183Y-53788967D01*
X162605182Y-53788966D01*
X162605179Y-53788962D01*
X162410110Y-53607965D01*
X162368047Y-53579287D01*
X162190240Y-53458060D01*
X162190236Y-53458058D01*
X162190233Y-53458056D01*
X162190232Y-53458055D01*
X161950484Y-53342600D01*
X161950486Y-53342600D01*
X161696195Y-53264161D01*
X161696189Y-53264159D01*
X161433062Y-53224500D01*
X161433055Y-53224500D01*
X161166945Y-53224500D01*
X161166937Y-53224500D01*
X160903810Y-53264159D01*
X160903804Y-53264161D01*
X160649514Y-53342600D01*
X160409769Y-53458055D01*
X160409760Y-53458060D01*
X160189892Y-53607963D01*
X159994820Y-53788962D01*
X159828899Y-53997020D01*
X159695844Y-54227478D01*
X159598625Y-54475189D01*
X159598620Y-54475206D01*
X159539405Y-54734640D01*
X159539405Y-54734642D01*
X159519521Y-54999995D01*
X159519521Y-55000004D01*
X159539405Y-55265357D01*
X159539405Y-55265359D01*
X159591599Y-55494034D01*
X159598623Y-55524805D01*
X159598625Y-55524810D01*
X159601432Y-55531962D01*
X159607601Y-55601559D01*
X159575163Y-55663442D01*
X159573686Y-55664945D01*
X159467180Y-55771450D01*
X159405859Y-55804935D01*
X159336167Y-55799951D01*
X159280233Y-55758080D01*
X159255816Y-55692616D01*
X159255500Y-55683769D01*
X159255500Y-52624500D01*
X159275185Y-52557461D01*
X159327989Y-52511706D01*
X159379500Y-52500500D01*
X169137770Y-52500500D01*
X169204809Y-52520185D01*
X169225451Y-52536819D01*
X175253181Y-58564549D01*
X175286666Y-58625872D01*
X175289500Y-58652230D01*
X175289500Y-114156367D01*
X175269815Y-114223406D01*
X175217011Y-114269161D01*
X175203825Y-114274295D01*
X175179159Y-114282310D01*
X175140776Y-114294781D01*
X174958386Y-114387715D01*
X174792786Y-114508028D01*
X174648028Y-114652786D01*
X174527715Y-114818386D01*
X174434781Y-115000776D01*
X174371522Y-115195465D01*
X174339500Y-115397648D01*
X174339500Y-115602351D01*
X174371522Y-115804534D01*
X174434781Y-115999223D01*
X174527715Y-116181613D01*
X174648028Y-116347213D01*
X174792786Y-116491971D01*
X174947749Y-116604556D01*
X174958390Y-116612287D01*
X175049840Y-116658883D01*
X175051080Y-116659515D01*
X175101876Y-116707490D01*
X175118671Y-116775311D01*
X175096134Y-116841446D01*
X175051080Y-116880485D01*
X174958386Y-116927715D01*
X174792786Y-117048028D01*
X174648028Y-117192786D01*
X174527715Y-117358386D01*
X174434781Y-117540776D01*
X174371522Y-117735465D01*
X174339500Y-117937648D01*
X174339500Y-118142351D01*
X174371522Y-118344534D01*
X174434781Y-118539223D01*
X174527715Y-118721613D01*
X174648028Y-118887213D01*
X174792786Y-119031971D01*
X174928495Y-119130567D01*
X174958390Y-119152287D01*
X175049840Y-119198883D01*
X175051080Y-119199515D01*
X175101876Y-119247490D01*
X175118671Y-119315311D01*
X175096134Y-119381446D01*
X175051080Y-119420485D01*
X174958386Y-119467715D01*
X174792789Y-119588027D01*
X174792782Y-119588032D01*
X174648028Y-119732786D01*
X174527715Y-119898386D01*
X174434781Y-120080776D01*
X174371522Y-120275465D01*
X174339500Y-120477648D01*
X174339500Y-120682351D01*
X174371522Y-120884534D01*
X174434781Y-121079223D01*
X174527715Y-121261613D01*
X174648028Y-121427213D01*
X174792784Y-121571969D01*
X174829068Y-121598330D01*
X174871735Y-121653659D01*
X174877715Y-121723273D01*
X174845109Y-121785068D01*
X174784271Y-121819426D01*
X174769440Y-121821938D01*
X174732519Y-121825907D01*
X174597671Y-121876202D01*
X174597664Y-121876206D01*
X174482455Y-121962452D01*
X174482452Y-121962455D01*
X174396206Y-122077664D01*
X174396202Y-122077671D01*
X174345908Y-122212517D01*
X174340896Y-122259139D01*
X174339501Y-122272123D01*
X174339500Y-122272135D01*
X174339500Y-123967870D01*
X174339501Y-123967876D01*
X174345908Y-124027483D01*
X174396202Y-124162328D01*
X174396206Y-124162335D01*
X174482452Y-124277544D01*
X174482455Y-124277547D01*
X174597664Y-124363793D01*
X174597671Y-124363797D01*
X174732517Y-124414091D01*
X174732516Y-124414091D01*
X174739444Y-124414835D01*
X174792127Y-124420500D01*
X177287872Y-124420499D01*
X177347483Y-124414091D01*
X177482331Y-124363796D01*
X177597546Y-124277546D01*
X177683796Y-124162331D01*
X177734091Y-124027483D01*
X177740500Y-123967873D01*
X177740499Y-122272128D01*
X177734091Y-122212517D01*
X177685026Y-122080968D01*
X177683797Y-122077671D01*
X177683793Y-122077664D01*
X177597547Y-121962455D01*
X177597544Y-121962452D01*
X177482335Y-121876206D01*
X177482328Y-121876202D01*
X177347482Y-121825908D01*
X177347483Y-121825908D01*
X177310560Y-121821939D01*
X177246009Y-121795201D01*
X177206160Y-121737809D01*
X177203667Y-121667984D01*
X177239319Y-121607895D01*
X177250930Y-121598331D01*
X177287219Y-121571966D01*
X177431966Y-121427219D01*
X177431968Y-121427215D01*
X177431971Y-121427213D01*
X177437213Y-121419998D01*
X178234532Y-121419998D01*
X178234532Y-121420001D01*
X178254364Y-121646686D01*
X178254366Y-121646697D01*
X178313258Y-121866488D01*
X178313261Y-121866497D01*
X178409431Y-122072732D01*
X178409432Y-122072734D01*
X178539954Y-122259141D01*
X178700858Y-122420045D01*
X178700861Y-122420047D01*
X178887266Y-122550568D01*
X179093504Y-122646739D01*
X179313308Y-122705635D01*
X179475230Y-122719801D01*
X179539998Y-122725468D01*
X179540000Y-122725468D01*
X179540002Y-122725468D01*
X179596673Y-122720509D01*
X179766692Y-122705635D01*
X179986496Y-122646739D01*
X180192734Y-122550568D01*
X180379139Y-122420047D01*
X180540047Y-122259139D01*
X180670568Y-122072734D01*
X180766739Y-121866496D01*
X180825635Y-121646692D01*
X180845468Y-121420000D01*
X180845468Y-121419998D01*
X182194532Y-121419998D01*
X182194532Y-121420001D01*
X182214364Y-121646686D01*
X182214366Y-121646697D01*
X182273258Y-121866488D01*
X182273261Y-121866497D01*
X182369431Y-122072732D01*
X182369432Y-122072734D01*
X182499954Y-122259141D01*
X182660858Y-122420045D01*
X182660861Y-122420047D01*
X182847266Y-122550568D01*
X183053504Y-122646739D01*
X183273308Y-122705635D01*
X183435230Y-122719801D01*
X183499998Y-122725468D01*
X183500000Y-122725468D01*
X183500002Y-122725468D01*
X183556673Y-122720509D01*
X183726692Y-122705635D01*
X183946496Y-122646739D01*
X184152734Y-122550568D01*
X184339139Y-122420047D01*
X184500047Y-122259139D01*
X184630568Y-122072734D01*
X184726739Y-121866496D01*
X184785635Y-121646692D01*
X184805468Y-121420000D01*
X184785635Y-121193308D01*
X184726739Y-120973504D01*
X184630568Y-120767266D01*
X184500047Y-120580861D01*
X184500045Y-120580858D01*
X184339141Y-120419954D01*
X184152734Y-120289432D01*
X184152732Y-120289431D01*
X183946497Y-120193261D01*
X183946488Y-120193258D01*
X183726697Y-120134366D01*
X183726693Y-120134365D01*
X183726692Y-120134365D01*
X183726691Y-120134364D01*
X183726686Y-120134364D01*
X183500002Y-120114532D01*
X183499998Y-120114532D01*
X183273313Y-120134364D01*
X183273302Y-120134366D01*
X183053511Y-120193258D01*
X183053502Y-120193261D01*
X182847267Y-120289431D01*
X182847265Y-120289432D01*
X182660858Y-120419954D01*
X182499954Y-120580858D01*
X182369432Y-120767265D01*
X182369431Y-120767267D01*
X182273261Y-120973502D01*
X182273258Y-120973511D01*
X182214366Y-121193302D01*
X182214364Y-121193313D01*
X182194532Y-121419998D01*
X180845468Y-121419998D01*
X180825635Y-121193308D01*
X180766739Y-120973504D01*
X180670568Y-120767266D01*
X180540047Y-120580861D01*
X180540045Y-120580858D01*
X180379141Y-120419954D01*
X180192734Y-120289432D01*
X180192732Y-120289431D01*
X179986497Y-120193261D01*
X179986488Y-120193258D01*
X179766697Y-120134366D01*
X179766693Y-120134365D01*
X179766692Y-120134365D01*
X179766691Y-120134364D01*
X179766686Y-120134364D01*
X179540002Y-120114532D01*
X179539998Y-120114532D01*
X179313313Y-120134364D01*
X179313302Y-120134366D01*
X179093511Y-120193258D01*
X179093502Y-120193261D01*
X178887267Y-120289431D01*
X178887265Y-120289432D01*
X178700858Y-120419954D01*
X178539954Y-120580858D01*
X178409432Y-120767265D01*
X178409431Y-120767267D01*
X178313261Y-120973502D01*
X178313258Y-120973511D01*
X178254366Y-121193302D01*
X178254364Y-121193313D01*
X178234532Y-121419998D01*
X177437213Y-121419998D01*
X177488998Y-121348721D01*
X177552287Y-121261610D01*
X177645220Y-121079219D01*
X177708477Y-120884534D01*
X177740500Y-120682352D01*
X177740500Y-120477648D01*
X177722487Y-120363918D01*
X177708477Y-120275465D01*
X177679127Y-120185137D01*
X177645220Y-120080781D01*
X177645218Y-120080778D01*
X177645218Y-120080776D01*
X177593427Y-119979132D01*
X177552287Y-119898390D01*
X177544556Y-119887749D01*
X177431971Y-119732786D01*
X177287217Y-119588032D01*
X177287211Y-119588027D01*
X177121614Y-119467715D01*
X177080069Y-119446547D01*
X177028917Y-119420483D01*
X176978123Y-119372511D01*
X176961328Y-119304690D01*
X176983865Y-119238555D01*
X177028917Y-119199516D01*
X177121610Y-119152287D01*
X177151505Y-119130567D01*
X177287213Y-119031971D01*
X177287215Y-119031968D01*
X177287219Y-119031966D01*
X177431966Y-118887219D01*
X177431968Y-118887215D01*
X177431971Y-118887213D01*
X177484732Y-118814590D01*
X177552287Y-118721610D01*
X177645220Y-118539219D01*
X177708477Y-118344534D01*
X177740500Y-118142352D01*
X177740500Y-117937648D01*
X177722019Y-117820968D01*
X177708477Y-117735465D01*
X177645218Y-117540776D01*
X177589859Y-117432129D01*
X177552287Y-117358390D01*
X177510934Y-117301472D01*
X177431971Y-117192786D01*
X177287213Y-117048028D01*
X177121614Y-116927715D01*
X177115006Y-116924348D01*
X177028917Y-116880483D01*
X176978123Y-116832511D01*
X176961328Y-116764690D01*
X176983865Y-116698555D01*
X177028917Y-116659516D01*
X177121610Y-116612287D01*
X177142770Y-116596913D01*
X177287213Y-116491971D01*
X177287215Y-116491968D01*
X177287219Y-116491966D01*
X177431966Y-116347219D01*
X177431968Y-116347215D01*
X177431971Y-116347213D01*
X177486918Y-116271584D01*
X177552287Y-116181610D01*
X177645220Y-115999219D01*
X177708477Y-115804534D01*
X177740500Y-115602352D01*
X177740500Y-115397648D01*
X177708477Y-115195466D01*
X177645220Y-115000781D01*
X177645218Y-115000778D01*
X177645218Y-115000776D01*
X177611503Y-114934607D01*
X177553106Y-114819998D01*
X177934532Y-114819998D01*
X177934532Y-114820001D01*
X177954364Y-115046686D01*
X177954366Y-115046697D01*
X178013258Y-115266488D01*
X178013261Y-115266497D01*
X178109431Y-115472732D01*
X178109432Y-115472734D01*
X178239954Y-115659141D01*
X178400858Y-115820045D01*
X178400861Y-115820047D01*
X178587266Y-115950568D01*
X178793504Y-116046739D01*
X179013308Y-116105635D01*
X179175230Y-116119801D01*
X179239998Y-116125468D01*
X179240000Y-116125468D01*
X179240002Y-116125468D01*
X179296673Y-116120509D01*
X179466692Y-116105635D01*
X179686496Y-116046739D01*
X179892734Y-115950568D01*
X180079139Y-115820047D01*
X180240047Y-115659139D01*
X180370568Y-115472734D01*
X180466739Y-115266496D01*
X180525635Y-115046692D01*
X180545468Y-114820000D01*
X180545468Y-114819998D01*
X180934532Y-114819998D01*
X180934532Y-114820001D01*
X180954364Y-115046686D01*
X180954366Y-115046697D01*
X181013258Y-115266488D01*
X181013261Y-115266497D01*
X181109431Y-115472732D01*
X181109432Y-115472734D01*
X181239954Y-115659141D01*
X181400858Y-115820045D01*
X181400861Y-115820047D01*
X181587266Y-115950568D01*
X181793504Y-116046739D01*
X182013308Y-116105635D01*
X182175230Y-116119801D01*
X182239998Y-116125468D01*
X182240000Y-116125468D01*
X182240002Y-116125468D01*
X182296673Y-116120509D01*
X182466692Y-116105635D01*
X182686496Y-116046739D01*
X182892734Y-115950568D01*
X183079139Y-115820047D01*
X183240047Y-115659139D01*
X183370568Y-115472734D01*
X183466739Y-115266496D01*
X183525635Y-115046692D01*
X183545468Y-114820000D01*
X183525635Y-114593308D01*
X183466739Y-114373504D01*
X183370568Y-114167266D01*
X183240047Y-113980861D01*
X183240045Y-113980858D01*
X183079141Y-113819954D01*
X182892734Y-113689432D01*
X182892732Y-113689431D01*
X182686497Y-113593261D01*
X182686488Y-113593258D01*
X182466697Y-113534366D01*
X182466693Y-113534365D01*
X182466692Y-113534365D01*
X182466691Y-113534364D01*
X182466686Y-113534364D01*
X182240002Y-113514532D01*
X182239998Y-113514532D01*
X182013313Y-113534364D01*
X182013302Y-113534366D01*
X181793511Y-113593258D01*
X181793502Y-113593261D01*
X181587267Y-113689431D01*
X181587265Y-113689432D01*
X181400858Y-113819954D01*
X181239954Y-113980858D01*
X181109432Y-114167265D01*
X181109431Y-114167267D01*
X181013261Y-114373502D01*
X181013258Y-114373511D01*
X180954366Y-114593302D01*
X180954364Y-114593313D01*
X180934532Y-114819998D01*
X180545468Y-114819998D01*
X180525635Y-114593308D01*
X180466739Y-114373504D01*
X180370568Y-114167266D01*
X180240047Y-113980861D01*
X180240045Y-113980858D01*
X180079141Y-113819954D01*
X179892734Y-113689432D01*
X179892732Y-113689431D01*
X179686497Y-113593261D01*
X179686488Y-113593258D01*
X179466697Y-113534366D01*
X179466693Y-113534365D01*
X179466692Y-113534365D01*
X179466691Y-113534364D01*
X179466686Y-113534364D01*
X179240002Y-113514532D01*
X179239998Y-113514532D01*
X179013313Y-113534364D01*
X179013302Y-113534366D01*
X178793511Y-113593258D01*
X178793502Y-113593261D01*
X178587267Y-113689431D01*
X178587265Y-113689432D01*
X178400858Y-113819954D01*
X178239954Y-113980858D01*
X178109432Y-114167265D01*
X178109431Y-114167267D01*
X178013261Y-114373502D01*
X178013258Y-114373511D01*
X177954366Y-114593302D01*
X177954364Y-114593313D01*
X177934532Y-114819998D01*
X177553106Y-114819998D01*
X177552287Y-114818390D01*
X177544556Y-114807749D01*
X177431971Y-114652786D01*
X177287213Y-114508028D01*
X177121613Y-114387715D01*
X177121612Y-114387714D01*
X177121610Y-114387713D01*
X177064653Y-114358691D01*
X176939223Y-114294781D01*
X176912270Y-114286023D01*
X176876179Y-114274297D01*
X176818506Y-114234860D01*
X176791308Y-114170501D01*
X176790500Y-114156367D01*
X176790500Y-109819997D01*
X177935034Y-109819997D01*
X177935034Y-109820002D01*
X177954858Y-110046599D01*
X177954860Y-110046610D01*
X178013730Y-110266317D01*
X178013735Y-110266331D01*
X178109863Y-110472478D01*
X178160974Y-110545472D01*
X178840000Y-109866446D01*
X178840000Y-109872661D01*
X178867259Y-109974394D01*
X178919920Y-110065606D01*
X178994394Y-110140080D01*
X179085606Y-110192741D01*
X179187339Y-110220000D01*
X179193553Y-110220000D01*
X178514526Y-110899025D01*
X178587513Y-110950132D01*
X178587521Y-110950136D01*
X178793668Y-111046264D01*
X178793682Y-111046269D01*
X179013389Y-111105139D01*
X179013400Y-111105141D01*
X179239998Y-111124966D01*
X179240002Y-111124966D01*
X179466599Y-111105141D01*
X179466610Y-111105139D01*
X179686317Y-111046269D01*
X179686331Y-111046264D01*
X179892478Y-110950136D01*
X179965471Y-110899024D01*
X179286447Y-110220000D01*
X179292661Y-110220000D01*
X179394394Y-110192741D01*
X179485606Y-110140080D01*
X179560080Y-110065606D01*
X179612741Y-109974394D01*
X179640000Y-109872661D01*
X179640000Y-109866447D01*
X180319024Y-110545471D01*
X180370136Y-110472478D01*
X180466264Y-110266331D01*
X180466269Y-110266317D01*
X180525139Y-110046610D01*
X180525141Y-110046599D01*
X180544966Y-109820002D01*
X180544966Y-109819997D01*
X180935034Y-109819997D01*
X180935034Y-109820002D01*
X180954858Y-110046599D01*
X180954860Y-110046610D01*
X181013730Y-110266317D01*
X181013735Y-110266331D01*
X181109863Y-110472478D01*
X181160974Y-110545472D01*
X181840000Y-109866446D01*
X181840000Y-109872661D01*
X181867259Y-109974394D01*
X181919920Y-110065606D01*
X181994394Y-110140080D01*
X182085606Y-110192741D01*
X182187339Y-110220000D01*
X182193553Y-110220000D01*
X181514526Y-110899025D01*
X181587513Y-110950132D01*
X181587521Y-110950136D01*
X181793668Y-111046264D01*
X181793682Y-111046269D01*
X182013389Y-111105139D01*
X182013400Y-111105141D01*
X182239998Y-111124966D01*
X182240002Y-111124966D01*
X182466599Y-111105141D01*
X182466610Y-111105139D01*
X182686317Y-111046269D01*
X182686331Y-111046264D01*
X182892478Y-110950136D01*
X182965471Y-110899024D01*
X182286447Y-110220000D01*
X182292661Y-110220000D01*
X182394394Y-110192741D01*
X182485606Y-110140080D01*
X182560080Y-110065606D01*
X182612741Y-109974394D01*
X182640000Y-109872661D01*
X182640000Y-109866447D01*
X183319024Y-110545471D01*
X183370136Y-110472478D01*
X183466264Y-110266331D01*
X183466269Y-110266317D01*
X183525139Y-110046610D01*
X183525141Y-110046599D01*
X183544966Y-109820002D01*
X183544966Y-109819997D01*
X183525141Y-109593400D01*
X183525139Y-109593389D01*
X183466269Y-109373682D01*
X183466264Y-109373668D01*
X183370136Y-109167521D01*
X183370132Y-109167513D01*
X183319025Y-109094526D01*
X182640000Y-109773551D01*
X182640000Y-109767339D01*
X182612741Y-109665606D01*
X182560080Y-109574394D01*
X182485606Y-109499920D01*
X182394394Y-109447259D01*
X182292661Y-109420000D01*
X182286445Y-109420000D01*
X182965472Y-108740974D01*
X182892478Y-108689863D01*
X182686331Y-108593735D01*
X182686317Y-108593730D01*
X182466610Y-108534860D01*
X182466599Y-108534858D01*
X182240002Y-108515034D01*
X182239998Y-108515034D01*
X182013400Y-108534858D01*
X182013389Y-108534860D01*
X181793682Y-108593730D01*
X181793673Y-108593734D01*
X181587516Y-108689866D01*
X181587512Y-108689868D01*
X181514526Y-108740973D01*
X181514526Y-108740974D01*
X182193553Y-109420000D01*
X182187339Y-109420000D01*
X182085606Y-109447259D01*
X181994394Y-109499920D01*
X181919920Y-109574394D01*
X181867259Y-109665606D01*
X181840000Y-109767339D01*
X181840000Y-109773552D01*
X181160974Y-109094526D01*
X181160973Y-109094526D01*
X181109868Y-109167512D01*
X181109866Y-109167516D01*
X181013734Y-109373673D01*
X181013730Y-109373682D01*
X180954860Y-109593389D01*
X180954858Y-109593400D01*
X180935034Y-109819997D01*
X180544966Y-109819997D01*
X180525141Y-109593400D01*
X180525139Y-109593389D01*
X180466269Y-109373682D01*
X180466264Y-109373668D01*
X180370136Y-109167521D01*
X180370132Y-109167513D01*
X180319025Y-109094526D01*
X179640000Y-109773551D01*
X179640000Y-109767339D01*
X179612741Y-109665606D01*
X179560080Y-109574394D01*
X179485606Y-109499920D01*
X179394394Y-109447259D01*
X179292661Y-109420000D01*
X179286445Y-109420000D01*
X179965472Y-108740974D01*
X179892478Y-108689863D01*
X179686331Y-108593735D01*
X179686317Y-108593730D01*
X179466610Y-108534860D01*
X179466599Y-108534858D01*
X179240002Y-108515034D01*
X179239998Y-108515034D01*
X179013400Y-108534858D01*
X179013389Y-108534860D01*
X178793682Y-108593730D01*
X178793673Y-108593734D01*
X178587516Y-108689866D01*
X178587512Y-108689868D01*
X178514526Y-108740973D01*
X178514526Y-108740974D01*
X179193553Y-109420000D01*
X179187339Y-109420000D01*
X179085606Y-109447259D01*
X178994394Y-109499920D01*
X178919920Y-109574394D01*
X178867259Y-109665606D01*
X178840000Y-109767339D01*
X178840000Y-109773552D01*
X178160974Y-109094526D01*
X178160973Y-109094526D01*
X178109868Y-109167512D01*
X178109866Y-109167516D01*
X178013734Y-109373673D01*
X178013730Y-109373682D01*
X177954860Y-109593389D01*
X177954858Y-109593400D01*
X177935034Y-109819997D01*
X176790500Y-109819997D01*
X176790500Y-64878711D01*
X188149500Y-64878711D01*
X188149500Y-65121288D01*
X188181161Y-65361785D01*
X188243947Y-65596104D01*
X188336773Y-65820205D01*
X188336776Y-65820212D01*
X188458064Y-66030289D01*
X188458066Y-66030292D01*
X188458067Y-66030293D01*
X188605733Y-66222736D01*
X188605739Y-66222743D01*
X188777256Y-66394260D01*
X188777262Y-66394265D01*
X188969711Y-66541936D01*
X189179788Y-66663224D01*
X189403900Y-66756054D01*
X189638211Y-66818838D01*
X189818586Y-66842584D01*
X189878711Y-66850500D01*
X189878712Y-66850500D01*
X190121289Y-66850500D01*
X190169388Y-66844167D01*
X190361789Y-66818838D01*
X190596100Y-66756054D01*
X190820212Y-66663224D01*
X191030289Y-66541936D01*
X191222738Y-66394265D01*
X191394265Y-66222738D01*
X191541936Y-66030289D01*
X191663224Y-65820212D01*
X191756054Y-65596100D01*
X191818838Y-65361789D01*
X191850500Y-65121288D01*
X191850500Y-64878712D01*
X191818838Y-64638211D01*
X191756054Y-64403900D01*
X191663224Y-64179788D01*
X191541936Y-63969711D01*
X191394265Y-63777262D01*
X191394260Y-63777256D01*
X191222743Y-63605739D01*
X191222736Y-63605733D01*
X191030293Y-63458067D01*
X191030292Y-63458066D01*
X191030289Y-63458064D01*
X190820212Y-63336776D01*
X190820205Y-63336773D01*
X190596104Y-63243947D01*
X190361785Y-63181161D01*
X190121289Y-63149500D01*
X190121288Y-63149500D01*
X189878712Y-63149500D01*
X189878711Y-63149500D01*
X189638214Y-63181161D01*
X189403895Y-63243947D01*
X189179794Y-63336773D01*
X189179785Y-63336777D01*
X188969706Y-63458067D01*
X188777263Y-63605733D01*
X188777256Y-63605739D01*
X188605739Y-63777256D01*
X188605733Y-63777263D01*
X188458067Y-63969706D01*
X188336777Y-64179785D01*
X188336773Y-64179794D01*
X188243947Y-64403895D01*
X188181161Y-64638214D01*
X188149500Y-64878711D01*
X176790500Y-64878711D01*
X176790500Y-58216081D01*
X176784763Y-58187242D01*
X176784763Y-58187240D01*
X176761660Y-58071095D01*
X176761659Y-58071088D01*
X176707408Y-57940117D01*
X176705765Y-57935525D01*
X176705084Y-57934505D01*
X176670022Y-57882031D01*
X176670021Y-57882029D01*
X176622956Y-57811589D01*
X176622952Y-57811584D01*
X169978421Y-51167052D01*
X169978420Y-51167051D01*
X169921728Y-51129171D01*
X169869738Y-51094433D01*
X169855495Y-51084916D01*
X169855491Y-51084914D01*
X169855489Y-51084913D01*
X169718917Y-51028343D01*
X169718907Y-51028340D01*
X169573920Y-50999500D01*
X169573918Y-50999500D01*
X150076082Y-50999500D01*
X150076080Y-50999500D01*
X149931092Y-51028340D01*
X149931082Y-51028343D01*
X149794510Y-51084913D01*
X149794506Y-51084915D01*
X149794505Y-51084916D01*
X149780262Y-51094433D01*
X149728272Y-51129171D01*
X149671584Y-51167048D01*
X149656571Y-51182061D01*
X149595247Y-51215544D01*
X149525555Y-51210558D01*
X149487691Y-51188091D01*
X149379606Y-51094433D01*
X149379603Y-51094431D01*
X149379601Y-51094430D01*
X149248735Y-51034664D01*
X149248730Y-51034662D01*
X149248729Y-51034662D01*
X149181690Y-51014977D01*
X149181692Y-51014977D01*
X149181687Y-51014976D01*
X149119617Y-51006052D01*
X149039270Y-50994500D01*
X139124000Y-50994500D01*
X139123991Y-50994500D01*
X139123990Y-50994501D01*
X139016549Y-51006052D01*
X139016537Y-51006054D01*
X138965027Y-51017260D01*
X138862502Y-51051383D01*
X138862496Y-51051386D01*
X138741462Y-51129171D01*
X138741451Y-51129179D01*
X138688659Y-51174923D01*
X138594433Y-51283664D01*
X138594430Y-51283668D01*
X138532822Y-51418569D01*
X138531746Y-51418077D01*
X138493059Y-51469764D01*
X138427596Y-51494184D01*
X138418744Y-51494500D01*
X108624000Y-51494500D01*
X108623991Y-51494500D01*
X108623990Y-51494501D01*
X108516549Y-51506052D01*
X108516537Y-51506054D01*
X108465027Y-51517260D01*
X108362502Y-51551383D01*
X108362496Y-51551386D01*
X108241462Y-51629171D01*
X108241451Y-51629179D01*
X108188659Y-51674923D01*
X108094433Y-51783664D01*
X108094430Y-51783668D01*
X108034664Y-51914534D01*
X108014976Y-51981582D01*
X107994500Y-52124001D01*
X107994500Y-54070079D01*
X107974815Y-54137118D01*
X107922011Y-54182873D01*
X107852853Y-54192817D01*
X107823050Y-54184641D01*
X107796215Y-54173526D01*
X107796203Y-54173523D01*
X107600022Y-54134500D01*
X107600018Y-54134500D01*
X107399982Y-54134500D01*
X107399977Y-54134500D01*
X107203796Y-54173523D01*
X107203784Y-54173526D01*
X107018986Y-54250071D01*
X107018973Y-54250078D01*
X106852656Y-54361208D01*
X106852652Y-54361211D01*
X106711211Y-54502652D01*
X106711208Y-54502656D01*
X106600078Y-54668973D01*
X106600071Y-54668986D01*
X106523526Y-54853784D01*
X106523523Y-54853796D01*
X106484500Y-55049977D01*
X100000000Y-55049977D01*
X100000000Y-52500987D01*
X100000017Y-52498961D01*
X100000064Y-52496083D01*
X100002559Y-52343416D01*
X100003602Y-52329283D01*
X100044346Y-52019800D01*
X100047505Y-52003915D01*
X100128032Y-51703385D01*
X100133246Y-51688028D01*
X100157622Y-51629179D01*
X100252306Y-51400592D01*
X100259473Y-51386058D01*
X100415036Y-51116615D01*
X100424038Y-51103143D01*
X100613443Y-50856305D01*
X100624124Y-50844126D01*
X100844126Y-50624124D01*
X100856305Y-50613443D01*
X101103143Y-50424038D01*
X101116615Y-50415036D01*
X101386058Y-50259473D01*
X101400592Y-50252306D01*
X101688030Y-50133245D01*
X101703387Y-50128032D01*
X102003915Y-50047505D01*
X102019800Y-50044346D01*
X102329283Y-50003602D01*
X102343416Y-50002559D01*
X102496083Y-50000064D01*
X102498961Y-50000017D01*
X102500987Y-50000000D01*
X197499013Y-50000000D01*
X197501039Y-50000017D01*
G37*
G04 #@! TD.AperFunction*
G04 #@! TA.AperFunction,Conductor*
G36*
X153943039Y-52520185D02*
G01*
X153988794Y-52572989D01*
X154000000Y-52624500D01*
X154000000Y-56876000D01*
X153980315Y-56943039D01*
X153927511Y-56988794D01*
X153876000Y-57000000D01*
X151994903Y-57000000D01*
X151927864Y-56980315D01*
X151882109Y-56927511D01*
X151872165Y-56858353D01*
X151901190Y-56794797D01*
X151959968Y-56757023D01*
X151976421Y-56753385D01*
X152096084Y-56735347D01*
X152096090Y-56735346D01*
X152350299Y-56656933D01*
X152589984Y-56541507D01*
X152767159Y-56420711D01*
X152043159Y-55696712D01*
X152067100Y-55686796D01*
X152194034Y-55601982D01*
X152301982Y-55494034D01*
X152386796Y-55367100D01*
X152396712Y-55343160D01*
X153119913Y-56066361D01*
X153119913Y-56066360D01*
X153170688Y-56002693D01*
X153303703Y-55772303D01*
X153400895Y-55524662D01*
X153400901Y-55524643D01*
X153460096Y-55265292D01*
X153460096Y-55265290D01*
X153479977Y-55000004D01*
X153479977Y-54999995D01*
X153460096Y-54734709D01*
X153460096Y-54734707D01*
X153400901Y-54475356D01*
X153400895Y-54475337D01*
X153303703Y-54227696D01*
X153170686Y-53997304D01*
X153119913Y-53933637D01*
X152396711Y-54656839D01*
X152386796Y-54632900D01*
X152301982Y-54505966D01*
X152194034Y-54398018D01*
X152067100Y-54313204D01*
X152043158Y-54303287D01*
X152767159Y-53579287D01*
X152589989Y-53458495D01*
X152589985Y-53458493D01*
X152350299Y-53343066D01*
X152096090Y-53264653D01*
X152096084Y-53264652D01*
X151833023Y-53225000D01*
X151566976Y-53225000D01*
X151303915Y-53264652D01*
X151303909Y-53264653D01*
X151049699Y-53343067D01*
X151049695Y-53343068D01*
X150810012Y-53458494D01*
X150810004Y-53458499D01*
X150632840Y-53579286D01*
X151356841Y-54303287D01*
X151332900Y-54313204D01*
X151205966Y-54398018D01*
X151098018Y-54505966D01*
X151013204Y-54632900D01*
X151003287Y-54656840D01*
X150280084Y-53933637D01*
X150229316Y-53997299D01*
X150096296Y-54227696D01*
X149999104Y-54475337D01*
X149999098Y-54475356D01*
X149939903Y-54734707D01*
X149939903Y-54734709D01*
X149920023Y-54999995D01*
X149920023Y-55000004D01*
X149939903Y-55265290D01*
X149939903Y-55265292D01*
X149999098Y-55524643D01*
X149999104Y-55524662D01*
X150096296Y-55772303D01*
X150229313Y-56002695D01*
X150229320Y-56002706D01*
X150280084Y-56066360D01*
X150280085Y-56066361D01*
X151003287Y-55343159D01*
X151013204Y-55367100D01*
X151098018Y-55494034D01*
X151205966Y-55601982D01*
X151332900Y-55686796D01*
X151356839Y-55696712D01*
X150632839Y-56420711D01*
X150810011Y-56541504D01*
X150810015Y-56541506D01*
X151049695Y-56656931D01*
X151049699Y-56656932D01*
X151303909Y-56735346D01*
X151303915Y-56735347D01*
X151423579Y-56753385D01*
X151486936Y-56782842D01*
X151524309Y-56841876D01*
X151523834Y-56911744D01*
X151485660Y-56970263D01*
X151421908Y-56998855D01*
X151405097Y-57000000D01*
X149624000Y-57000000D01*
X149556961Y-56980315D01*
X149511206Y-56927511D01*
X149500000Y-56876000D01*
X149500000Y-53512730D01*
X149519685Y-53445691D01*
X149536319Y-53425049D01*
X150424549Y-52536819D01*
X150485872Y-52503334D01*
X150512230Y-52500500D01*
X153876000Y-52500500D01*
X153943039Y-52520185D01*
G37*
G04 #@! TD.AperFunction*
G04 #@! TA.AperFunction,Conductor*
G36*
X149106309Y-51519685D02*
G01*
X149152064Y-51572489D01*
X149162008Y-51641647D01*
X149132983Y-51705203D01*
X149126951Y-51711681D01*
X148374951Y-52463681D01*
X148313628Y-52497166D01*
X148287270Y-52500000D01*
X140250000Y-52500000D01*
X139000000Y-52500000D01*
X139000000Y-51624000D01*
X139019685Y-51556961D01*
X139072489Y-51511206D01*
X139124000Y-51500000D01*
X149039270Y-51500000D01*
X149106309Y-51519685D01*
G37*
G04 #@! TD.AperFunction*
G04 #@! TA.AperFunction,Conductor*
G36*
X136750000Y-56835154D02*
G01*
X136796063Y-56825993D01*
X136796066Y-56825992D01*
X136828547Y-56812539D01*
X136898017Y-56805070D01*
X136960496Y-56836345D01*
X136996148Y-56896434D01*
X137000000Y-56927100D01*
X137000000Y-57500000D01*
X135750000Y-57500000D01*
X135750000Y-60500000D01*
X137000000Y-60513586D01*
X137000000Y-60876000D01*
X136980315Y-60943039D01*
X136927511Y-60988794D01*
X136876000Y-61000000D01*
X111124000Y-61000000D01*
X111056961Y-60980315D01*
X111011206Y-60927511D01*
X111000000Y-60876000D01*
X111000000Y-56803521D01*
X111019685Y-56736482D01*
X111055105Y-56700422D01*
X111147344Y-56638791D01*
X111162671Y-56623463D01*
X111223989Y-56589978D01*
X111293681Y-56594959D01*
X111338034Y-56623462D01*
X111352971Y-56638399D01*
X111352975Y-56638402D01*
X111519210Y-56749477D01*
X111519223Y-56749484D01*
X111703929Y-56825991D01*
X111703936Y-56825993D01*
X111750000Y-56835155D01*
X111750000Y-55766189D01*
X111775884Y-55792073D01*
X111859115Y-55840126D01*
X111951947Y-55865000D01*
X112048053Y-55865000D01*
X112140885Y-55840126D01*
X112224116Y-55792073D01*
X112250000Y-55766189D01*
X112250000Y-56835154D01*
X112296063Y-56825993D01*
X112296070Y-56825991D01*
X112480776Y-56749484D01*
X112480789Y-56749477D01*
X112647023Y-56638403D01*
X112661962Y-56623464D01*
X112723285Y-56589977D01*
X112792977Y-56594960D01*
X112837329Y-56623464D01*
X112852653Y-56638789D01*
X112852656Y-56638791D01*
X113018973Y-56749921D01*
X113018986Y-56749928D01*
X113202623Y-56825992D01*
X113203789Y-56826475D01*
X113347190Y-56854999D01*
X113399977Y-56865499D01*
X113399981Y-56865500D01*
X113399982Y-56865500D01*
X113600019Y-56865500D01*
X113600020Y-56865499D01*
X113796211Y-56826475D01*
X113981020Y-56749925D01*
X114147344Y-56638791D01*
X114162318Y-56623816D01*
X114223639Y-56590331D01*
X114293331Y-56595314D01*
X114337681Y-56623816D01*
X114352264Y-56638399D01*
X114352657Y-56638792D01*
X114518973Y-56749921D01*
X114518986Y-56749928D01*
X114702623Y-56825992D01*
X114703789Y-56826475D01*
X114847190Y-56854999D01*
X114899977Y-56865499D01*
X114899981Y-56865500D01*
X114899982Y-56865500D01*
X115100019Y-56865500D01*
X115100020Y-56865499D01*
X115296211Y-56826475D01*
X115481020Y-56749925D01*
X115647344Y-56638791D01*
X115662671Y-56623463D01*
X115723989Y-56589978D01*
X115793681Y-56594959D01*
X115838034Y-56623462D01*
X115852971Y-56638399D01*
X115852975Y-56638402D01*
X116019210Y-56749477D01*
X116019223Y-56749484D01*
X116203929Y-56825991D01*
X116203936Y-56825993D01*
X116250000Y-56835155D01*
X116250000Y-55766189D01*
X116275884Y-55792073D01*
X116359115Y-55840126D01*
X116451947Y-55865000D01*
X116548053Y-55865000D01*
X116640885Y-55840126D01*
X116724116Y-55792073D01*
X116750000Y-55766189D01*
X116750000Y-56835154D01*
X116796063Y-56825993D01*
X116796066Y-56825992D01*
X116828547Y-56812539D01*
X116898017Y-56805070D01*
X116960496Y-56836345D01*
X116996148Y-56896434D01*
X117000000Y-56927100D01*
X117000000Y-57000000D01*
X131500000Y-57000000D01*
X131500000Y-56927100D01*
X131519685Y-56860061D01*
X131572489Y-56814306D01*
X131641647Y-56804362D01*
X131671453Y-56812539D01*
X131703933Y-56825992D01*
X131703936Y-56825993D01*
X131750000Y-56835155D01*
X131750000Y-55766189D01*
X131775884Y-55792073D01*
X131859115Y-55840126D01*
X131951947Y-55865000D01*
X132048053Y-55865000D01*
X132140885Y-55840126D01*
X132224116Y-55792073D01*
X132250000Y-55766189D01*
X132250000Y-56835154D01*
X132296063Y-56825993D01*
X132296066Y-56825992D01*
X132328547Y-56812539D01*
X132398017Y-56805070D01*
X132460496Y-56836345D01*
X132496148Y-56896434D01*
X132500000Y-56927100D01*
X132500000Y-57000000D01*
X135500000Y-57000000D01*
X135500000Y-56803521D01*
X135519685Y-56736482D01*
X135555105Y-56700422D01*
X135647344Y-56638791D01*
X135662671Y-56623463D01*
X135723989Y-56589978D01*
X135793681Y-56594959D01*
X135838034Y-56623462D01*
X135852971Y-56638399D01*
X135852975Y-56638402D01*
X136019210Y-56749477D01*
X136019223Y-56749484D01*
X136203929Y-56825991D01*
X136203936Y-56825993D01*
X136250000Y-56835155D01*
X136250000Y-55766189D01*
X136275884Y-55792073D01*
X136359115Y-55840126D01*
X136451947Y-55865000D01*
X136548053Y-55865000D01*
X136640885Y-55840126D01*
X136724116Y-55792073D01*
X136750000Y-55766189D01*
X136750000Y-56835154D01*
G37*
G04 #@! TD.AperFunction*
G04 #@! TA.AperFunction,Conductor*
G36*
X139000000Y-52500000D02*
G01*
X140250000Y-52500000D01*
X140250000Y-54198415D01*
X140230315Y-54265454D01*
X140177511Y-54311209D01*
X140108353Y-54321153D01*
X140057110Y-54301518D01*
X139980787Y-54250521D01*
X139980780Y-54250517D01*
X139796065Y-54174006D01*
X139796057Y-54174004D01*
X139750000Y-54164842D01*
X139750000Y-55233811D01*
X139724116Y-55207927D01*
X139640885Y-55159874D01*
X139548053Y-55135000D01*
X139451947Y-55135000D01*
X139359115Y-55159874D01*
X139275884Y-55207927D01*
X139250000Y-55233811D01*
X139250000Y-54164843D01*
X139249999Y-54164842D01*
X139203942Y-54174004D01*
X139203934Y-54174006D01*
X139019219Y-54250517D01*
X139019212Y-54250521D01*
X138942890Y-54301518D01*
X138876213Y-54322395D01*
X138808832Y-54303910D01*
X138762143Y-54251931D01*
X138750000Y-54198415D01*
X138750000Y-53500000D01*
X129750000Y-53500000D01*
X129750000Y-54198415D01*
X129730315Y-54265454D01*
X129677511Y-54311209D01*
X129608353Y-54321153D01*
X129557110Y-54301518D01*
X129480787Y-54250521D01*
X129480780Y-54250517D01*
X129296065Y-54174006D01*
X129296057Y-54174004D01*
X129250000Y-54164842D01*
X129250000Y-55233811D01*
X129224116Y-55207927D01*
X129140885Y-55159874D01*
X129048053Y-55135000D01*
X128951947Y-55135000D01*
X128859115Y-55159874D01*
X128775884Y-55207927D01*
X128750000Y-55233811D01*
X128750000Y-54164843D01*
X128749999Y-54164842D01*
X128703942Y-54174004D01*
X128703934Y-54174006D01*
X128519219Y-54250517D01*
X128519212Y-54250521D01*
X128442890Y-54301518D01*
X128376213Y-54322395D01*
X128308832Y-54303910D01*
X128262143Y-54251931D01*
X128250000Y-54198415D01*
X128250000Y-53500000D01*
X120000000Y-53500000D01*
X120000000Y-54072899D01*
X119980315Y-54139938D01*
X119927511Y-54185693D01*
X119858353Y-54195637D01*
X119828549Y-54187461D01*
X119796064Y-54174006D01*
X119796057Y-54174004D01*
X119750000Y-54164842D01*
X119750000Y-55233811D01*
X119724116Y-55207927D01*
X119640885Y-55159874D01*
X119548053Y-55135000D01*
X119451947Y-55135000D01*
X119359115Y-55159874D01*
X119275884Y-55207927D01*
X119250000Y-55233811D01*
X119250000Y-54164843D01*
X119249999Y-54164842D01*
X119203942Y-54174004D01*
X119203935Y-54174006D01*
X119171451Y-54187461D01*
X119101982Y-54194928D01*
X119039503Y-54163653D01*
X119003851Y-54103563D01*
X119000000Y-54072899D01*
X119000000Y-53500000D01*
X109500000Y-53500000D01*
X109500000Y-54072899D01*
X109480315Y-54139938D01*
X109427511Y-54185693D01*
X109358353Y-54195637D01*
X109328549Y-54187461D01*
X109296064Y-54174006D01*
X109296057Y-54174004D01*
X109250000Y-54164842D01*
X109250000Y-55233811D01*
X109224116Y-55207927D01*
X109140885Y-55159874D01*
X109048053Y-55135000D01*
X108951947Y-55135000D01*
X108859115Y-55159874D01*
X108775884Y-55207927D01*
X108750000Y-55233811D01*
X108750000Y-54164843D01*
X108749999Y-54164842D01*
X108703942Y-54174004D01*
X108703935Y-54174006D01*
X108671451Y-54187461D01*
X108601982Y-54194928D01*
X108539503Y-54163653D01*
X108503851Y-54103563D01*
X108500000Y-54072899D01*
X108500000Y-52124000D01*
X108519685Y-52056961D01*
X108572489Y-52011206D01*
X108624000Y-52000000D01*
X139000000Y-52000000D01*
X139000000Y-52500000D01*
G37*
G04 #@! TD.AperFunction*
G04 #@! TA.AperFunction,Conductor*
G36*
X158693039Y-52520185D02*
G01*
X158738794Y-52572989D01*
X158750000Y-52624500D01*
X158750000Y-56437269D01*
X158730315Y-56504308D01*
X158713681Y-56524950D01*
X154571331Y-60667299D01*
X154510008Y-60700784D01*
X154482302Y-60703611D01*
X147773152Y-60630685D01*
X147706331Y-60610273D01*
X147661152Y-60556974D01*
X147650500Y-60506692D01*
X147650500Y-57624000D01*
X147670185Y-57556961D01*
X147722989Y-57511206D01*
X147774500Y-57500000D01*
X154500000Y-57500000D01*
X154500000Y-55314736D01*
X154519685Y-55247697D01*
X154572489Y-55201942D01*
X154641647Y-55191998D01*
X154705203Y-55221023D01*
X154742977Y-55279801D01*
X154744891Y-55287144D01*
X154799098Y-55524643D01*
X154799104Y-55524662D01*
X154896296Y-55772303D01*
X155029313Y-56002695D01*
X155029320Y-56002706D01*
X155080084Y-56066360D01*
X155080085Y-56066361D01*
X155803287Y-55343159D01*
X155813204Y-55367100D01*
X155898018Y-55494034D01*
X156005966Y-55601982D01*
X156132900Y-55686796D01*
X156156839Y-55696712D01*
X155432839Y-56420711D01*
X155610011Y-56541504D01*
X155610015Y-56541506D01*
X155849695Y-56656931D01*
X155849699Y-56656932D01*
X156103909Y-56735346D01*
X156103915Y-56735347D01*
X156366976Y-56774999D01*
X156366983Y-56775000D01*
X156633017Y-56775000D01*
X156633023Y-56774999D01*
X156896084Y-56735347D01*
X156896090Y-56735346D01*
X157150299Y-56656933D01*
X157389984Y-56541507D01*
X157567159Y-56420711D01*
X156843159Y-55696712D01*
X156867100Y-55686796D01*
X156994034Y-55601982D01*
X157101982Y-55494034D01*
X157186796Y-55367100D01*
X157196712Y-55343160D01*
X157919913Y-56066361D01*
X157919913Y-56066360D01*
X157970688Y-56002693D01*
X158103703Y-55772303D01*
X158200895Y-55524662D01*
X158200901Y-55524643D01*
X158260096Y-55265292D01*
X158260096Y-55265290D01*
X158279977Y-55000004D01*
X158279977Y-54999995D01*
X158260096Y-54734709D01*
X158260096Y-54734707D01*
X158200901Y-54475356D01*
X158200895Y-54475337D01*
X158103703Y-54227696D01*
X157970686Y-53997304D01*
X157919913Y-53933637D01*
X157196711Y-54656839D01*
X157186796Y-54632900D01*
X157101982Y-54505966D01*
X156994034Y-54398018D01*
X156867100Y-54313204D01*
X156843158Y-54303287D01*
X157567159Y-53579287D01*
X157389989Y-53458495D01*
X157389985Y-53458493D01*
X157150299Y-53343066D01*
X156896090Y-53264653D01*
X156896084Y-53264652D01*
X156633023Y-53225000D01*
X156366976Y-53225000D01*
X156103915Y-53264652D01*
X156103909Y-53264653D01*
X155849699Y-53343067D01*
X155849695Y-53343068D01*
X155610012Y-53458494D01*
X155610004Y-53458499D01*
X155432840Y-53579286D01*
X156156841Y-54303287D01*
X156132900Y-54313204D01*
X156005966Y-54398018D01*
X155898018Y-54505966D01*
X155813204Y-54632900D01*
X155803287Y-54656840D01*
X155080084Y-53933637D01*
X155029316Y-53997299D01*
X154896296Y-54227696D01*
X154799104Y-54475337D01*
X154799099Y-54475354D01*
X154744891Y-54712856D01*
X154710782Y-54773834D01*
X154649121Y-54806692D01*
X154579484Y-54800997D01*
X154523980Y-54758557D01*
X154500232Y-54692847D01*
X154500000Y-54685263D01*
X154500000Y-52624500D01*
X154519685Y-52557461D01*
X154572489Y-52511706D01*
X154624000Y-52500500D01*
X158626000Y-52500500D01*
X158693039Y-52520185D01*
G37*
G04 #@! TD.AperFunction*
G04 #@! TA.AperFunction,Conductor*
G36*
X146092539Y-57519685D02*
G01*
X146138294Y-57572489D01*
X146149500Y-57624000D01*
X146149500Y-60487681D01*
X146129815Y-60554720D01*
X146077011Y-60600475D01*
X146024152Y-60611674D01*
X137000000Y-60513586D01*
X135750000Y-60500000D01*
X135750000Y-57500000D01*
X137000000Y-57500000D01*
X146025500Y-57500000D01*
X146092539Y-57519685D01*
G37*
G04 #@! TD.AperFunction*
M02*
