M48
; DRILL file {KiCad 8.0.7} date 2025-01-07T02:17:37-0800
; FORMAT={-:-/ absolute / metric / decimal}
; #@! TF.CreationDate,2025-01-07T02:17:37-08:00
; #@! TF.GenerationSoftware,Kicad,Pcbnew,8.0.7
; #@! TF.FileFunction,Plated,1,4,PTH
FMAT,2
METRIC
; #@! TA.AperFunction,Plated,PTH,ViaDrill
T1C0.400
; #@! TA.AperFunction,Plated,PTH,ComponentDrill
T2C0.730
; #@! TA.AperFunction,Plated,PTH,ComponentDrill
T3C0.800
; #@! TA.AperFunction,Plated,PTH,ComponentDrill
T4C1.000
; #@! TA.AperFunction,Plated,PTH,ComponentDrill
T5C1.550
%
G90
G05
T1
X121.75Y-147.5
X122.25Y-122.75
X130.25Y-147.5
X153.75Y-147.5
X162.25Y-147.5
X169.75Y-147.5
X178.25Y-147.45
T2
X107.5Y-55.5
X109.0Y-55.5
X110.5Y-55.5
X112.0Y-55.5
X113.5Y-55.5
X115.0Y-55.5
X116.5Y-55.5
X118.0Y-55.5
X119.5Y-55.5
X121.0Y-55.5
X127.5Y-55.5
X129.0Y-55.5
X130.5Y-55.5
X132.0Y-55.5
X133.5Y-55.5
X135.0Y-55.5
X136.5Y-55.5
X138.0Y-55.5
X139.5Y-55.5
X141.0Y-55.5
T3
X112.0Y-140.0
X112.0Y-142.98
X117.0Y-140.0
X117.0Y-142.98
X117.26Y-129.44
X119.7Y-132.7
X119.7Y-135.24
X119.7Y-137.78
X119.7Y-140.32
X119.82Y-118.24
X122.36Y-118.24
X124.9Y-118.24
X127.32Y-132.7
X127.32Y-135.24
X127.32Y-137.78
X127.32Y-140.32
X127.42Y-129.44
X130.62Y-130.14
X130.62Y-135.14
X133.42Y-130.14
X133.42Y-135.14
X150.46Y-113.5
X152.88Y-137.0
X153.0Y-113.5
X155.54Y-113.5
X155.54Y-118.0
X155.92Y-103.0
X158.04Y-127.5
X158.04Y-133.5
X158.14Y-130.58
X158.54Y-122.5
X159.42Y-112.0
X161.0Y-106.25
X161.08Y-122.5
X163.04Y-127.5
X163.04Y-133.5
X163.04Y-137.0
X163.14Y-130.58
X163.62Y-122.5
X165.7Y-118.0
X166.0Y-106.25
X166.08Y-103.0
X168.04Y-127.5
X168.04Y-130.5
X168.42Y-115.5
X168.42Y-118.04
X168.42Y-120.58
X168.42Y-123.12
X168.92Y-135.5
X169.58Y-112.0
X173.04Y-127.5
X173.04Y-130.5
X176.04Y-115.5
X176.04Y-118.04
X176.04Y-120.58
X176.04Y-123.12
X179.08Y-135.5
X179.24Y-109.82
X179.24Y-114.82
X179.54Y-121.42
X179.54Y-131.58
X182.24Y-109.82
X182.24Y-114.82
X183.5Y-121.42
X183.5Y-131.58
T4
X117.32Y-122.94
X117.32Y-125.48
X127.42Y-122.84
X127.42Y-125.38
X133.74Y-139.24
X136.28Y-139.24
X138.82Y-139.24
T5
X146.9Y-55.0
X151.7Y-55.0
X156.5Y-55.0
X161.3Y-55.0
X166.1Y-55.0
M30
